M48
;Layer_Color=9474304
;FILE_FORMAT=4:3
METRIC,LZ
;TYPE=PLATED
T01F00S00C0.300
T02F00S00C0.310
T03F00S00C0.500
T04F00S00C0.800
T05F00S00C0.890
T06F00S00C1.016
T07F00S00C1.020
T08F00S00C1.100
T09F00S00C1.600
T10F00S00C1.750
T11F00S00C2.000
;TYPE=NON_PLATED
T12F00S00C0.650
T13F00S00C3.250
%
T01
X0010668Y0039668
X0039878Y0044577
X0037592Y0045212
X0035687Y0046609
X003429Y0051689
X0030273Y0049395
X0028956Y0048895
X0022606Y0050546
X0022987Y0053594
X0017653Y0051562
X0013843Y0043942
T02
X0002413Y0016256
X0002159Y0024384
X0001905Y002794
X0002159Y0029464
X0003683Y0029337
X000508Y0029845
X0007112
X0009017Y0029337
X0010414Y0029845
X001143Y0032512
X0011938Y0036195
X0010668
X000889Y0035814
X0007874Y0035433
X0002413Y003556
X0001397Y0037465
X0015875Y0037338
X0033401Y0037719
X0036449Y0019939
X001397Y0018161
X0041656Y001778
X0044577Y0016764
X004826Y0020955
X0050546
X0054737Y0019812
X0056388Y001778
X0057277Y0022606
X0058928Y0022098
X0057912Y0025654
X0060198Y0025781
X0053594Y0023749
X0054356Y0029337
X0053086Y0037084
X0051816Y0036957
X0054737Y0038989
X0044831Y00381
X0042799Y0038735
X0044958Y0026924
X0045593Y0023876
X004191Y0022098
X0041275Y0043307
X0042799
X0045212Y0041148
X0048006Y0044069
X0048768Y0045466
X0050927Y0048641
X0053594Y0051054
X0053467Y0052197
X0054483Y0051816
X0055463Y0051526
X0055839Y0050262
X0055734Y0049022
X0056769Y0047879
X0057023Y004572
X0055626Y0046228
X0053721Y0041275
X0051816Y0040894
X0053217Y0055249
X0052578Y0056134
X0051308Y0058928
X0050673Y0060198
X0049784Y0063754
X0049657Y0065405
X0047498Y0067183
X0046863Y0067945
X0043561Y0068707
X0042418Y0063373
X0043053Y0053086
X0043942Y0051816
X0045212Y0051181
X0046355Y0052959
Y0054102
X0044958
X0041656Y0047117
X0040132Y004572
X005842Y0053594
X0061087Y0057888
X0056261Y0058928
X0052578Y0068834
X0062992Y0049911
X0039116Y0051308
X0036068Y0049276
X0036957Y0046863
X0038227Y0046609
X0033655Y0047752
X0031496Y0047498
X0030988Y0050038
X0030099Y0051562
X0027686Y0051181
X0026162Y0052705
X0024257Y0051562
X0022479Y0051943
X0018923Y005207
X0019304Y005334
X0019812Y0048768
X0019558Y0047371
Y0046355
X0019607Y0045146
X0018542Y0044577
X0018288Y0048895
X0016129Y0047244
X0016891Y0040132
X0015367
X001397
X0009906Y0040894
X0009144Y0042799
X0009906Y0044323
X0023374Y0044456
X002413Y004445
X0023114Y0040767
X0021971
X0027686Y004191
X0031496Y0041148
X0034544Y0044323
X0028194Y0048006
X0034163Y0054483
X0035306Y0055118
X0030988Y0063111
T03
X0062611Y0051816
T04
X0056198Y0063667
X0058198
X0060198
Y0066167
X0058198
X0056198
T05
X0020215Y0032316
X0022755
X0025295
X0027835
X0029105Y0034856
X0026565
X0024025
X0021485
T06
X0005588Y0034036
Y0036576
Y0039116
X0058801Y0038862
Y0036322
Y0033782
Y0031242
X0062103Y0030226
Y0027686
Y0025146
Y0022606
Y0020066
Y0032766
Y0035306
Y0037846
Y0040386
X0058801Y0041402
Y0043942
Y0046482
Y0049022
Y0051562
X0005588Y0051816
Y0049276
Y0046736
Y0044196
Y0041656
X0002495Y0044323
Y0046863
Y0049403
Y0051943
Y0054483
Y0057023
Y0059563
Y0062103
Y0064643
X0005588Y0054356
T07
X001803Y0021906
X002057
X002875
X003129
T08
X0041275Y0035941
X0043815
X0046355
X0042501Y0065151
X0039961
X0037421
X0034881
X0032341
X0029801
X0027261
X0024721
T09
X0016915Y0029016
X0032405
T10
X0054098Y0064917
X0062298Y0064917
T11
X0062865Y001651
X0058674Y0027559
X0001524Y0068326
T12
X0046767Y0021746
X0052547
T13
X0018945Y0025966
X0030375
M30
