G04*
G04 #@! TF.GenerationSoftware,Altium Limited,Altium Designer,24.4.1 (13)*
G04*
G04 Layer_Color=128*
%FSLAX44Y44*%
%MOMM*%
G71*
G04*
G04 #@! TF.SameCoordinates,A3252435-666A-4F3B-8FA1-24D8921DAC19*
G04*
G04*
G04 #@! TF.FilePolarity,Positive*
G04*
G01*
G75*
%ADD166C,0.1270*%
D166*
X532230Y649170D02*
X549730D01*
X540980Y640420D02*
Y657920D01*
X614230Y649170D02*
X631730D01*
X622980Y640420D02*
Y657920D01*
X557980Y636670D02*
X565980D01*
X561980Y632670D02*
Y640670D01*
X577980Y636670D02*
X585980D01*
X581980Y632670D02*
Y640670D01*
X597980Y636670D02*
X605980D01*
X601980Y632670D02*
Y640670D01*
X557980Y661670D02*
X565980D01*
X561980Y657670D02*
Y665670D01*
X577980Y661670D02*
X585980D01*
X581980Y657670D02*
Y665670D01*
X597980Y661670D02*
X605980D01*
X601980Y657670D02*
Y665670D01*
X582930Y312420D02*
X593090D01*
X588010Y307340D02*
Y317500D01*
X582930Y337820D02*
X593090D01*
X588010Y332740D02*
Y342900D01*
X582930Y363220D02*
X593090D01*
X588010Y358140D02*
Y368300D01*
X582930Y388620D02*
X593090D01*
X588010Y383540D02*
Y393700D01*
X582930Y414020D02*
X593090D01*
X588010Y408940D02*
Y419100D01*
X582930Y439420D02*
X593090D01*
X588010Y434340D02*
Y444500D01*
X582930Y464820D02*
X593090D01*
X588010Y459740D02*
Y469900D01*
X582930Y490220D02*
X593090D01*
X588010Y485140D02*
Y495300D01*
X582930Y515620D02*
X593090D01*
X588010Y510540D02*
Y520700D01*
X464420Y217460D02*
X470920D01*
X467670Y214210D02*
Y220710D01*
X522220Y217460D02*
X528720D01*
X525470Y214210D02*
Y220710D01*
X316046Y290165D02*
X332046D01*
X324046Y282165D02*
Y298165D01*
X287496Y259665D02*
X319996D01*
X303746Y243415D02*
Y275915D01*
X173196Y259665D02*
X205696D01*
X189446Y243415D02*
Y275915D01*
X161146Y290165D02*
X177146D01*
X169146Y282165D02*
Y298165D01*
X307796Y219065D02*
X317996D01*
X312896Y213965D02*
Y224165D01*
X282396Y219065D02*
X292596D01*
X287496Y213965D02*
Y224165D01*
X200596Y219065D02*
X210796D01*
X205696Y213965D02*
Y224165D01*
X175196Y219065D02*
X185396D01*
X180296Y213965D02*
Y224165D01*
X286596Y348565D02*
X295496D01*
X291046Y344115D02*
Y353015D01*
X273896Y323165D02*
X282796D01*
X278346Y318715D02*
Y327615D01*
X261196Y348565D02*
X270096D01*
X265646Y344115D02*
Y353015D01*
X248496Y323165D02*
X257396D01*
X252946Y318715D02*
Y327615D01*
X235796Y348565D02*
X244696D01*
X240246Y344115D02*
Y353015D01*
X223096Y323165D02*
X231996D01*
X227546Y318715D02*
Y327615D01*
X210396Y348565D02*
X219296D01*
X214846Y344115D02*
Y353015D01*
X197696Y323165D02*
X206596D01*
X202146Y318715D02*
Y327615D01*
X50800Y340360D02*
X60960D01*
X55880Y335280D02*
Y345440D01*
X50800Y365760D02*
X60960D01*
X55880Y360680D02*
Y370840D01*
X50800Y391160D02*
X60960D01*
X55880Y386080D02*
Y396240D01*
X50800Y416560D02*
X60960D01*
X55880Y411480D02*
Y421640D01*
X50800Y441960D02*
X60960D01*
X55880Y436880D02*
Y447040D01*
X50800Y467360D02*
X60960D01*
X55880Y462280D02*
Y472440D01*
X50800Y492760D02*
X60960D01*
X55880Y487680D02*
Y497840D01*
X50800Y518160D02*
X60960D01*
X55880Y513080D02*
Y523240D01*
X50800Y543560D02*
X60960D01*
X55880Y538480D02*
Y548640D01*
X5240Y683260D02*
X25240D01*
X15240Y673260D02*
Y693260D01*
X419510Y651510D02*
X430510D01*
X425010Y646010D02*
Y657010D01*
X394110Y651510D02*
X405110D01*
X399610Y646010D02*
Y657010D01*
X368710Y651510D02*
X379710D01*
X374210Y646010D02*
Y657010D01*
X343310Y651510D02*
X354310D01*
X348810Y646010D02*
Y657010D01*
X317910Y651510D02*
X328910D01*
X323410Y646010D02*
Y657010D01*
X292510Y651510D02*
X303510D01*
X298010Y646010D02*
Y657010D01*
X267110Y651510D02*
X278110D01*
X272610Y646010D02*
Y657010D01*
X241710Y651510D02*
X252710D01*
X247210Y646010D02*
Y657010D01*
X19873Y443228D02*
X30033D01*
X24953Y438148D02*
Y448308D01*
X19873Y468628D02*
X30033D01*
X24953Y463548D02*
Y473708D01*
X19873Y494028D02*
X30033D01*
X24953Y488948D02*
Y499108D01*
X19873Y519428D02*
X30033D01*
X24953Y514348D02*
Y524508D01*
X19873Y544828D02*
X30033D01*
X24953Y539748D02*
Y549908D01*
X19873Y570228D02*
X30033D01*
X24953Y565148D02*
Y575308D01*
X19873Y595628D02*
X30033D01*
X24953Y590548D02*
Y600708D01*
X19873Y621028D02*
X30033D01*
X24953Y615948D02*
Y626108D01*
X19873Y646428D02*
X30033D01*
X24953Y641348D02*
Y651508D01*
X618650Y165100D02*
X638650D01*
X628650Y155100D02*
Y175100D01*
X576740Y275590D02*
X596740D01*
X586740Y265590D02*
Y285590D01*
X458050Y359410D02*
X469050D01*
X463550Y353910D02*
Y364910D01*
X432650Y359410D02*
X443650D01*
X438150Y353910D02*
Y364910D01*
X407250Y359410D02*
X418250D01*
X412750Y353910D02*
Y364910D01*
X615950Y200660D02*
X626110D01*
X621030Y195580D02*
Y205740D01*
X615950Y226060D02*
X626110D01*
X621030Y220980D02*
Y231140D01*
X615950Y251460D02*
X626110D01*
X621030Y246380D02*
Y256540D01*
X615950Y276860D02*
X626110D01*
X621030Y271780D02*
Y281940D01*
X615950Y302260D02*
X626110D01*
X621030Y297180D02*
Y307340D01*
X615950Y327660D02*
X626110D01*
X621030Y322580D02*
Y332740D01*
X615950Y353060D02*
X626110D01*
X621030Y347980D02*
Y358140D01*
X615950Y378460D02*
X626110D01*
X621030Y373380D02*
Y383540D01*
X615950Y403860D02*
X626110D01*
X621030Y398780D02*
Y408940D01*
X473430Y671830D02*
X476530D01*
X474980Y670280D02*
Y673380D01*
X467080Y679450D02*
X470180D01*
X468630Y677900D02*
Y681000D01*
X561060Y589280D02*
X564160D01*
X562610Y587730D02*
Y590830D01*
X609320Y578880D02*
X612420D01*
X610870Y577330D02*
Y580430D01*
X496290Y637540D02*
X499390D01*
X497840Y635990D02*
Y639090D01*
X434060Y687070D02*
X437160D01*
X435610Y685520D02*
Y688620D01*
X495020Y654050D02*
X498120D01*
X496570Y652500D02*
Y655600D01*
X524230Y688340D02*
X527330D01*
X525780Y686790D02*
Y689890D01*
X582650Y535940D02*
X585750D01*
X584200Y534390D02*
Y537490D01*
X511530Y589280D02*
X514630D01*
X513080Y587730D02*
Y590830D01*
X505180Y601980D02*
X508280D01*
X506730Y600430D02*
Y603530D01*
X102590Y298450D02*
X105690D01*
X104140Y296900D02*
Y300000D01*
X88620Y293370D02*
X91720D01*
X90170Y291820D02*
Y294920D01*
X35280Y293370D02*
X38380D01*
X36830Y291820D02*
Y294920D01*
X112750Y325120D02*
X115850D01*
X114300Y323570D02*
Y326670D01*
X69570Y298450D02*
X72670D01*
X71120Y296900D02*
Y300000D01*
X20040Y243840D02*
X23140D01*
X21590Y242290D02*
Y245390D01*
X12420Y374650D02*
X15520D01*
X13970Y373100D02*
Y376200D01*
X20040Y294640D02*
X23140D01*
X21590Y293090D02*
Y296190D01*
X529310Y370840D02*
X532410D01*
X530860Y369290D02*
Y372390D01*
X543280Y518160D02*
X546380D01*
X544830Y516610D02*
Y519710D01*
X533120Y521970D02*
X536220D01*
X534670Y520420D02*
Y523520D01*
X566140Y478790D02*
X569240D01*
X567690Y477240D02*
Y480340D01*
X553079Y515260D02*
X556180D01*
X554630Y513709D02*
Y516810D01*
X568680Y457200D02*
X571780D01*
X570230Y455650D02*
Y458750D01*
X556841Y502618D02*
X559941D01*
X558391Y501068D02*
Y504168D01*
X530616Y552486D02*
X533716D01*
X532166Y550936D02*
Y554036D01*
X524230Y561340D02*
X527330D01*
X525780Y559790D02*
Y562890D01*
X507720Y486410D02*
X510820D01*
X509270Y484860D02*
Y487960D01*
X555790Y490220D02*
X558890D01*
X557340Y488670D02*
Y491770D01*
X554710Y462280D02*
X557810D01*
X556260Y460730D02*
Y463830D01*
X534390Y510540D02*
X537490D01*
X535940Y508990D02*
Y512090D01*
X545820Y389890D02*
X548920D01*
X547370Y388340D02*
Y391440D01*
X516610Y408940D02*
X519710D01*
X518160Y407390D02*
Y410490D01*
X462000Y541020D02*
X465100D01*
X463550Y539470D02*
Y542570D01*
X462000Y529590D02*
X465100D01*
X463550Y528040D02*
Y531140D01*
X486130Y454660D02*
X489230D01*
X487680Y453110D02*
Y456210D01*
X535660Y412750D02*
X538760D01*
X537210Y411200D02*
Y414300D01*
X355370Y466090D02*
X358370D01*
X356870Y464590D02*
Y467590D01*
X229590Y407670D02*
X232690D01*
X231140Y406120D02*
Y409220D01*
X239750Y444500D02*
X242850D01*
X241300Y442950D02*
Y446050D01*
X232186Y444556D02*
X235286D01*
X233736Y443006D02*
Y446106D01*
X308330Y631110D02*
X311430D01*
X309880Y629560D02*
Y632660D01*
X478510Y440690D02*
X481610D01*
X480060Y439140D02*
Y442240D01*
X280390Y480060D02*
X283490D01*
X281940Y478510D02*
Y481610D01*
X426440Y433070D02*
X429540D01*
X427990Y431520D02*
Y434620D01*
X411200Y433070D02*
X414300D01*
X412750Y431520D02*
Y434620D01*
X194030Y463550D02*
X197130D01*
X195580Y462000D02*
Y465100D01*
X194030Y473710D02*
X197130D01*
X195580Y472160D02*
Y475260D01*
X218160Y407670D02*
X221260D01*
X219710Y406120D02*
Y409220D01*
X446760Y381000D02*
X449860D01*
X448310Y379450D02*
Y382550D01*
X426440Y387350D02*
X429540D01*
X427990Y385800D02*
Y388900D01*
X600430Y257810D02*
X603530D01*
X601980Y256260D02*
Y259360D01*
X628370Y499110D02*
X631470D01*
X629920Y497560D02*
Y500660D01*
X415010Y177800D02*
X418110D01*
X416560Y176250D02*
Y179350D01*
X454380Y238760D02*
X457480D01*
X455930Y237210D02*
Y240310D01*
X534390Y237490D02*
X537490D01*
X535940Y235940D02*
Y239040D01*
X562330Y177800D02*
X565430D01*
X563880Y176250D02*
Y179350D01*
X359130Y492760D02*
X362230D01*
X360680Y491210D02*
Y494310D01*
X288060Y488950D02*
X291060D01*
X289560Y487450D02*
Y490450D01*
X194520Y451464D02*
X197620D01*
X196070Y449914D02*
Y453014D01*
X343890Y443230D02*
X346990D01*
X345440Y441680D02*
Y444780D01*
X380720Y466090D02*
X383820D01*
X382270Y464540D02*
Y467640D01*
X87350Y358140D02*
X90450D01*
X88900Y356590D02*
Y359690D01*
X17500Y279400D02*
X20600D01*
X19050Y277850D02*
Y280950D01*
X49250Y298450D02*
X52350D01*
X50800Y296900D02*
Y300000D01*
X22580Y162560D02*
X25680D01*
X24130Y161010D02*
Y164110D01*
X138150Y181610D02*
X141250D01*
X139700Y180060D02*
Y183160D01*
X577570Y256540D02*
X580670D01*
X579120Y254990D02*
Y258090D01*
X542010Y293370D02*
X545110D01*
X543560Y291820D02*
Y294920D01*
X571220Y226060D02*
X574320D01*
X572770Y224510D02*
Y227610D01*
X516610Y369570D02*
X519710D01*
X518160Y368020D02*
Y371120D01*
X448030Y269240D02*
X451130D01*
X449580Y267690D02*
Y270790D01*
X275310Y419100D02*
X278410D01*
X276860Y417550D02*
Y420650D01*
X332460Y377190D02*
X335560D01*
X334010Y375640D02*
Y378740D01*
X313410Y411480D02*
X316510D01*
X314960Y409930D02*
Y413030D01*
X450570Y511810D02*
X453670D01*
X452120Y510260D02*
Y513360D01*
X437870Y518160D02*
X440970D01*
X439420Y516610D02*
Y519710D01*
X428980Y530860D02*
X432080D01*
X430530Y529310D02*
Y532410D01*
X448030Y541020D02*
X451130D01*
X449580Y539470D02*
Y542570D01*
X340080Y544830D02*
X343180D01*
X341630Y543280D02*
Y546380D01*
X623610Y518160D02*
X628610D01*
X626110Y515660D02*
Y520660D01*
X362940Y199390D02*
X366040D01*
X364490Y197840D02*
Y200940D01*
X77190Y354330D02*
X80290D01*
X78740Y352780D02*
Y355880D01*
X22580Y355600D02*
X25680D01*
X24130Y354050D02*
Y357150D01*
X157200Y373380D02*
X160300D01*
X158750Y371830D02*
Y374930D01*
X167360Y401320D02*
X170460D01*
X168910Y399770D02*
Y402870D01*
X152120Y401320D02*
X155220D01*
X153670Y399770D02*
Y402870D01*
X138150Y401320D02*
X141250D01*
X139700Y399770D02*
Y402870D01*
X159740Y472440D02*
X162840D01*
X161290Y470890D02*
Y473990D01*
X181330Y488950D02*
X184430D01*
X182880Y487400D02*
Y490500D01*
X187680Y520700D02*
X190780D01*
X189230Y519150D02*
Y522250D01*
X175030Y515620D02*
X178030D01*
X176530Y514120D02*
Y517120D01*
X191490Y533400D02*
X194590D01*
X193040Y531850D02*
Y534950D01*
X260070Y527050D02*
X263170D01*
X261620Y525500D02*
Y528600D01*
X241020Y515620D02*
X244120D01*
X242570Y514070D02*
Y517170D01*
X275310Y511810D02*
X278410D01*
X276860Y510260D02*
Y513360D01*
X351510Y551180D02*
X354610D01*
X353060Y549630D02*
Y552730D01*
X223240Y519430D02*
X226340D01*
X224790Y517880D02*
Y520980D01*
X224560Y505460D02*
X227560D01*
X226060Y503960D02*
Y506960D01*
X368020Y468630D02*
X371120D01*
X369570Y467080D02*
Y470180D01*
X422630Y633730D02*
X425730D01*
X424180Y632180D02*
Y635280D01*
X399770Y457200D02*
X402870D01*
X401320Y455650D02*
Y458750D01*
X545820Y198120D02*
X548920D01*
X547370Y196570D02*
Y199670D01*
X444220Y167640D02*
X447320D01*
X445770Y166090D02*
Y169190D01*
X417550Y220980D02*
X420650D01*
X419100Y219430D02*
Y222530D01*
X503910Y209550D02*
X507010D01*
X505460Y208000D02*
Y211100D01*
X481050Y209550D02*
X484150D01*
X482600Y208000D02*
Y211100D01*
X587730Y220980D02*
X590830D01*
X589280Y219430D02*
Y222530D01*
X389610Y513080D02*
X392710D01*
X391160Y511530D02*
Y514630D01*
X313410Y474980D02*
X316510D01*
X314960Y473430D02*
Y476530D01*
X335000Y477520D02*
X338100D01*
X336550Y475970D02*
Y479070D01*
X341400Y516890D02*
X344400D01*
X342900Y515390D02*
Y518390D01*
X97510Y443230D02*
X100610D01*
X99060Y441680D02*
Y444780D01*
X228370Y535940D02*
X231370D01*
X229870Y534440D02*
Y537440D01*
X97510Y408940D02*
X100610D01*
X99060Y407390D02*
Y410490D01*
X89890Y427990D02*
X92990D01*
X91440Y426440D02*
Y429540D01*
X105180Y396680D02*
X108180D01*
X106680Y395180D02*
Y398180D01*
X105130Y361950D02*
X108230D01*
X106680Y360400D02*
Y363500D01*
X117830Y361950D02*
X120930D01*
X119380Y360400D02*
Y363500D01*
X183870Y445770D02*
X186970D01*
X185420Y444220D02*
Y447320D01*
X136930Y439420D02*
X139930D01*
X138430Y437920D02*
Y440920D01*
X415010Y471170D02*
X418110D01*
X416560Y469620D02*
Y472720D01*
X397280Y445770D02*
X400280D01*
X398780Y444270D02*
Y447270D01*
X374420Y452120D02*
X377420D01*
X375920Y450620D02*
Y453620D01*
X301231Y493950D02*
X304231D01*
X302731Y492450D02*
Y495450D01*
X450570Y411480D02*
X453670D01*
X452120Y409930D02*
Y413030D01*
X196570Y487680D02*
X199670D01*
X198120Y486130D02*
Y489230D01*
X308330Y500380D02*
X311430D01*
X309880Y498830D02*
Y501930D01*
X299440Y515620D02*
X302540D01*
X300990Y514070D02*
Y517170D01*
M02*
