G04*
G04 #@! TF.GenerationSoftware,Altium Limited,Altium Designer,24.4.1 (13)*
G04*
G04 Layer_Physical_Order=4*
G04 Layer_Color=16711680*
%FSLAX44Y44*%
%MOMM*%
G71*
G04*
G04 #@! TF.SameCoordinates,A3252435-666A-4F3B-8FA1-24D8921DAC19*
G04*
G04*
G04 #@! TF.FilePolarity,Positive*
G04*
G01*
G75*
%ADD12C,0.2000*%
%ADD13C,0.5000*%
%ADD24R,0.6000X0.7500*%
%ADD126C,0.1650*%
%ADD130C,0.3000*%
%ADD131C,2.6250*%
%ADD132C,1.3000*%
%ADD133R,1.3000X1.3000*%
%ADD134R,1.5240X1.5240*%
%ADD135C,1.5240*%
%ADD136C,0.3250*%
%ADD137C,2.4000*%
%ADD138C,3.2500*%
%ADD139C,1.5200*%
%ADD140C,1.3900*%
%ADD141C,2.5400*%
%ADD142C,1.6500*%
%ADD143R,1.6500X1.6500*%
%ADD144C,0.6000*%
%ADD145C,1.0000*%
%ADD160C,0.1650*%
%ADD161R,1.4000X1.3000*%
%ADD162R,0.8500X1.0000*%
%ADD163R,1.0000X0.9500*%
G36*
X646430Y148590D02*
X0D01*
Y676910D01*
X1270Y677162D01*
X1734Y676041D01*
X3402Y673545D01*
X5525Y671422D01*
X8021Y669754D01*
X10795Y668606D01*
X13739Y668020D01*
X16741D01*
X19685Y668606D01*
X22459Y669754D01*
X24955Y671422D01*
X27078Y673545D01*
X28746Y676041D01*
X29894Y678815D01*
X30480Y681759D01*
Y684761D01*
X29894Y687705D01*
X28746Y690479D01*
X27078Y692975D01*
X24955Y695098D01*
X22459Y696766D01*
X21337Y697230D01*
X21590Y698500D01*
X646430D01*
Y148590D01*
D02*
G37*
%LPC*%
G36*
X563170Y670710D02*
X560790D01*
X558491Y670094D01*
X556429Y668904D01*
X554746Y667221D01*
X553556Y665159D01*
X552940Y662860D01*
Y661160D01*
X551670Y660634D01*
X550966Y661338D01*
X548400Y663052D01*
X545549Y664233D01*
X542523Y664835D01*
X539437D01*
X536411Y664233D01*
X533560Y663052D01*
X530994Y661338D01*
X528812Y659156D01*
X527098Y656590D01*
X525917Y653739D01*
X525315Y650713D01*
Y647627D01*
X525917Y644601D01*
X527098Y641750D01*
X528812Y639184D01*
X530994Y637002D01*
X533560Y635288D01*
X536411Y634107D01*
X539437Y633505D01*
X542523D01*
X545549Y634107D01*
X548400Y635288D01*
X550966Y637002D01*
X551670Y637706D01*
X552940Y637180D01*
Y635480D01*
X553556Y633181D01*
X554746Y631119D01*
X556429Y629436D01*
X556841Y629198D01*
Y606420D01*
X557232Y604454D01*
X558346Y602786D01*
X620971Y540162D01*
Y523684D01*
X620076Y522790D01*
X619084Y521070D01*
X618570Y519153D01*
Y517167D01*
X619084Y515250D01*
X620076Y513530D01*
X621480Y512127D01*
X623200Y511134D01*
X625117Y510620D01*
X627103D01*
X629020Y511134D01*
X630740Y512127D01*
X632144Y513530D01*
X633136Y515250D01*
X633650Y517167D01*
Y519153D01*
X633136Y521070D01*
X632144Y522790D01*
X631249Y523684D01*
Y542290D01*
X630858Y544257D01*
X629744Y545924D01*
X567119Y608549D01*
Y629198D01*
X567531Y629436D01*
X569214Y631119D01*
X570404Y633181D01*
X571020Y635480D01*
Y637860D01*
X570404Y640159D01*
X569214Y642221D01*
X567531Y643904D01*
X567119Y644142D01*
Y654198D01*
X567531Y654436D01*
X569214Y656119D01*
X570404Y658181D01*
X571020Y660480D01*
Y662860D01*
X570404Y665159D01*
X569214Y667221D01*
X567531Y668904D01*
X565469Y670094D01*
X563170Y670710D01*
D02*
G37*
G36*
X583170D02*
X580790D01*
X578491Y670094D01*
X576429Y668904D01*
X574746Y667221D01*
X573556Y665159D01*
X572940Y662860D01*
Y660480D01*
X573556Y658181D01*
X574746Y656119D01*
X576429Y654436D01*
X578491Y653246D01*
X580790Y652630D01*
X583170D01*
X585469Y653246D01*
X587531Y654436D01*
X589214Y656119D01*
X590404Y658181D01*
X591020Y660480D01*
Y662860D01*
X590404Y665159D01*
X589214Y667221D01*
X587531Y668904D01*
X585469Y670094D01*
X583170Y670710D01*
D02*
G37*
G36*
X497672Y659590D02*
X495468D01*
X493432Y658747D01*
X491873Y657188D01*
X491030Y655152D01*
Y652948D01*
X491873Y650912D01*
X493432Y649353D01*
X495468Y648510D01*
X497672D01*
X499708Y649353D01*
X501267Y650912D01*
X502110Y652948D01*
Y655152D01*
X501267Y657188D01*
X499708Y658747D01*
X497672Y659590D01*
D02*
G37*
G36*
X611020Y670710D02*
X592940D01*
Y652630D01*
X606695D01*
X607501Y651648D01*
X607315Y650713D01*
Y647627D01*
X607794Y645218D01*
X606661Y644406D01*
X605469Y645094D01*
X603170Y645710D01*
X600790D01*
X598491Y645094D01*
X596429Y643904D01*
X594746Y642221D01*
X593556Y640159D01*
X592940Y637860D01*
Y635480D01*
X593556Y633181D01*
X594746Y631119D01*
X596429Y629436D01*
X598491Y628246D01*
X600790Y627630D01*
X603170D01*
X605469Y628246D01*
X607531Y629436D01*
X609214Y631119D01*
X610404Y633181D01*
X611020Y635480D01*
Y637180D01*
X612290Y637706D01*
X612994Y637002D01*
X615560Y635288D01*
X618411Y634107D01*
X621437Y633505D01*
X624523D01*
X627549Y634107D01*
X630400Y635288D01*
X632966Y637002D01*
X635148Y639184D01*
X636862Y641750D01*
X638043Y644601D01*
X638645Y647627D01*
Y650713D01*
X638043Y653739D01*
X636862Y656590D01*
X635148Y659156D01*
X632966Y661338D01*
X630400Y663052D01*
X627549Y664233D01*
X624523Y664835D01*
X621437D01*
X618411Y664233D01*
X615560Y663052D01*
X612994Y661338D01*
X612193Y660537D01*
X611020Y661023D01*
Y670710D01*
D02*
G37*
G36*
X401031Y662300D02*
X398190D01*
X395445Y661565D01*
X392985Y660144D01*
X390976Y658135D01*
X389555Y655675D01*
X388820Y652931D01*
Y650089D01*
X389555Y647345D01*
X390976Y644885D01*
X392985Y642876D01*
X395445Y641455D01*
X398190Y640720D01*
X401031D01*
X403775Y641455D01*
X406235Y642876D01*
X408244Y644885D01*
X409665Y647345D01*
X410400Y650089D01*
Y652931D01*
X409665Y655675D01*
X408244Y658135D01*
X406235Y660144D01*
X403775Y661565D01*
X401031Y662300D01*
D02*
G37*
G36*
X375630D02*
X372789D01*
X370045Y661565D01*
X367585Y660144D01*
X365576Y658135D01*
X364155Y655675D01*
X363420Y652931D01*
Y650089D01*
X364155Y647345D01*
X365576Y644885D01*
X367585Y642876D01*
X370045Y641455D01*
X372789Y640720D01*
X375630D01*
X378375Y641455D01*
X380835Y642876D01*
X382844Y644885D01*
X384265Y647345D01*
X385000Y650089D01*
Y652931D01*
X384265Y655675D01*
X382844Y658135D01*
X380835Y660144D01*
X378375Y661565D01*
X375630Y662300D01*
D02*
G37*
G36*
X274030D02*
X271189D01*
X268445Y661565D01*
X265985Y660144D01*
X263976Y658135D01*
X262555Y655675D01*
X261820Y652931D01*
Y650089D01*
X262555Y647345D01*
X263976Y644885D01*
X265985Y642876D01*
X268445Y641455D01*
X271189Y640720D01*
X274030D01*
X276775Y641455D01*
X279235Y642876D01*
X281244Y644885D01*
X282665Y647345D01*
X283400Y650089D01*
Y652931D01*
X282665Y655675D01*
X281244Y658135D01*
X279235Y660144D01*
X276775Y661565D01*
X274030Y662300D01*
D02*
G37*
G36*
X433070Y672899D02*
X341190D01*
X339809Y672625D01*
X338638Y671842D01*
X328073Y661277D01*
X327575Y661565D01*
X324831Y662300D01*
X321990D01*
X319245Y661565D01*
X316785Y660144D01*
X314776Y658135D01*
X313355Y655675D01*
X312620Y652931D01*
Y650089D01*
X313355Y647345D01*
X314776Y644885D01*
X316785Y642876D01*
X319245Y641455D01*
X321990Y640720D01*
X324831D01*
X327575Y641455D01*
X330035Y642876D01*
X332044Y644885D01*
X333465Y647345D01*
X334200Y650089D01*
Y652931D01*
X333465Y655675D01*
X333177Y656173D01*
X342685Y665681D01*
X431575D01*
X438351Y658905D01*
Y638920D01*
X437177Y638434D01*
X432186Y643426D01*
X433644Y644885D01*
X435065Y647345D01*
X435800Y650089D01*
Y652931D01*
X435065Y655675D01*
X433644Y658135D01*
X431635Y660144D01*
X429175Y661565D01*
X426431Y662300D01*
X423590D01*
X420845Y661565D01*
X418385Y660144D01*
X416376Y658135D01*
X414955Y655675D01*
X414220Y652931D01*
Y650089D01*
X414955Y647345D01*
X416376Y644885D01*
X418385Y642876D01*
X420845Y641455D01*
X423590Y640720D01*
X423688D01*
X423815Y640540D01*
X423160Y639270D01*
X423078D01*
X421042Y638427D01*
X419483Y636868D01*
X418640Y634832D01*
Y632628D01*
X419483Y630592D01*
X421042Y629033D01*
X423078Y628190D01*
X425282D01*
X427318Y629033D01*
X428877Y630592D01*
X429720Y632628D01*
Y633887D01*
X430990Y634413D01*
X496740Y568663D01*
X496254Y567489D01*
X437935D01*
X358577Y646847D01*
X358865Y647345D01*
X359600Y650089D01*
Y652931D01*
X358865Y655675D01*
X357444Y658135D01*
X355435Y660144D01*
X352975Y661565D01*
X350230Y662300D01*
X347389D01*
X344645Y661565D01*
X342185Y660144D01*
X340176Y658135D01*
X338755Y655675D01*
X338020Y652931D01*
Y650089D01*
X338755Y647345D01*
X340176Y644885D01*
X342185Y642876D01*
X344645Y641455D01*
X347389Y640720D01*
X350230D01*
X352975Y641455D01*
X353473Y641743D01*
X433888Y561328D01*
X435059Y560545D01*
X436440Y560271D01*
X500155D01*
X532299Y528127D01*
X532051Y526881D01*
X531532Y526667D01*
X529973Y525108D01*
X529130Y523072D01*
Y520868D01*
X529973Y518832D01*
X531532Y517273D01*
X533568Y516430D01*
X535772D01*
X537808Y517273D01*
X538117Y517582D01*
X539290Y517096D01*
Y517058D01*
X540133Y515022D01*
X541692Y513463D01*
X543728Y512620D01*
X545932D01*
X547968Y513463D01*
X547992Y513488D01*
X549490Y513190D01*
X549933Y512121D01*
X551491Y510563D01*
X553527Y509720D01*
X555732D01*
X557768Y510563D01*
X557827Y510623D01*
X559001Y510137D01*
Y508332D01*
X558826Y508158D01*
X557289D01*
X555253Y507314D01*
X553694Y505756D01*
X552851Y503720D01*
Y501516D01*
X553694Y499480D01*
X555253Y497921D01*
X557289Y497078D01*
X559493D01*
X561529Y497921D01*
X563087Y499480D01*
X563931Y501516D01*
Y503053D01*
X565162Y504285D01*
X565945Y505456D01*
X566219Y506837D01*
Y511669D01*
X567393Y512155D01*
X570131Y509417D01*
Y484918D01*
X569075Y484213D01*
X568792Y484330D01*
X566588D01*
X565547Y483899D01*
X564999Y484008D01*
X528207D01*
X514362Y497852D01*
X513191Y498635D01*
X511810Y498909D01*
X448535D01*
X378472Y568972D01*
X377301Y569755D01*
X375920Y570029D01*
X330425D01*
X258000Y642454D01*
Y662300D01*
X236420D01*
Y640720D01*
X249902D01*
X250659Y639586D01*
X326378Y563868D01*
X327549Y563085D01*
X328930Y562811D01*
X374425D01*
X444488Y492748D01*
X445659Y491965D01*
X447040Y491691D01*
X504920D01*
X505446Y490421D01*
X504573Y489548D01*
X503730Y487512D01*
Y485974D01*
X499098Y481342D01*
X498315Y480171D01*
X498041Y478790D01*
Y372225D01*
X496771Y371840D01*
X496582Y372122D01*
X457660Y411044D01*
Y412582D01*
X456817Y414618D01*
X455258Y416177D01*
X453222Y417020D01*
X451018D01*
X448982Y416177D01*
X447423Y414618D01*
X446580Y412582D01*
Y410378D01*
X447423Y408342D01*
X448982Y406783D01*
X451018Y405940D01*
X452556D01*
X490421Y368075D01*
Y316230D01*
X490695Y314849D01*
X491478Y313678D01*
X572382Y232773D01*
X571896Y231600D01*
X571668D01*
X569632Y230757D01*
X568073Y229198D01*
X567230Y227162D01*
Y226345D01*
X554554Y213669D01*
X531527D01*
X530693Y214939D01*
X531260Y216308D01*
Y218612D01*
X530378Y220740D01*
X528750Y222369D01*
X526622Y223250D01*
X524318D01*
X522190Y222369D01*
X520561Y220740D01*
X519680Y218612D01*
Y216308D01*
X520247Y214939D01*
X519413Y213669D01*
X509176D01*
X508598Y214247D01*
X506562Y215090D01*
X504358D01*
X502322Y214247D01*
X500763Y212688D01*
X499920Y210652D01*
Y208448D01*
X500763Y206412D01*
X502322Y204853D01*
X504358Y204010D01*
X506562D01*
X508598Y204853D01*
X509176Y205431D01*
X556260D01*
X557836Y205744D01*
X559173Y206637D01*
X573055Y220520D01*
X573872D01*
X575908Y221363D01*
X577467Y222922D01*
X578310Y224958D01*
Y225186D01*
X579483Y225672D01*
X583740Y221416D01*
Y219878D01*
X584583Y217842D01*
X586142Y216283D01*
X588178Y215440D01*
X590382D01*
X592418Y216283D01*
X593977Y217842D01*
X594192Y218361D01*
X595437Y218608D01*
X611119Y202927D01*
X610870Y201998D01*
Y199322D01*
X611562Y196738D01*
X612900Y194422D01*
X614792Y192530D01*
X617108Y191192D01*
X619692Y190500D01*
X622368D01*
X624952Y191192D01*
X627268Y192530D01*
X629160Y194422D01*
X630498Y196738D01*
X631190Y199322D01*
Y201998D01*
X630498Y204582D01*
X629160Y206898D01*
X627268Y208790D01*
X624952Y210128D01*
X622368Y210820D01*
X619692D01*
X617108Y210128D01*
X615218Y209036D01*
X579990Y244265D01*
X580476Y245438D01*
X596548D01*
X611724Y230262D01*
X611562Y229982D01*
X610870Y227398D01*
Y224722D01*
X611562Y222138D01*
X612900Y219822D01*
X614792Y217930D01*
X617108Y216592D01*
X619692Y215900D01*
X622368D01*
X624952Y216592D01*
X627268Y217930D01*
X629160Y219822D01*
X630498Y222138D01*
X631190Y224722D01*
Y227398D01*
X630498Y229982D01*
X629160Y232298D01*
X627268Y234190D01*
X624952Y235528D01*
X622368Y236220D01*
X619692D01*
X617108Y235528D01*
X616828Y235366D01*
X600595Y251599D01*
X599424Y252382D01*
X598043Y252657D01*
X584731D01*
X584034Y253927D01*
X584660Y255438D01*
Y257642D01*
X583817Y259678D01*
X582258Y261237D01*
X580222Y262080D01*
X578018D01*
X575982Y261237D01*
X574423Y259678D01*
X574208Y259159D01*
X572963Y258911D01*
X511609Y320265D01*
Y373155D01*
X514575Y376121D01*
X516890D01*
X518271Y376395D01*
X519442Y377178D01*
X533633Y391368D01*
X533996Y391307D01*
X534871Y390810D01*
Y386305D01*
X528308Y379742D01*
X527525Y378571D01*
X527251Y377190D01*
Y375065D01*
X526163Y373978D01*
X525320Y371942D01*
Y369738D01*
X526163Y367702D01*
X527722Y366143D01*
X529758Y365300D01*
X531962D01*
X533998Y366143D01*
X535557Y367702D01*
X536400Y369738D01*
Y371942D01*
X535557Y373978D01*
X534469Y375065D01*
Y375695D01*
X541032Y382258D01*
X541815Y383429D01*
X542089Y384810D01*
Y385540D01*
X543359Y386066D01*
X544232Y385193D01*
X546268Y384350D01*
X548472D01*
X550508Y385193D01*
X552067Y386752D01*
X552910Y388788D01*
Y390326D01*
X576677Y414092D01*
X577850Y413606D01*
Y412682D01*
X578542Y410098D01*
X579880Y407782D01*
X581772Y405890D01*
X584088Y404552D01*
X586672Y403860D01*
X589348D01*
X591932Y404552D01*
X594248Y405890D01*
X596140Y407782D01*
X597478Y410098D01*
X598170Y412682D01*
Y415358D01*
X597478Y417942D01*
X596140Y420258D01*
X594558Y421841D01*
X594995Y423111D01*
X595630D01*
X597011Y423385D01*
X598182Y424168D01*
X609612Y435598D01*
X610395Y436769D01*
X610669Y438150D01*
Y533400D01*
X610395Y534781D01*
X609612Y535952D01*
X541032Y604532D01*
X539861Y605315D01*
X538480Y605589D01*
X510955D01*
X509868Y606677D01*
X507832Y607520D01*
X505628D01*
X503592Y606677D01*
X502033Y605118D01*
X501190Y603082D01*
Y600878D01*
X502033Y598842D01*
X503592Y597283D01*
X505628Y596440D01*
X507832D01*
X509868Y597283D01*
X510955Y598371D01*
X536985D01*
X541196Y594159D01*
X540670Y592889D01*
X517305D01*
X516218Y593977D01*
X514182Y594820D01*
X511978D01*
X509942Y593977D01*
X508383Y592418D01*
X507540Y590382D01*
Y588178D01*
X508383Y586142D01*
X509942Y584583D01*
X511978Y583740D01*
X514182D01*
X516218Y584583D01*
X517305Y585671D01*
X540795D01*
X583812Y542653D01*
X583326Y541480D01*
X583098D01*
X581062Y540637D01*
X579503Y539078D01*
X578660Y537042D01*
Y534838D01*
X579503Y532802D01*
X581062Y531243D01*
X583098Y530400D01*
X585302D01*
X587338Y531243D01*
X588897Y532802D01*
X589740Y534838D01*
Y535066D01*
X590913Y535552D01*
X598154Y528311D01*
Y520910D01*
X596884Y520569D01*
X596140Y521858D01*
X594248Y523750D01*
X591932Y525088D01*
X589348Y525780D01*
X586672D01*
X584088Y525088D01*
X582729Y524303D01*
X581459Y525036D01*
Y525780D01*
X581185Y527161D01*
X580402Y528332D01*
X545239Y563495D01*
X544068Y564278D01*
X542687Y564553D01*
X530402D01*
X528918Y566037D01*
X526882Y566880D01*
X524678D01*
X522642Y566037D01*
X521083Y564478D01*
X520585Y563275D01*
X519087Y562977D01*
X445569Y636495D01*
Y660400D01*
X445295Y661781D01*
X444512Y662952D01*
X435622Y671842D01*
X434451Y672625D01*
X433070Y672899D01*
D02*
G37*
G36*
X26290Y656588D02*
X23615D01*
X21031Y655895D01*
X18714Y654558D01*
X16823Y652666D01*
X15485Y650350D01*
X14793Y647766D01*
Y645090D01*
X15485Y642506D01*
X16823Y640190D01*
X18714Y638298D01*
X21031Y636960D01*
X23615Y636268D01*
X26290D01*
X28874Y636960D01*
X31191Y638298D01*
X33083Y640190D01*
X34420Y642506D01*
X35113Y645090D01*
Y647766D01*
X34420Y650350D01*
X33083Y652666D01*
X31191Y654558D01*
X28874Y655895D01*
X26290Y656588D01*
D02*
G37*
G36*
X583170Y645710D02*
X580790D01*
X578491Y645094D01*
X576429Y643904D01*
X574746Y642221D01*
X573556Y640159D01*
X572940Y637860D01*
Y635480D01*
X573556Y633181D01*
X574746Y631119D01*
X576429Y629436D01*
X578491Y628246D01*
X580790Y627630D01*
X583170D01*
X585469Y628246D01*
X587531Y629436D01*
X589214Y631119D01*
X590404Y633181D01*
X591020Y635480D01*
Y637860D01*
X590404Y640159D01*
X589214Y642221D01*
X587531Y643904D01*
X585469Y645094D01*
X583170Y645710D01*
D02*
G37*
G36*
X310982Y636650D02*
X308778D01*
X306742Y635807D01*
X305183Y634248D01*
X304340Y632212D01*
Y630008D01*
X305183Y627972D01*
X306742Y626413D01*
X308778Y625570D01*
X310982D01*
X313018Y626413D01*
X314577Y627972D01*
X315420Y630008D01*
Y632212D01*
X314577Y634248D01*
X313018Y635807D01*
X310982Y636650D01*
D02*
G37*
G36*
X26290Y631188D02*
X23615D01*
X21031Y630495D01*
X18714Y629158D01*
X16823Y627266D01*
X15485Y624949D01*
X14793Y622365D01*
Y619690D01*
X15485Y617106D01*
X16823Y614790D01*
X18714Y612898D01*
X21031Y611560D01*
X23615Y610868D01*
X26290D01*
X28874Y611560D01*
X31191Y612898D01*
X33083Y614790D01*
X34420Y617106D01*
X35113Y619690D01*
Y622365D01*
X34420Y624949D01*
X33083Y627266D01*
X31191Y629158D01*
X28874Y630495D01*
X26290Y631188D01*
D02*
G37*
G36*
Y605788D02*
X23615D01*
X21031Y605095D01*
X18714Y603758D01*
X16823Y601866D01*
X15485Y599549D01*
X14793Y596965D01*
Y594290D01*
X15485Y591706D01*
X16823Y589389D01*
X18714Y587498D01*
X21031Y586160D01*
X23615Y585468D01*
X26290D01*
X28874Y586160D01*
X31191Y587498D01*
X33083Y589389D01*
X34420Y591706D01*
X35113Y594290D01*
Y596965D01*
X34420Y599549D01*
X33083Y601866D01*
X31191Y603758D01*
X28874Y605095D01*
X26290Y605788D01*
D02*
G37*
G36*
X611972Y584420D02*
X609768D01*
X607732Y583577D01*
X606173Y582018D01*
X605330Y579982D01*
Y577778D01*
X606173Y575742D01*
X607732Y574183D01*
X609768Y573340D01*
X611972D01*
X614008Y574183D01*
X615567Y575742D01*
X616410Y577778D01*
Y579982D01*
X615567Y582018D01*
X614008Y583577D01*
X611972Y584420D01*
D02*
G37*
G36*
X26290Y580388D02*
X23615D01*
X21031Y579696D01*
X18714Y578358D01*
X16823Y576466D01*
X15485Y574150D01*
X14793Y571566D01*
Y568890D01*
X15485Y566306D01*
X16823Y563989D01*
X18714Y562098D01*
X21031Y560760D01*
X23615Y560068D01*
X26290D01*
X28874Y560760D01*
X31191Y562098D01*
X33083Y563989D01*
X34420Y566306D01*
X35113Y568890D01*
Y571566D01*
X34420Y574150D01*
X33083Y576466D01*
X31191Y578358D01*
X28874Y579696D01*
X26290Y580388D01*
D02*
G37*
G36*
X354162Y556720D02*
X351958D01*
X349922Y555877D01*
X348363Y554318D01*
X347520Y552282D01*
Y550078D01*
X348363Y548042D01*
X349922Y546483D01*
X351958Y545640D01*
X354162D01*
X356198Y546483D01*
X357757Y548042D01*
X358600Y550078D01*
Y552282D01*
X357757Y554318D01*
X356198Y555877D01*
X354162Y556720D01*
D02*
G37*
G36*
X26290Y554988D02*
X23615D01*
X21031Y554296D01*
X18714Y552958D01*
X16823Y551066D01*
X15485Y548750D01*
X14793Y546166D01*
Y543490D01*
X15485Y540906D01*
X16823Y538590D01*
X18714Y536698D01*
X21031Y535360D01*
X23615Y534668D01*
X26290D01*
X28874Y535360D01*
X31191Y536698D01*
X33083Y538590D01*
X34420Y540906D01*
X35113Y543490D01*
Y546166D01*
X34420Y548750D01*
X33083Y551066D01*
X31191Y552958D01*
X28874Y554296D01*
X26290Y554988D01*
D02*
G37*
G36*
X190332Y526240D02*
X188128D01*
X186092Y525397D01*
X184533Y523838D01*
X183690Y521802D01*
Y519598D01*
X184369Y517959D01*
X183747Y516689D01*
X182070D01*
Y516722D01*
X181227Y518758D01*
X179668Y520317D01*
X177632Y521160D01*
X175428D01*
X173392Y520317D01*
X171833Y518758D01*
X170990Y516722D01*
Y514518D01*
X171833Y512482D01*
X173392Y510923D01*
X175428Y510080D01*
X177527D01*
X178027Y509745D01*
X179409Y509471D01*
X191310D01*
X192480Y509230D01*
Y494150D01*
X194511D01*
Y491905D01*
X193423Y490818D01*
X192580Y488782D01*
Y486578D01*
X193259Y484939D01*
X192637Y483669D01*
X153670D01*
X152289Y483395D01*
X151118Y482612D01*
X135878Y467372D01*
X135095Y466201D01*
X134821Y464820D01*
Y443645D01*
X133733Y442558D01*
X132890Y440522D01*
Y438318D01*
X133733Y436282D01*
X135292Y434723D01*
X137328Y433880D01*
X139532D01*
X141568Y434723D01*
X143127Y436282D01*
X143970Y438318D01*
Y440522D01*
X143127Y442558D01*
X142039Y443645D01*
Y463325D01*
X154663Y475948D01*
X155436Y475848D01*
X156166Y474545D01*
X155750Y473542D01*
Y471338D01*
X156593Y469302D01*
X158152Y467743D01*
X160188Y466900D01*
X162392D01*
X164428Y467743D01*
X165987Y469302D01*
X166830Y471338D01*
Y473542D01*
X166151Y475181D01*
X166773Y476451D01*
X189576D01*
X190281Y475395D01*
X190040Y474812D01*
Y472608D01*
X190883Y470572D01*
X192012Y469443D01*
X192304Y468630D01*
X192012Y467817D01*
X190883Y466688D01*
X190040Y464652D01*
Y462448D01*
X190883Y460412D01*
X192442Y458853D01*
X194478Y458010D01*
X196268D01*
X226385Y427893D01*
X225899Y426720D01*
X210820D01*
Y365760D01*
X193040D01*
X191770Y367030D01*
Y311150D01*
X289560D01*
Y336550D01*
X278130D01*
Y367030D01*
X276860Y365760D01*
X271780D01*
Y424814D01*
X423165D01*
X424478Y425075D01*
X425591Y425819D01*
X427302Y427530D01*
X429092D01*
X431128Y428373D01*
X432687Y429932D01*
X433530Y431968D01*
Y434172D01*
X432687Y436208D01*
X431128Y437767D01*
X429092Y438610D01*
X426888D01*
X424852Y437767D01*
X423293Y436208D01*
X422450Y434172D01*
Y432382D01*
X421744Y431676D01*
X418485D01*
X418290Y431968D01*
Y434172D01*
X417447Y436208D01*
X415888Y437767D01*
X413852Y438610D01*
X411648D01*
X409612Y437767D01*
X408346Y436501D01*
X364820D01*
Y439307D01*
X364861D01*
X364437Y441437D01*
X363230Y443243D01*
X361424Y444450D01*
X359294Y444874D01*
X359294D01*
X359294D01*
Y444874D01*
X357164Y444450D01*
X355358Y443243D01*
X354151Y441437D01*
X353727Y439307D01*
X353768D01*
Y436501D01*
X237641D01*
X201120Y473022D01*
Y474812D01*
X202095Y475778D01*
X202322Y475834D01*
X228588Y449568D01*
X229759Y448785D01*
X231140Y448511D01*
X371695D01*
X372782Y447423D01*
X374818Y446580D01*
X377022D01*
X379058Y447423D01*
X380617Y448982D01*
X381115Y450185D01*
X382613Y450483D01*
X389878Y443218D01*
X391049Y442435D01*
X392430Y442161D01*
X394555D01*
X395642Y441073D01*
X397678Y440230D01*
X399882D01*
X401918Y441073D01*
X403477Y442632D01*
X404320Y444668D01*
Y446872D01*
X403477Y448908D01*
X401995Y450390D01*
X402026Y450762D01*
X402356Y451660D01*
X402422D01*
X404458Y452503D01*
X406017Y454062D01*
X406860Y456098D01*
Y458302D01*
X406017Y460338D01*
X404458Y461897D01*
X402422Y462740D01*
X400218D01*
X398182Y461897D01*
X396623Y460338D01*
X395780Y458302D01*
Y456098D01*
X396623Y454062D01*
X398105Y452580D01*
X398074Y452208D01*
X397744Y451310D01*
X397678D01*
X395642Y450467D01*
X394555Y449379D01*
X393925D01*
X381012Y462292D01*
X379841Y463075D01*
X378460Y463349D01*
X373920D01*
X373394Y464619D01*
X374267Y465492D01*
X375110Y467528D01*
Y469732D01*
X374267Y471768D01*
X372708Y473327D01*
X370672Y474170D01*
X369134D01*
X365852Y477452D01*
X364681Y478235D01*
X363300Y478509D01*
X344303D01*
X343817Y479683D01*
X345452Y481318D01*
X346235Y482489D01*
X346509Y483870D01*
Y497615D01*
X358365Y509471D01*
X386935D01*
X388022Y508383D01*
X390058Y507540D01*
X392262D01*
X394298Y508383D01*
X395857Y509942D01*
X396700Y511978D01*
Y514182D01*
X395857Y516218D01*
X394298Y517777D01*
X392262Y518620D01*
X390058D01*
X388022Y517777D01*
X386935Y516689D01*
X356870D01*
X355489Y516415D01*
X354318Y515632D01*
X340348Y501662D01*
X339565Y500491D01*
X339291Y499110D01*
Y485365D01*
X336986Y483060D01*
X335448D01*
X333412Y482217D01*
X331853Y480658D01*
X331010Y478622D01*
Y476418D01*
X331656Y474859D01*
X330987Y473589D01*
X320693D01*
X320500Y473878D01*
Y476082D01*
X319657Y478118D01*
X318098Y479677D01*
X316062Y480520D01*
X313858D01*
X311822Y479677D01*
X310263Y478118D01*
X309420Y476082D01*
Y473878D01*
X309227Y473589D01*
X255964D01*
X229807Y499746D01*
X229836Y501401D01*
X230507Y502073D01*
X231060D01*
X232441Y502347D01*
X233599Y503121D01*
X234309D01*
X240872Y496558D01*
X242043Y495775D01*
X243424Y495501D01*
X287579D01*
X287832Y494231D01*
X286422Y493647D01*
X284863Y492088D01*
X284020Y490052D01*
Y487848D01*
X284863Y485812D01*
X286422Y484253D01*
X288458Y483410D01*
X290450D01*
X290771Y483090D01*
X291942Y482307D01*
X293323Y482033D01*
X311652D01*
X313033Y482307D01*
X314204Y483090D01*
X342464Y511350D01*
X344002D01*
X346038Y512193D01*
X347597Y513752D01*
X348440Y515788D01*
Y517992D01*
X347597Y520028D01*
X346038Y521587D01*
X344002Y522430D01*
X341798D01*
X339762Y521587D01*
X338203Y520028D01*
X337360Y517992D01*
Y516454D01*
X310157Y489251D01*
X307663D01*
X307137Y490521D01*
X307428Y490812D01*
X308271Y492848D01*
Y494501D01*
X308778Y494840D01*
X310982D01*
X313018Y495683D01*
X314577Y497242D01*
X315420Y499278D01*
Y501482D01*
X314577Y503518D01*
X313018Y505077D01*
X310982Y505920D01*
X309192D01*
X304948Y510164D01*
X304948Y511743D01*
X305687Y512482D01*
X306530Y514518D01*
Y516722D01*
X305687Y518758D01*
X304128Y520317D01*
X302092Y521160D01*
X299888D01*
X297852Y520317D01*
X296293Y518758D01*
X295450Y516722D01*
Y514518D01*
X296293Y512482D01*
X297559Y511216D01*
Y509270D01*
X297820Y507957D01*
X298564Y506844D01*
X304340Y501068D01*
Y499828D01*
X303833Y499490D01*
X302296D01*
X300124Y501662D01*
X298953Y502445D01*
X297571Y502719D01*
X244919D01*
X238356Y509282D01*
X237185Y510065D01*
X235804Y510339D01*
X232108D01*
X230727Y510065D01*
X229866Y509489D01*
X229198Y510157D01*
X227162Y511000D01*
X224958D01*
X224669Y511193D01*
Y513890D01*
X225892D01*
X227928Y514733D01*
X229487Y516292D01*
X230330Y518328D01*
Y520532D01*
X229487Y522568D01*
X227928Y524127D01*
X225892Y524970D01*
X223688D01*
X221652Y524127D01*
X220093Y522568D01*
X219250Y520532D01*
Y518994D01*
X218508Y518252D01*
X217725Y517081D01*
X217451Y515700D01*
Y509540D01*
X216181Y509014D01*
X209562Y515632D01*
X208391Y516415D01*
X207010Y516689D01*
X194713D01*
X194091Y517959D01*
X194770Y519598D01*
Y521802D01*
X193927Y523838D01*
X192368Y525397D01*
X190332Y526240D01*
D02*
G37*
G36*
X26290Y529588D02*
X23615D01*
X21031Y528895D01*
X18714Y527558D01*
X16823Y525666D01*
X15485Y523349D01*
X14793Y520765D01*
Y518090D01*
X15485Y515506D01*
X16823Y513190D01*
X18714Y511298D01*
X21031Y509960D01*
X23615Y509268D01*
X26290D01*
X28874Y509960D01*
X31191Y511298D01*
X33083Y513190D01*
X34420Y515506D01*
X35113Y518090D01*
Y520765D01*
X34420Y523349D01*
X33083Y525666D01*
X31191Y527558D01*
X28874Y528895D01*
X26290Y529588D01*
D02*
G37*
G36*
X57218Y528320D02*
X54542D01*
X51958Y527628D01*
X49642Y526290D01*
X47750Y524398D01*
X46412Y522082D01*
X45720Y519498D01*
Y516822D01*
X46412Y514238D01*
X47750Y511922D01*
X49642Y510030D01*
X51958Y508692D01*
X54542Y508000D01*
X57218D01*
X59802Y508692D01*
X62118Y510030D01*
X64010Y511922D01*
X65348Y514238D01*
X66040Y516822D01*
Y519498D01*
X65348Y522082D01*
X64010Y524398D01*
X62118Y526290D01*
X59802Y527628D01*
X57218Y528320D01*
D02*
G37*
G36*
X277962Y517350D02*
X275758D01*
X273722Y516507D01*
X272163Y514948D01*
X271320Y512912D01*
Y510708D01*
X272163Y508672D01*
X273722Y507113D01*
X275758Y506270D01*
X277962D01*
X279998Y507113D01*
X281557Y508672D01*
X282400Y510708D01*
Y512912D01*
X281557Y514948D01*
X279998Y516507D01*
X277962Y517350D01*
D02*
G37*
G36*
X26290Y504188D02*
X23615D01*
X21031Y503495D01*
X18714Y502158D01*
X16823Y500266D01*
X15485Y497949D01*
X14793Y495365D01*
Y492690D01*
X15485Y490106D01*
X16823Y487789D01*
X18714Y485898D01*
X21031Y484560D01*
X23615Y483868D01*
X26290D01*
X28874Y484560D01*
X31191Y485898D01*
X33083Y487789D01*
X34420Y490106D01*
X35113Y492690D01*
Y495365D01*
X34420Y497949D01*
X33083Y500266D01*
X31191Y502158D01*
X28874Y503495D01*
X26290Y504188D01*
D02*
G37*
G36*
X57218Y502920D02*
X54542D01*
X51958Y502228D01*
X49642Y500890D01*
X47750Y498998D01*
X46412Y496682D01*
X45720Y494098D01*
Y491422D01*
X46412Y488838D01*
X47750Y486522D01*
X49642Y484630D01*
X51958Y483292D01*
X54542Y482600D01*
X57218D01*
X59802Y483292D01*
X62118Y484630D01*
X64010Y486522D01*
X65348Y488838D01*
X66040Y491422D01*
Y494098D01*
X65348Y496682D01*
X64010Y498998D01*
X62118Y500890D01*
X59802Y502228D01*
X57218Y502920D01*
D02*
G37*
G36*
X230972Y541480D02*
X228768D01*
X226732Y540637D01*
X225173Y539078D01*
X224330Y537042D01*
Y534838D01*
X225173Y532802D01*
X226732Y531243D01*
X228768Y530400D01*
X230972D01*
X233008Y531243D01*
X234095Y532331D01*
X382045D01*
X412951Y501425D01*
Y475395D01*
X411863Y474308D01*
X411020Y472272D01*
Y470068D01*
X411863Y468032D01*
X413422Y466473D01*
X415458Y465630D01*
X417662D01*
X419698Y466473D01*
X421257Y468032D01*
X422100Y470068D01*
Y472272D01*
X421257Y474308D01*
X420169Y475395D01*
Y502920D01*
X419895Y504301D01*
X419112Y505472D01*
X386092Y538492D01*
X384921Y539275D01*
X383540Y539549D01*
X234095D01*
X233008Y540637D01*
X230972Y541480D01*
D02*
G37*
G36*
X26290Y478788D02*
X23615D01*
X21031Y478096D01*
X18714Y476758D01*
X16823Y474866D01*
X15485Y472550D01*
X14793Y469966D01*
Y467290D01*
X15485Y464706D01*
X16823Y462389D01*
X18714Y460498D01*
X21031Y459160D01*
X23615Y458468D01*
X26290D01*
X28874Y459160D01*
X31191Y460498D01*
X33083Y462389D01*
X34420Y464706D01*
X35113Y467290D01*
Y469966D01*
X34420Y472550D01*
X33083Y474866D01*
X31191Y476758D01*
X28874Y478096D01*
X26290Y478788D01*
D02*
G37*
G36*
X57218Y477520D02*
X54542D01*
X51958Y476828D01*
X49642Y475490D01*
X47750Y473598D01*
X46412Y471282D01*
X45720Y468698D01*
Y466022D01*
X46412Y463438D01*
X47750Y461122D01*
X49642Y459230D01*
X51958Y457892D01*
X54542Y457200D01*
X57218D01*
X59802Y457892D01*
X62118Y459230D01*
X64010Y461122D01*
X65348Y463438D01*
X66040Y466022D01*
Y468698D01*
X65348Y471282D01*
X64010Y473598D01*
X62118Y475490D01*
X59802Y476828D01*
X57218Y477520D01*
D02*
G37*
G36*
X488782Y460200D02*
X486578D01*
X484542Y459357D01*
X482983Y457798D01*
X482140Y455762D01*
Y453558D01*
X482983Y451522D01*
X484542Y449963D01*
X486578Y449120D01*
X488782D01*
X490818Y449963D01*
X492377Y451522D01*
X493220Y453558D01*
Y455762D01*
X492377Y457798D01*
X490818Y459357D01*
X488782Y460200D01*
D02*
G37*
G36*
X35113Y453388D02*
X14793D01*
Y433068D01*
X35113D01*
Y453388D01*
D02*
G37*
G36*
X57218Y452120D02*
X54542D01*
X51958Y451428D01*
X49642Y450090D01*
X47750Y448198D01*
X46412Y445882D01*
X45720Y443298D01*
Y440622D01*
X46412Y438038D01*
X47750Y435722D01*
X49642Y433830D01*
X51958Y432492D01*
X54542Y431800D01*
X57218D01*
X59802Y432492D01*
X62118Y433830D01*
X64010Y435722D01*
X65348Y438038D01*
X66040Y440622D01*
Y443298D01*
X65348Y445882D01*
X64010Y448198D01*
X62118Y450090D01*
X59802Y451428D01*
X57218Y452120D01*
D02*
G37*
G36*
X100162Y448770D02*
X97958D01*
X95922Y447927D01*
X94363Y446368D01*
X93520Y444332D01*
Y442128D01*
X94363Y440092D01*
X95922Y438533D01*
X97958Y437690D01*
X99496D01*
X103071Y434115D01*
Y414423D01*
X101801Y413801D01*
X100162Y414480D01*
X97958D01*
X95922Y413637D01*
X94363Y412078D01*
X93520Y410042D01*
Y407838D01*
X94363Y405802D01*
X95922Y404243D01*
X97958Y403400D01*
X100162D01*
X101801Y404079D01*
X103071Y403457D01*
Y400905D01*
X101983Y399818D01*
X101140Y397782D01*
Y395578D01*
X101983Y393542D01*
X103542Y391983D01*
X105578Y391140D01*
X107782D01*
X109818Y391983D01*
X111377Y393542D01*
X112220Y395578D01*
Y397782D01*
X111377Y399818D01*
X110289Y400905D01*
Y435610D01*
X110015Y436991D01*
X109232Y438162D01*
X104600Y442794D01*
Y444332D01*
X103757Y446368D01*
X102198Y447927D01*
X100162Y448770D01*
D02*
G37*
G36*
X57218Y426720D02*
X54542D01*
X51958Y426028D01*
X49642Y424690D01*
X47750Y422798D01*
X46412Y420482D01*
X45720Y417898D01*
Y415222D01*
X46412Y412638D01*
X47750Y410322D01*
X49642Y408430D01*
X51958Y407092D01*
X54542Y406400D01*
X57218D01*
X59802Y407092D01*
X62118Y408430D01*
X64010Y410322D01*
X65348Y412638D01*
X66040Y415222D01*
Y417898D01*
X65348Y420482D01*
X64010Y422798D01*
X62118Y424690D01*
X59802Y426028D01*
X57218Y426720D01*
D02*
G37*
G36*
X140802Y406860D02*
X138598D01*
X136562Y406017D01*
X135003Y404458D01*
X134160Y402422D01*
Y400218D01*
X135003Y398182D01*
X136562Y396623D01*
X138598Y395780D01*
X140802D01*
X142838Y396623D01*
X144397Y398182D01*
X145240Y400218D01*
Y402422D01*
X144397Y404458D01*
X142838Y406017D01*
X140802Y406860D01*
D02*
G37*
G36*
X631190Y414020D02*
X610870D01*
Y393700D01*
X631190D01*
Y414020D01*
D02*
G37*
G36*
X57218Y401320D02*
X54542D01*
X51958Y400628D01*
X49642Y399290D01*
X47750Y397398D01*
X46412Y395082D01*
X45720Y392498D01*
Y389822D01*
X46412Y387238D01*
X47750Y384922D01*
X49642Y383030D01*
X51958Y381692D01*
X54542Y381000D01*
X57218D01*
X59802Y381692D01*
X62118Y383030D01*
X64010Y384922D01*
X65348Y387238D01*
X66040Y389822D01*
Y392498D01*
X65348Y395082D01*
X64010Y397398D01*
X62118Y399290D01*
X59802Y400628D01*
X57218Y401320D01*
D02*
G37*
G36*
X589348Y398780D02*
X586672D01*
X584088Y398088D01*
X581772Y396750D01*
X579880Y394858D01*
X578542Y392542D01*
X577850Y389958D01*
Y387282D01*
X578542Y384698D01*
X579880Y382382D01*
X581772Y380490D01*
X584088Y379152D01*
X586672Y378460D01*
X589348D01*
X591932Y379152D01*
X594248Y380490D01*
X596140Y382382D01*
X597478Y384698D01*
X598170Y387282D01*
Y389958D01*
X597478Y392542D01*
X596140Y394858D01*
X594248Y396750D01*
X591932Y398088D01*
X589348Y398780D01*
D02*
G37*
G36*
X159852Y378920D02*
X157648D01*
X155612Y378077D01*
X154053Y376518D01*
X153210Y374482D01*
Y372278D01*
X154053Y370242D01*
X155612Y368683D01*
X157648Y367840D01*
X159852D01*
X161888Y368683D01*
X163447Y370242D01*
X164290Y372278D01*
Y374482D01*
X163447Y376518D01*
X161888Y378077D01*
X159852Y378920D01*
D02*
G37*
G36*
X120482Y367490D02*
X118278D01*
X116242Y366647D01*
X114683Y365088D01*
X113840Y363052D01*
Y360848D01*
X114683Y358812D01*
X116242Y357253D01*
X118278Y356410D01*
X120482D01*
X122518Y357253D01*
X124077Y358812D01*
X124920Y360848D01*
Y363052D01*
X124077Y365088D01*
X122518Y366647D01*
X120482Y367490D01*
D02*
G37*
G36*
X107782D02*
X105578D01*
X103542Y366647D01*
X101983Y365088D01*
X101140Y363052D01*
Y360848D01*
X101983Y358812D01*
X103542Y357253D01*
X105578Y356410D01*
X107782D01*
X109818Y357253D01*
X111377Y358812D01*
X112220Y360848D01*
Y363052D01*
X111377Y365088D01*
X109818Y366647D01*
X107782Y367490D01*
D02*
G37*
G36*
X57218Y375920D02*
X54542D01*
X51958Y375228D01*
X49642Y373890D01*
X47750Y371998D01*
X46412Y369682D01*
X45720Y367098D01*
Y364422D01*
X46412Y361838D01*
X47750Y359522D01*
X49642Y357630D01*
X51958Y356292D01*
X54542Y355600D01*
X57218D01*
X59802Y356292D01*
X62118Y357630D01*
X64010Y359522D01*
X65348Y361838D01*
X66040Y364422D01*
Y367098D01*
X65348Y369682D01*
X64010Y371998D01*
X62118Y373890D01*
X59802Y375228D01*
X57218Y375920D01*
D02*
G37*
G36*
X589348Y373380D02*
X586672D01*
X584088Y372688D01*
X581772Y371350D01*
X579880Y369458D01*
X578542Y367142D01*
X577850Y364558D01*
Y361882D01*
X578542Y359298D01*
X579880Y356982D01*
X581772Y355090D01*
X584088Y353752D01*
X586672Y353060D01*
X589348D01*
X591932Y353752D01*
X594248Y355090D01*
X596140Y356982D01*
X597478Y359298D01*
X598170Y361882D01*
Y364558D01*
X597478Y367142D01*
X596140Y369458D01*
X594248Y371350D01*
X591932Y372688D01*
X589348Y373380D01*
D02*
G37*
G36*
X90002Y363680D02*
X87798D01*
X85762Y362837D01*
X84203Y361278D01*
X83360Y359242D01*
Y357038D01*
X84203Y355002D01*
X85762Y353443D01*
X87798Y352600D01*
X90002D01*
X92038Y353443D01*
X93597Y355002D01*
X94440Y357038D01*
Y359242D01*
X93597Y361278D01*
X92038Y362837D01*
X90002Y363680D01*
D02*
G37*
G36*
X25232Y361140D02*
X23028D01*
X20992Y360297D01*
X19433Y358738D01*
X18590Y356702D01*
Y354498D01*
X19433Y352462D01*
X20992Y350903D01*
X23028Y350060D01*
X25232D01*
X27268Y350903D01*
X28827Y352462D01*
X29670Y354498D01*
Y356702D01*
X28827Y358738D01*
X27268Y360297D01*
X25232Y361140D01*
D02*
G37*
G36*
X439571Y370200D02*
X436730D01*
X433985Y369465D01*
X431525Y368044D01*
X429516Y366035D01*
X428095Y363575D01*
X427360Y360830D01*
Y357990D01*
X428095Y355245D01*
X429516Y352785D01*
X431525Y350776D01*
X433985Y349355D01*
X436730Y348620D01*
X439571D01*
X442315Y349355D01*
X444775Y350776D01*
X446784Y352785D01*
X448205Y355245D01*
X448940Y357990D01*
Y360830D01*
X448205Y363575D01*
X446784Y366035D01*
X444775Y368044D01*
X442315Y369465D01*
X439571Y370200D01*
D02*
G37*
G36*
X423540D02*
X401960D01*
Y348620D01*
X423540D01*
Y370200D01*
D02*
G37*
G36*
X292295Y358055D02*
X289796D01*
X287383Y357408D01*
X285219Y356159D01*
X283452Y354392D01*
X282202Y352228D01*
X281556Y349814D01*
Y347315D01*
X282202Y344902D01*
X283452Y342738D01*
X285219Y340971D01*
X287383Y339721D01*
X289796Y339075D01*
X292295D01*
X294709Y339721D01*
X296873Y340971D01*
X298640Y342738D01*
X299889Y344902D01*
X300536Y347315D01*
Y349814D01*
X299889Y352228D01*
X298640Y354392D01*
X296873Y356159D01*
X294709Y357408D01*
X292295Y358055D01*
D02*
G37*
G36*
X92542Y433530D02*
X90338D01*
X88302Y432687D01*
X86743Y431128D01*
X85900Y429092D01*
Y427554D01*
X68568Y410222D01*
X67785Y409051D01*
X67511Y407670D01*
Y338999D01*
X67310Y338865D01*
X66040Y339544D01*
Y350520D01*
X45720D01*
Y330200D01*
X58006D01*
X58492Y329027D01*
X37910Y308444D01*
X37127Y307273D01*
X36853Y305892D01*
Y298910D01*
X35728D01*
X33692Y298067D01*
X32133Y296508D01*
X31290Y294472D01*
Y292268D01*
X32133Y290232D01*
X33221Y289145D01*
Y253410D01*
X32370D01*
Y235330D01*
X51450D01*
Y253410D01*
X40439D01*
Y289145D01*
X41527Y290232D01*
X42370Y292268D01*
Y293806D01*
X43014Y294450D01*
X43797Y295621D01*
X44071Y297002D01*
Y304397D01*
X73672Y333998D01*
X74455Y335169D01*
X74729Y336550D01*
Y406175D01*
X91004Y422450D01*
X92542D01*
X94578Y423293D01*
X96137Y424852D01*
X96980Y426888D01*
Y429092D01*
X96137Y431128D01*
X94578Y432687D01*
X92542Y433530D01*
D02*
G37*
G36*
X622368Y337820D02*
X619692D01*
X617108Y337128D01*
X614792Y335790D01*
X612900Y333898D01*
X611562Y331582D01*
X610870Y328998D01*
Y326322D01*
X611562Y323738D01*
X612900Y321422D01*
X614792Y319530D01*
X617108Y318192D01*
X619692Y317500D01*
X622368D01*
X624952Y318192D01*
X627268Y319530D01*
X629160Y321422D01*
X630498Y323738D01*
X631190Y326322D01*
Y328998D01*
X630498Y331582D01*
X629160Y333898D01*
X627268Y335790D01*
X624952Y337128D01*
X622368Y337820D01*
D02*
G37*
G36*
X598170Y322580D02*
X577850D01*
Y302260D01*
X598170D01*
Y322580D01*
D02*
G37*
G36*
X622368Y312420D02*
X619692D01*
X617108Y311728D01*
X614792Y310390D01*
X612900Y308498D01*
X611562Y306182D01*
X610870Y303598D01*
Y300922D01*
X611562Y298338D01*
X612900Y296022D01*
X614792Y294130D01*
X617108Y292792D01*
X619692Y292100D01*
X622368D01*
X624952Y292792D01*
X627268Y294130D01*
X629160Y296022D01*
X630498Y298338D01*
X631190Y300922D01*
Y303598D01*
X630498Y306182D01*
X629160Y308498D01*
X627268Y310390D01*
X624952Y311728D01*
X622368Y312420D01*
D02*
G37*
G36*
X26050Y318390D02*
X6970D01*
Y300310D01*
X17981D01*
Y298865D01*
X16893Y297778D01*
X16050Y295742D01*
Y293538D01*
X16893Y291502D01*
X18452Y289943D01*
X20488Y289100D01*
X22692D01*
X24728Y289943D01*
X26287Y291502D01*
X27130Y293538D01*
Y295742D01*
X26287Y297778D01*
X25199Y298865D01*
Y300310D01*
X26050D01*
Y318390D01*
D02*
G37*
G36*
X325960Y304705D02*
X322132D01*
X318434Y303714D01*
X315118Y301800D01*
X312411Y299093D01*
X310497Y295777D01*
X309506Y292079D01*
Y288251D01*
X310497Y284552D01*
X312411Y281237D01*
X315118Y278530D01*
X318434Y276616D01*
X322132Y275625D01*
X325960D01*
X329658Y276616D01*
X332974Y278530D01*
X335681Y281237D01*
X337595Y284552D01*
X338586Y288251D01*
Y292079D01*
X337595Y295777D01*
X335681Y299093D01*
X332974Y301800D01*
X329658Y303714D01*
X325960Y304705D01*
D02*
G37*
G36*
X171060D02*
X167232D01*
X163534Y303714D01*
X160218Y301800D01*
X157511Y299093D01*
X155597Y295777D01*
X154606Y292079D01*
Y288251D01*
X155597Y284552D01*
X157511Y281237D01*
X160218Y278530D01*
X163534Y276616D01*
X167232Y275625D01*
X171060D01*
X174758Y276616D01*
X178074Y278530D01*
X180781Y281237D01*
X182695Y284552D01*
X183686Y288251D01*
Y292079D01*
X182695Y295777D01*
X180781Y299093D01*
X178074Y301800D01*
X174758Y303714D01*
X171060Y304705D01*
D02*
G37*
G36*
X622368Y287020D02*
X619692D01*
X617108Y286328D01*
X614792Y284990D01*
X612900Y283098D01*
X611562Y280782D01*
X610870Y278198D01*
Y275522D01*
X611562Y272938D01*
X612900Y270622D01*
X614792Y268730D01*
X617108Y267392D01*
X619692Y266700D01*
X622368D01*
X624952Y267392D01*
X627268Y268730D01*
X629160Y270622D01*
X630498Y272938D01*
X631190Y275522D01*
Y278198D01*
X630498Y280782D01*
X629160Y283098D01*
X627268Y284990D01*
X624952Y286328D01*
X622368Y287020D01*
D02*
G37*
G36*
Y261620D02*
X619692D01*
X617108Y260928D01*
X614792Y259590D01*
X612900Y257698D01*
X611562Y255382D01*
X610870Y252798D01*
Y250122D01*
X611562Y247538D01*
X612900Y245222D01*
X614792Y243330D01*
X617108Y241992D01*
X619692Y241300D01*
X622368D01*
X624952Y241992D01*
X627268Y243330D01*
X629160Y245222D01*
X630498Y247538D01*
X631190Y250122D01*
Y252798D01*
X630498Y255382D01*
X629160Y257698D01*
X627268Y259590D01*
X624952Y260928D01*
X622368Y261620D01*
D02*
G37*
G36*
X305596Y278455D02*
X301895D01*
X298265Y277733D01*
X294845Y276316D01*
X291768Y274260D01*
X289151Y271643D01*
X287094Y268565D01*
X285678Y265146D01*
X284956Y261515D01*
Y257814D01*
X285678Y254184D01*
X287094Y250764D01*
X289151Y247687D01*
X291768Y245070D01*
X294845Y243013D01*
X298265Y241597D01*
X301895Y240875D01*
X305596D01*
X309227Y241597D01*
X312646Y243013D01*
X315724Y245070D01*
X318341Y247687D01*
X320397Y250764D01*
X321814Y254184D01*
X322536Y257814D01*
Y261515D01*
X321814Y265146D01*
X320397Y268565D01*
X318341Y271643D01*
X315724Y274260D01*
X312646Y276316D01*
X309227Y277733D01*
X305596Y278455D01*
D02*
G37*
G36*
X191296D02*
X187595D01*
X183965Y277733D01*
X180545Y276316D01*
X177468Y274260D01*
X174851Y271643D01*
X172794Y268565D01*
X171378Y265146D01*
X170656Y261515D01*
Y257814D01*
X171378Y254184D01*
X172794Y250764D01*
X174851Y247687D01*
X177468Y245070D01*
X180545Y243013D01*
X183965Y241597D01*
X187595Y240875D01*
X191296D01*
X194927Y241597D01*
X198346Y243013D01*
X201424Y245070D01*
X204041Y247687D01*
X206097Y250764D01*
X207514Y254184D01*
X208236Y257814D01*
Y261515D01*
X207514Y265146D01*
X206097Y268565D01*
X204041Y271643D01*
X201424Y274260D01*
X198346Y276316D01*
X194927Y277733D01*
X191296Y278455D01*
D02*
G37*
G36*
X105242Y303990D02*
X103038D01*
X101002Y303147D01*
X99443Y301588D01*
X98600Y299552D01*
Y297348D01*
X99443Y295312D01*
X101002Y293753D01*
X103038Y292910D01*
X104576D01*
X129741Y267745D01*
Y255950D01*
X123810D01*
Y237870D01*
X142890D01*
Y255950D01*
X136959D01*
Y269240D01*
X136685Y270621D01*
X135902Y271792D01*
X109680Y298014D01*
Y299552D01*
X108837Y301588D01*
X107278Y303147D01*
X105242Y303990D01*
D02*
G37*
G36*
X91272Y298910D02*
X89068D01*
X87032Y298067D01*
X85473Y296508D01*
X84630Y294472D01*
Y292268D01*
X85473Y290232D01*
X87032Y288673D01*
X89068Y287830D01*
X90606D01*
X100531Y277905D01*
Y255950D01*
X94600D01*
Y237870D01*
X113680D01*
Y255950D01*
X107749D01*
Y279400D01*
X107475Y280781D01*
X106692Y281952D01*
X95710Y292934D01*
Y294472D01*
X94867Y296508D01*
X93308Y298067D01*
X91272Y298910D01*
D02*
G37*
G36*
X72222Y303990D02*
X70018D01*
X67982Y303147D01*
X66423Y301588D01*
X65580Y299552D01*
Y297348D01*
X66423Y295312D01*
X67511Y294225D01*
Y255950D01*
X62850D01*
Y237870D01*
X81930D01*
Y255950D01*
X74729D01*
Y294225D01*
X75817Y295312D01*
X76660Y297348D01*
Y299552D01*
X75817Y301588D01*
X74258Y303147D01*
X72222Y303990D01*
D02*
G37*
G36*
X186522Y451310D02*
X184318D01*
X182282Y450467D01*
X180723Y448908D01*
X179880Y446872D01*
Y444668D01*
X180723Y442632D01*
X181811Y441545D01*
Y308610D01*
X182085Y307229D01*
X182868Y306058D01*
X212291Y276635D01*
Y230764D01*
X209883Y228356D01*
X209610Y228514D01*
X207031Y229205D01*
X204361D01*
X201782Y228514D01*
X199470Y227179D01*
X197582Y225291D01*
X196247Y222979D01*
X195556Y220400D01*
Y217730D01*
X196247Y215151D01*
X197582Y212839D01*
X199470Y210951D01*
X201782Y209616D01*
X204361Y208925D01*
X207031D01*
X209610Y209616D01*
X211922Y210951D01*
X213810Y212839D01*
X215145Y215151D01*
X215836Y217730D01*
Y220400D01*
X215145Y222979D01*
X214987Y223252D01*
X218452Y226717D01*
X219235Y227888D01*
X219509Y229269D01*
Y278130D01*
X219235Y279511D01*
X218452Y280682D01*
X189029Y310105D01*
Y441545D01*
X190117Y442632D01*
X190960Y444668D01*
Y446872D01*
X190117Y448908D01*
X188558Y450467D01*
X186522Y451310D01*
D02*
G37*
G36*
X314231Y229205D02*
X311561D01*
X308982Y228514D01*
X306670Y227179D01*
X304782Y225291D01*
X303447Y222979D01*
X302756Y220400D01*
Y217730D01*
X303447Y215151D01*
X304782Y212839D01*
X306670Y210951D01*
X308982Y209616D01*
X311561Y208925D01*
X314231D01*
X316810Y209616D01*
X319122Y210951D01*
X321010Y212839D01*
X322345Y215151D01*
X323036Y217730D01*
Y220400D01*
X322345Y222979D01*
X321010Y225291D01*
X319122Y227179D01*
X316810Y228514D01*
X314231Y229205D01*
D02*
G37*
G36*
X288831D02*
X286161D01*
X283582Y228514D01*
X281270Y227179D01*
X279382Y225291D01*
X278047Y222979D01*
X277356Y220400D01*
Y217730D01*
X278047Y215151D01*
X279382Y212839D01*
X281270Y210951D01*
X283582Y209616D01*
X286161Y208925D01*
X288831D01*
X291410Y209616D01*
X293722Y210951D01*
X295610Y212839D01*
X296945Y215151D01*
X297636Y217730D01*
Y220400D01*
X296945Y222979D01*
X295610Y225291D01*
X293722Y227179D01*
X291410Y228514D01*
X288831Y229205D01*
D02*
G37*
G36*
X181631D02*
X178961D01*
X176382Y228514D01*
X174070Y227179D01*
X172182Y225291D01*
X170847Y222979D01*
X170156Y220400D01*
Y217730D01*
X170847Y215151D01*
X172182Y212839D01*
X174070Y210951D01*
X176382Y209616D01*
X178961Y208925D01*
X181631D01*
X184210Y209616D01*
X186522Y210951D01*
X188410Y212839D01*
X189745Y215151D01*
X190436Y217730D01*
Y220400D01*
X189745Y222979D01*
X188410Y225291D01*
X186522Y227179D01*
X184210Y228514D01*
X181631Y229205D01*
D02*
G37*
G36*
X420202Y226520D02*
X417998D01*
X415962Y225677D01*
X414403Y224118D01*
X413560Y222082D01*
Y219878D01*
X414403Y217842D01*
X415962Y216283D01*
X417998Y215440D01*
X418815D01*
X427617Y206637D01*
X428954Y205744D01*
X430530Y205431D01*
X478884D01*
X479462Y204853D01*
X481498Y204010D01*
X483702D01*
X485738Y204853D01*
X487297Y206412D01*
X488140Y208448D01*
Y210652D01*
X487297Y212688D01*
X485738Y214247D01*
X483702Y215090D01*
X481498D01*
X479462Y214247D01*
X478884Y213669D01*
X473727D01*
X472893Y214939D01*
X473460Y216308D01*
Y218612D01*
X472579Y220740D01*
X470950Y222369D01*
X468822Y223250D01*
X466518D01*
X464390Y222369D01*
X462761Y220740D01*
X461880Y218612D01*
Y216308D01*
X462447Y214939D01*
X461613Y213669D01*
X432236D01*
X424640Y221265D01*
Y222082D01*
X423797Y224118D01*
X422238Y225677D01*
X420202Y226520D01*
D02*
G37*
G36*
X365592Y204930D02*
X363388D01*
X361352Y204087D01*
X359793Y202528D01*
X358950Y200492D01*
Y198288D01*
X359793Y196252D01*
X361352Y194693D01*
X363388Y193850D01*
X365592D01*
X367628Y194693D01*
X369187Y196252D01*
X370030Y198288D01*
Y200492D01*
X369187Y202528D01*
X367628Y204087D01*
X365592Y204930D01*
D02*
G37*
G36*
X548472Y203660D02*
X546268D01*
X544232Y202817D01*
X543654Y202239D01*
X525360D01*
X523784Y201926D01*
X522447Y201033D01*
X512275Y190860D01*
X511660D01*
X511636Y190876D01*
X510060Y191189D01*
X496490D01*
Y194360D01*
X481410D01*
Y191189D01*
X465200D01*
X463624Y190876D01*
X462287Y189983D01*
X445485Y173180D01*
X444668D01*
X442632Y172337D01*
X441073Y170778D01*
X440230Y168742D01*
Y166538D01*
X441073Y164502D01*
X442632Y162943D01*
X444668Y162100D01*
X446872D01*
X448908Y162943D01*
X450467Y164502D01*
X451310Y166538D01*
Y167355D01*
X466906Y182951D01*
X481410D01*
Y179780D01*
X496490D01*
Y182951D01*
X506270D01*
Y178280D01*
X517350D01*
Y184285D01*
X527066Y194001D01*
X543654D01*
X544232Y193423D01*
X546268Y192580D01*
X548472D01*
X550508Y193423D01*
X552067Y194982D01*
X552910Y197018D01*
Y199222D01*
X552067Y201258D01*
X550508Y202817D01*
X548472Y203660D01*
D02*
G37*
%LPD*%
G36*
X574241Y524285D02*
Y517175D01*
X573067Y516689D01*
X537706Y552051D01*
Y553588D01*
X536863Y555624D01*
X536423Y556064D01*
X536949Y557334D01*
X541192D01*
X574241Y524285D01*
D02*
G37*
G36*
X524160Y477846D02*
X525330Y477064D01*
X526712Y476789D01*
X562522D01*
X562993Y475652D01*
X564552Y474093D01*
X566449Y473308D01*
X567014Y472077D01*
X560248Y465310D01*
X559465Y464140D01*
X559191Y462758D01*
Y427135D01*
X544020Y411964D01*
X542750Y412490D01*
Y413852D01*
X541907Y415888D01*
X540348Y417447D01*
X538312Y418290D01*
X536108D01*
X534072Y417447D01*
X532513Y415888D01*
X531670Y413852D01*
Y411648D01*
X532513Y409612D01*
X534072Y408053D01*
X536108Y407210D01*
X537470D01*
X537996Y405940D01*
X515395Y383339D01*
X513080D01*
X511699Y383065D01*
X510528Y382282D01*
X506529Y378284D01*
X505259Y378810D01*
Y477295D01*
X508834Y480870D01*
X510372D01*
X512408Y481713D01*
X513967Y483272D01*
X514810Y485308D01*
Y485536D01*
X515983Y486022D01*
X524160Y477846D01*
D02*
G37*
D12*
X607060Y438150D02*
Y533400D01*
X506730Y601980D02*
X538480D01*
X607060Y533400D01*
X542290Y589280D02*
X601764Y529806D01*
X513080Y589280D02*
X542290D01*
X584200Y426720D02*
X595630D01*
X607060Y438150D01*
X547370Y389890D02*
X584200Y426720D01*
X71120Y248180D02*
Y298450D01*
Y248180D02*
X72390Y246910D01*
X90170Y293370D02*
X104140Y279400D01*
Y246910D02*
Y279400D01*
Y298450D02*
X133350Y269240D01*
Y246910D02*
Y269240D01*
X40462Y297002D02*
Y305892D01*
X36830Y249450D02*
Y293370D01*
Y249450D02*
X41910Y244370D01*
X36830Y293370D02*
X40462Y297002D01*
Y305892D02*
X71120Y336550D01*
X16510Y309350D02*
X21590Y304270D01*
Y294640D02*
Y304270D01*
X568960Y421640D02*
Y440690D01*
X581660Y453390D01*
X538480Y391160D02*
X568960Y421640D01*
X508000Y374650D02*
X513080Y379730D01*
X508000Y318770D02*
Y374650D01*
X513080Y379730D02*
X516890D01*
X538480Y384810D02*
Y391160D01*
X530860Y377190D02*
X538480Y384810D01*
X530860Y370840D02*
Y377190D01*
X577850Y464820D02*
Y525780D01*
X542687Y560943D02*
X577850Y525780D01*
X570230Y457200D02*
X577850Y464820D01*
X562800Y462758D02*
X573741Y473699D01*
X562800Y425640D02*
Y462758D01*
X573741Y473699D02*
Y510912D01*
X532166Y552486D02*
X573741Y510912D01*
X516890Y379730D02*
X562800Y425640D01*
X562610Y506837D02*
Y516728D01*
X558391Y502618D02*
X562610Y506837D01*
X542510Y536828D02*
X562610Y516728D01*
X441960Y635000D02*
X540132Y536828D01*
X501650Y563880D02*
X544065Y521465D01*
Y518925D02*
X544830Y518160D01*
X544065Y518925D02*
Y521465D01*
X540132Y536828D02*
X542510D01*
X526712Y480398D02*
X564999D01*
X566608Y478790D02*
X567690D01*
X511810Y495300D02*
X526712Y480398D01*
X564999D02*
X566608Y478790D01*
X526177Y560943D02*
X542687D01*
X525780Y561340D02*
X526177Y560943D01*
X552049Y518458D02*
X554630Y515260D01*
X427784Y642723D02*
X552049Y518458D01*
X427784Y642723D02*
Y648736D01*
X441960Y635000D02*
Y660400D01*
X433070Y669290D02*
X441960Y660400D01*
X341190Y669290D02*
X433070D01*
X425010Y651510D02*
X427784Y648736D01*
X601764Y458254D02*
Y529806D01*
X596900Y453390D02*
X601764Y458254D01*
X581660Y453390D02*
X596900D01*
X501650Y317500D02*
X618490Y200660D01*
X501650Y478790D02*
X509270Y486410D01*
X501650Y317500D02*
Y478790D01*
X508000Y318770D02*
X577723Y249047D01*
X375920Y566420D02*
X447040Y495300D01*
X511810D01*
X436440Y563880D02*
X501650D01*
X323410Y651510D02*
X341190Y669290D01*
X348810Y651510D02*
X436440Y563880D01*
X241843Y466090D02*
X356870D01*
X214710Y493223D02*
X241843Y466090D01*
X203200Y480060D02*
X231140Y452120D01*
X375920D01*
X221060Y503389D02*
X254469Y469980D01*
X237490Y459740D02*
X378460D01*
X214170Y483060D02*
X237490Y459740D01*
X254469Y469980D02*
X336081D01*
X185420Y308610D02*
X215900Y278130D01*
Y229269D02*
Y278130D01*
X243424Y499110D02*
X297571D01*
X302731Y493950D01*
X235804Y506730D02*
X243424Y499110D01*
X290015Y488950D02*
X293323Y485642D01*
X311652D01*
X289560Y488950D02*
X290015D01*
X336081Y469980D02*
X341001Y474900D01*
X153670Y480060D02*
X203200D01*
X618490Y200660D02*
X621030D01*
X577723Y249047D02*
X598043D01*
X494030Y316230D02*
X589280Y220980D01*
X494030Y316230D02*
Y369570D01*
X229870Y535940D02*
X383540D01*
X416560Y502920D01*
X71120Y407670D02*
X91440Y427990D01*
X71120Y336550D02*
Y407670D01*
X138430Y439420D02*
Y464820D01*
X153670Y480060D01*
X207010Y513080D02*
X214710Y505380D01*
X176869Y515620D02*
X179409Y513080D01*
X176530Y515620D02*
X176869D01*
X179409Y513080D02*
X207010D01*
X221060Y503389D02*
Y515700D01*
X224790Y519430D01*
X363300Y474900D02*
X369570Y468630D01*
X341001Y474900D02*
X363300D01*
X226282Y505682D02*
X231060D01*
X232108Y506730D01*
X235804D01*
X226060Y505460D02*
X226282Y505682D01*
X214710Y493223D02*
Y505380D01*
X328930Y566420D02*
X375920D01*
X253211Y642139D02*
X328930Y566420D01*
X253211Y642139D02*
Y645509D01*
X247210Y651510D02*
X253211Y645509D01*
X416560Y471170D02*
Y502920D01*
X356870Y513080D02*
X391160D01*
X598043Y249047D02*
X621030Y226060D01*
X452120Y411480D02*
X494030Y369570D01*
X342900Y483870D02*
Y499110D01*
X356870Y513080D01*
X336550Y477520D02*
X342900Y483870D01*
X311652Y485642D02*
X342900Y516890D01*
X106680Y396680D02*
Y435610D01*
X99060Y443230D02*
X106680Y435610D01*
X185420Y308610D02*
Y445770D01*
X378460Y459740D02*
X392430Y445770D01*
X398780D01*
X210360Y483060D02*
X214170D01*
X208280Y485140D02*
X210360Y483060D01*
X198120Y487680D02*
X198459D01*
X200999Y485140D01*
X208280D01*
X198120Y487680D02*
Y500540D01*
X199270Y501690D01*
X205696Y219065D02*
X215900Y229269D01*
D13*
X626110Y518160D02*
Y542290D01*
X561980Y606420D02*
X626110Y542290D01*
X561980Y606420D02*
Y636670D01*
Y661670D01*
X561980Y661670D01*
D24*
X511810Y184570D02*
D03*
Y173570D02*
D03*
D126*
X255310Y347961D02*
G03*
X255310Y347980I-1325J19D01*
G01*
Y349482D02*
G03*
X255300Y349762I-3850J0D01*
G01*
X255310Y347958D02*
G03*
X255310Y347961I-1325J22D01*
G01*
X259837Y340329D02*
G03*
X259838Y340330I-938J936D01*
G01*
X259836Y340327D02*
G03*
X259837Y340329I-937J937D01*
G01*
X257962Y340328D02*
X257962Y340327D01*
X255303Y347087D02*
G03*
X257905Y340384I12232J893D01*
G01*
X244872Y415893D02*
G03*
X243165Y416600I-1707J-1707D01*
G01*
X230823D02*
G03*
X225665Y414463I0J-7295D01*
G01*
X224452Y413250D02*
G03*
X224450Y413249I2298J-2298D01*
G01*
X255303Y393359D02*
G03*
X254567Y399879I-29218J0D01*
G01*
X255297Y347167D02*
G03*
X255302Y347097I12237J813D01*
G01*
X224450Y413249D02*
G03*
X223500Y410952I2300J-2297D01*
G01*
X245174Y332804D02*
G03*
X251460Y347980I-15176J15176D01*
G01*
X251453Y393345D02*
G03*
X250105Y401513I-25400J0D01*
G01*
D02*
G03*
X244014Y411306I-24051J-8167D01*
G01*
X230844Y412750D02*
G03*
X228373Y411727I0J-3494D01*
G01*
X227384Y410737D02*
G03*
X227350Y410656I81J-81D01*
G01*
X227546Y323165D02*
G03*
X241184Y328814I0J19287D01*
G01*
X361389Y435165D02*
G03*
X363484Y433070I2095J0D01*
G01*
X361389Y439307D02*
G03*
X359294Y441402I-2095J0D01*
G01*
X359294D02*
G03*
X357199Y439307I0J-2095D01*
G01*
X355104Y433070D02*
G03*
X357199Y435165I0J2095D01*
G01*
X257392Y358205D02*
G03*
X255297Y356110I0J-2095D01*
G01*
X257516Y358205D02*
G03*
X259611Y360300I0J2095D01*
G01*
Y360300D02*
G03*
X257516Y362395I-2095J0D01*
G01*
X255298Y364490D02*
G03*
X257393Y362395I2095J-0D01*
G01*
X255297Y349841D02*
G03*
X255300Y349762I1325J8D01*
G01*
X254567Y399879D02*
G03*
X246746Y414019I-28481J-6521D01*
G01*
X255298Y366362D02*
X255303Y393359D01*
X255310Y347980D02*
Y349482D01*
X255302Y347097D02*
X255303Y347087D01*
X259838Y340330D02*
X265646Y346239D01*
X259837Y340329D02*
X259838Y340330D01*
X259448Y339939D02*
X259836Y340327D01*
X258899Y339939D02*
X259448Y339939D01*
X257906Y340384D02*
X257962Y340328D01*
X257905Y340384D02*
X257906Y340384D01*
X258350Y339939D02*
X258899Y339939D01*
X257962Y340327D02*
X258350Y339939D01*
X244872Y415893D02*
X246746Y414019D01*
X230823Y416600D02*
X243165D01*
X224452Y413250D02*
X225665Y414463D01*
X224450Y413249D02*
X224452Y413250D01*
X255297Y347167D02*
Y347167D01*
X255310Y347958D02*
X255310Y347961D01*
X255297Y347167D02*
X255310Y347958D01*
X223500Y409606D02*
Y410952D01*
X242570Y412750D02*
X244014Y411306D01*
X251449Y370647D02*
X251453Y393345D01*
X241184Y328814D02*
X245174Y332804D01*
X230844Y412750D02*
X242570D01*
X227383Y410737D02*
X228373Y411727D01*
X227350Y409606D02*
Y410656D01*
X230308Y408502D02*
X231140Y407670D01*
X195580Y473710D02*
X236220Y433070D01*
X354279D01*
X300990Y509270D02*
Y515620D01*
Y509270D02*
X309880Y500380D01*
X363484Y433070D02*
X395021D01*
X361389Y435165D02*
Y439307D01*
X359294Y441402D02*
X359294D01*
X357199Y435165D02*
Y439307D01*
X354279Y433070D02*
X355104D01*
X395021D02*
X412750D01*
X230885Y428245D02*
X423165D01*
X195580Y463550D02*
X230885Y428245D01*
X423165D02*
X427990Y433070D01*
X255297Y351091D02*
Y356110D01*
X257392Y358205D02*
X257516D01*
X259611Y360300D02*
Y360300D01*
X257393Y362395D02*
X257516D01*
X255298Y364490D02*
X255298Y365537D01*
X255298Y366362D01*
X255297Y349841D02*
Y351091D01*
X265646Y346239D02*
Y348565D01*
X251460Y347980D02*
Y349482D01*
X251447Y349495D02*
X251449Y370647D01*
X251447Y349495D02*
X251460Y349482D01*
X228454Y408502D02*
X230308D01*
X227350Y409606D02*
X228454Y408502D01*
X219710Y407670D02*
X220542Y408502D01*
X222396D01*
X223500Y409606D01*
D130*
X556260Y209550D02*
X572770Y226060D01*
X510060Y187070D02*
X511810Y185320D01*
Y184570D02*
Y185320D01*
X488950Y187070D02*
X510060D01*
X445770Y167640D02*
X465200Y187070D01*
X488950D01*
X511810Y185320D02*
X513310Y186820D01*
X514060D02*
X525360Y198120D01*
X513310Y186820D02*
X514060D01*
X525360Y198120D02*
X547370D01*
X505460Y209550D02*
X556260D01*
X419100Y220980D02*
X430530Y209550D01*
X482600D01*
D131*
X540980Y649170D02*
D03*
X622980Y649170D02*
D03*
D132*
X561980Y636670D02*
D03*
X581980D02*
D03*
X601980D02*
D03*
X561980Y661670D02*
D03*
X581980D02*
D03*
D133*
X601980D02*
D03*
D134*
X588010Y312420D02*
D03*
X55880Y340360D02*
D03*
X24953Y443228D02*
D03*
X621030Y403860D02*
D03*
D135*
X588010Y337820D02*
D03*
Y363220D02*
D03*
Y388620D02*
D03*
Y414020D02*
D03*
Y439420D02*
D03*
Y464820D02*
D03*
Y490220D02*
D03*
Y515620D02*
D03*
X55880Y365760D02*
D03*
Y391160D02*
D03*
Y416560D02*
D03*
Y441960D02*
D03*
Y467360D02*
D03*
Y492760D02*
D03*
Y518160D02*
D03*
Y543560D02*
D03*
X24953Y468628D02*
D03*
Y494028D02*
D03*
Y519428D02*
D03*
Y544828D02*
D03*
Y570228D02*
D03*
Y595628D02*
D03*
Y621028D02*
D03*
Y646428D02*
D03*
X621030Y200660D02*
D03*
Y226060D02*
D03*
Y251460D02*
D03*
Y276860D02*
D03*
Y302260D02*
D03*
Y327660D02*
D03*
Y353060D02*
D03*
Y378460D02*
D03*
D136*
X467670Y217460D02*
D03*
X525470D02*
D03*
D137*
X324046Y290165D02*
D03*
X169146D02*
D03*
D138*
X303746Y259665D02*
D03*
X189446D02*
D03*
D139*
X312896Y219065D02*
D03*
X287496D02*
D03*
X205696D02*
D03*
X180296D02*
D03*
D140*
X291046Y348565D02*
D03*
X278346Y323165D02*
D03*
X265646Y348565D02*
D03*
X252946Y323165D02*
D03*
X240246Y348565D02*
D03*
X227546Y323165D02*
D03*
X214846Y348565D02*
D03*
X202146Y323165D02*
D03*
D141*
X15240Y683260D02*
D03*
X628650Y165100D02*
D03*
X586740Y275590D02*
D03*
D142*
X425010Y651510D02*
D03*
X399610D02*
D03*
X374210D02*
D03*
X348810D02*
D03*
X323410D02*
D03*
X298010D02*
D03*
X272610D02*
D03*
X463550Y359410D02*
D03*
X438150D02*
D03*
D143*
X247210Y651510D02*
D03*
X412750Y359410D02*
D03*
D144*
X474980Y671830D02*
D03*
X468630Y679450D02*
D03*
X562610Y589280D02*
D03*
X610870Y578880D02*
D03*
X497840Y637540D02*
D03*
X435610Y687070D02*
D03*
X496570Y654050D02*
D03*
X525780Y688340D02*
D03*
X584200Y535940D02*
D03*
X513080Y589280D02*
D03*
X506730Y601980D02*
D03*
X104140Y298450D02*
D03*
X90170Y293370D02*
D03*
X36830D02*
D03*
X114300Y325120D02*
D03*
X71120Y298450D02*
D03*
X21590Y243840D02*
D03*
X13970Y374650D02*
D03*
X21590Y294640D02*
D03*
X530860Y370840D02*
D03*
X544830Y518160D02*
D03*
X534670Y521970D02*
D03*
X567690Y478790D02*
D03*
X554630Y515260D02*
D03*
X570230Y457200D02*
D03*
X558391Y502618D02*
D03*
X532166Y552486D02*
D03*
X525780Y561340D02*
D03*
X509270Y486410D02*
D03*
X557340Y490220D02*
D03*
X556260Y462280D02*
D03*
X535940Y510540D02*
D03*
X547370Y389890D02*
D03*
X518160Y408940D02*
D03*
X463550Y541020D02*
D03*
Y529590D02*
D03*
X487680Y454660D02*
D03*
X537210Y412750D02*
D03*
X356870Y466090D02*
D03*
X231140Y407670D02*
D03*
X241300Y444500D02*
D03*
X233736Y444556D02*
D03*
X309880Y631110D02*
D03*
X480060Y440690D02*
D03*
X281940Y480060D02*
D03*
X427990Y433070D02*
D03*
X412750D02*
D03*
X195580Y463550D02*
D03*
Y473710D02*
D03*
X219710Y407670D02*
D03*
X448310Y381000D02*
D03*
X427990Y387350D02*
D03*
X601980Y257810D02*
D03*
X629920Y499110D02*
D03*
X416560Y177800D02*
D03*
X455930Y238760D02*
D03*
X535940Y237490D02*
D03*
X563880Y177800D02*
D03*
X360680Y492760D02*
D03*
X289560Y488950D02*
D03*
X196070Y451464D02*
D03*
X345440Y443230D02*
D03*
X382270Y466090D02*
D03*
X88900Y358140D02*
D03*
X19050Y279400D02*
D03*
X50800Y298450D02*
D03*
X24130Y162560D02*
D03*
X139700Y181610D02*
D03*
X579120Y256540D02*
D03*
X543560Y293370D02*
D03*
X572770Y226060D02*
D03*
X518160Y369570D02*
D03*
X449580Y269240D02*
D03*
X276860Y419100D02*
D03*
X334010Y377190D02*
D03*
X314960Y411480D02*
D03*
X452120Y511810D02*
D03*
X439420Y518160D02*
D03*
X430530Y530860D02*
D03*
X449580Y541020D02*
D03*
X341630Y544830D02*
D03*
X364490Y199390D02*
D03*
X78740Y354330D02*
D03*
X24130Y355600D02*
D03*
X158750Y373380D02*
D03*
X168910Y401320D02*
D03*
X153670D02*
D03*
X139700D02*
D03*
X161290Y472440D02*
D03*
X182880Y488950D02*
D03*
X189230Y520700D02*
D03*
X176530Y515620D02*
D03*
X193040Y533400D02*
D03*
X261620Y527050D02*
D03*
X242570Y515620D02*
D03*
X276860Y511810D02*
D03*
X353060Y551180D02*
D03*
X224790Y519430D02*
D03*
X226060Y505460D02*
D03*
X369570Y468630D02*
D03*
X424180Y633730D02*
D03*
X401320Y457200D02*
D03*
X547370Y198120D02*
D03*
X445770Y167640D02*
D03*
X419100Y220980D02*
D03*
X505460Y209550D02*
D03*
X482600D02*
D03*
X589280Y220980D02*
D03*
X391160Y513080D02*
D03*
X314960Y474980D02*
D03*
X336550Y477520D02*
D03*
X342900Y516890D02*
D03*
X99060Y443230D02*
D03*
X229870Y535940D02*
D03*
X99060Y408940D02*
D03*
X91440Y427990D02*
D03*
X106680Y396680D02*
D03*
Y361950D02*
D03*
X119380D02*
D03*
X185420Y445770D02*
D03*
X138430Y439420D02*
D03*
X416560Y471170D02*
D03*
X398780Y445770D02*
D03*
X375920Y452120D02*
D03*
X302731Y493950D02*
D03*
X452120Y411480D02*
D03*
X198120Y487680D02*
D03*
X309880Y500380D02*
D03*
X300990Y515620D02*
D03*
D145*
X626110Y518160D02*
D03*
D160*
X258899Y339939D02*
D03*
D161*
X104140Y217910D02*
D03*
Y246910D02*
D03*
X41910Y215370D02*
D03*
Y244370D02*
D03*
X16510Y338350D02*
D03*
Y309350D02*
D03*
X72390Y217910D02*
D03*
Y246910D02*
D03*
X133350Y217910D02*
D03*
Y246910D02*
D03*
D162*
X199270Y501690D02*
D03*
X184270D02*
D03*
D163*
X488950Y171070D02*
D03*
Y187070D02*
D03*
M02*
