G04*
G04 #@! TF.GenerationSoftware,Altium Limited,Altium Designer,24.4.1 (13)*
G04*
G04 Layer_Color=16711935*
%FSLAX44Y44*%
%MOMM*%
G71*
G04*
G04 #@! TF.SameCoordinates,A3252435-666A-4F3B-8FA1-24D8921DAC19*
G04*
G04*
G04 #@! TF.FilePolarity,Positive*
G04*
G01*
G75*
%ADD10C,0.1000*%
%ADD12C,0.2000*%
%ADD15C,0.1524*%
%ADD16C,0.2540*%
D10*
X90550Y327470D02*
Y335470D01*
X74550D02*
X90550D01*
X74550Y327470D02*
Y335470D01*
Y327470D02*
X90550D01*
X601980Y683670D02*
Y729670D01*
X599980Y733670D02*
X601980Y729670D01*
X597980D02*
X599980Y733670D01*
X595980D02*
X597980Y729670D01*
X593980D02*
X595980Y733670D01*
X591980D02*
X593980Y729670D01*
X589980Y729670D02*
X591980Y733670D01*
X587980D02*
X589980Y729670D01*
X585980Y729670D02*
X587980Y733670D01*
X583980D02*
X585980Y729670D01*
X581980D02*
X583980Y733670D01*
X581980Y683670D02*
Y729670D01*
X622980Y614670D02*
Y683670D01*
X540980D02*
X622980D01*
X540980Y614670D02*
Y683670D01*
Y614670D02*
X622980D01*
X599400Y580230D02*
Y590230D01*
X594400Y580230D02*
X599400D01*
X594400D02*
Y590230D01*
X599400D01*
X573850Y580020D02*
X576520Y577350D01*
X573850D02*
X581850D01*
Y593350D01*
X573850D02*
X581850D01*
X573850Y577350D02*
Y593350D01*
X496600Y684820D02*
X502100D01*
X496600Y674320D02*
X502100D01*
Y684820D01*
X496600Y674320D02*
Y684820D01*
X508050Y671720D02*
Y687720D01*
X516050D01*
Y671720D02*
Y687720D01*
X508050Y671720D02*
X516050D01*
X457219Y667076D02*
X487219D01*
X457219D02*
Y687076D01*
X487219D01*
Y667076D02*
Y687076D01*
X479719Y667076D02*
X487219Y674576D01*
X468420Y652950D02*
X473920D01*
X468420Y642450D02*
X473920D01*
Y652950D01*
X468420Y642450D02*
Y652950D01*
X444166Y678270D02*
X449166D01*
Y688270D01*
X444166D02*
X449166D01*
X444166Y678270D02*
Y688270D01*
X452950Y638550D02*
X461450D01*
Y654310D01*
X452950D02*
X461450D01*
X452950Y638550D02*
Y654310D01*
X487870Y639700D02*
Y655700D01*
X479870Y639700D02*
X487870D01*
X479870D02*
Y655700D01*
X487870D01*
X506770Y461090D02*
Y471090D01*
X511770D01*
Y461090D02*
Y471090D01*
X506770Y461090D02*
X511770D01*
X451870Y154660D02*
X541270D01*
Y228160D01*
X451870D02*
X541270D01*
X451870Y154660D02*
Y228160D01*
X509310Y174070D02*
Y184070D01*
Y174070D02*
X514310D01*
Y184070D01*
X509310D02*
X514310D01*
X233010Y666510D02*
X439210D01*
Y691910D01*
X233010D02*
X439210D01*
X233010Y666510D02*
Y691910D01*
X77300Y341420D02*
Y346920D01*
X87800Y341420D02*
Y346920D01*
X77300D02*
X87800D01*
X77300Y341420D02*
X87800D01*
X368490Y538100D02*
Y554100D01*
X360490Y538100D02*
X368490D01*
X360490D02*
Y554100D01*
X368490D01*
X381210Y539580D02*
Y550080D01*
X375710Y539580D02*
Y550080D01*
X381210D01*
X375710Y539580D02*
X381210D01*
X115610Y340440D02*
Y350440D01*
X120610D01*
Y340440D02*
Y350440D01*
X115610Y340440D02*
X120610D01*
X102910D02*
Y350440D01*
X107910D01*
Y340440D02*
Y350440D01*
X102910Y340440D02*
X107910D01*
X87190Y376810D02*
Y392570D01*
X95690D01*
Y376810D02*
Y392570D01*
X87190Y376810D02*
X95690D01*
X269050Y452640D02*
Y468640D01*
X277050D01*
Y452640D02*
Y468640D01*
X269050Y452640D02*
X277050D01*
X304880Y396200D02*
X314880D01*
Y391200D02*
Y396200D01*
X304880Y391200D02*
X314880D01*
X304880D02*
Y396200D01*
X173780Y415120D02*
X179280D01*
X173780Y425620D02*
X179280D01*
X173780Y415120D02*
Y425620D01*
X179280Y415120D02*
Y425620D01*
X189240Y412540D02*
X199740D01*
X189240Y418040D02*
X199740D01*
Y412540D02*
Y418040D01*
X189240Y412540D02*
Y418040D01*
X137990Y335020D02*
X146490D01*
Y350780D01*
X137990D02*
X146490D01*
X137990Y335020D02*
Y350780D01*
X33060Y331550D02*
X38060D01*
Y341550D01*
X33060D02*
X38060D01*
X33060Y331550D02*
Y341550D01*
X20360Y332820D02*
X25360D01*
Y342820D01*
X20360D02*
X25360D01*
X20360Y332820D02*
Y342820D01*
X482640Y259700D02*
Y273700D01*
X513040Y259700D02*
Y273700D01*
X482640Y259700D02*
X513040D01*
X482640Y273700D02*
X513040D01*
X159830Y427100D02*
X167830D01*
X159830Y411100D02*
Y427100D01*
Y411100D02*
X167830D01*
Y427100D01*
X140930Y415370D02*
Y425370D01*
X135930Y415370D02*
X140930D01*
X135930D02*
Y425370D01*
X140930D01*
X147110Y425620D02*
X152610D01*
X147110Y415120D02*
X152610D01*
Y425620D01*
X147110Y415120D02*
Y425620D01*
X400050Y347010D02*
Y371810D01*
Y347010D02*
X476250D01*
Y371810D01*
X400050D02*
X476250D01*
X183890Y505940D02*
X199650D01*
X183890Y497440D02*
Y505940D01*
Y497440D02*
X199650D01*
Y505940D01*
X558610Y391160D02*
X566610D01*
Y407160D01*
X558610D02*
X566610D01*
X558610Y391160D02*
Y407160D01*
X557340Y289940D02*
X565340D01*
X557340Y273940D02*
Y289940D01*
Y273940D02*
X565340D01*
Y289940D01*
X507790Y515450D02*
X513290D01*
X507790Y525950D02*
X513290D01*
X507790Y515450D02*
Y525950D01*
X513290Y515450D02*
Y525950D01*
X391170Y463340D02*
X401670D01*
X391170Y468840D02*
X401670D01*
Y463340D02*
Y468840D01*
X391170Y463340D02*
Y468840D01*
X479931Y464090D02*
X490431D01*
X479931Y469590D02*
X490431D01*
Y464090D02*
Y469590D01*
X479931Y464090D02*
Y469590D01*
X519240Y528700D02*
X527240D01*
X519240Y512700D02*
Y528700D01*
Y512700D02*
X527240D01*
Y528700D01*
X506770Y429180D02*
X511770D01*
X506770Y419180D02*
Y429180D01*
Y419180D02*
X511770D01*
Y429180D01*
X444120Y609790D02*
X460120D01*
Y601790D02*
Y609790D01*
X444120Y601790D02*
X460120D01*
X444120D02*
Y609790D01*
X446870Y594570D02*
X446870Y589070D01*
X457370Y589070D02*
Y594570D01*
X446870Y594570D02*
X457370Y594570D01*
X446870Y589070D02*
X457370Y589070D01*
X595440Y195200D02*
Y211200D01*
X603440D01*
Y195200D02*
Y211200D01*
X595440Y195200D02*
X603440D01*
X543391Y490800D02*
Y501300D01*
X548891Y490800D02*
Y501300D01*
X543391Y490800D02*
X548891D01*
X543391Y501300D02*
X548891D01*
X578290Y188970D02*
Y204730D01*
X569790Y188970D02*
X578290D01*
X569790D02*
Y204730D01*
X578290D01*
X375480Y182740D02*
Y198500D01*
X383980D01*
Y182740D02*
Y198500D01*
X375480Y182740D02*
X383980D01*
X345000Y182620D02*
X353500D01*
Y198380D01*
X345000D02*
X353500D01*
X345000Y182620D02*
Y198380D01*
X264370Y375570D02*
Y386070D01*
X258870Y375570D02*
Y386070D01*
X264370D01*
X258870Y375570D02*
X264370D01*
X244900D02*
X250400D01*
X244900Y386070D02*
X250400D01*
X244900Y375570D02*
Y386070D01*
X250400Y375570D02*
Y386070D01*
X239820Y493860D02*
Y504360D01*
X245320Y493860D02*
Y504360D01*
X239820Y493860D02*
X245320D01*
X239820Y504360D02*
X245320D01*
X307540Y419610D02*
Y451610D01*
X332540D01*
Y419610D02*
Y451610D01*
X307540Y419610D02*
X332540D01*
X321820Y625920D02*
X337820D01*
X321820D02*
Y633920D01*
X337820D01*
Y625920D02*
Y633920D01*
X617840Y534710D02*
X631840D01*
X617840Y565110D02*
X631840D01*
Y534710D02*
Y565110D01*
X617840Y534710D02*
Y565110D01*
X577970Y162560D02*
Y167640D01*
Y162560D02*
X587890D01*
Y167640D01*
X577970D02*
X587890D01*
X422080Y191510D02*
Y207270D01*
X413580Y191510D02*
X422080D01*
X413580D02*
Y207270D01*
X422080D01*
X618490Y430650D02*
Y440570D01*
X623570D01*
Y430650D02*
Y440570D01*
X618490Y430650D02*
X623570D01*
X605830Y478170D02*
X636230D01*
X605830Y464170D02*
X636230D01*
Y478170D01*
X605830Y464170D02*
Y478170D01*
D12*
X5680Y313880D02*
X144180D01*
Y152390D02*
Y313880D01*
X5680Y152390D02*
X144180D01*
X5680D02*
Y313880D01*
X520320Y434850D02*
Y466850D01*
X545320D01*
Y434850D02*
Y466850D01*
X520320Y434850D02*
X545320D01*
X278130Y580510D02*
Y600510D01*
X268130Y580510D02*
X278130D01*
X268130D02*
Y600510D01*
X278130D01*
X416600Y445850D02*
X421600D01*
Y455850D01*
X416600D02*
X421600D01*
X416600Y445850D02*
Y455850D01*
X431840Y445850D02*
Y455850D01*
X436840D01*
Y445850D02*
Y455850D01*
X431840Y445850D02*
X436840D01*
X301880Y381190D02*
X317880D01*
Y373190D02*
Y381190D01*
X301880Y373190D02*
X317880D01*
X301880D02*
Y381190D01*
X595440Y226950D02*
Y242950D01*
X603440D01*
Y226950D02*
Y242950D01*
X595440Y226950D02*
X603440D01*
X484950Y187070D02*
X492950D01*
Y171070D02*
Y187070D01*
X484950Y171070D02*
X492950D01*
X484950D02*
Y187070D01*
X161330Y462240D02*
X171330D01*
Y457240D02*
Y462240D01*
X161330Y457240D02*
X171330D01*
X161330D02*
Y462240D01*
X379650Y482640D02*
Y487640D01*
X369650D02*
X379650D01*
X369650Y482640D02*
Y487640D01*
Y482640D02*
X379650D01*
X248840Y523280D02*
Y528280D01*
X238840D02*
X248840D01*
X238840Y523280D02*
Y528280D01*
Y523280D02*
X248840D01*
X200700Y513040D02*
X205700D01*
X200700Y503040D02*
Y513040D01*
Y503040D02*
X205700D01*
Y513040D01*
X370920D02*
X380920D01*
Y508040D02*
Y513040D01*
X370920Y508040D02*
X380920D01*
X370920D02*
Y513040D01*
Y500340D02*
X380920D01*
Y495340D02*
Y500340D01*
X370920Y495340D02*
X380920D01*
X370920D02*
Y500340D01*
X290910Y472480D02*
X300910D01*
X290910D02*
Y477480D01*
X300910D01*
Y472480D02*
Y477480D01*
X215780Y527130D02*
Y532130D01*
X205780D02*
X215780D01*
X205780Y527130D02*
Y532130D01*
Y527130D02*
X215780D01*
D15*
X600202Y297180D02*
Y530860D01*
X575818D02*
X600202D01*
X575818Y297180D02*
Y530860D01*
Y297180D02*
X600202D01*
X68072Y325120D02*
Y558800D01*
X43688D02*
X68072D01*
X43688Y325120D02*
Y558800D01*
Y325120D02*
X68072D01*
X12761Y427988D02*
Y661668D01*
X37145D01*
Y427988D02*
Y661668D01*
X12761Y427988D02*
X37145D01*
X608838Y419100D02*
X633222D01*
X608838Y185420D02*
Y419100D01*
Y185420D02*
X633222D01*
Y419100D01*
D16*
X167196Y150665D02*
Y366565D01*
Y150665D02*
X325996D01*
Y366565D01*
X167196D02*
X325996D01*
M02*
