G04*
G04 #@! TF.GenerationSoftware,Altium Limited,Altium Designer,24.4.1 (13)*
G04*
G04 Layer_Color=32768*
%FSLAX44Y44*%
%MOMM*%
G71*
G04*
G04 #@! TF.SameCoordinates,A3252435-666A-4F3B-8FA1-24D8921DAC19*
G04*
G04*
G04 #@! TF.FilePolarity,Positive*
G04*
G01*
G75*
%ADD12C,0.2000*%
D12*
X500164Y474716D02*
Y583424D01*
X391457Y474716D02*
X500164D01*
X391457D02*
Y583424D01*
X500164D01*
X204326Y421496D02*
X263034D01*
Y480204D01*
X204326D02*
X263034D01*
X204326Y421496D02*
Y480204D01*
X209791Y368169D02*
Y388751D01*
X171209D02*
X209791D01*
X171209Y368169D02*
Y388751D01*
Y368169D02*
X209791D01*
X176739Y391249D02*
X206801D01*
X176739D02*
Y406311D01*
X206801D01*
Y391249D02*
Y406311D01*
X512670Y340790D02*
X556670D01*
X512670D02*
Y362790D01*
X556670D01*
Y340790D02*
Y362790D01*
X512670Y315390D02*
X556670D01*
X512670D02*
Y337390D01*
X556670D01*
Y315390D02*
Y337390D01*
X549462Y371558D02*
X567187D01*
X549462D02*
Y380282D01*
X567187D01*
Y371558D02*
Y380282D01*
X548668Y300438D02*
X566392D01*
X548668D02*
Y309162D01*
X566392D01*
Y300438D02*
Y309162D01*
X429058Y627662D02*
X449782D01*
Y616938D02*
Y627662D01*
X429058Y616938D02*
X449782D01*
X429058D02*
Y627662D01*
X536263Y484418D02*
Y505142D01*
X525538Y484418D02*
X536263D01*
X525538D02*
Y505142D01*
X536263D01*
X282928Y419623D02*
Y440348D01*
X293652D01*
Y419623D02*
Y440348D01*
X282928Y419623D02*
X293652D01*
X282928Y463752D02*
X293652D01*
X282928Y443028D02*
Y463752D01*
Y443028D02*
X293652D01*
Y463752D01*
X251549Y489159D02*
Y519221D01*
X266611D01*
Y489159D02*
Y519221D01*
X251549Y489159D02*
X266611D01*
M02*
