G04*
G04 #@! TF.GenerationSoftware,Altium Limited,Altium Designer,24.4.1 (13)*
G04*
G04 Layer_Color=32768*
%FSLAX44Y44*%
%MOMM*%
G71*
G04*
G04 #@! TF.SameCoordinates,A3252435-666A-4F3B-8FA1-24D8921DAC19*
G04*
G04*
G04 #@! TF.FilePolarity,Positive*
G04*
G01*
G75*
%ADD10C,0.1000*%
%ADD14C,0.0500*%
D10*
X646100Y604670D02*
Y743670D01*
X517860D02*
X646100D01*
X517860Y604670D02*
Y743670D01*
Y604670D02*
X646100D01*
X499350Y676820D02*
Y682320D01*
X496600Y679570D02*
X502100D01*
X471170Y644950D02*
Y650450D01*
X468420Y647700D02*
X473920D01*
X1930Y319760D02*
X148930D01*
Y151760D02*
Y319760D01*
X1930Y151760D02*
X148930D01*
X1930D02*
Y319760D01*
X509060Y422850D02*
Y478850D01*
X562820D01*
Y422850D02*
Y478850D01*
X509060Y422850D02*
X562820D01*
X427870Y243960D02*
X565270D01*
Y144660D02*
Y243960D01*
X427870Y144660D02*
X565270D01*
X427870D02*
Y243960D01*
X79800Y344170D02*
X85300D01*
X82550Y341420D02*
Y346920D01*
X375710Y544830D02*
X381210D01*
X378460Y542080D02*
Y547580D01*
X176530Y417620D02*
Y423120D01*
X173780Y420370D02*
X179280D01*
X194490Y412540D02*
Y418040D01*
X191740Y415290D02*
X197240D01*
X492840Y266700D02*
X502840D01*
X497840Y261700D02*
Y271700D01*
X149860Y417620D02*
Y423120D01*
X147110Y420370D02*
X152610D01*
X510540Y517950D02*
Y523450D01*
X507790Y520700D02*
X513290D01*
X396420Y463340D02*
Y468840D01*
X393670Y466090D02*
X399170D01*
X485181Y464090D02*
Y469590D01*
X482431Y466840D02*
X487931D01*
X449370Y591820D02*
X454870D01*
X452120Y589070D02*
Y594570D01*
X543391Y496050D02*
X548891D01*
X546141Y493300D02*
Y498800D01*
X153830Y467240D02*
X178830D01*
Y452240D02*
Y467240D01*
X153830Y452240D02*
X178830D01*
X153830D02*
Y467240D01*
X256340Y518280D02*
Y533280D01*
X231340D02*
X256340D01*
X231340Y518280D02*
Y533280D01*
Y518280D02*
X256340D01*
X195700Y520540D02*
X210700D01*
X195700Y495540D02*
Y520540D01*
Y495540D02*
X210700D01*
Y520540D01*
X258870Y380820D02*
X264370D01*
X261620Y378070D02*
Y383570D01*
X247650Y378070D02*
Y383570D01*
X244900Y380820D02*
X250400D01*
X239820Y499110D02*
X245320D01*
X242570Y496360D02*
Y501860D01*
X283410Y467480D02*
X308410D01*
X283410D02*
Y482480D01*
X308410D01*
Y467480D02*
Y482480D01*
X223280Y522130D02*
Y537130D01*
X198280D02*
X223280D01*
X198280Y522130D02*
Y537130D01*
Y522130D02*
X223280D01*
X296040Y407610D02*
Y463610D01*
X344040D01*
Y407610D02*
Y463610D01*
X296040Y407610D02*
X344040D01*
X624840Y544910D02*
Y554910D01*
X619840Y549910D02*
X629840D01*
X621030Y466170D02*
Y476170D01*
X616030Y471170D02*
X626030D01*
D14*
X95200Y325070D02*
Y337870D01*
X69900D02*
X95200D01*
X69900Y325070D02*
Y337870D01*
Y325070D02*
X95200D01*
X602400Y573480D02*
Y596980D01*
X591400Y573480D02*
X602400D01*
X591400D02*
Y596980D01*
X602400D01*
X568600Y568850D02*
X587100D01*
Y601850D01*
X568600D02*
X587100D01*
X568600Y568850D02*
Y601850D01*
X493350Y690570D02*
X505350D01*
X493350Y668570D02*
X505350D01*
Y690570D01*
X493350Y668570D02*
Y690570D01*
X505650Y667070D02*
Y692370D01*
X518450D01*
Y667070D02*
Y692370D01*
X505650Y667070D02*
X518450D01*
X450969Y664576D02*
X493469D01*
X450969D02*
Y689576D01*
X493469D01*
Y664576D02*
Y689576D01*
X465170Y658700D02*
X477170D01*
X465170Y636700D02*
X477170D01*
Y658700D01*
X465170Y636700D02*
Y658700D01*
X442066Y674170D02*
X451266D01*
Y692370D01*
X442066D02*
X451266D01*
X442066Y674170D02*
Y692370D01*
X449700Y632180D02*
X464700D01*
Y660680D01*
X449700D02*
X464700D01*
X449700Y632180D02*
Y660680D01*
X490270Y635050D02*
Y660350D01*
X477470Y635050D02*
X490270D01*
X477470D02*
Y660350D01*
X490270D01*
X504670Y456990D02*
Y475190D01*
X513870D01*
Y456990D02*
Y475190D01*
X504670Y456990D02*
X513870D01*
X506310Y167320D02*
Y190820D01*
Y167320D02*
X517310D01*
Y190820D01*
X506310D02*
X517310D01*
X230510Y638260D02*
Y754410D01*
X441710D01*
Y638260D02*
Y754410D01*
X230510Y638260D02*
X441710D01*
X71550Y338170D02*
Y350170D01*
X93550Y338170D02*
Y350170D01*
X71550D02*
X93550D01*
X71550Y338170D02*
X93550D01*
X370890Y533450D02*
Y558750D01*
X358090Y533450D02*
X370890D01*
X358090D02*
Y558750D01*
X370890D01*
X384460Y533830D02*
Y555830D01*
X372460Y533830D02*
Y555830D01*
X384460D01*
X372460Y533830D02*
X384460D01*
X112610Y333690D02*
Y357190D01*
X123610D01*
Y333690D02*
Y357190D01*
X112610Y333690D02*
X123610D01*
X99910D02*
Y357190D01*
X110910D01*
Y333690D02*
Y357190D01*
X99910Y333690D02*
X110910D01*
X83940Y370440D02*
Y398940D01*
X98940D01*
Y370440D02*
Y398940D01*
X83940Y370440D02*
X98940D01*
X406600Y430725D02*
X431600D01*
Y466350D01*
X406600D02*
X431600D01*
X406600Y430725D02*
Y466350D01*
X421840Y430725D02*
Y466350D01*
X446840D01*
Y430725D02*
Y466350D01*
X421840Y430725D02*
X446840D01*
X265550Y445390D02*
Y475890D01*
X280550D01*
Y445390D02*
Y475890D01*
X265550Y445390D02*
X280550D01*
X289130Y391190D02*
X330630D01*
Y363190D02*
Y391190D01*
X289130Y363190D02*
X330630D01*
X289130D02*
Y391190D01*
X298130Y399200D02*
X321630D01*
Y388200D02*
Y399200D01*
X298130Y388200D02*
X321630D01*
X298130D02*
Y399200D01*
X170530Y409370D02*
X182530D01*
X170530Y431370D02*
X182530D01*
X170530Y409370D02*
Y431370D01*
X182530Y409370D02*
Y431370D01*
X183490Y409290D02*
X205490D01*
X183490Y421290D02*
X205490D01*
Y409290D02*
Y421290D01*
X183490Y409290D02*
Y421290D01*
X134740Y328650D02*
X149740D01*
Y357150D01*
X134740D02*
X149740D01*
X134740Y328650D02*
Y357150D01*
X30060Y324800D02*
X41060D01*
Y348300D01*
X30060D02*
X41060D01*
X30060Y324800D02*
Y348300D01*
X17360Y326070D02*
X28360D01*
Y349570D01*
X17360D02*
X28360D01*
X17360Y326070D02*
Y349570D01*
X481340Y248200D02*
Y285200D01*
X514340Y248200D02*
Y285200D01*
X481340Y248200D02*
X514340D01*
X481340Y285200D02*
X514340D01*
X157630Y431350D02*
X170030D01*
X157630Y406850D02*
Y431350D01*
Y406850D02*
X170030D01*
Y431350D01*
X143930Y408620D02*
Y432120D01*
X132930Y408620D02*
X143930D01*
X132930D02*
Y432120D01*
X143930D01*
X143860Y431370D02*
X155860D01*
X143860Y409370D02*
X155860D01*
Y431370D01*
X143860Y409370D02*
Y431370D01*
X397550Y344510D02*
Y374310D01*
Y344510D02*
X478750D01*
Y374310D01*
X397550D02*
X478750D01*
X177520Y509190D02*
X206020D01*
X177520Y494190D02*
Y509190D01*
Y494190D02*
X206020D01*
Y509190D01*
X555110Y384660D02*
X570110D01*
Y413660D01*
X555110D02*
X570110D01*
X555110Y384660D02*
Y413660D01*
X553840Y296440D02*
X568840D01*
X553840Y267440D02*
Y296440D01*
Y267440D02*
X568840D01*
Y296440D01*
X504540Y509700D02*
X516540D01*
X504540Y531700D02*
X516540D01*
X504540Y509700D02*
Y531700D01*
X516540Y509700D02*
Y531700D01*
X385420Y460090D02*
X407420D01*
X385420Y472090D02*
X407420D01*
Y460090D02*
Y472090D01*
X385420Y460090D02*
Y472090D01*
X474181Y460840D02*
X496181D01*
X474181Y472840D02*
X496181D01*
Y460840D02*
Y472840D01*
X474181Y460840D02*
Y472840D01*
X516840Y533350D02*
X529640D01*
X516840Y508050D02*
Y533350D01*
Y508050D02*
X529640D01*
Y533350D01*
X504670Y433280D02*
X513870D01*
X504670Y415080D02*
Y433280D01*
Y415080D02*
X513870D01*
Y433280D01*
X439470Y612190D02*
X464770D01*
Y599390D02*
Y612190D01*
X439470Y599390D02*
X464770D01*
X439470D02*
Y612190D01*
X441120Y585820D02*
Y597820D01*
X463120D02*
X463120Y585820D01*
X441120Y597820D02*
X463120D01*
X441120Y585820D02*
X463120D01*
X591940Y188700D02*
Y217700D01*
X606940D01*
Y188700D02*
Y217700D01*
X591940Y188700D02*
X606940D01*
X585440Y210200D02*
Y253450D01*
X613440D01*
Y210200D02*
Y253450D01*
X585440Y210200D02*
X613440D01*
X540141Y485050D02*
Y507050D01*
X552141Y485050D02*
Y507050D01*
X540141Y485050D02*
X552141D01*
X540141Y507050D02*
X552141D01*
X581540Y182600D02*
Y211100D01*
X566540Y182600D02*
X581540D01*
X566540D02*
Y211100D01*
X581540D01*
X474950Y199820D02*
X502950D01*
Y158320D02*
Y199820D01*
X474950Y158320D02*
X502950D01*
X474950D02*
Y199820D01*
X372230Y176370D02*
Y204870D01*
X387230D01*
Y176370D02*
Y204870D01*
X372230Y176370D02*
X387230D01*
X341750Y176250D02*
X356750D01*
Y204750D01*
X341750D02*
X356750D01*
X341750Y176250D02*
Y204750D01*
X394775Y472640D02*
Y497640D01*
X359150D02*
X394775D01*
X359150Y472640D02*
Y497640D01*
Y472640D02*
X394775D01*
X267620Y369820D02*
Y391820D01*
X255620Y369820D02*
Y391820D01*
X267620D01*
X255620Y369820D02*
X267620D01*
X241650D02*
X253650D01*
X241650Y391820D02*
X253650D01*
X241650Y369820D02*
Y391820D01*
X253650Y369820D02*
Y391820D01*
X355795Y523040D02*
X391420D01*
Y498040D02*
Y523040D01*
X355795Y498040D02*
X391420D01*
X355795D02*
Y523040D01*
Y510340D02*
X391420D01*
Y485340D02*
Y510340D01*
X355795Y485340D02*
X391420D01*
X355795D02*
Y510340D01*
X236570Y488110D02*
Y510110D01*
X248570Y488110D02*
Y510110D01*
X236570Y488110D02*
X248570D01*
X236570Y510110D02*
X248570D01*
X315320Y622420D02*
X344320D01*
X315320D02*
Y637420D01*
X344320D01*
Y622420D02*
Y637420D01*
X606340Y533410D02*
X643340D01*
X606340Y566410D02*
X643340D01*
Y533410D02*
Y566410D01*
X606340Y533410D02*
Y566410D01*
X571430Y159550D02*
Y170650D01*
Y159550D02*
X594430D01*
Y170650D01*
X571430D02*
X594430D01*
X425330Y185140D02*
Y213640D01*
X410330Y185140D02*
X425330D01*
X410330D02*
Y213640D01*
X425330D01*
X615480Y424110D02*
Y447110D01*
X626580D01*
Y424110D02*
Y447110D01*
X615480Y424110D02*
X626580D01*
X604530Y489670D02*
X637530D01*
X604530Y452670D02*
X637530D01*
Y489670D01*
X604530Y452670D02*
Y489670D01*
M02*
