G04*
G04 #@! TF.GenerationSoftware,Altium Limited,Altium Designer,24.4.1 (13)*
G04*
G04 Layer_Color=2752767*
%FSLAX44Y44*%
%MOMM*%
G71*
G04*
G04 #@! TF.SameCoordinates,A3252435-666A-4F3B-8FA1-24D8921DAC19*
G04*
G04*
G04 #@! TF.FilePolarity,Positive*
G04*
G01*
G75*
%ADD166C,0.1270*%
%ADD167C,0.1693*%
%ADD168C,0.1016*%
D166*
X538440Y646630D02*
Y644090D01*
X543520D01*
Y646630D01*
X546060D01*
Y651710D01*
X543520D01*
Y654250D01*
X538440D01*
Y651710D01*
X535900D01*
Y646630D01*
X538440D01*
X620440Y646630D02*
Y644090D01*
X625520D01*
Y646630D01*
X628060D01*
Y651710D01*
X625520D01*
Y654250D01*
X620440D01*
Y651710D01*
X617900D01*
Y646630D01*
X620440D01*
X556900Y631590D02*
X559440Y636670D01*
X556900Y641750D01*
X561980Y639210D01*
X567060Y641750D01*
X564520Y636670D01*
X567060Y631590D01*
X561980Y634130D01*
X556900Y631590D01*
X576900D02*
X579440Y636670D01*
X576900Y641750D01*
X581980Y639210D01*
X587060Y641750D01*
X584520Y636670D01*
X587060Y631590D01*
X581980Y634130D01*
X576900Y631590D01*
X596900D02*
X599440Y636670D01*
X596900Y641750D01*
X601980Y639210D01*
X607060Y641750D01*
X604520Y636670D01*
X607060Y631590D01*
X601980Y634130D01*
X596900Y631590D01*
X556900Y656590D02*
X559440Y661670D01*
X556900Y666750D01*
X561980Y664210D01*
X567060Y666750D01*
X564520Y661670D01*
X567060Y656590D01*
X561980Y659130D01*
X556900Y656590D01*
X576900D02*
X579440Y661670D01*
X576900Y666750D01*
X581980Y664210D01*
X587060Y666750D01*
X584520Y661670D01*
X587060Y656590D01*
X581980Y659130D01*
X576900Y656590D01*
X596900D02*
X599440Y661670D01*
X596900Y666750D01*
X601980Y664210D01*
X607060Y666750D01*
X604520Y661670D01*
X607060Y656590D01*
X601980Y659130D01*
X596900Y656590D01*
X462590Y212380D02*
Y222540D01*
X472750D01*
Y212380D01*
X462590D01*
X520390D02*
Y222540D01*
X530550D01*
Y212380D01*
X520390D01*
X318966Y290165D02*
X324046Y295245D01*
X329126Y290165D01*
X324046Y285085D01*
X318966Y290165D01*
X298666Y254585D02*
Y264745D01*
X308826D01*
Y254585D01*
X298666D01*
X300698Y256617D02*
Y262713D01*
X306794D01*
Y256617D01*
X300698D01*
X184366Y254585D02*
Y264745D01*
X194526D01*
Y254585D01*
X184366D01*
X186398Y256617D02*
Y262713D01*
X192494D01*
Y256617D01*
X186398D01*
X164066Y290165D02*
X169146Y295245D01*
X174226Y290165D01*
X169146Y285085D01*
X164066Y290165D01*
X312896Y213985D02*
X315436Y216525D01*
X317976D01*
X315436Y219065D01*
X317976Y221605D01*
X315436D01*
X312896Y224145D01*
X310356Y221605D01*
X307816D01*
X310356Y219065D01*
X307816Y216525D01*
X310356D01*
X312896Y213985D01*
X287496D02*
X290036Y216525D01*
X292576D01*
X290036Y219065D01*
X292576Y221605D01*
X290036D01*
X287496Y224145D01*
X284956Y221605D01*
X282416D01*
X284956Y219065D01*
X282416Y216525D01*
X284956D01*
X287496Y213985D01*
X205696D02*
X208236Y216525D01*
X210776D01*
X208236Y219065D01*
X210776Y221605D01*
X208236D01*
X205696Y224145D01*
X203156Y221605D01*
X200616D01*
X203156Y219065D01*
X200616Y216525D01*
X203156D01*
X205696Y213985D01*
X180296D02*
X182836Y216525D01*
X185376D01*
X182836Y219065D01*
X185376Y221605D01*
X182836D01*
X180296Y224145D01*
X177756Y221605D01*
X175216D01*
X177756Y219065D01*
X175216Y216525D01*
X177756D01*
X180296Y213985D01*
X291046Y343485D02*
X285966Y353645D01*
X296126D01*
X291046Y343485D01*
X278346Y318085D02*
X273266Y328245D01*
X283426D01*
X278346Y318085D01*
X265646Y343485D02*
X260566Y353645D01*
X270726D01*
X265646Y343485D01*
X252946Y318085D02*
X247866Y328245D01*
X258026D01*
X252946Y318085D01*
X240246Y343485D02*
X235166Y353645D01*
X245326D01*
X240246Y343485D01*
X227546Y318085D02*
X222466Y328245D01*
X232626D01*
X227546Y318085D01*
X214846Y343485D02*
X209766Y353645D01*
X219926D01*
X214846Y343485D01*
X202146Y318085D02*
X197066Y328245D01*
X207226D01*
X202146Y318085D01*
X15240Y678180D02*
X17780Y680720D01*
X20320D01*
X17780Y683260D01*
X20320Y685800D01*
X17780D01*
X15240Y688340D01*
X12700Y685800D01*
X10160D01*
X12700Y683260D01*
X10160Y680720D01*
X12700D01*
X15240Y678180D01*
Y680212D02*
X16764Y681736D01*
X18288D01*
X16764Y683260D01*
X18288Y684784D01*
X16764D01*
X15240Y686308D01*
X13716Y684784D01*
X12192D01*
X13716Y683260D01*
X12192Y681736D01*
X13716D01*
X15240Y680212D01*
X419930Y646430D02*
X422470D01*
X425010Y648970D01*
X427550Y646430D01*
X430090D01*
Y648970D01*
X427550Y651510D01*
X430090Y654050D01*
Y656590D01*
X427550D01*
X425010Y654050D01*
X422470Y656590D01*
X419930D01*
Y654050D01*
X422470Y651510D01*
X419930Y648970D01*
Y646430D01*
X394530D02*
X397070D01*
X399610Y648970D01*
X402150Y646430D01*
X404690D01*
Y648970D01*
X402150Y651510D01*
X404690Y654050D01*
Y656590D01*
X402150D01*
X399610Y654050D01*
X397070Y656590D01*
X394530D01*
Y654050D01*
X397070Y651510D01*
X394530Y648970D01*
Y646430D01*
X369130D02*
X371670D01*
X374210Y648970D01*
X376750Y646430D01*
X379290D01*
Y648970D01*
X376750Y651510D01*
X379290Y654050D01*
Y656590D01*
X376750D01*
X374210Y654050D01*
X371670Y656590D01*
X369130D01*
Y654050D01*
X371670Y651510D01*
X369130Y648970D01*
Y646430D01*
X343730D02*
X346270D01*
X348810Y648970D01*
X351350Y646430D01*
X353890D01*
Y648970D01*
X351350Y651510D01*
X353890Y654050D01*
Y656590D01*
X351350D01*
X348810Y654050D01*
X346270Y656590D01*
X343730D01*
Y654050D01*
X346270Y651510D01*
X343730Y648970D01*
Y646430D01*
X318330D02*
X320870D01*
X323410Y648970D01*
X325950Y646430D01*
X328490D01*
Y648970D01*
X325950Y651510D01*
X328490Y654050D01*
Y656590D01*
X325950D01*
X323410Y654050D01*
X320870Y656590D01*
X318330D01*
Y654050D01*
X320870Y651510D01*
X318330Y648970D01*
Y646430D01*
X292930D02*
X295470D01*
X298010Y648970D01*
X300550Y646430D01*
X303090D01*
Y648970D01*
X300550Y651510D01*
X303090Y654050D01*
Y656590D01*
X300550D01*
X298010Y654050D01*
X295470Y656590D01*
X292930D01*
Y654050D01*
X295470Y651510D01*
X292930Y648970D01*
Y646430D01*
X267530D02*
X270070D01*
X272610Y648970D01*
X275150Y646430D01*
X277690D01*
Y648970D01*
X275150Y651510D01*
X277690Y654050D01*
Y656590D01*
X275150D01*
X272610Y654050D01*
X270070Y656590D01*
X267530D01*
Y654050D01*
X270070Y651510D01*
X267530Y648970D01*
Y646430D01*
X242130D02*
X244670D01*
X247210Y648970D01*
X249750Y646430D01*
X252290D01*
Y648970D01*
X249750Y651510D01*
X252290Y654050D01*
Y656590D01*
X249750D01*
X247210Y654050D01*
X244670Y656590D01*
X242130D01*
Y654050D01*
X244670Y651510D01*
X242130Y648970D01*
Y646430D01*
X628650Y160020D02*
X631190Y162560D01*
X633730D01*
X631190Y165100D01*
X633730Y167640D01*
X631190D01*
X628650Y170180D01*
X626110Y167640D01*
X623570D01*
X626110Y165100D01*
X623570Y162560D01*
X626110D01*
X628650Y160020D01*
Y162052D02*
X630174Y163576D01*
X631698D01*
X630174Y165100D01*
X631698Y166624D01*
X630174D01*
X628650Y168148D01*
X627126Y166624D01*
X625602D01*
X627126Y165100D01*
X625602Y163576D01*
X627126D01*
X628650Y162052D01*
X586740Y270510D02*
X589280Y273050D01*
X591820D01*
X589280Y275590D01*
X591820Y278130D01*
X589280D01*
X586740Y280670D01*
X584200Y278130D01*
X581660D01*
X584200Y275590D01*
X581660Y273050D01*
X584200D01*
X586740Y270510D01*
Y272542D02*
X588264Y274066D01*
X589788D01*
X588264Y275590D01*
X589788Y277114D01*
X588264D01*
X586740Y278638D01*
X585216Y277114D01*
X583692D01*
X585216Y275590D01*
X583692Y274066D01*
X585216D01*
X586740Y272542D01*
X458470Y354330D02*
X461010D01*
X463550Y356870D01*
X466090Y354330D01*
X468630D01*
Y356870D01*
X466090Y359410D01*
X468630Y361950D01*
Y364490D01*
X466090D01*
X463550Y361950D01*
X461010Y364490D01*
X458470D01*
Y361950D01*
X461010Y359410D01*
X458470Y356870D01*
Y354330D01*
X433070D02*
X435610D01*
X438150Y356870D01*
X440690Y354330D01*
X443230D01*
Y356870D01*
X440690Y359410D01*
X443230Y361950D01*
Y364490D01*
X440690D01*
X438150Y361950D01*
X435610Y364490D01*
X433070D01*
Y361950D01*
X435610Y359410D01*
X433070Y356870D01*
Y354330D01*
X407670D02*
X410210D01*
X412750Y356870D01*
X415290Y354330D01*
X417830D01*
Y356870D01*
X415290Y359410D01*
X417830Y361950D01*
Y364490D01*
X415290D01*
X412750Y361950D01*
X410210Y364490D01*
X407670D01*
Y361950D01*
X410210Y359410D01*
X407670Y356870D01*
Y354330D01*
X474980Y666750D02*
X469900Y676910D01*
X480060D01*
X474980Y666750D01*
Y668782D02*
X471932Y674878D01*
X478028D01*
X474980Y668782D01*
X468630Y674370D02*
X463550Y684530D01*
X473710D01*
X468630Y674370D01*
Y676402D02*
X465582Y682498D01*
X471678D01*
X468630Y676402D01*
X562610Y584200D02*
X557530Y594360D01*
X567690D01*
X562610Y584200D01*
Y586232D02*
X559562Y592328D01*
X565658D01*
X562610Y586232D01*
X610870Y573800D02*
X605790Y583960D01*
X615950D01*
X610870Y573800D01*
Y575832D02*
X607822Y581928D01*
X613918D01*
X610870Y575832D01*
X497840Y632460D02*
X492760Y642620D01*
X502920D01*
X497840Y632460D01*
Y634492D02*
X494792Y640588D01*
X500888D01*
X497840Y634492D01*
X435610Y681990D02*
X430530Y692150D01*
X440690D01*
X435610Y681990D01*
Y684022D02*
X432562Y690118D01*
X438658D01*
X435610Y684022D01*
X496570Y648970D02*
X491490Y659130D01*
X501650D01*
X496570Y648970D01*
Y651002D02*
X493522Y657098D01*
X499618D01*
X496570Y651002D01*
X525780Y683260D02*
X520700Y693420D01*
X530860D01*
X525780Y683260D01*
Y685292D02*
X522732Y691388D01*
X528828D01*
X525780Y685292D01*
X584200Y530860D02*
X579120Y541020D01*
X589280D01*
X584200Y530860D01*
Y532892D02*
X581152Y538988D01*
X587248D01*
X584200Y532892D01*
X513080Y584200D02*
X508000Y594360D01*
X518160D01*
X513080Y584200D01*
Y586232D02*
X510032Y592328D01*
X516128D01*
X513080Y586232D01*
X506730Y596900D02*
X501650Y607060D01*
X511810D01*
X506730Y596900D01*
Y598932D02*
X503682Y605028D01*
X509778D01*
X506730Y598932D01*
X104140Y293370D02*
X99060Y303530D01*
X109220D01*
X104140Y293370D01*
Y295402D02*
X101092Y301498D01*
X107188D01*
X104140Y295402D01*
X90170Y288290D02*
X85090Y298450D01*
X95250D01*
X90170Y288290D01*
Y290322D02*
X87122Y296418D01*
X93218D01*
X90170Y290322D01*
X36830Y288290D02*
X31750Y298450D01*
X41910D01*
X36830Y288290D01*
Y290322D02*
X33782Y296418D01*
X39878D01*
X36830Y290322D01*
X114300Y320040D02*
X109220Y330200D01*
X119380D01*
X114300Y320040D01*
Y322072D02*
X111252Y328168D01*
X117348D01*
X114300Y322072D01*
X71120Y293370D02*
X66040Y303530D01*
X76200D01*
X71120Y293370D01*
Y295402D02*
X68072Y301498D01*
X74168D01*
X71120Y295402D01*
X21590Y238760D02*
X16510Y248920D01*
X26670D01*
X21590Y238760D01*
Y240792D02*
X18542Y246888D01*
X24638D01*
X21590Y240792D01*
X13970Y369570D02*
X8890Y379730D01*
X19050D01*
X13970Y369570D01*
Y371602D02*
X10922Y377698D01*
X17018D01*
X13970Y371602D01*
X21590Y289560D02*
X16510Y299720D01*
X26670D01*
X21590Y289560D01*
Y291592D02*
X18542Y297688D01*
X24638D01*
X21590Y291592D01*
X530860Y365760D02*
X525780Y375920D01*
X535940D01*
X530860Y365760D01*
Y367792D02*
X527812Y373888D01*
X533908D01*
X530860Y367792D01*
X544830Y513080D02*
X539750Y523240D01*
X549910D01*
X544830Y513080D01*
Y515112D02*
X541782Y521208D01*
X547878D01*
X544830Y515112D01*
X534670Y516890D02*
X529590Y527050D01*
X539750D01*
X534670Y516890D01*
Y518922D02*
X531622Y525018D01*
X537718D01*
X534670Y518922D01*
X567690Y473710D02*
X562610Y483870D01*
X572770D01*
X567690Y473710D01*
Y475742D02*
X564642Y481838D01*
X570738D01*
X567690Y475742D01*
X554630Y510179D02*
X549549Y520340D01*
X559710D01*
X554630Y510179D01*
Y512211D02*
X551581Y518307D01*
X557677D01*
X554630Y512211D01*
X570230Y452120D02*
X565150Y462280D01*
X575310D01*
X570230Y452120D01*
Y454152D02*
X567182Y460248D01*
X573278D01*
X570230Y454152D01*
X558391Y497538D02*
X553311Y507698D01*
X563471D01*
X558391Y497538D01*
Y499570D02*
X555343Y505666D01*
X561439D01*
X558391Y499570D01*
X532166Y547406D02*
X527086Y557566D01*
X537246D01*
X532166Y547406D01*
Y549438D02*
X529118Y555534D01*
X535214D01*
X532166Y549438D01*
X525780Y556260D02*
X520700Y566420D01*
X530860D01*
X525780Y556260D01*
Y558292D02*
X522732Y564388D01*
X528828D01*
X525780Y558292D01*
X509270Y481330D02*
X504190Y491490D01*
X514350D01*
X509270Y481330D01*
Y483362D02*
X506222Y489458D01*
X512318D01*
X509270Y483362D01*
X557340Y485140D02*
X552260Y495300D01*
X562420D01*
X557340Y485140D01*
Y487172D02*
X554292Y493268D01*
X560388D01*
X557340Y487172D01*
X556260Y457200D02*
X551180Y467360D01*
X561340D01*
X556260Y457200D01*
Y459232D02*
X553212Y465328D01*
X559308D01*
X556260Y459232D01*
X535940Y505460D02*
X530860Y515620D01*
X541020D01*
X535940Y505460D01*
Y507492D02*
X532892Y513588D01*
X538988D01*
X535940Y507492D01*
X547370Y384810D02*
X542290Y394970D01*
X552450D01*
X547370Y384810D01*
Y386842D02*
X544322Y392938D01*
X550418D01*
X547370Y386842D01*
X518160Y403860D02*
X513080Y414020D01*
X523240D01*
X518160Y403860D01*
Y405892D02*
X515112Y411988D01*
X521208D01*
X518160Y405892D01*
X463550Y535940D02*
X458470Y546100D01*
X468630D01*
X463550Y535940D01*
Y537972D02*
X460502Y544068D01*
X466598D01*
X463550Y537972D01*
Y524510D02*
X458470Y534670D01*
X468630D01*
X463550Y524510D01*
Y526542D02*
X460502Y532638D01*
X466598D01*
X463550Y526542D01*
X487680Y449580D02*
X482600Y459740D01*
X492760D01*
X487680Y449580D01*
Y451612D02*
X484632Y457708D01*
X490728D01*
X487680Y451612D01*
X537210Y407670D02*
X532130Y417830D01*
X542290D01*
X537210Y407670D01*
Y409702D02*
X534162Y415798D01*
X540258D01*
X537210Y409702D01*
X231140Y402590D02*
X226060Y412750D01*
X236220D01*
X231140Y402590D01*
Y404622D02*
X228092Y410718D01*
X234188D01*
X231140Y404622D01*
X241300Y439420D02*
X236220Y449580D01*
X246380D01*
X241300Y439420D01*
Y441452D02*
X238252Y447548D01*
X244348D01*
X241300Y441452D01*
X233736Y439476D02*
X228656Y449636D01*
X238816D01*
X233736Y439476D01*
Y441508D02*
X230688Y447604D01*
X236784D01*
X233736Y441508D01*
X309880Y626030D02*
X304800Y636190D01*
X314960D01*
X309880Y626030D01*
Y628062D02*
X306832Y634158D01*
X312928D01*
X309880Y628062D01*
X480060Y435610D02*
X474980Y445770D01*
X485140D01*
X480060Y435610D01*
Y437642D02*
X477012Y443738D01*
X483108D01*
X480060Y437642D01*
X281940Y474980D02*
X276860Y485140D01*
X287020D01*
X281940Y474980D01*
Y477012D02*
X278892Y483108D01*
X284988D01*
X281940Y477012D01*
X427990Y427990D02*
X422910Y438150D01*
X433070D01*
X427990Y427990D01*
Y430022D02*
X424942Y436118D01*
X431038D01*
X427990Y430022D01*
X412750Y427990D02*
X407670Y438150D01*
X417830D01*
X412750Y427990D01*
Y430022D02*
X409702Y436118D01*
X415798D01*
X412750Y430022D01*
X195580Y458470D02*
X190500Y468630D01*
X200660D01*
X195580Y458470D01*
Y460502D02*
X192532Y466598D01*
X198628D01*
X195580Y460502D01*
Y468630D02*
X190500Y478790D01*
X200660D01*
X195580Y468630D01*
Y470662D02*
X192532Y476758D01*
X198628D01*
X195580Y470662D01*
X219710Y402590D02*
X214630Y412750D01*
X224790D01*
X219710Y402590D01*
Y404622D02*
X216662Y410718D01*
X222758D01*
X219710Y404622D01*
X448310Y375920D02*
X443230Y386080D01*
X453390D01*
X448310Y375920D01*
Y377952D02*
X445262Y384048D01*
X451358D01*
X448310Y377952D01*
X427990Y382270D02*
X422910Y392430D01*
X433070D01*
X427990Y382270D01*
Y384302D02*
X424942Y390398D01*
X431038D01*
X427990Y384302D01*
X601980Y252730D02*
X596900Y262890D01*
X607060D01*
X601980Y252730D01*
Y254762D02*
X598932Y260858D01*
X605028D01*
X601980Y254762D01*
X629920Y494030D02*
X624840Y504190D01*
X635000D01*
X629920Y494030D01*
Y496062D02*
X626872Y502158D01*
X632968D01*
X629920Y496062D01*
X416560Y172720D02*
X411480Y182880D01*
X421640D01*
X416560Y172720D01*
Y174752D02*
X413512Y180848D01*
X419608D01*
X416560Y174752D01*
X455930Y233680D02*
X450850Y243840D01*
X461010D01*
X455930Y233680D01*
Y235712D02*
X452882Y241808D01*
X458978D01*
X455930Y235712D01*
X535940Y232410D02*
X530860Y242570D01*
X541020D01*
X535940Y232410D01*
Y234442D02*
X532892Y240538D01*
X538988D01*
X535940Y234442D01*
X563880Y172720D02*
X558800Y182880D01*
X568960D01*
X563880Y172720D01*
Y174752D02*
X560832Y180848D01*
X566928D01*
X563880Y174752D01*
X360680Y487680D02*
X355600Y497840D01*
X365760D01*
X360680Y487680D01*
Y489712D02*
X357632Y495808D01*
X363728D01*
X360680Y489712D01*
X196070Y446384D02*
X190990Y456544D01*
X201150D01*
X196070Y446384D01*
Y448416D02*
X193022Y454512D01*
X199118D01*
X196070Y448416D01*
X345440Y438150D02*
X340360Y448310D01*
X350520D01*
X345440Y438150D01*
Y440182D02*
X342392Y446278D01*
X348488D01*
X345440Y440182D01*
X382270Y461010D02*
X377190Y471170D01*
X387350D01*
X382270Y461010D01*
Y463042D02*
X379222Y469138D01*
X385318D01*
X382270Y463042D01*
X88900Y353060D02*
X83820Y363220D01*
X93980D01*
X88900Y353060D01*
Y355092D02*
X85852Y361188D01*
X91948D01*
X88900Y355092D01*
X19050Y274320D02*
X13970Y284480D01*
X24130D01*
X19050Y274320D01*
Y276352D02*
X16002Y282448D01*
X22098D01*
X19050Y276352D01*
X50800Y293370D02*
X45720Y303530D01*
X55880D01*
X50800Y293370D01*
Y295402D02*
X47752Y301498D01*
X53848D01*
X50800Y295402D01*
X24130Y157480D02*
X19050Y167640D01*
X29210D01*
X24130Y157480D01*
Y159512D02*
X21082Y165608D01*
X27178D01*
X24130Y159512D01*
X139700Y176530D02*
X134620Y186690D01*
X144780D01*
X139700Y176530D01*
Y178562D02*
X136652Y184658D01*
X142748D01*
X139700Y178562D01*
X579120Y251460D02*
X574040Y261620D01*
X584200D01*
X579120Y251460D01*
Y253492D02*
X576072Y259588D01*
X582168D01*
X579120Y253492D01*
X543560Y288290D02*
X538480Y298450D01*
X548640D01*
X543560Y288290D01*
Y290322D02*
X540512Y296418D01*
X546608D01*
X543560Y290322D01*
X572770Y220980D02*
X567690Y231140D01*
X577850D01*
X572770Y220980D01*
Y223012D02*
X569722Y229108D01*
X575818D01*
X572770Y223012D01*
X518160Y364490D02*
X513080Y374650D01*
X523240D01*
X518160Y364490D01*
Y366522D02*
X515112Y372618D01*
X521208D01*
X518160Y366522D01*
X449580Y264160D02*
X444500Y274320D01*
X454660D01*
X449580Y264160D01*
Y266192D02*
X446532Y272288D01*
X452628D01*
X449580Y266192D01*
X276860Y414020D02*
X271780Y424180D01*
X281940D01*
X276860Y414020D01*
Y416052D02*
X273812Y422148D01*
X279908D01*
X276860Y416052D01*
X334010Y372110D02*
X328930Y382270D01*
X339090D01*
X334010Y372110D01*
Y374142D02*
X330962Y380238D01*
X337058D01*
X334010Y374142D01*
X314960Y406400D02*
X309880Y416560D01*
X320040D01*
X314960Y406400D01*
Y408432D02*
X311912Y414528D01*
X318008D01*
X314960Y408432D01*
X452120Y506730D02*
X447040Y516890D01*
X457200D01*
X452120Y506730D01*
Y508762D02*
X449072Y514858D01*
X455168D01*
X452120Y508762D01*
X439420Y513080D02*
X434340Y523240D01*
X444500D01*
X439420Y513080D01*
Y515112D02*
X436372Y521208D01*
X442468D01*
X439420Y515112D01*
X430530Y525780D02*
X425450Y535940D01*
X435610D01*
X430530Y525780D01*
Y527812D02*
X427482Y533908D01*
X433578D01*
X430530Y527812D01*
X449580Y535940D02*
X444500Y546100D01*
X454660D01*
X449580Y535940D01*
Y537972D02*
X446532Y544068D01*
X452628D01*
X449580Y537972D01*
X341630Y539750D02*
X336550Y549910D01*
X346710D01*
X341630Y539750D01*
Y541782D02*
X338582Y547878D01*
X344678D01*
X341630Y541782D01*
X621030Y513080D02*
X623570Y518160D01*
X621030Y523240D01*
X626110Y520700D01*
X631190Y523240D01*
X628650Y518160D01*
X631190Y513080D01*
X626110Y515620D01*
X621030Y513080D01*
X623062Y515112D02*
X624586Y518160D01*
X623062Y521208D01*
X626110Y519684D01*
X629158Y521208D01*
X627634Y518160D01*
X629158Y515112D01*
X626110Y516636D01*
X623062Y515112D01*
X364490Y194310D02*
X359410Y204470D01*
X369570D01*
X364490Y194310D01*
Y196342D02*
X361442Y202438D01*
X367538D01*
X364490Y196342D01*
X78740Y349250D02*
X73660Y359410D01*
X83820D01*
X78740Y349250D01*
Y351282D02*
X75692Y357378D01*
X81788D01*
X78740Y351282D01*
X24130Y350520D02*
X19050Y360680D01*
X29210D01*
X24130Y350520D01*
Y352552D02*
X21082Y358648D01*
X27178D01*
X24130Y352552D01*
X158750Y368300D02*
X153670Y378460D01*
X163830D01*
X158750Y368300D01*
Y370332D02*
X155702Y376428D01*
X161798D01*
X158750Y370332D01*
X168910Y396240D02*
X163830Y406400D01*
X173990D01*
X168910Y396240D01*
Y398272D02*
X165862Y404368D01*
X171958D01*
X168910Y398272D01*
X153670Y396240D02*
X148590Y406400D01*
X158750D01*
X153670Y396240D01*
Y398272D02*
X150622Y404368D01*
X156718D01*
X153670Y398272D01*
X139700Y396240D02*
X134620Y406400D01*
X144780D01*
X139700Y396240D01*
Y398272D02*
X136652Y404368D01*
X142748D01*
X139700Y398272D01*
X161290Y467360D02*
X156210Y477520D01*
X166370D01*
X161290Y467360D01*
Y469392D02*
X158242Y475488D01*
X164338D01*
X161290Y469392D01*
X182880Y483870D02*
X177800Y494030D01*
X187960D01*
X182880Y483870D01*
Y485902D02*
X179832Y491998D01*
X185928D01*
X182880Y485902D01*
X189230Y515620D02*
X184150Y525780D01*
X194310D01*
X189230Y515620D01*
Y517652D02*
X186182Y523748D01*
X192278D01*
X189230Y517652D01*
X193040Y528320D02*
X187960Y538480D01*
X198120D01*
X193040Y528320D01*
Y530352D02*
X189992Y536448D01*
X196088D01*
X193040Y530352D01*
X261620Y521970D02*
X256540Y532130D01*
X266700D01*
X261620Y521970D01*
Y524002D02*
X258572Y530098D01*
X264668D01*
X261620Y524002D01*
X242570Y510540D02*
X237490Y520700D01*
X247650D01*
X242570Y510540D01*
Y512572D02*
X239522Y518668D01*
X245618D01*
X242570Y512572D01*
X276860Y506730D02*
X271780Y516890D01*
X281940D01*
X276860Y506730D01*
Y508762D02*
X273812Y514858D01*
X279908D01*
X276860Y508762D01*
X353060Y546100D02*
X347980Y556260D01*
X358140D01*
X353060Y546100D01*
Y548132D02*
X350012Y554228D01*
X356108D01*
X353060Y548132D01*
X224790Y514350D02*
X219710Y524510D01*
X229870D01*
X224790Y514350D01*
Y516382D02*
X221742Y522478D01*
X227838D01*
X224790Y516382D01*
X369570Y463550D02*
X364490Y473710D01*
X374650D01*
X369570Y463550D01*
Y465582D02*
X366522Y471678D01*
X372618D01*
X369570Y465582D01*
X424180Y628650D02*
X419100Y638810D01*
X429260D01*
X424180Y628650D01*
Y630682D02*
X421132Y636778D01*
X427228D01*
X424180Y630682D01*
X401320Y452120D02*
X396240Y462280D01*
X406400D01*
X401320Y452120D01*
Y454152D02*
X398272Y460248D01*
X404368D01*
X401320Y454152D01*
X547370Y193040D02*
X542290Y203200D01*
X552450D01*
X547370Y193040D01*
Y195072D02*
X544322Y201168D01*
X550418D01*
X547370Y195072D01*
X445770Y162560D02*
X440690Y172720D01*
X450850D01*
X445770Y162560D01*
Y164592D02*
X442722Y170688D01*
X448818D01*
X445770Y164592D01*
X419100Y215900D02*
X414020Y226060D01*
X424180D01*
X419100Y215900D01*
Y217932D02*
X416052Y224028D01*
X422148D01*
X419100Y217932D01*
X505460Y204470D02*
X500380Y214630D01*
X510540D01*
X505460Y204470D01*
Y206502D02*
X502412Y212598D01*
X508508D01*
X505460Y206502D01*
X482600Y204470D02*
X477520Y214630D01*
X487680D01*
X482600Y204470D01*
Y206502D02*
X479552Y212598D01*
X485648D01*
X482600Y206502D01*
X589280Y215900D02*
X584200Y226060D01*
X594360D01*
X589280Y215900D01*
Y217932D02*
X586232Y224028D01*
X592328D01*
X589280Y217932D01*
X391160Y508000D02*
X386080Y518160D01*
X396240D01*
X391160Y508000D01*
Y510032D02*
X388112Y516128D01*
X394208D01*
X391160Y510032D01*
X314960Y469900D02*
X309880Y480060D01*
X320040D01*
X314960Y469900D01*
Y471932D02*
X311912Y478028D01*
X318008D01*
X314960Y471932D01*
X336550Y472440D02*
X331470Y482600D01*
X341630D01*
X336550Y472440D01*
Y474472D02*
X333502Y480568D01*
X339598D01*
X336550Y474472D01*
X99060Y438150D02*
X93980Y448310D01*
X104140D01*
X99060Y438150D01*
Y440182D02*
X96012Y446278D01*
X102108D01*
X99060Y440182D01*
Y403860D02*
X93980Y414020D01*
X104140D01*
X99060Y403860D01*
Y405892D02*
X96012Y411988D01*
X102108D01*
X99060Y405892D01*
X91440Y422910D02*
X86360Y433070D01*
X96520D01*
X91440Y422910D01*
Y424942D02*
X88392Y431038D01*
X94488D01*
X91440Y424942D01*
X106680Y356870D02*
X101600Y367030D01*
X111760D01*
X106680Y356870D01*
Y358902D02*
X103632Y364998D01*
X109728D01*
X106680Y358902D01*
X119380Y356870D02*
X114300Y367030D01*
X124460D01*
X119380Y356870D01*
Y358902D02*
X116332Y364998D01*
X122428D01*
X119380Y358902D01*
X185420Y440690D02*
X180340Y450850D01*
X190500D01*
X185420Y440690D01*
Y442722D02*
X182372Y448818D01*
X188468D01*
X185420Y442722D01*
X416560Y466090D02*
X411480Y476250D01*
X421640D01*
X416560Y466090D01*
Y468122D02*
X413512Y474218D01*
X419608D01*
X416560Y468122D01*
X452120Y406400D02*
X447040Y416560D01*
X457200D01*
X452120Y406400D01*
Y408432D02*
X449072Y414528D01*
X455168D01*
X452120Y408432D01*
X198120Y482600D02*
X193040Y492760D01*
X203200D01*
X198120Y482600D01*
Y484632D02*
X195072Y490728D01*
X201168D01*
X198120Y484632D01*
X309880Y495300D02*
X304800Y505460D01*
X314960D01*
X309880Y495300D01*
Y497332D02*
X306832Y503428D01*
X312928D01*
X309880Y497332D01*
X300990Y510540D02*
X295910Y520700D01*
X306070D01*
X300990Y510540D01*
Y512572D02*
X297942Y518668D01*
X304038D01*
X300990Y512572D01*
D167*
X593090Y312420D02*
G03*
X593090Y312420I-5080J0D01*
G01*
Y337820D02*
G03*
X593090Y337820I-5080J0D01*
G01*
Y363220D02*
G03*
X593090Y363220I-5080J0D01*
G01*
Y388620D02*
G03*
X593090Y388620I-5080J0D01*
G01*
Y414020D02*
G03*
X593090Y414020I-5080J0D01*
G01*
Y439420D02*
G03*
X593090Y439420I-5080J0D01*
G01*
Y464820D02*
G03*
X593090Y464820I-5080J0D01*
G01*
Y490220D02*
G03*
X593090Y490220I-5080J0D01*
G01*
Y515620D02*
G03*
X593090Y515620I-5080J0D01*
G01*
X60960Y340360D02*
G03*
X60960Y340360I-5080J0D01*
G01*
Y365760D02*
G03*
X60960Y365760I-5080J0D01*
G01*
Y391160D02*
G03*
X60960Y391160I-5080J0D01*
G01*
Y416560D02*
G03*
X60960Y416560I-5080J0D01*
G01*
Y441960D02*
G03*
X60960Y441960I-5080J0D01*
G01*
Y467360D02*
G03*
X60960Y467360I-5080J0D01*
G01*
Y492760D02*
G03*
X60960Y492760I-5080J0D01*
G01*
Y518160D02*
G03*
X60960Y518160I-5080J0D01*
G01*
Y543560D02*
G03*
X60960Y543560I-5080J0D01*
G01*
X30033Y443228D02*
G03*
X30033Y443228I-5080J0D01*
G01*
Y468628D02*
G03*
X30033Y468628I-5080J0D01*
G01*
Y494028D02*
G03*
X30033Y494028I-5080J0D01*
G01*
Y519428D02*
G03*
X30033Y519428I-5080J0D01*
G01*
Y544828D02*
G03*
X30033Y544828I-5080J0D01*
G01*
Y570228D02*
G03*
X30033Y570228I-5080J0D01*
G01*
Y595628D02*
G03*
X30033Y595628I-5080J0D01*
G01*
Y621028D02*
G03*
X30033Y621028I-5080J0D01*
G01*
Y646428D02*
G03*
X30033Y646428I-5080J0D01*
G01*
X626110Y200660D02*
G03*
X626110Y200660I-5080J0D01*
G01*
Y226060D02*
G03*
X626110Y226060I-5080J0D01*
G01*
Y251460D02*
G03*
X626110Y251460I-5080J0D01*
G01*
Y276860D02*
G03*
X626110Y276860I-5080J0D01*
G01*
Y302260D02*
G03*
X626110Y302260I-5080J0D01*
G01*
Y327660D02*
G03*
X626110Y327660I-5080J0D01*
G01*
Y353060D02*
G03*
X626110Y353060I-5080J0D01*
G01*
Y378460D02*
G03*
X626110Y378460I-5080J0D01*
G01*
Y403860D02*
G03*
X626110Y403860I-5080J0D01*
G01*
X361950Y466090D02*
G03*
X361950Y466090I-5080J0D01*
G01*
X294640Y488950D02*
G03*
X294640Y488950I-5080J0D01*
G01*
X181610Y515620D02*
G03*
X181610Y515620I-5080J0D01*
G01*
X231140Y505460D02*
G03*
X231140Y505460I-5080J0D01*
G01*
X347980Y516890D02*
G03*
X347980Y516890I-5080J0D01*
G01*
X234950Y535940D02*
G03*
X234950Y535940I-5080J0D01*
G01*
X111760Y396680D02*
G03*
X111760Y396680I-5080J0D01*
G01*
X143510Y439420D02*
G03*
X143510Y439420I-5080J0D01*
G01*
X403860Y445770D02*
G03*
X403860Y445770I-5080J0D01*
G01*
X381000Y452120D02*
G03*
X381000Y452120I-5080J0D01*
G01*
X307811Y493950D02*
G03*
X307811Y493950I-5080J0D01*
G01*
D168*
X359918Y466090D02*
G03*
X359918Y466090I-3048J0D01*
G01*
X292608Y488950D02*
G03*
X292608Y488950I-3048J0D01*
G01*
X179578Y515620D02*
G03*
X179578Y515620I-3048J0D01*
G01*
X229108Y505460D02*
G03*
X229108Y505460I-3048J0D01*
G01*
X345948Y516890D02*
G03*
X345948Y516890I-3048J0D01*
G01*
X232918Y535940D02*
G03*
X232918Y535940I-3048J0D01*
G01*
X109728Y396680D02*
G03*
X109728Y396680I-3048J0D01*
G01*
X141478Y439420D02*
G03*
X141478Y439420I-3048J0D01*
G01*
X401828Y445770D02*
G03*
X401828Y445770I-3048J0D01*
G01*
X378968Y452120D02*
G03*
X378968Y452120I-3048J0D01*
G01*
X305779Y493950D02*
G03*
X305779Y493950I-3048J0D01*
G01*
M02*
