G04*
G04 #@! TF.GenerationSoftware,Altium Limited,Altium Designer,24.4.1 (13)*
G04*
G04 Layer_Color=65535*
%FSLAX44Y44*%
%MOMM*%
G71*
G04*
G04 #@! TF.SameCoordinates,A3252435-666A-4F3B-8FA1-24D8921DAC19*
G04*
G04*
G04 #@! TF.FilePolarity,Positive*
G04*
G01*
G75*
%ADD10C,0.1000*%
%ADD11C,0.2500*%
%ADD12C,0.2000*%
%ADD13C,0.5000*%
%ADD14C,0.0500*%
%ADD15C,0.1524*%
%ADD16C,0.2540*%
%ADD17C,0.1200*%
%ADD18C,0.1100*%
%ADD19C,0.1400*%
G36*
X140551Y693802D02*
X145122D01*
Y693603D01*
X147506D01*
Y693404D01*
X148897D01*
Y693206D01*
X150288D01*
Y693007D01*
X151282D01*
Y692808D01*
X152077D01*
Y692610D01*
X153071D01*
Y692411D01*
X154064D01*
Y692212D01*
X154859D01*
Y692013D01*
X155654D01*
Y691815D01*
X156449D01*
Y691616D01*
X157045D01*
Y691417D01*
X157840D01*
Y691218D01*
X158436D01*
Y691020D01*
X159033D01*
Y690821D01*
X159629D01*
Y690622D01*
X160225D01*
Y690424D01*
X160821D01*
Y690225D01*
X161219D01*
Y690026D01*
X161815D01*
Y689827D01*
X162411D01*
Y689629D01*
X163007D01*
Y689430D01*
X163405D01*
Y689231D01*
X164001D01*
Y689033D01*
X164398D01*
Y688834D01*
X164994D01*
Y688635D01*
X165392D01*
Y688436D01*
X165789D01*
Y688238D01*
X166187D01*
Y688039D01*
X166783D01*
Y687840D01*
X166982D01*
Y687641D01*
X167578D01*
Y687443D01*
X167975D01*
Y687244D01*
X168373D01*
Y687045D01*
X168770D01*
Y686846D01*
X169168D01*
Y686648D01*
X169565D01*
Y686449D01*
X169764D01*
Y686250D01*
X170161D01*
Y686051D01*
X170559D01*
Y685853D01*
X170956D01*
Y685654D01*
X171354D01*
Y685455D01*
X171553D01*
Y685257D01*
X171950D01*
Y685058D01*
X172149D01*
Y684859D01*
X172546D01*
Y684660D01*
X172944D01*
Y684462D01*
X173341D01*
Y684263D01*
X173540D01*
Y684064D01*
X173937D01*
Y683866D01*
X174335D01*
Y683667D01*
X174533D01*
Y683468D01*
X174931D01*
Y683269D01*
X175130D01*
Y683071D01*
X175527D01*
Y682872D01*
X175726D01*
Y682673D01*
X176123D01*
Y682474D01*
X176322D01*
Y682276D01*
X176719D01*
Y682077D01*
X176918D01*
Y681878D01*
X177316D01*
Y681680D01*
X177514D01*
Y681481D01*
X177713D01*
Y681282D01*
X178111D01*
Y681083D01*
X178309D01*
Y680885D01*
X178508D01*
Y680686D01*
X178905D01*
Y680487D01*
X179104D01*
Y680288D01*
X179303D01*
Y680090D01*
X179502D01*
Y679891D01*
X179899D01*
Y679692D01*
X180098D01*
Y679493D01*
X180296D01*
Y679295D01*
X180495D01*
Y679096D01*
X180694D01*
Y678897D01*
X180893D01*
Y678699D01*
X181290D01*
Y678500D01*
X181489D01*
Y678301D01*
X181688D01*
Y678102D01*
X181886D01*
Y677904D01*
X182085D01*
Y677705D01*
X182284D01*
Y677506D01*
X182482D01*
Y677308D01*
X182681D01*
Y677109D01*
X182880D01*
Y676910D01*
X183277D01*
Y676711D01*
X183476D01*
Y676314D01*
X183675D01*
Y676115D01*
X184072D01*
Y675916D01*
X184271D01*
Y675718D01*
X184470D01*
Y675519D01*
X184669D01*
Y675320D01*
X184867D01*
Y675122D01*
X185066D01*
Y674923D01*
X185265D01*
Y674724D01*
X185464D01*
Y674326D01*
X185662D01*
Y674128D01*
X185861D01*
Y673929D01*
X186060D01*
Y673730D01*
X186258D01*
Y673532D01*
X186457D01*
Y673333D01*
X186656D01*
Y673134D01*
X186855D01*
Y672935D01*
X187053D01*
Y672737D01*
X187252D01*
Y672538D01*
X187451D01*
Y672141D01*
X187649D01*
Y671942D01*
X187848D01*
Y671743D01*
X188047D01*
Y671544D01*
X188246D01*
Y671346D01*
X188444D01*
Y671147D01*
X188643D01*
Y670749D01*
X188842D01*
Y670551D01*
X189041D01*
Y670352D01*
X189239D01*
Y670153D01*
X189438D01*
Y669955D01*
X189637D01*
Y669557D01*
X189835D01*
Y669358D01*
X190034D01*
Y669160D01*
X190233D01*
Y668762D01*
X190432D01*
Y668563D01*
X190630D01*
Y668365D01*
X190829D01*
Y667967D01*
X191028D01*
Y667768D01*
X191227D01*
Y667371D01*
X191425D01*
Y667172D01*
X191624D01*
Y666974D01*
X191823D01*
Y666576D01*
X192022D01*
Y666377D01*
X192220D01*
Y665980D01*
X192419D01*
Y665781D01*
X192618D01*
Y665384D01*
X192816D01*
Y665185D01*
X193015D01*
Y664788D01*
X193214D01*
Y664390D01*
X193413D01*
Y664191D01*
X193611D01*
Y663794D01*
X193810D01*
Y663595D01*
X194009D01*
Y663198D01*
X194207D01*
Y662800D01*
X194406D01*
Y662601D01*
X194605D01*
Y662204D01*
X194804D01*
Y661807D01*
X195002D01*
Y661409D01*
X195201D01*
Y661012D01*
X195400D01*
Y660813D01*
X195599D01*
Y660415D01*
X195797D01*
Y660018D01*
X195996D01*
Y659621D01*
X196195D01*
Y659223D01*
X196394D01*
Y658826D01*
X196592D01*
Y658428D01*
X196791D01*
Y657832D01*
X196990D01*
Y657435D01*
X197188D01*
Y657037D01*
X197387D01*
Y656441D01*
X197586D01*
Y656043D01*
X197785D01*
Y655646D01*
X197983D01*
Y655050D01*
X198182D01*
Y654454D01*
X198381D01*
Y653857D01*
X198580D01*
Y653261D01*
X198778D01*
Y652665D01*
X198977D01*
Y652069D01*
X199176D01*
Y651473D01*
X199375D01*
Y650678D01*
X199573D01*
Y649883D01*
X199772D01*
Y649088D01*
X199971D01*
Y648094D01*
X200169D01*
Y647299D01*
X200368D01*
Y646107D01*
X200567D01*
Y644915D01*
X200766D01*
Y643325D01*
X200964D01*
Y640543D01*
X201163D01*
Y634780D01*
X200964D01*
Y556480D01*
X200766D01*
Y555089D01*
X200567D01*
Y554294D01*
X200368D01*
Y553499D01*
X200169D01*
Y552705D01*
X199971D01*
Y552108D01*
X199772D01*
Y551711D01*
X199573D01*
Y551115D01*
X199375D01*
Y550717D01*
X199176D01*
Y550320D01*
X198977D01*
Y549922D01*
X198778D01*
Y549525D01*
X198580D01*
Y549128D01*
X198381D01*
Y548730D01*
X198182D01*
Y548333D01*
X197983D01*
Y548134D01*
X197785D01*
Y547736D01*
X197586D01*
Y547538D01*
X197387D01*
Y547140D01*
X197188D01*
Y546941D01*
X196990D01*
Y546544D01*
X196791D01*
Y546345D01*
X196592D01*
Y546147D01*
X196394D01*
Y545948D01*
X196195D01*
Y545550D01*
X195996D01*
Y545352D01*
X195797D01*
Y545153D01*
X195599D01*
Y544954D01*
X195400D01*
Y544756D01*
X195201D01*
Y544557D01*
X195002D01*
Y544358D01*
X194804D01*
Y544159D01*
X194605D01*
Y543961D01*
X194406D01*
Y543762D01*
X194009D01*
Y543563D01*
X193810D01*
Y543364D01*
X193611D01*
Y543166D01*
X193413D01*
Y542967D01*
X193015D01*
Y542768D01*
X192816D01*
Y542570D01*
X192419D01*
Y542371D01*
X192220D01*
Y542172D01*
X191823D01*
Y541973D01*
X191624D01*
Y541775D01*
X191227D01*
Y541576D01*
X190829D01*
Y541377D01*
X190432D01*
Y541178D01*
X190233D01*
Y540980D01*
X189637D01*
Y540781D01*
X189438D01*
Y540582D01*
X188842D01*
Y540383D01*
X188444D01*
Y540185D01*
X188047D01*
Y539986D01*
X187451D01*
Y539787D01*
X186855D01*
Y539589D01*
X186060D01*
Y539390D01*
X185265D01*
Y539191D01*
X184271D01*
Y538992D01*
X182482D01*
Y538794D01*
X97228D01*
Y538992D01*
X95042D01*
Y539191D01*
X93850D01*
Y539390D01*
X92856D01*
Y539589D01*
X92061D01*
Y539787D01*
X91266D01*
Y539986D01*
X90670D01*
Y540185D01*
X90074D01*
Y540383D01*
X89676D01*
Y540582D01*
X89080D01*
Y540781D01*
X88683D01*
Y540980D01*
X88285D01*
Y541178D01*
X87888D01*
Y541377D01*
X87490D01*
Y541576D01*
X87291D01*
Y541775D01*
X86894D01*
Y541973D01*
X86695D01*
Y542172D01*
X86298D01*
Y542371D01*
X85900D01*
Y542570D01*
X85702D01*
Y542768D01*
X85503D01*
Y542967D01*
X85304D01*
Y543166D01*
X85105D01*
Y543364D01*
X84708D01*
Y543563D01*
X84509D01*
Y543762D01*
X84311D01*
Y543961D01*
X84112D01*
Y544159D01*
X83913D01*
Y544358D01*
X83714D01*
Y544557D01*
X83317D01*
Y544756D01*
X83118D01*
Y544954D01*
X82920D01*
Y545153D01*
X82721D01*
Y545550D01*
X82522D01*
Y545749D01*
X82323D01*
Y545948D01*
X82125D01*
Y546147D01*
X81926D01*
Y546345D01*
X81727D01*
Y546544D01*
X81528D01*
Y546941D01*
X81330D01*
Y547140D01*
X81131D01*
Y547339D01*
X80932D01*
Y547538D01*
X80733D01*
Y547935D01*
X80535D01*
Y548134D01*
X80336D01*
Y548531D01*
X80137D01*
Y548730D01*
X79939D01*
Y549128D01*
X79740D01*
Y549525D01*
X79541D01*
Y549922D01*
X79342D01*
Y550320D01*
X79144D01*
Y550717D01*
X78945D01*
Y551115D01*
X78746D01*
Y551711D01*
X78548D01*
Y552108D01*
X78349D01*
Y552705D01*
X78150D01*
Y553301D01*
X77951D01*
Y553897D01*
X77753D01*
Y554493D01*
X77554D01*
Y555288D01*
X77355D01*
Y556083D01*
X77156D01*
Y557077D01*
X76958D01*
Y559263D01*
X76759D01*
Y640344D01*
X76958D01*
Y642729D01*
X77156D01*
Y644120D01*
X77355D01*
Y645113D01*
X77554D01*
Y646306D01*
X77753D01*
Y647299D01*
X77951D01*
Y648094D01*
X78150D01*
Y648889D01*
X78349D01*
Y649684D01*
X78548D01*
Y650479D01*
X78746D01*
Y651274D01*
X78945D01*
Y651870D01*
X79144D01*
Y652466D01*
X79342D01*
Y653063D01*
X79541D01*
Y653659D01*
X79740D01*
Y654255D01*
X79939D01*
Y654652D01*
X80137D01*
Y655249D01*
X80336D01*
Y655646D01*
X80535D01*
Y656043D01*
X80733D01*
Y656640D01*
X80932D01*
Y657037D01*
X81131D01*
Y657633D01*
X81330D01*
Y658031D01*
X81528D01*
Y658428D01*
X81727D01*
Y658826D01*
X81926D01*
Y659223D01*
X82125D01*
Y659621D01*
X82323D01*
Y660018D01*
X82522D01*
Y660415D01*
X82721D01*
Y660813D01*
X82920D01*
Y661210D01*
X83118D01*
Y661608D01*
X83317D01*
Y662005D01*
X83516D01*
Y662403D01*
X83714D01*
Y662601D01*
X83913D01*
Y662999D01*
X84112D01*
Y663397D01*
X84311D01*
Y663794D01*
X84509D01*
Y664191D01*
X84708D01*
Y664390D01*
X84907D01*
Y664788D01*
X85105D01*
Y664986D01*
X85304D01*
Y665384D01*
X85503D01*
Y665583D01*
X85702D01*
Y665980D01*
X85900D01*
Y666179D01*
X86099D01*
Y666576D01*
X86298D01*
Y666775D01*
X86497D01*
Y667172D01*
X86695D01*
Y667371D01*
X86894D01*
Y667570D01*
X87093D01*
Y667967D01*
X87291D01*
Y668166D01*
X87490D01*
Y668563D01*
X87689D01*
Y668762D01*
X87888D01*
Y668961D01*
X88087D01*
Y669358D01*
X88285D01*
Y669557D01*
X88484D01*
Y669756D01*
X88683D01*
Y669955D01*
X88881D01*
Y670352D01*
X89080D01*
Y670551D01*
X89279D01*
Y670749D01*
X89478D01*
Y670948D01*
X89676D01*
Y671147D01*
X89875D01*
Y671544D01*
X90074D01*
Y671743D01*
X90273D01*
Y671942D01*
X90471D01*
Y672141D01*
X90670D01*
Y672339D01*
X90869D01*
Y672538D01*
X91067D01*
Y672737D01*
X91266D01*
Y672935D01*
X91465D01*
Y673333D01*
X91664D01*
Y673532D01*
X91862D01*
Y673730D01*
X92061D01*
Y673929D01*
X92260D01*
Y674128D01*
X92458D01*
Y674326D01*
X92657D01*
Y674525D01*
X92856D01*
Y674724D01*
X93055D01*
Y674923D01*
X93253D01*
Y675122D01*
X93452D01*
Y675320D01*
X93651D01*
Y675519D01*
X93850D01*
Y675718D01*
X94048D01*
Y675916D01*
X94247D01*
Y676115D01*
X94446D01*
Y676314D01*
X94644D01*
Y676513D01*
X95042D01*
Y676711D01*
X95241D01*
Y676910D01*
X95439D01*
Y677109D01*
X95638D01*
Y677308D01*
X95837D01*
Y677506D01*
X96036D01*
Y677705D01*
X96234D01*
Y677904D01*
X96433D01*
Y678102D01*
X96632D01*
Y678301D01*
X97029D01*
Y678500D01*
X97228D01*
Y678699D01*
X97427D01*
Y678897D01*
X97625D01*
Y679096D01*
X97824D01*
Y679295D01*
X98023D01*
Y679493D01*
X98420D01*
Y679692D01*
X98619D01*
Y679891D01*
X98818D01*
Y680090D01*
X99017D01*
Y680288D01*
X99215D01*
Y680487D01*
X99613D01*
Y680686D01*
X99811D01*
Y680885D01*
X100010D01*
Y681083D01*
X100408D01*
Y681282D01*
X100606D01*
Y681481D01*
X100805D01*
Y681680D01*
X101004D01*
Y681878D01*
X101401D01*
Y682077D01*
X101600D01*
Y682276D01*
X101799D01*
Y682474D01*
X102196D01*
Y682673D01*
X102395D01*
Y682872D01*
X102792D01*
Y683071D01*
X102991D01*
Y683269D01*
X103389D01*
Y683468D01*
X103786D01*
Y683667D01*
X103985D01*
Y683866D01*
X104382D01*
Y684064D01*
X104581D01*
Y684263D01*
X104978D01*
Y684462D01*
X105376D01*
Y684660D01*
X105575D01*
Y684859D01*
X105972D01*
Y685058D01*
X106369D01*
Y685257D01*
X106767D01*
Y685455D01*
X106966D01*
Y685654D01*
X107363D01*
Y685853D01*
X107761D01*
Y686051D01*
X108158D01*
Y686250D01*
X108555D01*
Y686449D01*
X108754D01*
Y686648D01*
X109152D01*
Y686846D01*
X109549D01*
Y687045D01*
X109947D01*
Y687244D01*
X110344D01*
Y687443D01*
X110742D01*
Y687641D01*
X111139D01*
Y687840D01*
X111735D01*
Y688039D01*
X112133D01*
Y688238D01*
X112530D01*
Y688436D01*
X112928D01*
Y688635D01*
X113524D01*
Y688834D01*
X113921D01*
Y689033D01*
X114319D01*
Y689231D01*
X114915D01*
Y689430D01*
X115312D01*
Y689629D01*
X115908D01*
Y689827D01*
X116505D01*
Y690026D01*
X116902D01*
Y690225D01*
X117498D01*
Y690424D01*
X118095D01*
Y690622D01*
X118691D01*
Y690821D01*
X119287D01*
Y691020D01*
X119883D01*
Y691218D01*
X120479D01*
Y691417D01*
X121274D01*
Y691616D01*
X121870D01*
Y691815D01*
X122665D01*
Y692013D01*
X123460D01*
Y692212D01*
X124255D01*
Y692411D01*
X125050D01*
Y692610D01*
X126044D01*
Y692808D01*
X127037D01*
Y693007D01*
X128031D01*
Y693206D01*
X129422D01*
Y693404D01*
X131012D01*
Y693603D01*
X133198D01*
Y693802D01*
X137172D01*
Y694001D01*
X140551D01*
Y693802D01*
D02*
G37*
G36*
X388589Y269470D02*
X388544D01*
Y269515D01*
X388589D01*
Y269470D01*
D02*
G37*
G36*
X388498Y269332D02*
X388452D01*
Y269378D01*
X388498D01*
Y269332D01*
D02*
G37*
G36*
X388452Y269240D02*
X388406D01*
Y269286D01*
X388452D01*
Y269240D01*
D02*
G37*
G36*
X416086Y269194D02*
X416040D01*
Y269240D01*
X416086D01*
Y269194D01*
D02*
G37*
G36*
X388406D02*
X388360D01*
Y269240D01*
X388406D01*
Y269194D01*
D02*
G37*
G36*
X388360Y269148D02*
Y269102D01*
X388314D01*
Y269194D01*
X388360D01*
Y269148D01*
D02*
G37*
G36*
X407823Y312022D02*
X408328D01*
Y311976D01*
X408649D01*
Y311930D01*
X408925D01*
Y311884D01*
X409154D01*
Y311839D01*
X409384D01*
Y311793D01*
X409567D01*
Y311747D01*
X409751D01*
Y311701D01*
X409889D01*
Y311655D01*
X410072D01*
Y311609D01*
X410210D01*
Y311563D01*
X410348D01*
Y311517D01*
X410485D01*
Y311471D01*
X410623D01*
Y311425D01*
X410715D01*
Y311380D01*
X410853D01*
Y311334D01*
X410945D01*
Y311288D01*
X411036D01*
Y311242D01*
X411174D01*
Y311196D01*
X411266D01*
Y311150D01*
X411358D01*
Y311104D01*
X411449D01*
Y311058D01*
X411541D01*
Y311012D01*
X411633D01*
Y310966D01*
X411725D01*
Y310921D01*
X411817D01*
Y310875D01*
X411908D01*
Y310829D01*
X411954D01*
Y310783D01*
X412046D01*
Y310737D01*
X412138D01*
Y310691D01*
X412230D01*
Y310645D01*
X412322D01*
Y310599D01*
X412368D01*
Y310553D01*
X412459D01*
Y310507D01*
X412551D01*
Y310462D01*
X412597D01*
Y310416D01*
X412689D01*
Y310370D01*
X412735D01*
Y310324D01*
X412826D01*
Y310278D01*
X412918D01*
Y310232D01*
X412964D01*
Y310186D01*
X413056D01*
Y310140D01*
X413102D01*
Y310094D01*
X413148D01*
Y310048D01*
X413240D01*
Y310002D01*
X413285D01*
Y309956D01*
X413331D01*
Y309911D01*
X413423D01*
Y309865D01*
X413469D01*
Y309819D01*
X413515D01*
Y309773D01*
X413607D01*
Y309727D01*
X413653D01*
Y309681D01*
X413699D01*
Y309635D01*
X413745D01*
Y309589D01*
X413791D01*
Y309543D01*
X413836D01*
Y309498D01*
X413882D01*
Y309452D01*
X413974D01*
Y309406D01*
X414020D01*
Y309360D01*
X414066D01*
Y309314D01*
X414112D01*
Y309268D01*
X414158D01*
Y309222D01*
X414204D01*
Y309176D01*
X414249D01*
Y309084D01*
X414295D01*
Y309038D01*
X414341D01*
Y308993D01*
X414387D01*
Y308947D01*
X414433D01*
Y308901D01*
X414479D01*
Y308855D01*
X414525D01*
Y308809D01*
X414571D01*
Y308717D01*
X414617D01*
Y308671D01*
X414663D01*
Y308625D01*
X414709D01*
Y308533D01*
X414754D01*
Y308488D01*
X414800D01*
Y308442D01*
X414846D01*
Y308350D01*
X414892D01*
Y308304D01*
X414938D01*
Y308258D01*
X414984D01*
Y308166D01*
X415030D01*
Y308120D01*
X415076D01*
Y308029D01*
X415122D01*
Y307983D01*
X415168D01*
Y307891D01*
X415214D01*
Y307799D01*
X415259D01*
Y307753D01*
X415305D01*
Y307661D01*
X415351D01*
Y307570D01*
X415397D01*
Y307524D01*
X415443D01*
Y307432D01*
X415489D01*
Y307340D01*
X415535D01*
Y307248D01*
X415581D01*
Y307156D01*
X415627D01*
Y307065D01*
X415672D01*
Y306973D01*
X415718D01*
Y306881D01*
X415764D01*
Y306789D01*
X415810D01*
Y306697D01*
X415856D01*
Y306606D01*
X415902D01*
Y306468D01*
X415948D01*
Y306376D01*
X415994D01*
Y306284D01*
X416040D01*
Y306147D01*
X416086D01*
Y306055D01*
X416132D01*
Y305917D01*
X416177D01*
Y305779D01*
X416223D01*
Y305688D01*
X416269D01*
Y305550D01*
X416315D01*
Y305412D01*
X416361D01*
Y305274D01*
X416407D01*
Y305137D01*
X416453D01*
Y304953D01*
X416499D01*
Y304815D01*
X416545D01*
Y304632D01*
X416591D01*
Y304448D01*
X416637D01*
Y304265D01*
X416682D01*
Y304081D01*
X416728D01*
Y303897D01*
X416774D01*
Y303668D01*
X416820D01*
Y303484D01*
X416866D01*
Y303255D01*
X416912D01*
Y302979D01*
X416958D01*
Y302704D01*
X417004D01*
Y302382D01*
X417050D01*
Y301969D01*
X417095D01*
Y300822D01*
X417050D01*
Y300363D01*
X417004D01*
Y299812D01*
X416958D01*
Y299215D01*
X417004D01*
Y298572D01*
X417050D01*
Y298205D01*
X417095D01*
Y297884D01*
X417141D01*
Y297654D01*
X417187D01*
Y297379D01*
X417233D01*
Y297149D01*
X417279D01*
Y296920D01*
X417325D01*
Y296690D01*
X417371D01*
Y296507D01*
X417417D01*
Y296277D01*
X417463D01*
Y296094D01*
X417509D01*
Y295864D01*
X417555D01*
Y295726D01*
X417601D01*
Y295543D01*
X417646D01*
Y295359D01*
X417692D01*
Y295176D01*
X417738D01*
Y295038D01*
X417784D01*
Y294900D01*
X417830D01*
Y294716D01*
X417876D01*
Y294579D01*
X417922D01*
Y294441D01*
X417968D01*
Y294303D01*
X418014D01*
Y294166D01*
X418060D01*
Y294028D01*
X418105D01*
Y293936D01*
X418151D01*
Y293798D01*
X418197D01*
Y293661D01*
X418243D01*
Y293569D01*
X418289D01*
Y293431D01*
X418335D01*
Y293339D01*
X418381D01*
Y293202D01*
X418427D01*
Y293110D01*
X418473D01*
Y292972D01*
X418518D01*
Y292880D01*
X418564D01*
Y292789D01*
X418610D01*
Y292651D01*
X418656D01*
Y292559D01*
X418702D01*
Y292467D01*
X418748D01*
Y292375D01*
X418794D01*
Y292284D01*
X418840D01*
Y292192D01*
X418886D01*
Y292100D01*
X418932D01*
Y292008D01*
X418978D01*
Y291916D01*
X419024D01*
Y291825D01*
X419069D01*
Y291733D01*
X419115D01*
Y291641D01*
X419161D01*
Y291549D01*
X419207D01*
Y291457D01*
X419253D01*
Y291366D01*
X419299D01*
Y291320D01*
X419345D01*
Y291228D01*
X419391D01*
Y291136D01*
X419437D01*
Y291044D01*
X419482D01*
Y290998D01*
X419528D01*
Y290907D01*
X419574D01*
Y290815D01*
X419620D01*
Y290723D01*
X419666D01*
Y290677D01*
X419712D01*
Y290585D01*
X419758D01*
Y290493D01*
X419804D01*
Y290448D01*
X419850D01*
Y290356D01*
X419896D01*
Y290310D01*
X419942D01*
Y290218D01*
X419987D01*
Y290126D01*
X420033D01*
Y290080D01*
X420079D01*
Y289988D01*
X420125D01*
Y289942D01*
X420171D01*
Y289851D01*
X420217D01*
Y289805D01*
X420263D01*
Y289713D01*
X420309D01*
Y289667D01*
X420355D01*
Y289575D01*
X420401D01*
Y289529D01*
X420447D01*
Y289438D01*
X420492D01*
Y289392D01*
X420538D01*
Y289300D01*
X420584D01*
Y289254D01*
X420630D01*
Y289162D01*
X420676D01*
Y289116D01*
X420722D01*
Y289025D01*
X420768D01*
Y288979D01*
X420814D01*
Y288887D01*
X420860D01*
Y288841D01*
X420905D01*
Y288795D01*
X420951D01*
Y288703D01*
X420997D01*
Y288657D01*
X421043D01*
Y288565D01*
X421089D01*
Y288519D01*
X421135D01*
Y288428D01*
X421181D01*
Y288382D01*
X421227D01*
Y288336D01*
X421273D01*
Y288244D01*
X421319D01*
Y288198D01*
X421365D01*
Y288106D01*
X421410D01*
Y288060D01*
X421456D01*
Y288015D01*
X421502D01*
Y287923D01*
X421548D01*
Y287877D01*
X421594D01*
Y287831D01*
X421640D01*
Y287739D01*
X421686D01*
Y287693D01*
X421732D01*
Y287602D01*
X421778D01*
Y287556D01*
X421824D01*
Y287510D01*
X421870D01*
Y287418D01*
X421915D01*
Y287372D01*
X421961D01*
Y287326D01*
X422007D01*
Y287234D01*
X422053D01*
Y287188D01*
X422099D01*
Y287097D01*
X422145D01*
Y287051D01*
X422191D01*
Y287005D01*
X422237D01*
Y286913D01*
X422283D01*
Y286867D01*
X422328D01*
Y286821D01*
X422374D01*
Y286729D01*
X422420D01*
Y286683D01*
X422466D01*
Y286592D01*
X422512D01*
Y286546D01*
X422558D01*
Y286500D01*
X422604D01*
Y286408D01*
X422650D01*
Y286362D01*
X422696D01*
Y286316D01*
X422742D01*
Y286224D01*
X422788D01*
Y286178D01*
X422834D01*
Y286087D01*
X422879D01*
Y286041D01*
X422925D01*
Y285995D01*
X422971D01*
Y285903D01*
X423017D01*
Y285857D01*
X423063D01*
Y285765D01*
X423109D01*
Y285719D01*
X423155D01*
Y285674D01*
X423201D01*
Y285582D01*
X423247D01*
Y285536D01*
X423293D01*
Y285444D01*
X423338D01*
Y285398D01*
X423384D01*
Y285352D01*
X423430D01*
Y285260D01*
X423476D01*
Y285215D01*
X423522D01*
Y285123D01*
X423568D01*
Y285077D01*
X423614D01*
Y284985D01*
X423660D01*
Y284939D01*
X423706D01*
Y284893D01*
X423752D01*
Y284801D01*
X423797D01*
Y284755D01*
X423843D01*
Y284664D01*
X423889D01*
Y284618D01*
X423935D01*
Y284526D01*
X423981D01*
Y284434D01*
X424027D01*
Y284388D01*
X424073D01*
Y284296D01*
X424119D01*
Y284251D01*
X424165D01*
Y284159D01*
X424211D01*
Y284113D01*
X424257D01*
Y284021D01*
X424302D01*
Y283929D01*
X424348D01*
Y283883D01*
X424394D01*
Y283792D01*
X424440D01*
Y283746D01*
X424486D01*
Y283654D01*
X424532D01*
Y283562D01*
X424578D01*
Y283516D01*
X424624D01*
Y283424D01*
X424670D01*
Y283332D01*
X424715D01*
Y283286D01*
X424761D01*
Y283195D01*
X424807D01*
Y283103D01*
X424853D01*
Y283011D01*
X424899D01*
Y282965D01*
X424945D01*
Y282873D01*
X424991D01*
Y282782D01*
X425037D01*
Y282690D01*
X425083D01*
Y282644D01*
X425129D01*
Y282552D01*
X425175D01*
Y282460D01*
X425220D01*
Y282368D01*
X425266D01*
Y282277D01*
X425312D01*
Y282185D01*
X425358D01*
Y282139D01*
X425404D01*
Y282047D01*
X425450D01*
Y281955D01*
X425496D01*
Y281863D01*
X425542D01*
Y281772D01*
X425588D01*
Y281680D01*
X425634D01*
Y281588D01*
X425680D01*
Y281496D01*
X425725D01*
Y281404D01*
X425771D01*
Y281313D01*
X425817D01*
Y281221D01*
X425863D01*
Y281129D01*
X425909D01*
Y281037D01*
X425955D01*
Y280945D01*
X426001D01*
Y280854D01*
X426047D01*
Y280762D01*
X426093D01*
Y280670D01*
X426138D01*
Y280578D01*
X426185D01*
Y280441D01*
X426230D01*
Y280349D01*
X426276D01*
Y280257D01*
X426322D01*
Y280165D01*
X426368D01*
Y280073D01*
X426414D01*
Y279936D01*
X426460D01*
Y279844D01*
X426506D01*
Y279752D01*
X426552D01*
Y279614D01*
X426598D01*
Y279522D01*
X426643D01*
Y279431D01*
X426689D01*
Y279339D01*
Y279293D01*
X426735D01*
Y279201D01*
X426781D01*
Y279063D01*
X426827D01*
Y278972D01*
X426873D01*
Y278834D01*
X426919D01*
Y278742D01*
X426965D01*
Y278604D01*
X427011D01*
Y278512D01*
X427057D01*
Y278375D01*
X427103D01*
Y278237D01*
X427148D01*
Y278099D01*
X427194D01*
Y278008D01*
X427240D01*
Y277870D01*
X427286D01*
Y277732D01*
X427332D01*
Y277595D01*
X427378D01*
Y277457D01*
X427424D01*
Y277319D01*
X427470D01*
Y277181D01*
X427516D01*
Y276998D01*
X427562D01*
Y276860D01*
X427607D01*
Y276722D01*
X427653D01*
Y276539D01*
X427699D01*
Y276355D01*
X427745D01*
Y276171D01*
X427791D01*
Y276034D01*
X427837D01*
Y275804D01*
X427883D01*
Y275621D01*
X427929D01*
Y275391D01*
X427975D01*
Y275162D01*
X428021D01*
Y274932D01*
X428066D01*
Y274657D01*
X428112D01*
Y274289D01*
X428158D01*
Y273876D01*
X428204D01*
Y272362D01*
X428158D01*
Y271994D01*
X428112D01*
Y271719D01*
X428066D01*
Y271535D01*
X428021D01*
Y271352D01*
X427975D01*
Y271168D01*
X427929D01*
Y271030D01*
X427883D01*
Y270893D01*
X427837D01*
Y270755D01*
X427791D01*
Y270617D01*
X427745D01*
Y270479D01*
X427699D01*
Y270342D01*
X427653D01*
Y270204D01*
X427607D01*
Y270112D01*
X427562D01*
Y269974D01*
X427516D01*
Y269837D01*
X427470D01*
Y269745D01*
X427424D01*
Y269653D01*
X427378D01*
Y269515D01*
X427332D01*
Y269424D01*
X427286D01*
Y269332D01*
X426598D01*
Y269286D01*
X426460D01*
Y269240D01*
X426414D01*
Y269148D01*
X426368D01*
Y269102D01*
X426322D01*
Y269011D01*
X426276D01*
Y268965D01*
X426230D01*
Y268873D01*
X426185D01*
Y268827D01*
X426138D01*
Y268735D01*
X426093D01*
Y268643D01*
X426047D01*
Y268552D01*
X426001D01*
Y268506D01*
X425955D01*
Y268414D01*
X425909D01*
Y268322D01*
X425863D01*
Y268230D01*
X425817D01*
Y268184D01*
X425771D01*
Y268092D01*
X425725D01*
Y268001D01*
X425680D01*
Y267955D01*
X425634D01*
Y267863D01*
X425588D01*
Y267771D01*
X425542D01*
Y267725D01*
X425496D01*
Y267633D01*
X425450D01*
Y267588D01*
X425404D01*
Y267496D01*
X425358D01*
Y267450D01*
X425312D01*
Y267358D01*
X425266D01*
Y267312D01*
X425220D01*
Y267266D01*
X425175D01*
Y267174D01*
X425129D01*
Y267128D01*
X425083D01*
Y267083D01*
X425037D01*
Y267037D01*
X424991D01*
Y266991D01*
X424945D01*
Y266945D01*
X424899D01*
Y266899D01*
X424853D01*
Y266853D01*
X424807D01*
Y266807D01*
X424761D01*
Y266761D01*
X424715D01*
Y266669D01*
X424624D01*
Y266578D01*
X424532D01*
Y266486D01*
X424440D01*
Y266440D01*
X424394D01*
Y266394D01*
X424348D01*
Y266348D01*
X424302D01*
Y266302D01*
X424257D01*
Y266256D01*
X424211D01*
Y266210D01*
X424165D01*
Y266164D01*
X424119D01*
Y266119D01*
X424073D01*
Y266073D01*
X424027D01*
Y266027D01*
X423935D01*
Y265981D01*
X423889D01*
Y265889D01*
X423797D01*
Y265843D01*
X423706D01*
Y265797D01*
X423660D01*
Y265751D01*
X423614D01*
Y265705D01*
X423522D01*
Y265660D01*
X423476D01*
Y265614D01*
X423338D01*
Y265568D01*
X423247D01*
Y265522D01*
X423201D01*
Y265476D01*
X423063D01*
Y265430D01*
X422925D01*
Y265384D01*
X422742D01*
Y265338D01*
X422558D01*
Y265292D01*
X422053D01*
Y265246D01*
X421456D01*
Y265292D01*
X421089D01*
Y265338D01*
X420860D01*
Y265384D01*
X420676D01*
Y265430D01*
X420584D01*
Y265476D01*
X420447D01*
Y265522D01*
X420355D01*
Y265568D01*
X420263D01*
Y265614D01*
X420171D01*
Y265660D01*
X420079D01*
Y265705D01*
X420033D01*
Y265751D01*
X419987D01*
Y265797D01*
X419942D01*
Y265843D01*
X419850D01*
Y265889D01*
X419804D01*
Y265935D01*
X419758D01*
Y265981D01*
X419712D01*
Y266027D01*
X419666D01*
Y266073D01*
X419620D01*
Y266119D01*
X419574D01*
Y266164D01*
X419528D01*
Y266210D01*
X419482D01*
Y266256D01*
X419437D01*
Y266302D01*
X419391D01*
Y266348D01*
X419345D01*
Y266394D01*
X419299D01*
Y266440D01*
X419253D01*
Y266532D01*
X419207D01*
Y266623D01*
X419161D01*
Y266669D01*
X419115D01*
Y266761D01*
X419069D01*
Y266807D01*
X419024D01*
Y266945D01*
X418978D01*
Y267083D01*
X418932D01*
Y267312D01*
X418886D01*
Y267633D01*
X418932D01*
Y267909D01*
X418978D01*
Y268046D01*
X419024D01*
Y268184D01*
X419069D01*
Y268368D01*
X419115D01*
Y268506D01*
X419161D01*
Y268689D01*
X419207D01*
Y268873D01*
X419253D01*
Y269102D01*
X419299D01*
Y269470D01*
X419253D01*
Y269561D01*
X419207D01*
Y269653D01*
X419161D01*
Y269699D01*
X419115D01*
Y269745D01*
X419069D01*
Y269791D01*
X418978D01*
Y269837D01*
X418886D01*
Y269883D01*
X418748D01*
Y269929D01*
X418518D01*
Y269974D01*
X418427D01*
Y270020D01*
X418473D01*
Y270112D01*
X418518D01*
Y270204D01*
X418564D01*
Y270296D01*
X418610D01*
Y270342D01*
X418656D01*
Y270434D01*
X418702D01*
Y270525D01*
X418748D01*
Y270571D01*
X418794D01*
Y270709D01*
X418840D01*
Y270847D01*
X418886D01*
Y271076D01*
X418932D01*
Y271489D01*
X418978D01*
Y274335D01*
X418932D01*
Y275253D01*
X418886D01*
Y275804D01*
X418840D01*
Y276263D01*
X418794D01*
Y276676D01*
X418748D01*
Y276998D01*
X418702D01*
Y277319D01*
X418656D01*
Y277595D01*
X418610D01*
Y277870D01*
X418564D01*
Y278099D01*
X418518D01*
Y278329D01*
X418473D01*
Y278512D01*
X418427D01*
Y278742D01*
X418381D01*
Y278926D01*
X418335D01*
Y279109D01*
X418289D01*
Y279293D01*
X418243D01*
Y279431D01*
X418197D01*
Y279614D01*
X418151D01*
Y279752D01*
X418105D01*
Y279890D01*
X418060D01*
Y280027D01*
X418014D01*
Y280165D01*
X417968D01*
Y280303D01*
X417922D01*
Y280441D01*
X417876D01*
Y280532D01*
X417830D01*
Y280670D01*
X417784D01*
Y280762D01*
X417738D01*
Y280900D01*
X417692D01*
Y280991D01*
X417646D01*
Y281083D01*
X417601D01*
Y281221D01*
X417555D01*
Y281313D01*
X417509D01*
Y281404D01*
X417463D01*
Y281496D01*
X417417D01*
Y281588D01*
X417371D01*
Y281680D01*
X417325D01*
Y281772D01*
X417279D01*
Y281863D01*
X417233D01*
Y281955D01*
X417187D01*
Y282047D01*
X417141D01*
Y282139D01*
X417095D01*
Y282231D01*
X417050D01*
Y282323D01*
X417004D01*
Y282414D01*
X416958D01*
Y282506D01*
X416912D01*
Y282598D01*
X416866D01*
Y282690D01*
X416820D01*
Y282782D01*
X416774D01*
Y282873D01*
X416728D01*
Y282965D01*
X416682D01*
Y283011D01*
X416637D01*
Y283103D01*
X416591D01*
Y283195D01*
X416545D01*
Y283286D01*
X416499D01*
Y283378D01*
X416453D01*
Y283470D01*
X416407D01*
Y283562D01*
X416361D01*
Y283654D01*
X416315D01*
Y283746D01*
X416269D01*
Y283883D01*
X416223D01*
Y283975D01*
X416177D01*
Y284067D01*
X416132D01*
Y284159D01*
X416086D01*
Y284251D01*
X416040D01*
Y284342D01*
X415994D01*
Y284480D01*
X415948D01*
Y284572D01*
X415902D01*
Y284664D01*
X415856D01*
Y284755D01*
X415810D01*
Y284893D01*
X415764D01*
Y284985D01*
X415718D01*
Y285123D01*
X415672D01*
Y285215D01*
X415627D01*
Y285306D01*
X415581D01*
Y285444D01*
X415535D01*
Y285582D01*
X415489D01*
Y285674D01*
X415443D01*
Y285811D01*
X415397D01*
Y285903D01*
X415351D01*
Y286041D01*
X415305D01*
Y286178D01*
X415259D01*
Y286316D01*
X415214D01*
Y286454D01*
X415168D01*
Y286546D01*
X415122D01*
Y286683D01*
X415076D01*
Y286821D01*
X415030D01*
Y286959D01*
X414984D01*
Y287097D01*
X414938D01*
Y287234D01*
X414892D01*
Y287372D01*
X414846D01*
Y287510D01*
X414800D01*
Y287647D01*
X414754D01*
Y287785D01*
X414709D01*
Y287923D01*
X414663D01*
Y288060D01*
X414617D01*
Y288198D01*
X414571D01*
Y288336D01*
X414525D01*
Y288474D01*
X414479D01*
Y288611D01*
X414433D01*
Y288749D01*
X414387D01*
Y288841D01*
X414341D01*
Y288979D01*
X414295D01*
Y289070D01*
X414249D01*
Y289208D01*
X414204D01*
Y289300D01*
X414158D01*
Y289392D01*
X414112D01*
Y289529D01*
X414066D01*
Y289621D01*
X414020D01*
Y289713D01*
X413974D01*
Y289805D01*
X413928D01*
Y289897D01*
X413882D01*
Y289988D01*
X413836D01*
Y290034D01*
X413791D01*
Y290126D01*
X413745D01*
Y290218D01*
X413699D01*
Y290310D01*
X413653D01*
Y290402D01*
X413607D01*
Y290448D01*
X413561D01*
Y290539D01*
X413515D01*
Y290585D01*
X413469D01*
Y290677D01*
X413423D01*
Y290769D01*
X413377D01*
Y290861D01*
X413331D01*
Y290907D01*
X413285D01*
Y290998D01*
X413240D01*
Y291044D01*
X413194D01*
Y291136D01*
X413148D01*
Y291228D01*
X413102D01*
Y291320D01*
X413056D01*
Y291411D01*
X413010D01*
Y291503D01*
X412964D01*
Y291595D01*
X412918D01*
Y291687D01*
X412872D01*
Y291825D01*
X412826D01*
Y291916D01*
X412781D01*
Y292008D01*
X412735D01*
Y292146D01*
X412689D01*
Y292238D01*
X412643D01*
Y292375D01*
X412597D01*
Y292513D01*
X412551D01*
Y292605D01*
X412505D01*
Y292743D01*
X412459D01*
Y292834D01*
X412413D01*
Y292972D01*
X412368D01*
Y293064D01*
X412322D01*
Y293156D01*
X412276D01*
Y293248D01*
X412230D01*
Y293339D01*
X412184D01*
Y293431D01*
X412138D01*
Y293477D01*
X412092D01*
Y293569D01*
X412046D01*
Y293615D01*
X412000D01*
Y293661D01*
X411954D01*
Y293707D01*
X411862D01*
Y293661D01*
X411817D01*
Y293615D01*
X411771D01*
Y293569D01*
X411725D01*
Y293523D01*
X411679D01*
Y293477D01*
X411633D01*
Y293431D01*
X411587D01*
Y293385D01*
X411495D01*
Y293339D01*
X411449D01*
Y293293D01*
X411404D01*
Y293248D01*
X411312D01*
Y293202D01*
X411220D01*
Y293156D01*
X411128D01*
Y293110D01*
X411036D01*
Y293064D01*
X410945D01*
Y293018D01*
X410853D01*
Y292972D01*
X410715D01*
Y292926D01*
X410577D01*
Y292880D01*
X410439D01*
Y292834D01*
X410348D01*
Y292789D01*
X410210D01*
Y292743D01*
X410118D01*
Y292697D01*
X410026D01*
Y292651D01*
X409935D01*
Y292605D01*
X409889D01*
Y292559D01*
X409797D01*
Y292513D01*
X409705D01*
Y292467D01*
X409659D01*
Y292421D01*
X409567D01*
Y292375D01*
X409476D01*
Y292330D01*
X409430D01*
Y292284D01*
X409338D01*
Y292238D01*
X409292D01*
Y292192D01*
X409200D01*
Y292146D01*
X409154D01*
Y292100D01*
X409062D01*
Y292054D01*
X408971D01*
Y292008D01*
X408925D01*
Y291962D01*
X408833D01*
Y291916D01*
X408787D01*
Y291870D01*
X408695D01*
Y291825D01*
X408649D01*
Y291779D01*
X408558D01*
Y291733D01*
X408512D01*
Y291687D01*
X408420D01*
Y291641D01*
X408374D01*
Y291595D01*
X408282D01*
Y291549D01*
X408190D01*
Y291503D01*
X408144D01*
Y291457D01*
X408052D01*
Y291411D01*
X407961D01*
Y291366D01*
X407915D01*
Y291320D01*
X407823D01*
Y291274D01*
X407731D01*
Y291228D01*
X407685D01*
Y291182D01*
X407593D01*
Y291136D01*
X407502D01*
Y291090D01*
X407410D01*
Y291044D01*
X407318D01*
Y290998D01*
X407226D01*
Y290952D01*
X407135D01*
Y290907D01*
X407043D01*
Y290861D01*
X406905D01*
Y290815D01*
X406813D01*
Y290769D01*
X406675D01*
Y290723D01*
X406538D01*
Y290677D01*
X406354D01*
Y290631D01*
X406125D01*
Y290585D01*
X405344D01*
Y290539D01*
X405252D01*
Y290493D01*
X405115D01*
Y290448D01*
X404977D01*
Y290402D01*
X404839D01*
Y290356D01*
X404656D01*
Y290310D01*
X404380D01*
Y290264D01*
X404059D01*
Y290310D01*
X403875D01*
Y290356D01*
X403738D01*
Y290402D01*
X403646D01*
Y290448D01*
X403600D01*
Y290493D01*
X403508D01*
Y290539D01*
X403416D01*
Y290585D01*
X403370D01*
Y290631D01*
X403279D01*
Y290677D01*
X403233D01*
Y290723D01*
X403187D01*
Y290769D01*
X403095D01*
Y290815D01*
X403049D01*
Y290861D01*
X403003D01*
Y290907D01*
X402957D01*
Y290952D01*
X402911D01*
Y290998D01*
X402865D01*
Y291044D01*
X402820D01*
Y291090D01*
X402728D01*
Y291136D01*
X402682D01*
Y291182D01*
X402636D01*
Y291228D01*
X402590D01*
Y291274D01*
X402544D01*
Y291320D01*
X402498D01*
Y291366D01*
X402452D01*
Y291411D01*
X402406D01*
Y291457D01*
X402360D01*
Y291503D01*
X402315D01*
Y291595D01*
X402269D01*
Y291641D01*
X402223D01*
Y291687D01*
X402177D01*
Y291733D01*
X402131D01*
Y291779D01*
X402085D01*
Y291825D01*
X402039D01*
Y291870D01*
X401993D01*
Y291916D01*
X401947D01*
Y291962D01*
X401901D01*
Y292008D01*
X401856D01*
Y292054D01*
X401810D01*
Y292146D01*
X401764D01*
Y292192D01*
X401718D01*
Y292238D01*
X401672D01*
Y292284D01*
X401626D01*
Y292330D01*
X401580D01*
Y292375D01*
X401534D01*
Y292421D01*
X401488D01*
Y292467D01*
X401442D01*
Y292513D01*
X401396D01*
Y292559D01*
X401351D01*
Y292605D01*
X401305D01*
Y292651D01*
X401259D01*
Y292697D01*
X401213D01*
Y292743D01*
X401167D01*
Y292789D01*
X401121D01*
Y292834D01*
X401075D01*
Y292880D01*
X401029D01*
Y292926D01*
X400983D01*
Y292972D01*
X400938D01*
Y293018D01*
X400892D01*
Y293064D01*
X400800D01*
Y293110D01*
X400754D01*
Y293156D01*
X400478D01*
Y293064D01*
X400433D01*
Y292926D01*
X400387D01*
Y292146D01*
X400341D01*
Y290539D01*
X400295D01*
Y290172D01*
X400249D01*
Y289988D01*
X400203D01*
Y289851D01*
X400157D01*
Y289759D01*
X400111D01*
Y289667D01*
X400065D01*
Y289575D01*
X400019D01*
Y289484D01*
X399973D01*
Y289438D01*
X399928D01*
Y289346D01*
X399882D01*
Y289300D01*
X399836D01*
Y289208D01*
X399790D01*
Y289162D01*
X399744D01*
Y289070D01*
X399698D01*
Y289025D01*
X399652D01*
Y288979D01*
X399606D01*
Y288887D01*
X399560D01*
Y288841D01*
X399515D01*
Y288749D01*
X399468D01*
Y288703D01*
X399423D01*
Y288657D01*
X399377D01*
Y288565D01*
X399331D01*
Y288519D01*
X399285D01*
Y288474D01*
X399239D01*
Y288382D01*
X399193D01*
Y288336D01*
X399147D01*
Y288244D01*
X399101D01*
Y288198D01*
X399055D01*
Y288106D01*
X399010D01*
Y288060D01*
X398964D01*
Y287969D01*
X398918D01*
Y287923D01*
X398872D01*
Y287831D01*
X398826D01*
Y287785D01*
X398780D01*
Y287693D01*
X398734D01*
Y287602D01*
X398688D01*
Y287556D01*
X398642D01*
Y287464D01*
X398596D01*
Y287372D01*
X398550D01*
Y287280D01*
X398505D01*
Y287188D01*
X398459D01*
Y287097D01*
X398413D01*
Y287005D01*
X398367D01*
Y286913D01*
X398321D01*
Y286821D01*
X398275D01*
Y286683D01*
X398229D01*
Y286592D01*
X398183D01*
Y286500D01*
X398137D01*
Y286362D01*
X398091D01*
Y286224D01*
X398046D01*
Y286087D01*
X398000D01*
Y285995D01*
X397954D01*
Y285811D01*
X397908D01*
Y285674D01*
X397862D01*
Y285536D01*
X397816D01*
Y284067D01*
X397770D01*
Y283883D01*
X397724D01*
Y283792D01*
X397678D01*
Y283700D01*
X397632D01*
Y283654D01*
X397587D01*
Y283608D01*
X397541D01*
Y283562D01*
X397495D01*
Y283516D01*
X397449D01*
Y283470D01*
X397403D01*
Y283424D01*
X397357D01*
Y283378D01*
X397311D01*
Y283332D01*
X397265D01*
Y283286D01*
X397219D01*
Y283241D01*
X397173D01*
Y283149D01*
X397127D01*
Y283103D01*
X397082D01*
Y283057D01*
X397036D01*
Y282965D01*
X396990D01*
Y282873D01*
X396944D01*
Y282782D01*
X396898D01*
Y282690D01*
X396852D01*
Y282552D01*
X396806D01*
Y282460D01*
X396760D01*
Y282368D01*
X396714D01*
Y282277D01*
X396668D01*
Y282185D01*
X396623D01*
Y282093D01*
X396577D01*
Y282001D01*
X396531D01*
Y281909D01*
X396485D01*
Y281818D01*
X396439D01*
Y281726D01*
X396393D01*
Y281634D01*
X396347D01*
Y281542D01*
X396301D01*
Y281450D01*
X396255D01*
Y281359D01*
X396209D01*
Y281313D01*
X396163D01*
Y281221D01*
X396118D01*
Y281129D01*
X396072D01*
Y281037D01*
X396026D01*
Y280945D01*
X395980D01*
Y280854D01*
X395934D01*
Y280762D01*
X395888D01*
Y280716D01*
X395842D01*
Y280624D01*
X395796D01*
Y280532D01*
X395750D01*
Y280441D01*
X395704D01*
Y280349D01*
X395658D01*
Y280257D01*
X395613D01*
Y280211D01*
X395567D01*
Y280119D01*
X395521D01*
Y280027D01*
X395475D01*
Y279936D01*
X395429D01*
Y279844D01*
X395383D01*
Y279752D01*
X395337D01*
Y279660D01*
X395291D01*
Y279568D01*
X395245D01*
Y279522D01*
X395200D01*
Y279431D01*
X395154D01*
Y279339D01*
X395108D01*
Y279247D01*
X395062D01*
Y279155D01*
X395016D01*
Y279063D01*
X394970D01*
Y278972D01*
X394924D01*
Y278880D01*
X394878D01*
Y278742D01*
X394832D01*
Y278650D01*
X394786D01*
Y278558D01*
X394740D01*
Y278467D01*
X394695D01*
Y278329D01*
X394649D01*
Y278237D01*
X394603D01*
Y278099D01*
X394557D01*
Y277962D01*
X394511D01*
Y277870D01*
X394465D01*
Y277732D01*
X394419D01*
Y277549D01*
X394373D01*
Y277365D01*
X394327D01*
Y277181D01*
X394281D01*
Y276998D01*
X394235D01*
Y276814D01*
X394190D01*
Y276630D01*
X394144D01*
Y276447D01*
X394098D01*
Y276263D01*
X394052D01*
Y276126D01*
X394006D01*
Y275942D01*
X393960D01*
Y275758D01*
X393914D01*
Y275575D01*
X393868D01*
Y275391D01*
X393822D01*
Y275162D01*
X393777D01*
Y274978D01*
X393731D01*
Y274748D01*
X393685D01*
Y274473D01*
X393639D01*
Y274152D01*
X393593D01*
Y273785D01*
X393547D01*
Y273050D01*
X393501D01*
Y272316D01*
X393547D01*
Y272270D01*
X393501D01*
Y272224D01*
X393547D01*
Y270938D01*
X393593D01*
Y270525D01*
X393639D01*
Y270388D01*
X393685D01*
Y270296D01*
X393731D01*
Y270250D01*
X393777D01*
Y270204D01*
X393822D01*
Y270158D01*
X393914D01*
Y270112D01*
X393960D01*
Y270066D01*
X394006D01*
Y270020D01*
X394052D01*
Y269974D01*
X394144D01*
Y269929D01*
X394190D01*
Y269883D01*
X394235D01*
Y269837D01*
X394281D01*
Y269791D01*
X394327D01*
Y269745D01*
X394419D01*
Y269699D01*
X394465D01*
Y269653D01*
X394511D01*
Y269607D01*
X394557D01*
Y269561D01*
X394603D01*
Y269515D01*
X394649D01*
Y269470D01*
X394740D01*
Y269424D01*
X394786D01*
Y269378D01*
X394832D01*
Y269332D01*
X394878D01*
Y269286D01*
X394924D01*
Y269240D01*
X395016D01*
Y269194D01*
X395062D01*
Y269148D01*
X395108D01*
Y269102D01*
X395154D01*
Y269056D01*
X395200D01*
Y269011D01*
X395291D01*
Y268965D01*
X395337D01*
Y268919D01*
X395383D01*
Y268873D01*
X395429D01*
Y268827D01*
X395475D01*
Y268781D01*
X395567D01*
Y268735D01*
X395613D01*
Y268689D01*
X395658D01*
Y268643D01*
X395704D01*
Y268597D01*
X395750D01*
Y268552D01*
X395842D01*
Y268506D01*
X395888D01*
Y268460D01*
X395934D01*
Y268414D01*
X395980D01*
Y268368D01*
X396026D01*
Y268322D01*
X396118D01*
Y268276D01*
X396163D01*
Y268230D01*
X396209D01*
Y268184D01*
X396255D01*
Y268138D01*
X396301D01*
Y268092D01*
X396347D01*
Y268046D01*
X396439D01*
Y268001D01*
X396485D01*
Y267955D01*
X396531D01*
Y267909D01*
X396577D01*
Y267863D01*
X396623D01*
Y267817D01*
X396668D01*
Y267771D01*
X396760D01*
Y267725D01*
X396806D01*
Y267679D01*
X396852D01*
Y267633D01*
X396898D01*
Y267588D01*
X396944D01*
Y267542D01*
X396990D01*
Y267496D01*
X397082D01*
Y267450D01*
X397127D01*
Y267404D01*
X397173D01*
Y267358D01*
X397219D01*
Y267312D01*
X397265D01*
Y267266D01*
X397357D01*
Y267220D01*
X397403D01*
Y267174D01*
X397449D01*
Y267128D01*
X397495D01*
Y267083D01*
X397587D01*
Y267037D01*
X397632D01*
Y266991D01*
X397678D01*
Y266945D01*
X397724D01*
Y266899D01*
X397816D01*
Y266853D01*
X397862D01*
Y266807D01*
X397908D01*
Y266761D01*
X397954D01*
Y266715D01*
X398046D01*
Y266669D01*
X398091D01*
Y266623D01*
X398137D01*
Y266578D01*
X398183D01*
Y266532D01*
X398275D01*
Y266486D01*
X398321D01*
Y266440D01*
X398367D01*
Y266394D01*
X398413D01*
Y266348D01*
X398505D01*
Y266302D01*
X398550D01*
Y266256D01*
X398596D01*
Y266210D01*
X398642D01*
Y266164D01*
X398734D01*
Y266119D01*
X398780D01*
Y266073D01*
X398826D01*
Y266027D01*
X398918D01*
Y265981D01*
X398964D01*
Y265935D01*
X399010D01*
Y265889D01*
X399055D01*
Y265843D01*
X399147D01*
Y265797D01*
X399193D01*
Y265751D01*
X399239D01*
Y265705D01*
X399285D01*
Y265660D01*
X399377D01*
Y265614D01*
X399423D01*
Y265568D01*
X399468D01*
Y265522D01*
X399515D01*
Y265476D01*
X399606D01*
Y265430D01*
X399652D01*
Y265384D01*
X399698D01*
Y265338D01*
X399744D01*
Y265292D01*
X399790D01*
Y265246D01*
X399882D01*
Y265201D01*
X399928D01*
Y265155D01*
X399973D01*
Y265109D01*
X400019D01*
Y265063D01*
X400065D01*
Y265017D01*
X400157D01*
Y264971D01*
X400203D01*
Y264925D01*
X400249D01*
Y264879D01*
X400295D01*
Y264833D01*
X400341D01*
Y264787D01*
X400387D01*
Y264741D01*
X400433D01*
Y264696D01*
X400478D01*
Y264650D01*
X400570D01*
Y264558D01*
X400662D01*
Y264512D01*
X400708D01*
Y264420D01*
X400754D01*
Y264374D01*
X400800D01*
Y264328D01*
X400846D01*
Y264282D01*
X400892D01*
Y264191D01*
X400938D01*
Y264053D01*
X400983D01*
Y263915D01*
X401029D01*
Y263778D01*
X401075D01*
Y263548D01*
X401121D01*
Y263135D01*
X401167D01*
Y262584D01*
X401121D01*
Y262217D01*
X401075D01*
Y262033D01*
X401029D01*
Y261941D01*
X400983D01*
Y261895D01*
X400938D01*
Y261849D01*
X400846D01*
Y261804D01*
X400800D01*
Y261758D01*
X400708D01*
Y261712D01*
X400570D01*
Y261666D01*
X400433D01*
Y261620D01*
X400295D01*
Y261574D01*
X400157D01*
Y261528D01*
X399973D01*
Y261482D01*
X399790D01*
Y261436D01*
X399560D01*
Y261390D01*
X399331D01*
Y261345D01*
X399055D01*
Y261299D01*
X399010D01*
Y261207D01*
X399055D01*
Y261161D01*
X399101D01*
Y261115D01*
X399147D01*
Y261023D01*
X399193D01*
Y260977D01*
X399239D01*
Y260886D01*
X399285D01*
Y260840D01*
X399331D01*
Y260794D01*
X399377D01*
Y260702D01*
X399423D01*
Y260656D01*
X399468D01*
Y260610D01*
X399515D01*
Y260518D01*
X399560D01*
Y260472D01*
X399606D01*
Y260427D01*
X399652D01*
Y260335D01*
X399698D01*
Y260289D01*
X399744D01*
Y260243D01*
X399790D01*
Y260151D01*
X399836D01*
Y260105D01*
X399882D01*
Y260059D01*
X399928D01*
Y259967D01*
X399973D01*
Y259922D01*
X400019D01*
Y259876D01*
X400065D01*
Y259830D01*
X400111D01*
Y259738D01*
X400157D01*
Y259692D01*
X400203D01*
Y259646D01*
X400249D01*
Y259554D01*
X400295D01*
Y259508D01*
X400341D01*
Y259463D01*
X400387D01*
Y259371D01*
X400433D01*
Y259325D01*
X400478D01*
Y259279D01*
X400524D01*
Y259233D01*
X400570D01*
Y259141D01*
X400616D01*
Y259095D01*
X400662D01*
Y259049D01*
X400708D01*
Y259004D01*
X400754D01*
Y258912D01*
X400800D01*
Y258866D01*
X400846D01*
Y258820D01*
X400892D01*
Y258774D01*
X400938D01*
Y258728D01*
X400983D01*
Y258682D01*
X401029D01*
Y258636D01*
X401075D01*
Y258590D01*
X401167D01*
Y258545D01*
X401213D01*
Y258499D01*
X401259D01*
Y258453D01*
X401351D01*
Y258407D01*
X401396D01*
Y258361D01*
X401488D01*
Y258315D01*
X401580D01*
Y258269D01*
X401672D01*
Y258223D01*
X401764D01*
Y258177D01*
X401856D01*
Y258131D01*
X401993D01*
Y258085D01*
X402085D01*
Y258039D01*
X402223D01*
Y257994D01*
X402360D01*
Y257948D01*
X402544D01*
Y257902D01*
X402774D01*
Y257856D01*
X403003D01*
Y257810D01*
X403279D01*
Y257764D01*
X403738D01*
Y257718D01*
X405436D01*
Y257764D01*
X405987D01*
Y257810D01*
X406400D01*
Y257856D01*
X406767D01*
Y257902D01*
X407089D01*
Y257948D01*
X407364D01*
Y257994D01*
X407639D01*
Y258039D01*
X407915D01*
Y258085D01*
X408098D01*
Y258131D01*
X408328D01*
Y258177D01*
X408512D01*
Y258223D01*
X408695D01*
Y258269D01*
X408879D01*
Y258315D01*
X409062D01*
Y258361D01*
X409200D01*
Y258407D01*
X409338D01*
Y258453D01*
X409521D01*
Y258499D01*
X409613D01*
Y258545D01*
X409751D01*
Y258590D01*
X409889D01*
Y258636D01*
X410026D01*
Y258682D01*
X410118D01*
Y258728D01*
X410256D01*
Y258774D01*
X410348D01*
Y258820D01*
X410485D01*
Y258866D01*
X410577D01*
Y258912D01*
X410715D01*
Y258958D01*
X410807D01*
Y259004D01*
X410899D01*
Y259049D01*
X410990D01*
Y259095D01*
X411082D01*
Y259141D01*
X411174D01*
Y259187D01*
X411266D01*
Y259233D01*
X411358D01*
Y259279D01*
X411449D01*
Y259325D01*
X411541D01*
Y259371D01*
X411633D01*
Y259417D01*
X411725D01*
Y259463D01*
X411817D01*
Y259508D01*
X411908D01*
Y259554D01*
X412000D01*
Y259600D01*
X412092D01*
Y259646D01*
X412184D01*
Y259692D01*
X412230D01*
Y259738D01*
X412322D01*
Y259784D01*
X412413D01*
Y259830D01*
X412459D01*
Y259876D01*
X412551D01*
Y259922D01*
X412643D01*
Y259967D01*
X412689D01*
Y260013D01*
X412781D01*
Y260059D01*
X412826D01*
Y260105D01*
X412918D01*
Y260151D01*
X412964D01*
Y260197D01*
X413056D01*
Y260243D01*
X413102D01*
Y260289D01*
X413194D01*
Y260335D01*
X413240D01*
Y260381D01*
X413285D01*
Y260427D01*
X413331D01*
Y260472D01*
X413423D01*
Y260518D01*
X413469D01*
Y260564D01*
X413515D01*
Y260610D01*
X413561D01*
Y260656D01*
X413607D01*
Y260702D01*
X413653D01*
Y260748D01*
X413699D01*
Y260794D01*
X413745D01*
Y260840D01*
X413791D01*
Y260886D01*
X413836D01*
Y260931D01*
X413882D01*
Y260977D01*
X413928D01*
Y261023D01*
X413974D01*
Y261069D01*
X414020D01*
Y261115D01*
X414066D01*
Y261161D01*
X414112D01*
Y261207D01*
X414158D01*
Y261253D01*
X414204D01*
Y261299D01*
X414249D01*
Y261345D01*
X414295D01*
Y261390D01*
X414341D01*
Y261436D01*
X414387D01*
Y261482D01*
X414433D01*
Y261528D01*
X414479D01*
Y261574D01*
X414525D01*
Y261620D01*
X414571D01*
Y261666D01*
X414617D01*
Y261712D01*
X414663D01*
Y261758D01*
X414709D01*
Y261804D01*
X414754D01*
Y261849D01*
X414800D01*
Y261941D01*
X414846D01*
Y261987D01*
X414892D01*
Y262033D01*
X414938D01*
Y262079D01*
X414984D01*
Y262125D01*
X415030D01*
Y262171D01*
X415076D01*
Y262217D01*
X415122D01*
Y262309D01*
X415168D01*
Y262355D01*
X415214D01*
Y262400D01*
X415259D01*
Y262446D01*
X415305D01*
Y262538D01*
X415351D01*
Y262584D01*
X415397D01*
Y262676D01*
X415443D01*
Y262722D01*
X415489D01*
Y262813D01*
X415535D01*
Y262859D01*
X415581D01*
Y262951D01*
X415627D01*
Y263043D01*
X415672D01*
Y263089D01*
X415718D01*
Y263227D01*
X415764D01*
Y263318D01*
X415810D01*
Y263640D01*
X415856D01*
Y266853D01*
X415902D01*
Y268230D01*
X415948D01*
Y268735D01*
X415994D01*
Y269056D01*
X416040D01*
Y268460D01*
X415994D01*
Y268368D01*
X416040D01*
Y267174D01*
X416086D01*
Y266302D01*
X416132D01*
Y265660D01*
X416177D01*
Y265109D01*
X416223D01*
Y264604D01*
X416269D01*
Y264053D01*
X416315D01*
Y263502D01*
X416361D01*
Y263456D01*
X416315D01*
Y263410D01*
X416361D01*
Y261941D01*
X416315D01*
Y261390D01*
X416269D01*
Y261023D01*
X416223D01*
Y260748D01*
X416177D01*
Y260381D01*
X416132D01*
Y260105D01*
X416086D01*
Y259876D01*
X416040D01*
Y259600D01*
X415994D01*
Y259325D01*
X415948D01*
Y259095D01*
X415902D01*
Y258820D01*
X415856D01*
Y258590D01*
X415810D01*
Y258361D01*
X415764D01*
Y258039D01*
X415718D01*
Y257672D01*
X415672D01*
Y257213D01*
X415627D01*
Y256157D01*
X415672D01*
Y255653D01*
X415718D01*
Y255469D01*
X415764D01*
Y255239D01*
X415810D01*
Y255056D01*
X415856D01*
Y254918D01*
X415902D01*
Y254826D01*
X415948D01*
Y254689D01*
X415994D01*
Y254597D01*
X416040D01*
Y254551D01*
X416086D01*
Y254413D01*
X416132D01*
Y254367D01*
X416177D01*
Y254275D01*
X416223D01*
Y254230D01*
X416269D01*
Y254138D01*
X416315D01*
Y254092D01*
X416361D01*
Y254046D01*
X416407D01*
Y253954D01*
X416453D01*
Y253908D01*
X416499D01*
Y253862D01*
X416545D01*
Y253816D01*
X416591D01*
Y253771D01*
X416637D01*
Y253725D01*
X416682D01*
Y253679D01*
X416728D01*
Y253633D01*
X416774D01*
Y253587D01*
X416820D01*
Y253541D01*
X416912D01*
Y253495D01*
X416958D01*
Y253449D01*
X417050D01*
Y253403D01*
X417095D01*
Y253357D01*
X417187D01*
Y253312D01*
X417233D01*
Y253266D01*
X417371D01*
Y253220D01*
X417463D01*
Y253174D01*
X417601D01*
Y253128D01*
X417738D01*
Y253082D01*
X417922D01*
Y253036D01*
X418105D01*
Y252990D01*
X418381D01*
Y252944D01*
X418748D01*
Y252898D01*
X419528D01*
Y252852D01*
X419804D01*
Y252898D01*
X420401D01*
Y252944D01*
X420722D01*
Y252990D01*
X420951D01*
Y253036D01*
X421089D01*
Y253082D01*
X421227D01*
Y253128D01*
X421365D01*
Y253174D01*
X421502D01*
Y253220D01*
X421594D01*
Y253266D01*
X421640D01*
Y253312D01*
X421732D01*
Y253357D01*
X421824D01*
Y253403D01*
X421915D01*
Y253449D01*
X422007D01*
Y253495D01*
X422053D01*
Y253541D01*
X422191D01*
Y253587D01*
X422237D01*
Y253633D01*
X422328D01*
Y253679D01*
X422374D01*
Y253725D01*
X422420D01*
Y253771D01*
X422466D01*
Y253816D01*
X422558D01*
Y253862D01*
X422604D01*
Y253908D01*
X422650D01*
Y253954D01*
X422742D01*
Y254000D01*
X422788D01*
Y254046D01*
X422879D01*
Y254092D01*
X422925D01*
Y254138D01*
X423017D01*
Y254184D01*
X423109D01*
Y254230D01*
X423201D01*
Y254275D01*
X423247D01*
Y254321D01*
X423293D01*
Y254367D01*
X423384D01*
Y254413D01*
X423476D01*
Y254459D01*
X423568D01*
Y254505D01*
X423614D01*
Y254551D01*
X423660D01*
Y254597D01*
X423752D01*
Y254643D01*
X423797D01*
Y254689D01*
X423935D01*
Y254734D01*
X423981D01*
Y254780D01*
X424027D01*
Y254826D01*
X424119D01*
Y254872D01*
X424211D01*
Y254918D01*
X424257D01*
Y254964D01*
X424348D01*
Y255010D01*
X424440D01*
Y255056D01*
X424532D01*
Y255102D01*
X424578D01*
Y255148D01*
X424624D01*
Y255194D01*
X424761D01*
Y255239D01*
X424807D01*
Y255285D01*
X424899D01*
Y255331D01*
X424945D01*
Y255377D01*
X425037D01*
Y255423D01*
X425129D01*
Y255469D01*
X425220D01*
Y255515D01*
X425266D01*
Y255561D01*
X425358D01*
Y255607D01*
X425404D01*
Y255653D01*
X425496D01*
Y255698D01*
X425542D01*
Y255744D01*
X425634D01*
Y255790D01*
X425725D01*
Y255836D01*
X425771D01*
Y255882D01*
X425863D01*
Y255928D01*
X425909D01*
Y255974D01*
X426001D01*
Y256020D01*
X426093D01*
Y256066D01*
X426138D01*
Y256112D01*
X426230D01*
Y256157D01*
X426322D01*
Y256203D01*
X426368D01*
Y256249D01*
X426460D01*
Y256295D01*
X426552D01*
Y256341D01*
X426598D01*
Y256387D01*
X426689D01*
Y256433D01*
X426735D01*
Y256479D01*
X426827D01*
Y256525D01*
X426919D01*
Y256571D01*
X427011D01*
Y256616D01*
X427057D01*
Y256662D01*
X427148D01*
Y256708D01*
X427240D01*
Y256754D01*
X427286D01*
Y256800D01*
X427378D01*
Y256846D01*
X427470D01*
Y256892D01*
X427562D01*
Y256938D01*
X427653D01*
Y256984D01*
X427699D01*
Y257030D01*
X427791D01*
Y257076D01*
X427883D01*
Y257122D01*
X427975D01*
Y257167D01*
X428066D01*
Y257213D01*
X428158D01*
Y257259D01*
X428204D01*
Y257305D01*
X428296D01*
Y257351D01*
X428388D01*
Y257397D01*
X428480D01*
Y257443D01*
X428571D01*
Y257489D01*
X428663D01*
Y257535D01*
X428755D01*
Y257581D01*
X428847D01*
Y257626D01*
X428939D01*
Y257672D01*
X429030D01*
Y257718D01*
X429076D01*
Y257764D01*
X429168D01*
Y257810D01*
X429260D01*
Y257856D01*
X429352D01*
Y257902D01*
X429444D01*
Y257948D01*
X429535D01*
Y257994D01*
X429627D01*
Y258039D01*
X429719D01*
Y257994D01*
X429673D01*
Y257948D01*
X429581D01*
Y257902D01*
X429490D01*
Y257856D01*
X429398D01*
Y257810D01*
X429352D01*
Y257764D01*
X429260D01*
Y257718D01*
X429168D01*
Y257672D01*
X429122D01*
Y257626D01*
X429030D01*
Y257581D01*
X428939D01*
Y257535D01*
X428847D01*
Y257489D01*
X428801D01*
Y257443D01*
X428709D01*
Y257397D01*
X428617D01*
Y257351D01*
X428571D01*
Y257305D01*
X428480D01*
Y257259D01*
X428388D01*
Y257213D01*
X428296D01*
Y257167D01*
X428250D01*
Y257122D01*
X428158D01*
Y257076D01*
X428112D01*
Y257030D01*
X428021D01*
Y256984D01*
X427929D01*
Y256938D01*
X427883D01*
Y256892D01*
X427791D01*
Y256846D01*
X427699D01*
Y256800D01*
X427653D01*
Y256754D01*
X427562D01*
Y256708D01*
X427516D01*
Y256662D01*
X427424D01*
Y256616D01*
X427332D01*
Y256571D01*
X427286D01*
Y256525D01*
X427194D01*
Y256479D01*
X427148D01*
Y256433D01*
X427057D01*
Y256387D01*
X427011D01*
Y256341D01*
X426919D01*
Y256295D01*
X426873D01*
Y256249D01*
X426781D01*
Y256203D01*
X426735D01*
Y256157D01*
X426689D01*
Y256112D01*
X426598D01*
Y256066D01*
X426552D01*
Y256020D01*
X426460D01*
Y255974D01*
X426414D01*
Y255928D01*
X426322D01*
Y255882D01*
X426276D01*
Y255836D01*
X426230D01*
Y255790D01*
X426138D01*
Y255744D01*
X426093D01*
Y255698D01*
X426001D01*
Y255653D01*
X425955D01*
Y255607D01*
X425863D01*
Y255561D01*
X425817D01*
Y255515D01*
X425771D01*
Y255469D01*
X425680D01*
Y255423D01*
X425634D01*
Y255377D01*
X425588D01*
Y255331D01*
X425496D01*
Y255285D01*
X425450D01*
Y255239D01*
X425358D01*
Y255194D01*
X425312D01*
Y255148D01*
X425266D01*
Y255102D01*
X425175D01*
Y255056D01*
X425129D01*
Y255010D01*
X425083D01*
Y254964D01*
X424991D01*
Y254918D01*
X424945D01*
Y254872D01*
X424899D01*
Y254826D01*
X424807D01*
Y254780D01*
X424761D01*
Y254734D01*
X424715D01*
Y254689D01*
X424670D01*
Y254643D01*
X424578D01*
Y254597D01*
X424532D01*
Y254551D01*
X424486D01*
Y254505D01*
X424440D01*
Y254459D01*
X424348D01*
Y254413D01*
X424302D01*
Y254367D01*
X424257D01*
Y254321D01*
X424211D01*
Y254275D01*
X424119D01*
Y254230D01*
X424073D01*
Y254184D01*
X424027D01*
Y254138D01*
X423981D01*
Y254092D01*
X423935D01*
Y254046D01*
X423889D01*
Y254000D01*
X423843D01*
Y253954D01*
X423752D01*
Y253908D01*
X423706D01*
Y253862D01*
X423660D01*
Y253816D01*
X423614D01*
Y253771D01*
X423568D01*
Y253725D01*
X423522D01*
Y253679D01*
X423476D01*
Y253633D01*
X423430D01*
Y253587D01*
X423384D01*
Y253541D01*
X423338D01*
Y253495D01*
X423293D01*
Y253449D01*
X423247D01*
Y253403D01*
X423201D01*
Y253357D01*
X423155D01*
Y253312D01*
X423109D01*
Y253266D01*
X423063D01*
Y253220D01*
X422971D01*
Y253174D01*
X422925D01*
Y253128D01*
X422879D01*
Y253082D01*
X422834D01*
Y253036D01*
X422788D01*
Y252990D01*
X422742D01*
Y252944D01*
X422696D01*
Y252898D01*
X422650D01*
Y252852D01*
X422558D01*
Y252806D01*
X422512D01*
Y252761D01*
X422466D01*
Y252715D01*
X422420D01*
Y252669D01*
X422328D01*
Y252623D01*
X422283D01*
Y252577D01*
X422191D01*
Y252531D01*
X422145D01*
Y252485D01*
X422053D01*
Y252439D01*
X422007D01*
Y252393D01*
X421915D01*
Y252348D01*
X421824D01*
Y252302D01*
X421732D01*
Y252256D01*
X421640D01*
Y252210D01*
X421548D01*
Y252164D01*
X421456D01*
Y252118D01*
X421319D01*
Y252072D01*
X421227D01*
Y252026D01*
X421089D01*
Y251980D01*
X420905D01*
Y251934D01*
X420722D01*
Y251888D01*
X420538D01*
Y251842D01*
X420263D01*
Y251797D01*
X419804D01*
Y251751D01*
X418289D01*
Y251797D01*
X417830D01*
Y251842D01*
X417555D01*
Y251888D01*
X417371D01*
Y251934D01*
X417187D01*
Y251980D01*
X417004D01*
Y252026D01*
X416866D01*
Y252072D01*
X416774D01*
Y252118D01*
X416682D01*
Y252164D01*
X416545D01*
Y252210D01*
X416499D01*
Y252256D01*
X416407D01*
Y252302D01*
X416315D01*
Y252348D01*
X416269D01*
Y252393D01*
X416177D01*
Y252439D01*
X416132D01*
Y252485D01*
X416086D01*
Y252531D01*
X415994D01*
Y252577D01*
X415948D01*
Y252623D01*
X415902D01*
Y252669D01*
X415856D01*
Y252715D01*
X415810D01*
Y252761D01*
X415764D01*
Y252852D01*
X415718D01*
Y252898D01*
X415672D01*
Y252944D01*
X415627D01*
Y253036D01*
X415581D01*
Y253082D01*
X415535D01*
Y253174D01*
X415489D01*
Y253220D01*
X415443D01*
Y253312D01*
X415397D01*
Y253403D01*
X415351D01*
Y253495D01*
X415305D01*
Y253633D01*
X415259D01*
Y253725D01*
X415214D01*
Y253862D01*
X415168D01*
Y254000D01*
X415122D01*
Y254092D01*
X415030D01*
Y254138D01*
X414846D01*
Y254184D01*
X414663D01*
Y254230D01*
X414479D01*
Y254275D01*
X414295D01*
Y254321D01*
X414112D01*
Y254367D01*
X413882D01*
Y254413D01*
X413699D01*
Y254459D01*
X413469D01*
Y254505D01*
X413240D01*
Y254551D01*
X413010D01*
Y254597D01*
X412735D01*
Y254643D01*
X412459D01*
Y254689D01*
X412092D01*
Y254734D01*
X411633D01*
Y254780D01*
X410899D01*
Y254826D01*
X409613D01*
Y254780D01*
X408603D01*
Y254734D01*
X407777D01*
Y254689D01*
X407043D01*
Y254643D01*
X406216D01*
Y254597D01*
X405344D01*
Y254551D01*
X404151D01*
Y254505D01*
X403279D01*
Y254459D01*
X402957D01*
Y254413D01*
X402728D01*
Y254367D01*
X402544D01*
Y254321D01*
X402406D01*
Y254275D01*
X402269D01*
Y254230D01*
X402177D01*
Y254184D01*
X402039D01*
Y254138D01*
X401947D01*
Y254092D01*
X401856D01*
Y254046D01*
X401718D01*
Y254000D01*
X401626D01*
Y253954D01*
X401534D01*
Y253908D01*
X401442D01*
Y253862D01*
X401305D01*
Y253816D01*
X401213D01*
Y253771D01*
X401121D01*
Y253725D01*
X401029D01*
Y253679D01*
X400892D01*
Y253633D01*
X400800D01*
Y253587D01*
X400524D01*
Y253541D01*
X400433D01*
Y253495D01*
X400387D01*
Y253449D01*
X400341D01*
Y253403D01*
X400249D01*
Y253357D01*
X400203D01*
Y253312D01*
X400157D01*
Y253266D01*
X400111D01*
Y253220D01*
X400065D01*
Y253174D01*
X400019D01*
Y253128D01*
X399973D01*
Y253082D01*
X399928D01*
Y253036D01*
X399836D01*
Y252990D01*
X399790D01*
Y252944D01*
X399744D01*
Y252898D01*
X399698D01*
Y252852D01*
X399652D01*
Y252806D01*
X399606D01*
Y252761D01*
X399560D01*
Y252715D01*
X399515D01*
Y252669D01*
X399468D01*
Y252623D01*
X399423D01*
Y252577D01*
X399331D01*
Y252531D01*
X399285D01*
Y252485D01*
X399239D01*
Y252439D01*
X399193D01*
Y252393D01*
X399147D01*
Y252348D01*
X399055D01*
Y252302D01*
X399010D01*
Y252256D01*
X398918D01*
Y252210D01*
X398872D01*
Y252164D01*
X398826D01*
Y252118D01*
X398734D01*
Y252072D01*
X398642D01*
Y252026D01*
X398550D01*
Y251980D01*
X398459D01*
Y251934D01*
X398367D01*
Y251888D01*
X398229D01*
Y251842D01*
X398046D01*
Y251797D01*
X397816D01*
Y251751D01*
X396439D01*
Y251797D01*
X396163D01*
Y251842D01*
X395934D01*
Y251888D01*
X395750D01*
Y251934D01*
X395567D01*
Y251980D01*
X395429D01*
Y252026D01*
X395245D01*
Y252072D01*
X395108D01*
Y252118D01*
X394970D01*
Y252164D01*
X394832D01*
Y252210D01*
X394695D01*
Y252256D01*
X394557D01*
Y252302D01*
X394419D01*
Y252348D01*
X394281D01*
Y252393D01*
X394144D01*
Y252439D01*
X394052D01*
Y252485D01*
X393914D01*
Y252531D01*
X393777D01*
Y252577D01*
X393685D01*
Y252623D01*
X393547D01*
Y252669D01*
X393409D01*
Y252715D01*
X393317D01*
Y252761D01*
X393180D01*
Y252806D01*
X393042D01*
Y252852D01*
X392950D01*
Y252898D01*
X392812D01*
Y252944D01*
X392675D01*
Y252990D01*
X392583D01*
Y253036D01*
X392445D01*
Y253082D01*
X392308D01*
Y253128D01*
X392216D01*
Y253174D01*
X392078D01*
Y253220D01*
X391940D01*
Y253266D01*
X391803D01*
Y253312D01*
X391665D01*
Y253357D01*
X391573D01*
Y253403D01*
X391435D01*
Y253449D01*
X391298D01*
Y253495D01*
X391160D01*
Y253541D01*
X391022D01*
Y253587D01*
X390885D01*
Y253633D01*
X390747D01*
Y253679D01*
X390563D01*
Y253725D01*
X390425D01*
Y253771D01*
X390288D01*
Y253816D01*
X390104D01*
Y253862D01*
X389921D01*
Y253908D01*
X389783D01*
Y253954D01*
X389599D01*
Y254000D01*
X389416D01*
Y254046D01*
X389186D01*
Y254092D01*
X389002D01*
Y254138D01*
X388773D01*
Y254184D01*
X388544D01*
Y254230D01*
X388360D01*
Y254275D01*
X388130D01*
Y254321D01*
X387901D01*
Y254367D01*
X387717D01*
Y254413D01*
X387488D01*
Y254459D01*
X387258D01*
Y254505D01*
X387029D01*
Y254551D01*
X386845D01*
Y254597D01*
X386661D01*
Y254643D01*
X386432D01*
Y254689D01*
X386202D01*
Y254734D01*
X386019D01*
Y254780D01*
X385789D01*
Y254826D01*
X385606D01*
Y254872D01*
X385422D01*
Y254918D01*
X385238D01*
Y254964D01*
X385009D01*
Y255010D01*
X384825D01*
Y255056D01*
X384642D01*
Y255102D01*
X384458D01*
Y255148D01*
X384320D01*
Y255194D01*
X384137D01*
Y255239D01*
X383999D01*
Y255285D01*
X383861D01*
Y255331D01*
X383678D01*
Y255377D01*
X383540D01*
Y255423D01*
X383402D01*
Y255469D01*
X383265D01*
Y255515D01*
X383173D01*
Y255561D01*
X383081D01*
Y255607D01*
X382943D01*
Y255653D01*
X382851D01*
Y255698D01*
X382760D01*
Y255744D01*
X382668D01*
Y255790D01*
X382622D01*
Y255836D01*
X382530D01*
Y255882D01*
X382484D01*
Y255928D01*
X382392D01*
Y255974D01*
X382346D01*
Y256020D01*
X382301D01*
Y256066D01*
X382255D01*
Y256112D01*
X382209D01*
Y256157D01*
X382163D01*
Y256203D01*
X382117D01*
Y256249D01*
X382071D01*
Y256295D01*
X382025D01*
Y256341D01*
X381979D01*
Y256387D01*
X382025D01*
Y256341D01*
X382071D01*
Y256295D01*
X382117D01*
Y256249D01*
X382163D01*
Y256203D01*
X382255D01*
Y256157D01*
X382301D01*
Y256112D01*
X382392D01*
Y256066D01*
X382438D01*
Y256020D01*
X382530D01*
Y255974D01*
X382668D01*
Y255928D01*
X382760D01*
Y255882D01*
X382943D01*
Y255836D01*
X383081D01*
Y255790D01*
X383265D01*
Y255744D01*
X383494D01*
Y255698D01*
X383678D01*
Y255653D01*
X383999D01*
Y255607D01*
X384274D01*
Y255561D01*
X384596D01*
Y255515D01*
X384917D01*
Y255469D01*
X385192D01*
Y255423D01*
X385468D01*
Y255377D01*
X385743D01*
Y255331D01*
X386019D01*
Y255285D01*
X386294D01*
Y255239D01*
X386570D01*
Y255194D01*
X386891D01*
Y255148D01*
X387075D01*
Y255102D01*
X387396D01*
Y255056D01*
X387625D01*
Y255010D01*
X387855D01*
Y254964D01*
X388084D01*
Y254918D01*
X388314D01*
Y254872D01*
X388544D01*
Y254826D01*
X388819D01*
Y254780D01*
X389002D01*
Y254734D01*
X389278D01*
Y254689D01*
X389416D01*
Y254643D01*
X389645D01*
Y254597D01*
X389829D01*
Y254551D01*
X390012D01*
Y254505D01*
X390196D01*
Y254459D01*
X390334D01*
Y254413D01*
X390471D01*
Y254367D01*
X390609D01*
Y254321D01*
X390793D01*
Y254275D01*
X390930D01*
Y254230D01*
X391068D01*
Y254184D01*
X391206D01*
Y254138D01*
X391344D01*
Y254092D01*
X391481D01*
Y254046D01*
X391573D01*
Y254000D01*
X391757D01*
Y253954D01*
X391848D01*
Y253908D01*
X391986D01*
Y253862D01*
X392124D01*
Y253816D01*
X392262D01*
Y253771D01*
X392354D01*
Y253725D01*
X392537D01*
Y253679D01*
X392629D01*
Y253633D01*
X392721D01*
Y253587D01*
X392904D01*
Y253541D01*
X392996D01*
Y253495D01*
X393134D01*
Y253449D01*
X393226D01*
Y253403D01*
X393363D01*
Y253357D01*
X393501D01*
Y253312D01*
X393685D01*
Y253266D01*
X393777D01*
Y253220D01*
X393914D01*
Y253174D01*
X394098D01*
Y253128D01*
X394235D01*
Y253082D01*
X394327D01*
Y253036D01*
X394511D01*
Y252990D01*
X394649D01*
Y252944D01*
X394878D01*
Y252898D01*
X395062D01*
Y252852D01*
X395291D01*
Y252806D01*
X395567D01*
Y252761D01*
X395842D01*
Y252715D01*
X396760D01*
Y252669D01*
X396852D01*
Y252715D01*
X397449D01*
Y252761D01*
X397724D01*
Y252806D01*
X397862D01*
Y252852D01*
X398000D01*
Y252898D01*
X398091D01*
Y252944D01*
X398183D01*
Y252990D01*
X398275D01*
Y253036D01*
X398367D01*
Y253082D01*
X398413D01*
Y253128D01*
X398505D01*
Y253174D01*
X398550D01*
Y253220D01*
X398642D01*
Y253266D01*
X398688D01*
Y253312D01*
X398780D01*
Y253357D01*
X398826D01*
Y253403D01*
X398872D01*
Y253449D01*
X398918D01*
Y253495D01*
X398964D01*
Y253541D01*
X399010D01*
Y253587D01*
X399055D01*
Y253633D01*
X399101D01*
Y253679D01*
X399193D01*
Y253771D01*
X399285D01*
Y253816D01*
X399331D01*
Y253862D01*
X399377D01*
Y253908D01*
X399423D01*
Y253954D01*
X399468D01*
Y254000D01*
X399515D01*
Y254046D01*
X399606D01*
Y254092D01*
X399652D01*
Y254184D01*
X399744D01*
Y254230D01*
X399790D01*
Y254275D01*
X399836D01*
Y254321D01*
X399928D01*
Y254367D01*
X399973D01*
Y254413D01*
X400019D01*
Y254459D01*
X400065D01*
Y254505D01*
X400157D01*
Y254551D01*
X400203D01*
Y254597D01*
X400249D01*
Y254643D01*
X400295D01*
Y254689D01*
X400387D01*
Y254780D01*
X400433D01*
Y254826D01*
X400478D01*
Y254872D01*
X400524D01*
Y254918D01*
X400570D01*
Y254964D01*
X400616D01*
Y255010D01*
X400662D01*
Y255056D01*
X400708D01*
Y255148D01*
X400754D01*
Y255285D01*
X400800D01*
Y255515D01*
X400846D01*
Y255882D01*
X400892D01*
Y255928D01*
X400846D01*
Y255974D01*
X400892D01*
Y257351D01*
X400846D01*
Y257672D01*
X400800D01*
Y257856D01*
X400754D01*
Y258085D01*
X400708D01*
Y258223D01*
X400662D01*
Y258361D01*
X400616D01*
Y258407D01*
X400570D01*
Y258499D01*
X400524D01*
Y258636D01*
X400478D01*
Y258682D01*
X400433D01*
Y258774D01*
X400387D01*
Y258866D01*
X400341D01*
Y258958D01*
X400295D01*
Y259004D01*
X400249D01*
Y259095D01*
X400203D01*
Y259187D01*
X400157D01*
Y259233D01*
X400111D01*
Y259325D01*
X400065D01*
Y259371D01*
X400019D01*
Y259463D01*
X399973D01*
Y259508D01*
X399928D01*
Y259554D01*
X399882D01*
Y259646D01*
X399836D01*
Y259692D01*
X399790D01*
Y259784D01*
X399744D01*
Y259830D01*
X399698D01*
Y259922D01*
X399652D01*
Y259967D01*
X399606D01*
Y260059D01*
X399560D01*
Y260105D01*
X399515D01*
Y260151D01*
X399468D01*
Y260243D01*
X399423D01*
Y260289D01*
X399377D01*
Y260381D01*
X399331D01*
Y260427D01*
X399285D01*
Y260518D01*
X399239D01*
Y260564D01*
X399193D01*
Y260610D01*
X399147D01*
Y260702D01*
X399101D01*
Y260748D01*
X399055D01*
Y260840D01*
X399010D01*
Y260886D01*
X398964D01*
Y260977D01*
X398918D01*
Y261023D01*
X398872D01*
Y261115D01*
X398826D01*
Y261161D01*
X398780D01*
Y261253D01*
X398734D01*
Y261345D01*
X398688D01*
Y261390D01*
X398642D01*
Y261482D01*
X398596D01*
Y261528D01*
X398550D01*
Y261620D01*
X398505D01*
Y261666D01*
X398459D01*
Y261758D01*
X398413D01*
Y261849D01*
X398367D01*
Y261895D01*
X398321D01*
Y261987D01*
X398275D01*
Y262033D01*
X398229D01*
Y262125D01*
X398183D01*
Y262217D01*
X398137D01*
Y262263D01*
X398091D01*
Y262355D01*
X398046D01*
Y262400D01*
X398000D01*
Y262492D01*
X397954D01*
Y262584D01*
X397908D01*
Y262630D01*
X397862D01*
Y262722D01*
X397816D01*
Y262768D01*
X397770D01*
Y262859D01*
X397724D01*
Y262951D01*
X397678D01*
Y262997D01*
X397632D01*
Y263089D01*
X397587D01*
Y263135D01*
X397541D01*
Y263227D01*
X397495D01*
Y263318D01*
X397449D01*
Y263364D01*
X397403D01*
Y263456D01*
X397357D01*
Y263502D01*
X397311D01*
Y263594D01*
X397265D01*
Y263686D01*
X397219D01*
Y263732D01*
X397173D01*
Y263823D01*
X397127D01*
Y263869D01*
X397082D01*
Y263961D01*
X397036D01*
Y264053D01*
X396990D01*
Y264099D01*
X396944D01*
Y264191D01*
X396898D01*
Y264282D01*
X396852D01*
Y264328D01*
X396806D01*
Y264420D01*
X396760D01*
Y264466D01*
X396714D01*
Y264558D01*
X396668D01*
Y264650D01*
X396623D01*
Y264696D01*
X396577D01*
Y264787D01*
X396531D01*
Y264833D01*
X396485D01*
Y264925D01*
X396439D01*
Y265017D01*
X396393D01*
Y265063D01*
X396347D01*
Y265155D01*
X396301D01*
Y265246D01*
X396255D01*
Y265292D01*
X396209D01*
Y265384D01*
X396163D01*
Y265430D01*
X396118D01*
Y265522D01*
X396072D01*
Y265614D01*
X396026D01*
Y265660D01*
X395980D01*
Y265751D01*
X395934D01*
Y265797D01*
X395888D01*
Y265889D01*
X395842D01*
Y265981D01*
X395796D01*
Y266027D01*
X395750D01*
Y266119D01*
X395704D01*
Y266164D01*
X395658D01*
Y266256D01*
X395613D01*
Y266348D01*
X395567D01*
Y266394D01*
X395521D01*
Y266486D01*
X395475D01*
Y266532D01*
X395429D01*
Y266623D01*
X395383D01*
Y266669D01*
X395337D01*
Y266761D01*
X395291D01*
Y266807D01*
X395245D01*
Y266899D01*
X395200D01*
Y266945D01*
X395154D01*
Y267037D01*
X395108D01*
Y267083D01*
X395062D01*
Y267174D01*
X395016D01*
Y267220D01*
X394970D01*
Y267312D01*
X394924D01*
Y267358D01*
X394878D01*
Y267450D01*
X394832D01*
Y267496D01*
X394786D01*
Y267588D01*
X394740D01*
Y267633D01*
X394695D01*
Y267679D01*
X394649D01*
Y267771D01*
X394603D01*
Y267817D01*
X394557D01*
Y267909D01*
X394511D01*
Y267955D01*
X394465D01*
Y268046D01*
X394419D01*
Y268092D01*
X394373D01*
Y268138D01*
X394327D01*
Y268230D01*
X394281D01*
Y268276D01*
X394235D01*
Y268322D01*
X394190D01*
Y268414D01*
X394144D01*
Y268460D01*
X394098D01*
Y268506D01*
X394052D01*
Y268597D01*
X394006D01*
Y268643D01*
X393960D01*
Y268689D01*
X393914D01*
Y268781D01*
X393868D01*
Y268827D01*
X393822D01*
Y268873D01*
X393777D01*
Y268965D01*
X393731D01*
Y269011D01*
X393685D01*
Y269056D01*
X393639D01*
Y269102D01*
X393593D01*
Y269148D01*
X393547D01*
Y269240D01*
X393501D01*
Y269286D01*
X393455D01*
Y269332D01*
X393409D01*
Y269378D01*
X393363D01*
Y269470D01*
X393317D01*
Y269515D01*
X393272D01*
Y269561D01*
X393226D01*
Y269607D01*
X393180D01*
Y269653D01*
X393134D01*
Y269699D01*
X393088D01*
Y269745D01*
X393042D01*
Y269837D01*
X392996D01*
Y269883D01*
X392950D01*
Y269929D01*
X392904D01*
Y269974D01*
X392858D01*
Y270020D01*
X392812D01*
Y270066D01*
X392767D01*
Y270112D01*
X392721D01*
Y270158D01*
X392675D01*
Y270204D01*
X392629D01*
Y270250D01*
X392583D01*
Y270296D01*
X392537D01*
Y270342D01*
X392491D01*
Y270388D01*
X392445D01*
Y270434D01*
X392399D01*
Y270479D01*
X392308D01*
Y270525D01*
X392262D01*
Y270571D01*
X392216D01*
Y270617D01*
X392170D01*
Y270663D01*
X392124D01*
Y270709D01*
X392078D01*
Y270755D01*
X391986D01*
Y270801D01*
X391940D01*
Y270847D01*
X391848D01*
Y270893D01*
X391803D01*
Y270938D01*
X391711D01*
Y270984D01*
X391619D01*
Y271030D01*
X391527D01*
Y271076D01*
X391435D01*
Y271122D01*
X391252D01*
Y271168D01*
X390701D01*
Y271122D01*
X390471D01*
Y271076D01*
X390334D01*
Y271030D01*
X390196D01*
Y270984D01*
X390104D01*
Y270938D01*
X390012D01*
Y270893D01*
X389921D01*
Y270847D01*
X389875D01*
Y270801D01*
X389783D01*
Y270755D01*
X389737D01*
Y270709D01*
X389645D01*
Y270663D01*
X389599D01*
Y270617D01*
X389553D01*
Y270571D01*
X389507D01*
Y270525D01*
X389462D01*
Y270479D01*
X389370D01*
Y270434D01*
X389324D01*
Y270388D01*
X389278D01*
Y270342D01*
X389232D01*
Y270479D01*
X389186D01*
Y270663D01*
X389140D01*
Y270847D01*
X389094D01*
Y271030D01*
X389048D01*
Y271214D01*
X389002D01*
Y271397D01*
X388957D01*
Y271581D01*
X388911D01*
Y271765D01*
X388865D01*
Y272040D01*
X388819D01*
Y272866D01*
X388865D01*
Y273050D01*
X388911D01*
Y273188D01*
X388957D01*
Y273325D01*
X389002D01*
Y273417D01*
X389048D01*
Y273555D01*
X389094D01*
Y273647D01*
X389140D01*
Y273739D01*
X389186D01*
Y273830D01*
X389232D01*
Y273922D01*
X389278D01*
Y274014D01*
X389324D01*
Y274106D01*
X389370D01*
Y274198D01*
X389416D01*
Y274289D01*
X389462D01*
Y274335D01*
X389507D01*
Y274427D01*
X389553D01*
Y274519D01*
X389599D01*
Y274611D01*
X389645D01*
Y274702D01*
X389691D01*
Y274748D01*
X389737D01*
Y274840D01*
X389783D01*
Y274932D01*
X389829D01*
Y275024D01*
X389875D01*
Y275070D01*
X389921D01*
Y275162D01*
X389967D01*
Y275253D01*
X390012D01*
Y275299D01*
X390058D01*
Y275391D01*
X390104D01*
Y275483D01*
X390150D01*
Y275575D01*
X390196D01*
Y275667D01*
X390242D01*
Y275712D01*
X390288D01*
Y275804D01*
X390334D01*
Y275896D01*
X390380D01*
Y275988D01*
X390425D01*
Y276080D01*
X390471D01*
Y276171D01*
X390517D01*
Y276263D01*
X390563D01*
Y276355D01*
X390609D01*
Y276447D01*
X390655D01*
Y276539D01*
X390701D01*
Y276630D01*
X390747D01*
Y276722D01*
X390793D01*
Y276860D01*
X390839D01*
Y276952D01*
X390885D01*
Y277044D01*
X390930D01*
Y277135D01*
X390976D01*
Y277273D01*
X391022D01*
Y277365D01*
X391068D01*
Y277503D01*
X391114D01*
Y277595D01*
X391160D01*
Y277686D01*
X391206D01*
Y277824D01*
X391252D01*
Y277962D01*
X391298D01*
Y278053D01*
X391344D01*
Y278191D01*
X391390D01*
Y278283D01*
X391435D01*
Y278421D01*
X391481D01*
Y278558D01*
X391527D01*
Y278650D01*
X391573D01*
Y278788D01*
X391619D01*
Y278926D01*
X391665D01*
Y279063D01*
X391711D01*
Y279155D01*
X391757D01*
Y279293D01*
X391803D01*
Y279431D01*
X391848D01*
Y279568D01*
X391894D01*
Y279660D01*
X391940D01*
Y279798D01*
X391986D01*
Y279936D01*
X392032D01*
Y280073D01*
X392078D01*
Y280165D01*
X392124D01*
Y280303D01*
X392170D01*
Y280441D01*
X392216D01*
Y280578D01*
X392262D01*
Y280670D01*
X392308D01*
Y280808D01*
X392354D01*
Y280900D01*
X392399D01*
Y281037D01*
X392445D01*
Y281175D01*
X392491D01*
Y281267D01*
X392537D01*
Y281404D01*
X392583D01*
Y281496D01*
X392629D01*
Y281634D01*
X392675D01*
Y281726D01*
X392721D01*
Y281818D01*
X392767D01*
Y281955D01*
X392812D01*
Y282047D01*
X392858D01*
Y282139D01*
X392904D01*
Y282277D01*
X392950D01*
Y282368D01*
X392996D01*
Y282460D01*
X393042D01*
Y282552D01*
X393088D01*
Y282644D01*
X393134D01*
Y282736D01*
X393180D01*
Y282827D01*
X393226D01*
Y282965D01*
X393272D01*
Y283057D01*
X393317D01*
Y283149D01*
X393363D01*
Y283195D01*
X393409D01*
Y283286D01*
X393455D01*
Y283378D01*
X393501D01*
Y283470D01*
X393547D01*
Y283562D01*
X393593D01*
Y283654D01*
X393639D01*
Y283746D01*
X393685D01*
Y283837D01*
X393731D01*
Y283929D01*
X393777D01*
Y283975D01*
X393822D01*
Y284067D01*
X393868D01*
Y284159D01*
X393914D01*
Y284251D01*
X393960D01*
Y284296D01*
X394006D01*
Y284388D01*
X394052D01*
Y284480D01*
X394098D01*
Y284526D01*
X394144D01*
Y284618D01*
X394190D01*
Y284709D01*
X394235D01*
Y284755D01*
X394281D01*
Y284847D01*
X394327D01*
Y284939D01*
X394373D01*
Y284985D01*
X394419D01*
Y285077D01*
X394465D01*
Y285123D01*
X394511D01*
Y285215D01*
X394557D01*
Y285260D01*
X394603D01*
Y285352D01*
X394649D01*
Y285398D01*
X394695D01*
Y285490D01*
X394740D01*
Y285536D01*
X394786D01*
Y285628D01*
X394832D01*
Y285674D01*
X394878D01*
Y285765D01*
X394924D01*
Y285811D01*
X394970D01*
Y285857D01*
X395016D01*
Y285949D01*
X395062D01*
Y285995D01*
X395108D01*
Y286087D01*
X395154D01*
Y286133D01*
X395200D01*
Y286178D01*
X395245D01*
Y286270D01*
X395291D01*
Y286316D01*
X395337D01*
Y286362D01*
X395383D01*
Y286454D01*
X395429D01*
Y286500D01*
X395475D01*
Y286592D01*
X395521D01*
Y286637D01*
X395567D01*
Y286683D01*
X395613D01*
Y286775D01*
X395658D01*
Y286821D01*
X395704D01*
Y286867D01*
X395750D01*
Y286913D01*
X395796D01*
Y287005D01*
X395842D01*
Y287051D01*
X395888D01*
Y287097D01*
X395934D01*
Y287188D01*
X395980D01*
Y287234D01*
X396026D01*
Y287280D01*
X396072D01*
Y287372D01*
X396118D01*
Y287418D01*
X396163D01*
Y287464D01*
X396209D01*
Y287510D01*
X396255D01*
Y287602D01*
X396301D01*
Y287647D01*
X396347D01*
Y287693D01*
X396393D01*
Y287739D01*
X396439D01*
Y287831D01*
X396485D01*
Y287877D01*
X396531D01*
Y287923D01*
X396577D01*
Y287969D01*
X396623D01*
Y288060D01*
X396668D01*
Y288106D01*
X396714D01*
Y288152D01*
X396760D01*
Y288198D01*
X396806D01*
Y288290D01*
X396852D01*
Y288336D01*
X396898D01*
Y288382D01*
X396944D01*
Y288474D01*
X396990D01*
Y288519D01*
X397036D01*
Y288565D01*
X397082D01*
Y288611D01*
X397127D01*
Y288703D01*
X397173D01*
Y288749D01*
X397219D01*
Y288795D01*
X397265D01*
Y288841D01*
X397311D01*
Y288933D01*
X397357D01*
Y288979D01*
X397403D01*
Y289025D01*
X397449D01*
Y289116D01*
X397495D01*
Y289162D01*
X397541D01*
Y289208D01*
X397587D01*
Y289300D01*
X397632D01*
Y289346D01*
X397678D01*
Y289438D01*
X397724D01*
Y289484D01*
X397770D01*
Y289529D01*
X397816D01*
Y289621D01*
X397862D01*
Y289667D01*
X397908D01*
Y289759D01*
X397954D01*
Y289805D01*
X398000D01*
Y289897D01*
X398046D01*
Y289942D01*
X398091D01*
Y290034D01*
X398137D01*
Y290080D01*
X398183D01*
Y290172D01*
X398229D01*
Y290218D01*
X398275D01*
Y290310D01*
X398321D01*
Y290402D01*
X398367D01*
Y290448D01*
X398413D01*
Y290539D01*
X398459D01*
Y290631D01*
X398505D01*
Y290723D01*
X398550D01*
Y290815D01*
X398596D01*
Y290907D01*
X398642D01*
Y290998D01*
X398688D01*
Y291090D01*
X398734D01*
Y291228D01*
X398780D01*
Y291320D01*
X398826D01*
Y291457D01*
X398872D01*
Y291595D01*
X398918D01*
Y291779D01*
X398964D01*
Y291962D01*
X399010D01*
Y292192D01*
X399055D01*
Y292559D01*
X399101D01*
Y293064D01*
X399055D01*
Y293707D01*
X399010D01*
Y294349D01*
X398964D01*
Y294992D01*
X398918D01*
Y295589D01*
X398872D01*
Y296231D01*
X398826D01*
Y296874D01*
X398780D01*
Y297563D01*
X398734D01*
Y298251D01*
X398688D01*
Y299123D01*
X398642D01*
Y299995D01*
X398596D01*
Y301373D01*
X398550D01*
Y302979D01*
X398596D01*
Y304035D01*
X398642D01*
Y304586D01*
X398688D01*
Y305045D01*
X398734D01*
Y305366D01*
X398780D01*
Y305642D01*
X398826D01*
Y305917D01*
X398872D01*
Y306147D01*
X398918D01*
Y306376D01*
X398964D01*
Y306560D01*
X399010D01*
Y306697D01*
X399055D01*
Y306881D01*
X399101D01*
Y307019D01*
X399147D01*
Y307156D01*
X399193D01*
Y307294D01*
X399239D01*
Y307432D01*
X399285D01*
Y307570D01*
X399331D01*
Y307661D01*
X399377D01*
Y307799D01*
X399423D01*
Y307891D01*
X399468D01*
Y307983D01*
X399515D01*
Y308074D01*
X399560D01*
Y308166D01*
X399606D01*
Y308258D01*
X399652D01*
Y308350D01*
X399698D01*
Y308442D01*
X399744D01*
Y308488D01*
X399790D01*
Y308579D01*
X399836D01*
Y308671D01*
X399882D01*
Y308717D01*
X399928D01*
Y308809D01*
X399973D01*
Y308855D01*
X400019D01*
Y308947D01*
X400065D01*
Y308993D01*
X400111D01*
Y309038D01*
X400157D01*
Y309130D01*
X400203D01*
Y309176D01*
X400249D01*
Y309222D01*
X400295D01*
Y309268D01*
X400341D01*
Y309360D01*
X400387D01*
Y309406D01*
X400433D01*
Y309452D01*
X400478D01*
Y309498D01*
X400524D01*
Y309543D01*
X400570D01*
Y309589D01*
X400616D01*
Y309635D01*
X400662D01*
Y309681D01*
X400708D01*
Y309727D01*
X400754D01*
Y309773D01*
X400800D01*
Y309819D01*
X400846D01*
Y309865D01*
X400892D01*
Y309911D01*
X400938D01*
Y309956D01*
X401029D01*
Y310002D01*
X401075D01*
Y310048D01*
X401121D01*
Y310094D01*
X401167D01*
Y310140D01*
X401259D01*
Y310186D01*
X401305D01*
Y310232D01*
X401351D01*
Y310278D01*
X401442D01*
Y310324D01*
X401488D01*
Y310370D01*
X401580D01*
Y310416D01*
X401626D01*
Y310462D01*
X401718D01*
Y310507D01*
X401764D01*
Y310553D01*
X401856D01*
Y310599D01*
X401901D01*
Y310645D01*
X401993D01*
Y310691D01*
X402085D01*
Y310737D01*
X402177D01*
Y310783D01*
X402269D01*
Y310829D01*
X402360D01*
Y310875D01*
X402452D01*
Y310921D01*
X402544D01*
Y310966D01*
X402636D01*
Y311012D01*
X402728D01*
Y311058D01*
X402820D01*
Y311104D01*
X402911D01*
Y311150D01*
X403003D01*
Y311196D01*
X403141D01*
Y311242D01*
X403233D01*
Y311288D01*
X403370D01*
Y311334D01*
X403462D01*
Y311380D01*
X403600D01*
Y311425D01*
X403692D01*
Y311471D01*
X403829D01*
Y311517D01*
X403967D01*
Y311563D01*
X404105D01*
Y311609D01*
X404243D01*
Y311655D01*
X404426D01*
Y311701D01*
X404564D01*
Y311747D01*
X404748D01*
Y311793D01*
X404977D01*
Y311839D01*
X405161D01*
Y311884D01*
X405390D01*
Y311930D01*
X405666D01*
Y311976D01*
X406033D01*
Y312022D01*
X406492D01*
Y312068D01*
X407823D01*
Y312022D01*
D02*
G37*
G36*
X388314Y269011D02*
X388268D01*
Y268919D01*
X388222D01*
Y268873D01*
X388176D01*
Y268781D01*
X388130D01*
Y268689D01*
X388084D01*
Y268597D01*
X388038D01*
Y268552D01*
X387993D01*
Y268460D01*
X387947D01*
Y268368D01*
X387901D01*
Y268322D01*
X387855D01*
Y268230D01*
X387809D01*
Y268138D01*
X387763D01*
Y268092D01*
X387717D01*
Y268001D01*
X387671D01*
Y267955D01*
X387625D01*
Y267863D01*
X387579D01*
Y267817D01*
X387534D01*
Y267725D01*
X387488D01*
Y267679D01*
X387442D01*
Y267588D01*
X387396D01*
Y267542D01*
X387350D01*
Y267450D01*
X387304D01*
Y267404D01*
X387258D01*
Y267358D01*
X387212D01*
Y267312D01*
X387166D01*
Y267266D01*
X387121D01*
Y267220D01*
X387075D01*
Y267128D01*
X387029D01*
Y267083D01*
X386983D01*
Y267037D01*
X386937D01*
Y266991D01*
X386891D01*
Y266945D01*
X386845D01*
Y266899D01*
X386799D01*
Y266853D01*
X386753D01*
Y266807D01*
X386707D01*
Y266761D01*
X386615D01*
Y266715D01*
X386570D01*
Y266669D01*
X386524D01*
Y266623D01*
X386386D01*
Y266578D01*
X386294D01*
Y266532D01*
X386157D01*
Y266486D01*
X386019D01*
Y266440D01*
X385835D01*
Y266394D01*
X385560D01*
Y266348D01*
X385330D01*
Y266302D01*
X384917D01*
Y266256D01*
X384504D01*
Y266210D01*
X384137D01*
Y266164D01*
X383861D01*
Y266119D01*
X383632D01*
Y266073D01*
X383448D01*
Y266027D01*
X383265D01*
Y265981D01*
X383127D01*
Y265935D01*
X383035D01*
Y265889D01*
X382897D01*
Y265843D01*
X382805D01*
Y265797D01*
X382714D01*
Y265751D01*
X382668D01*
Y265705D01*
X382576D01*
Y265660D01*
X382530D01*
Y265614D01*
X382438D01*
Y265568D01*
X382392D01*
Y265522D01*
X382346D01*
Y265476D01*
X382301D01*
Y265430D01*
X382255D01*
Y265384D01*
X382209D01*
Y265338D01*
X382163D01*
Y265246D01*
X382117D01*
Y265201D01*
X382071D01*
Y265109D01*
X382025D01*
Y264971D01*
X381979D01*
Y264696D01*
X381933D01*
Y264237D01*
X381979D01*
Y263869D01*
X382025D01*
Y263548D01*
X382071D01*
Y263272D01*
X382117D01*
Y263089D01*
Y263043D01*
Y262997D01*
X382163D01*
Y262676D01*
X382209D01*
Y262263D01*
X382255D01*
Y261574D01*
X382301D01*
Y260840D01*
X382255D01*
Y260243D01*
X382209D01*
Y259967D01*
X382163D01*
Y259738D01*
X382117D01*
Y259508D01*
X382071D01*
Y259325D01*
X382025D01*
Y259600D01*
X382071D01*
Y259967D01*
X382117D01*
Y260748D01*
X382163D01*
Y261161D01*
X382117D01*
Y262079D01*
X382071D01*
Y262538D01*
X382025D01*
Y262859D01*
X381979D01*
Y263227D01*
X381933D01*
Y263594D01*
X381888D01*
Y263961D01*
X381842D01*
Y264833D01*
X381888D01*
Y265063D01*
X381933D01*
Y265201D01*
X381979D01*
Y265292D01*
X382025D01*
Y265384D01*
X382071D01*
Y265430D01*
X382117D01*
Y265476D01*
X382163D01*
Y265568D01*
X382209D01*
Y265614D01*
X382255D01*
Y265660D01*
X382346D01*
Y265705D01*
X382392D01*
Y265751D01*
X382484D01*
Y265797D01*
X382530D01*
Y265843D01*
X382622D01*
Y265889D01*
X382714D01*
Y265935D01*
X382851D01*
Y265981D01*
X382989D01*
Y266027D01*
X383127D01*
Y266073D01*
X383265D01*
Y266119D01*
X383402D01*
Y266164D01*
X383586D01*
Y266210D01*
X383769D01*
Y266256D01*
X383999D01*
Y266302D01*
X384183D01*
Y266348D01*
X384412D01*
Y266394D01*
X384642D01*
Y266440D01*
X384871D01*
Y266486D01*
X385055D01*
Y266532D01*
X385238D01*
Y266578D01*
X385422D01*
Y266623D01*
X385606D01*
Y266669D01*
X385743D01*
Y266715D01*
X385881D01*
Y266761D01*
X386019D01*
Y266807D01*
X386111D01*
Y266853D01*
X386248D01*
Y266899D01*
X386340D01*
Y266945D01*
X386386D01*
Y266991D01*
X386478D01*
Y267037D01*
X386570D01*
Y267083D01*
X386615D01*
Y267128D01*
X386661D01*
Y267174D01*
X386753D01*
Y267220D01*
X386799D01*
Y267266D01*
X386845D01*
Y267312D01*
X386891D01*
Y267358D01*
X386937D01*
Y267404D01*
X386983D01*
Y267450D01*
X387029D01*
Y267496D01*
X387075D01*
Y267542D01*
X387121D01*
Y267588D01*
X387166D01*
Y267633D01*
X387212D01*
Y267679D01*
X387258D01*
Y267725D01*
X387304D01*
Y267771D01*
X387350D01*
Y267817D01*
X387396D01*
Y267909D01*
X387442D01*
Y267955D01*
X387488D01*
Y268001D01*
X387534D01*
Y268046D01*
X387579D01*
Y268138D01*
X387625D01*
Y268184D01*
X387671D01*
Y268230D01*
X387717D01*
Y268322D01*
X387763D01*
Y268368D01*
X387809D01*
Y268414D01*
X387855D01*
Y268506D01*
X387901D01*
Y268552D01*
X387947D01*
Y268643D01*
X387993D01*
Y268689D01*
X388038D01*
Y268781D01*
X388084D01*
Y268827D01*
X388130D01*
Y268919D01*
X388176D01*
Y268965D01*
X388222D01*
Y269056D01*
X388268D01*
Y269102D01*
X388314D01*
Y269011D01*
D02*
G37*
G36*
X382025Y259233D02*
Y259187D01*
Y259141D01*
X381979D01*
Y259325D01*
X382025D01*
Y259233D01*
D02*
G37*
G36*
X381979Y259004D02*
Y258958D01*
X381933D01*
Y259049D01*
X381979D01*
Y259004D01*
D02*
G37*
G36*
X431188Y258820D02*
X431142D01*
Y258866D01*
X431188D01*
Y258820D01*
D02*
G37*
G36*
X431096Y258774D02*
X431050D01*
Y258820D01*
X431096D01*
Y258774D01*
D02*
G37*
G36*
X381933D02*
X381888D01*
Y258820D01*
X381933D01*
Y258774D01*
D02*
G37*
G36*
X430958Y258682D02*
X430913D01*
Y258728D01*
X430958D01*
Y258682D01*
D02*
G37*
G36*
X430867Y258636D02*
X430821D01*
Y258682D01*
X430867D01*
Y258636D01*
D02*
G37*
G36*
X430775Y258590D02*
X430729D01*
Y258636D01*
X430775D01*
Y258590D01*
D02*
G37*
G36*
X430683Y258545D02*
X430637D01*
Y258590D01*
X430683D01*
Y258545D01*
D02*
G37*
G36*
X430637Y258499D02*
X430545D01*
Y258545D01*
X430637D01*
Y258499D01*
D02*
G37*
G36*
X430545Y258453D02*
X430499D01*
Y258499D01*
X430545D01*
Y258453D01*
D02*
G37*
G36*
X430453Y258407D02*
X430408D01*
Y258453D01*
X430453D01*
Y258407D01*
D02*
G37*
G36*
X430362Y258361D02*
X430316D01*
Y258407D01*
X430362D01*
Y258361D01*
D02*
G37*
G36*
X430316Y258315D02*
X430224D01*
Y258361D01*
X430316D01*
Y258315D01*
D02*
G37*
G36*
X430224Y258269D02*
X430132D01*
Y258315D01*
X430224D01*
Y258269D01*
D02*
G37*
G36*
X430132Y258223D02*
X430040D01*
Y258269D01*
X430132D01*
Y258223D01*
D02*
G37*
G36*
X430040Y258177D02*
X429995D01*
Y258131D01*
X429903D01*
Y258085D01*
X429811D01*
Y258131D01*
X429857D01*
Y258177D01*
X429949D01*
Y258223D01*
X430040D01*
Y258177D01*
D02*
G37*
G36*
X429811Y258039D02*
X429719D01*
Y258085D01*
X429811D01*
Y258039D01*
D02*
G37*
G36*
X381933Y256479D02*
X381979D01*
Y256433D01*
X381933D01*
Y256479D01*
X381888D01*
Y256525D01*
X381933D01*
Y256479D01*
D02*
G37*
%LPC*%
G36*
X141147Y675519D02*
X137967D01*
Y675320D01*
X134589D01*
Y675122D01*
X132999D01*
Y674923D01*
X131409D01*
Y674724D01*
X130217D01*
Y674525D01*
X129025D01*
Y674326D01*
X128230D01*
Y674128D01*
X127435D01*
Y673929D01*
X126640D01*
Y673730D01*
X125845D01*
Y673532D01*
X125249D01*
Y673333D01*
X124454D01*
Y673134D01*
X123659D01*
Y672935D01*
X123063D01*
Y672737D01*
X122466D01*
Y672538D01*
X122069D01*
Y672339D01*
X121473D01*
Y672141D01*
X120877D01*
Y671942D01*
X120479D01*
Y671743D01*
X119883D01*
Y671544D01*
X119486D01*
Y671346D01*
X119088D01*
Y671147D01*
X118691D01*
Y670948D01*
X118095D01*
Y670749D01*
X117697D01*
Y670551D01*
X117300D01*
Y670352D01*
X116902D01*
Y670153D01*
X116505D01*
Y669955D01*
X116306D01*
Y669756D01*
X115710D01*
Y669557D01*
X115511D01*
Y669358D01*
X115114D01*
Y669160D01*
X114716D01*
Y668961D01*
X114319D01*
Y668762D01*
X114120D01*
Y668563D01*
X113722D01*
Y668365D01*
X113325D01*
Y668166D01*
X112928D01*
Y667967D01*
X112729D01*
Y667768D01*
X112331D01*
Y667570D01*
X112133D01*
Y667371D01*
X111735D01*
Y667172D01*
X111536D01*
Y666974D01*
X111139D01*
Y666775D01*
X110940D01*
Y666576D01*
X110543D01*
Y666377D01*
X110344D01*
Y666179D01*
X109947D01*
Y665980D01*
X109748D01*
Y665781D01*
X109549D01*
Y665583D01*
X109152D01*
Y665384D01*
X108953D01*
Y665185D01*
X108754D01*
Y664986D01*
X108555D01*
Y664788D01*
X108357D01*
Y664589D01*
X107959D01*
Y664390D01*
X107761D01*
Y664191D01*
X107562D01*
Y663993D01*
X107363D01*
Y663794D01*
X107164D01*
Y663595D01*
X106767D01*
Y663397D01*
X106568D01*
Y663198D01*
X106369D01*
Y662999D01*
X106171D01*
Y662800D01*
X105972D01*
Y662601D01*
X105773D01*
Y662403D01*
X105575D01*
Y662204D01*
X105376D01*
Y662005D01*
X105177D01*
Y661608D01*
X104978D01*
Y661409D01*
X104780D01*
Y661210D01*
X104581D01*
Y661012D01*
X104382D01*
Y660813D01*
X104184D01*
Y660614D01*
X103985D01*
Y660217D01*
X103786D01*
Y660018D01*
X103587D01*
Y659819D01*
X103389D01*
Y659621D01*
X103190D01*
Y659422D01*
X102991D01*
Y659223D01*
X102792D01*
Y659024D01*
X102594D01*
Y658627D01*
X102395D01*
Y658428D01*
X102196D01*
Y658230D01*
X101997D01*
Y658031D01*
X101799D01*
Y657832D01*
X101600D01*
Y657633D01*
X101401D01*
Y657236D01*
X101202D01*
Y657037D01*
X101004D01*
Y656838D01*
X100805D01*
Y656640D01*
X100606D01*
Y656242D01*
X100408D01*
Y656043D01*
X100209D01*
Y655646D01*
X100010D01*
Y655447D01*
X99811D01*
Y655249D01*
X99613D01*
Y654851D01*
X99414D01*
Y654454D01*
X99215D01*
Y654255D01*
X99017D01*
Y653857D01*
X98818D01*
Y653460D01*
X98619D01*
Y653261D01*
X98420D01*
Y652864D01*
X98222D01*
Y652466D01*
X98023D01*
Y652069D01*
X97824D01*
Y651870D01*
X97625D01*
Y651473D01*
X97427D01*
Y651075D01*
X97228D01*
Y650678D01*
X97029D01*
Y650280D01*
X96831D01*
Y649883D01*
X96632D01*
Y649485D01*
X96433D01*
Y649088D01*
X96234D01*
Y648492D01*
X96036D01*
Y648094D01*
X95837D01*
Y647697D01*
X95638D01*
Y647101D01*
X95439D01*
Y646703D01*
X95241D01*
Y646107D01*
X95042D01*
Y645511D01*
X94843D01*
Y645113D01*
X94644D01*
Y644318D01*
X94446D01*
Y643921D01*
X94247D01*
Y643126D01*
X94048D01*
Y642530D01*
X93850D01*
Y641735D01*
X93651D01*
Y640940D01*
X93452D01*
Y640145D01*
X93253D01*
Y639152D01*
X93055D01*
Y637761D01*
X92856D01*
Y635972D01*
X92657D01*
Y617490D01*
X113524D01*
Y617689D01*
X113722D01*
Y617888D01*
X113921D01*
Y618086D01*
X114120D01*
Y618285D01*
X114319D01*
Y618484D01*
X114517D01*
Y618683D01*
X114716D01*
Y618881D01*
X114915D01*
Y619080D01*
X115114D01*
Y619279D01*
X115312D01*
Y619477D01*
X115511D01*
Y619676D01*
X115710D01*
Y619875D01*
X115908D01*
Y620272D01*
X116107D01*
Y620471D01*
X116306D01*
Y620670D01*
X116505D01*
Y620868D01*
X116703D01*
Y621067D01*
X116902D01*
Y621465D01*
X117101D01*
Y621664D01*
X117300D01*
Y621862D01*
X117498D01*
Y622061D01*
X117697D01*
Y622260D01*
X117896D01*
Y622458D01*
X118095D01*
Y622657D01*
X118293D01*
Y622856D01*
X118492D01*
Y623253D01*
X118691D01*
Y623452D01*
X118889D01*
Y623651D01*
X119088D01*
Y623849D01*
X119287D01*
Y624048D01*
X119486D01*
Y624247D01*
X119684D01*
Y624644D01*
X119883D01*
Y624843D01*
X120082D01*
Y625042D01*
X120281D01*
Y625241D01*
X120479D01*
Y625439D01*
X120678D01*
Y625837D01*
X120877D01*
Y626035D01*
X121075D01*
Y626234D01*
X121274D01*
Y626433D01*
X121473D01*
Y626632D01*
X121672D01*
Y626830D01*
X121870D01*
Y627228D01*
X122069D01*
Y627427D01*
X122268D01*
Y627625D01*
X122466D01*
Y627824D01*
X122665D01*
Y628023D01*
X122864D01*
Y628420D01*
X123063D01*
Y628619D01*
X123261D01*
Y628818D01*
X123460D01*
Y629016D01*
X123659D01*
Y629215D01*
X123858D01*
Y629613D01*
X124056D01*
Y629811D01*
X124255D01*
Y630010D01*
X124454D01*
Y630209D01*
X124653D01*
Y630407D01*
X124851D01*
Y630606D01*
X125050D01*
Y631004D01*
X125249D01*
Y631202D01*
X125448D01*
Y631401D01*
X125646D01*
Y631600D01*
X125845D01*
Y631997D01*
X126044D01*
Y632196D01*
X126242D01*
Y632395D01*
X126441D01*
Y632593D01*
X126640D01*
Y632792D01*
X126839D01*
Y632991D01*
X127037D01*
Y633190D01*
X127236D01*
Y633587D01*
X127435D01*
Y633786D01*
X127633D01*
Y633985D01*
X127832D01*
Y634183D01*
X128031D01*
Y634382D01*
X128230D01*
Y634581D01*
X128428D01*
Y634780D01*
X128627D01*
Y634978D01*
X128826D01*
Y635177D01*
X129025D01*
Y635376D01*
X129223D01*
Y635773D01*
X129422D01*
Y635972D01*
X129621D01*
Y636171D01*
X129819D01*
Y636369D01*
X130018D01*
Y636568D01*
X130217D01*
Y636767D01*
X130416D01*
Y636966D01*
X130614D01*
Y637363D01*
X130813D01*
Y637562D01*
X131012D01*
Y637761D01*
X131211D01*
Y637959D01*
X131409D01*
Y638158D01*
X131608D01*
Y638357D01*
X131807D01*
Y638754D01*
X132006D01*
Y638953D01*
X132204D01*
Y639152D01*
X132403D01*
Y639350D01*
X132602D01*
Y639549D01*
X132800D01*
Y639748D01*
X132999D01*
Y639947D01*
X133198D01*
Y640344D01*
X133397D01*
Y640543D01*
X133595D01*
Y640741D01*
X133794D01*
Y640940D01*
X133993D01*
Y641139D01*
X134192D01*
Y641536D01*
X134390D01*
Y641735D01*
X134589D01*
Y641934D01*
X134788D01*
Y642132D01*
X134986D01*
Y642331D01*
X135185D01*
Y642530D01*
X135384D01*
Y642927D01*
X135583D01*
Y643126D01*
X135781D01*
Y643325D01*
X135980D01*
Y643524D01*
X136179D01*
Y643722D01*
X136377D01*
Y644120D01*
X136576D01*
Y644318D01*
X136775D01*
Y644517D01*
X136974D01*
Y644716D01*
X137172D01*
Y644915D01*
X137371D01*
Y645312D01*
X137570D01*
Y645511D01*
X137769D01*
Y645710D01*
X137967D01*
Y645908D01*
X138166D01*
Y646107D01*
X138365D01*
Y646306D01*
X138563D01*
Y646703D01*
X138762D01*
Y646902D01*
X138961D01*
Y647101D01*
X139160D01*
Y647299D01*
X139358D01*
Y647498D01*
X139557D01*
Y647697D01*
X139756D01*
Y647896D01*
X139955D01*
Y648293D01*
X140153D01*
Y648492D01*
X140352D01*
Y648690D01*
X140551D01*
Y648889D01*
X140750D01*
Y649088D01*
X140948D01*
Y649287D01*
X141147D01*
Y649485D01*
X141346D01*
Y649883D01*
X141545D01*
Y650082D01*
X141743D01*
Y650280D01*
X141942D01*
Y650479D01*
X142141D01*
Y650678D01*
X142339D01*
Y650876D01*
X142538D01*
Y651075D01*
X142737D01*
Y651274D01*
X142936D01*
Y651473D01*
X143134D01*
Y651870D01*
X143333D01*
Y652069D01*
X143532D01*
Y652268D01*
X143730D01*
Y652466D01*
X143929D01*
Y652665D01*
X144128D01*
Y652864D01*
X144327D01*
Y653063D01*
X144525D01*
Y653261D01*
X144724D01*
Y653460D01*
X144923D01*
Y653659D01*
X145122D01*
Y653857D01*
X145320D01*
Y654056D01*
X145519D01*
Y654255D01*
X145718D01*
Y654652D01*
X145917D01*
Y654851D01*
X146115D01*
Y655050D01*
X146314D01*
Y655249D01*
X146711D01*
Y655447D01*
X146910D01*
Y655646D01*
X147308D01*
Y655845D01*
X147506D01*
Y655646D01*
X147705D01*
Y654851D01*
X147506D01*
Y653857D01*
X147308D01*
Y652864D01*
X147109D01*
Y651672D01*
X146910D01*
Y650479D01*
X146711D01*
Y649485D01*
X146513D01*
Y648492D01*
X146314D01*
Y647498D01*
X146115D01*
Y646703D01*
X145917D01*
Y645710D01*
X145718D01*
Y644915D01*
X145519D01*
Y644120D01*
X145320D01*
Y643126D01*
X145122D01*
Y642132D01*
X144923D01*
Y641338D01*
X144724D01*
Y640145D01*
X144525D01*
Y639152D01*
X144327D01*
Y637959D01*
X144128D01*
Y636966D01*
X143929D01*
Y635773D01*
X143730D01*
Y634780D01*
X143532D01*
Y633985D01*
X143333D01*
Y633587D01*
X143134D01*
Y633190D01*
X142936D01*
Y632792D01*
X142737D01*
Y632593D01*
X142538D01*
Y632196D01*
X142339D01*
Y631997D01*
X142141D01*
Y631600D01*
X141942D01*
Y631401D01*
X141743D01*
Y631202D01*
X141545D01*
Y630805D01*
X141346D01*
Y630606D01*
X141147D01*
Y630209D01*
X140948D01*
Y630010D01*
X140750D01*
Y629613D01*
X140551D01*
Y629414D01*
X140352D01*
Y629016D01*
X140153D01*
Y628818D01*
X139955D01*
Y628420D01*
X139756D01*
Y628222D01*
X139557D01*
Y627824D01*
X139358D01*
Y627625D01*
X139160D01*
Y627228D01*
X138961D01*
Y627029D01*
X138762D01*
Y626632D01*
X138563D01*
Y626433D01*
X138365D01*
Y626035D01*
X138166D01*
Y625638D01*
X137967D01*
Y625439D01*
X137769D01*
Y625042D01*
X137570D01*
Y624843D01*
X137371D01*
Y624446D01*
X137172D01*
Y624247D01*
X136974D01*
Y623849D01*
X136775D01*
Y623452D01*
X136576D01*
Y623253D01*
X136377D01*
Y622856D01*
X136179D01*
Y622458D01*
X135980D01*
Y622260D01*
X135781D01*
Y621862D01*
X135583D01*
Y621465D01*
X135384D01*
Y621266D01*
X135185D01*
Y620868D01*
X134986D01*
Y620670D01*
X134788D01*
Y620272D01*
X134589D01*
Y620074D01*
X134390D01*
Y619676D01*
X134192D01*
Y619477D01*
X133993D01*
Y619080D01*
X133794D01*
Y618881D01*
X133595D01*
Y618484D01*
X133397D01*
Y618086D01*
X133198D01*
Y617888D01*
X132999D01*
Y617490D01*
X132800D01*
Y617291D01*
X132602D01*
Y616894D01*
X132403D01*
Y616695D01*
X132204D01*
Y616298D01*
X132006D01*
Y616099D01*
X131807D01*
Y615702D01*
X131608D01*
Y615304D01*
X131409D01*
Y615105D01*
X131211D01*
Y614708D01*
X131012D01*
Y614509D01*
X130813D01*
Y614112D01*
X130614D01*
Y613714D01*
X130416D01*
Y613516D01*
X130217D01*
Y613118D01*
X130018D01*
Y612919D01*
X129819D01*
Y612522D01*
X129621D01*
Y612124D01*
X129422D01*
Y611926D01*
X129223D01*
Y611528D01*
X129025D01*
Y611330D01*
X128826D01*
Y610932D01*
X128627D01*
Y610733D01*
X128428D01*
Y610336D01*
X128230D01*
Y609939D01*
X128031D01*
Y609740D01*
X127832D01*
Y609342D01*
X127633D01*
Y609144D01*
X127435D01*
Y608746D01*
X127236D01*
Y608349D01*
X127037D01*
Y608150D01*
X126839D01*
Y607752D01*
X126640D01*
Y607554D01*
X126441D01*
Y607156D01*
X126242D01*
Y606958D01*
X126044D01*
Y606560D01*
X125845D01*
Y606163D01*
X125646D01*
Y605964D01*
X125448D01*
Y605566D01*
X125249D01*
Y605169D01*
X125050D01*
Y604970D01*
X124851D01*
Y604573D01*
X124653D01*
Y604175D01*
X124454D01*
Y603977D01*
X124255D01*
Y603579D01*
X124056D01*
Y603380D01*
X123858D01*
Y602983D01*
X123659D01*
Y602585D01*
X123460D01*
Y602188D01*
X137371D01*
Y601194D01*
X137172D01*
Y600598D01*
X136974D01*
Y600201D01*
X136775D01*
Y599406D01*
X136576D01*
Y598810D01*
X136377D01*
Y598015D01*
X136179D01*
Y597419D01*
X135980D01*
Y596822D01*
X135781D01*
Y596226D01*
X135583D01*
Y595431D01*
X135384D01*
Y594835D01*
X135185D01*
Y594239D01*
X134986D01*
Y593643D01*
X134788D01*
Y593046D01*
X134589D01*
Y592450D01*
X134390D01*
Y591854D01*
X134192D01*
Y591258D01*
X133993D01*
Y590662D01*
X133794D01*
Y590066D01*
X133595D01*
Y589469D01*
X133397D01*
Y588675D01*
X133198D01*
Y588078D01*
X132999D01*
Y587681D01*
X132800D01*
Y587085D01*
X132602D01*
Y586488D01*
X132403D01*
Y585892D01*
X132204D01*
Y585296D01*
X132006D01*
Y584700D01*
X131807D01*
Y584104D01*
X131608D01*
Y583508D01*
X131409D01*
Y582911D01*
X131211D01*
Y582117D01*
X131012D01*
Y581520D01*
X130813D01*
Y580924D01*
X130614D01*
Y580527D01*
X130416D01*
Y579930D01*
X130217D01*
Y579334D01*
X130018D01*
Y578738D01*
X129819D01*
Y578142D01*
X129621D01*
Y577546D01*
X129422D01*
Y577148D01*
X129223D01*
Y576353D01*
X129025D01*
Y575757D01*
X128826D01*
Y575161D01*
X128627D01*
Y574763D01*
X128428D01*
Y574167D01*
X128230D01*
Y573770D01*
X128031D01*
Y573372D01*
X127832D01*
Y572776D01*
X127633D01*
Y572379D01*
X127435D01*
Y571783D01*
X127236D01*
Y571385D01*
X127037D01*
Y570789D01*
X127236D01*
Y570988D01*
X127435D01*
Y571385D01*
X127633D01*
Y571584D01*
X127832D01*
Y571783D01*
X128031D01*
Y571981D01*
X128230D01*
Y572180D01*
X128428D01*
Y572379D01*
X128627D01*
Y572776D01*
X128826D01*
Y572975D01*
X129025D01*
Y573174D01*
X129223D01*
Y573372D01*
X129422D01*
Y573770D01*
X129621D01*
Y573969D01*
X129819D01*
Y574167D01*
X130018D01*
Y574366D01*
X130217D01*
Y574763D01*
X130416D01*
Y574962D01*
X130614D01*
Y575161D01*
X130813D01*
Y575360D01*
X131012D01*
Y575558D01*
X131211D01*
Y575757D01*
X131409D01*
Y575956D01*
X131608D01*
Y576155D01*
X131807D01*
Y576552D01*
X132006D01*
Y576751D01*
X132204D01*
Y576950D01*
X132403D01*
Y577148D01*
X132602D01*
Y577347D01*
X132800D01*
Y577546D01*
X132999D01*
Y577744D01*
X133198D01*
Y577943D01*
X133397D01*
Y578341D01*
X133595D01*
Y578539D01*
X133794D01*
Y578738D01*
X133993D01*
Y578937D01*
X134192D01*
Y579334D01*
X134390D01*
Y579533D01*
X134589D01*
Y579732D01*
X134788D01*
Y579930D01*
X134986D01*
Y580328D01*
X135185D01*
Y580527D01*
X135384D01*
Y580725D01*
X135583D01*
Y580924D01*
X135781D01*
Y581123D01*
X135980D01*
Y581321D01*
X136179D01*
Y581719D01*
X136377D01*
Y581918D01*
X136576D01*
Y582117D01*
X136775D01*
Y582315D01*
X136974D01*
Y582514D01*
X137172D01*
Y582713D01*
X137371D01*
Y583110D01*
X137570D01*
Y583309D01*
X137769D01*
Y583508D01*
X137967D01*
Y583905D01*
X138166D01*
Y584104D01*
X138365D01*
Y584302D01*
X138563D01*
Y584501D01*
X138762D01*
Y584899D01*
X138961D01*
Y585097D01*
X139160D01*
Y585296D01*
X139358D01*
Y585495D01*
X139557D01*
Y585892D01*
X139756D01*
Y586091D01*
X139955D01*
Y586290D01*
X140153D01*
Y586488D01*
X140352D01*
Y586687D01*
X140551D01*
Y587085D01*
X140750D01*
Y587283D01*
X140948D01*
Y587482D01*
X141147D01*
Y587681D01*
X141346D01*
Y587880D01*
X141545D01*
Y588078D01*
X141743D01*
Y588476D01*
X141942D01*
Y588675D01*
X142141D01*
Y588873D01*
X142339D01*
Y589072D01*
X142538D01*
Y589271D01*
X142737D01*
Y589469D01*
X142936D01*
Y589867D01*
X143134D01*
Y590066D01*
X143333D01*
Y590264D01*
X143532D01*
Y590463D01*
X143730D01*
Y590662D01*
X143929D01*
Y591059D01*
X144128D01*
Y591258D01*
X144327D01*
Y591457D01*
X144525D01*
Y591655D01*
X144724D01*
Y591854D01*
X144923D01*
Y592053D01*
X145122D01*
Y592252D01*
X145320D01*
Y592649D01*
X145519D01*
Y592848D01*
X145718D01*
Y593046D01*
X145917D01*
Y593245D01*
X146115D01*
Y593444D01*
X146314D01*
Y593643D01*
X146513D01*
Y594040D01*
X146711D01*
Y594239D01*
X146910D01*
Y594438D01*
X147109D01*
Y594636D01*
X147308D01*
Y595034D01*
X147506D01*
Y595233D01*
X147705D01*
Y595431D01*
X147904D01*
Y595630D01*
X148103D01*
Y595829D01*
X148301D01*
Y596226D01*
X148500D01*
Y596425D01*
X148699D01*
Y596624D01*
X148897D01*
Y597021D01*
X149096D01*
Y597220D01*
X149295D01*
Y597419D01*
X149494D01*
Y597617D01*
X149692D01*
Y597816D01*
X149891D01*
Y598214D01*
X150090D01*
Y598412D01*
X150288D01*
Y598611D01*
X150487D01*
Y598810D01*
X150686D01*
Y599008D01*
X150885D01*
Y599207D01*
X151083D01*
Y599605D01*
X151282D01*
Y599803D01*
X151481D01*
Y600002D01*
X151680D01*
Y600201D01*
X151878D01*
Y600400D01*
X152077D01*
Y600598D01*
X152276D01*
Y600797D01*
X152474D01*
Y601194D01*
X152673D01*
Y601393D01*
X152872D01*
Y601592D01*
X153071D01*
Y601791D01*
X153269D01*
Y601989D01*
X153468D01*
Y602387D01*
X153667D01*
Y602585D01*
X153866D01*
Y602784D01*
X154064D01*
Y602983D01*
X154263D01*
Y603182D01*
X154462D01*
Y603380D01*
X154661D01*
Y603579D01*
X154859D01*
Y603977D01*
X155058D01*
Y604175D01*
X155257D01*
Y604374D01*
X155456D01*
Y604573D01*
X155654D01*
Y604771D01*
X155853D01*
Y604970D01*
X156052D01*
Y605169D01*
X156250D01*
Y605368D01*
X156449D01*
Y605765D01*
X156648D01*
Y605964D01*
X156847D01*
Y606163D01*
X157045D01*
Y606361D01*
X157244D01*
Y606560D01*
X157443D01*
Y606759D01*
X157641D01*
Y607156D01*
X157840D01*
Y607355D01*
X158039D01*
Y607554D01*
X158238D01*
Y607752D01*
X158436D01*
Y607951D01*
X158635D01*
Y608150D01*
X158834D01*
Y608547D01*
X159033D01*
Y608746D01*
X159231D01*
Y608945D01*
X159430D01*
Y609144D01*
X159629D01*
Y609541D01*
X159827D01*
Y609740D01*
X160026D01*
Y609939D01*
X160225D01*
Y610137D01*
X160424D01*
Y610336D01*
X160622D01*
Y610535D01*
X160821D01*
Y610733D01*
X161020D01*
Y610932D01*
X161219D01*
Y611131D01*
X161417D01*
Y611727D01*
X144327D01*
Y611926D01*
X144128D01*
Y612522D01*
X144327D01*
Y617490D01*
X147904D01*
Y617689D01*
X152673D01*
Y617490D01*
X185662D01*
Y634183D01*
X185464D01*
Y636966D01*
X185265D01*
Y638754D01*
X185066D01*
Y639947D01*
X184867D01*
Y640741D01*
X184669D01*
Y641536D01*
X184470D01*
Y642331D01*
X184271D01*
Y642927D01*
X184072D01*
Y643722D01*
X183874D01*
Y644120D01*
X183675D01*
Y644716D01*
X183476D01*
Y645312D01*
X183277D01*
Y646107D01*
X183079D01*
Y646505D01*
X182880D01*
Y647101D01*
X182681D01*
Y647697D01*
X182482D01*
Y648094D01*
X182284D01*
Y648492D01*
X182085D01*
Y649088D01*
X181886D01*
Y649485D01*
X181688D01*
Y649883D01*
X181489D01*
Y650280D01*
X181290D01*
Y650678D01*
X181091D01*
Y651075D01*
X180893D01*
Y651473D01*
X180694D01*
Y651870D01*
X180495D01*
Y652069D01*
X180296D01*
Y652466D01*
X180098D01*
Y652864D01*
X179899D01*
Y653063D01*
X179700D01*
Y653460D01*
X179502D01*
Y653857D01*
X179303D01*
Y654056D01*
X179104D01*
Y654454D01*
X178905D01*
Y654652D01*
X178707D01*
Y654851D01*
X178508D01*
Y655249D01*
X178309D01*
Y655646D01*
X178111D01*
Y655845D01*
X177912D01*
Y656242D01*
X177713D01*
Y656441D01*
X177514D01*
Y656640D01*
X177316D01*
Y656838D01*
X177117D01*
Y657236D01*
X176918D01*
Y657435D01*
X176719D01*
Y657633D01*
X176521D01*
Y658031D01*
X176322D01*
Y658230D01*
X176123D01*
Y658428D01*
X175924D01*
Y658627D01*
X175726D01*
Y659024D01*
X175328D01*
Y659422D01*
X175130D01*
Y659621D01*
X174931D01*
Y659819D01*
X174732D01*
Y660018D01*
X174533D01*
Y660217D01*
X174335D01*
Y660614D01*
X174136D01*
Y660813D01*
X173937D01*
Y661012D01*
X173738D01*
Y661210D01*
X173540D01*
Y661409D01*
X173341D01*
Y661608D01*
X173142D01*
Y661807D01*
X172944D01*
Y662005D01*
X172745D01*
Y662204D01*
X172546D01*
Y662403D01*
X172347D01*
Y662601D01*
X172149D01*
Y662800D01*
X171950D01*
Y662999D01*
X171751D01*
Y663198D01*
X171553D01*
Y663397D01*
X171155D01*
Y663595D01*
X170956D01*
Y663794D01*
X170758D01*
Y663993D01*
X170559D01*
Y664191D01*
X170360D01*
Y664390D01*
X169963D01*
Y664589D01*
X169764D01*
Y664788D01*
X169565D01*
Y664986D01*
X169366D01*
Y665185D01*
X169168D01*
Y665384D01*
X168770D01*
Y665583D01*
X168571D01*
Y665781D01*
X168373D01*
Y665980D01*
X167975D01*
Y666179D01*
X167777D01*
Y666377D01*
X167379D01*
Y666576D01*
X167180D01*
Y666775D01*
X166982D01*
Y666974D01*
X166584D01*
Y667172D01*
X166385D01*
Y667371D01*
X166187D01*
Y667570D01*
X165789D01*
Y667768D01*
X165591D01*
Y667967D01*
X165193D01*
Y668166D01*
X164796D01*
Y668365D01*
X164597D01*
Y668563D01*
X164200D01*
Y668762D01*
X164001D01*
Y668961D01*
X163603D01*
Y669160D01*
X163206D01*
Y669358D01*
X163007D01*
Y669557D01*
X162610D01*
Y669756D01*
X162212D01*
Y669955D01*
X161815D01*
Y670153D01*
X161417D01*
Y670352D01*
X161020D01*
Y670551D01*
X160622D01*
Y670749D01*
X160026D01*
Y670948D01*
X159629D01*
Y671147D01*
X159231D01*
Y671346D01*
X158834D01*
Y671544D01*
X158238D01*
Y671743D01*
X157840D01*
Y671942D01*
X157443D01*
Y672141D01*
X156847D01*
Y672339D01*
X156449D01*
Y672538D01*
X155853D01*
Y672737D01*
X155257D01*
Y672935D01*
X154859D01*
Y673134D01*
X154263D01*
Y673333D01*
X153667D01*
Y673532D01*
X152872D01*
Y673730D01*
X152077D01*
Y673929D01*
X151282D01*
Y674128D01*
X150686D01*
Y674326D01*
X149891D01*
Y674525D01*
X148897D01*
Y674724D01*
X147705D01*
Y674923D01*
X146115D01*
Y675122D01*
X144525D01*
Y675320D01*
X141147D01*
Y675519D01*
D02*
G37*
G36*
X185464Y605368D02*
X177316D01*
Y601791D01*
X177514D01*
Y598412D01*
X177316D01*
Y594636D01*
X177117D01*
Y593245D01*
X176918D01*
Y592252D01*
X176719D01*
Y591258D01*
X176521D01*
Y590463D01*
X176322D01*
Y589867D01*
X176123D01*
Y589072D01*
X175924D01*
Y588476D01*
X175726D01*
Y587880D01*
X175527D01*
Y587482D01*
X175328D01*
Y586886D01*
X175130D01*
Y586290D01*
X174931D01*
Y585892D01*
X174732D01*
Y585495D01*
X174533D01*
Y584899D01*
X174335D01*
Y584501D01*
X174136D01*
Y584104D01*
X173937D01*
Y583706D01*
X173738D01*
Y583309D01*
X173540D01*
Y582911D01*
X173341D01*
Y582514D01*
X173142D01*
Y582117D01*
X172944D01*
Y581918D01*
X172745D01*
Y581520D01*
X172546D01*
Y581321D01*
X172347D01*
Y580924D01*
X172149D01*
Y580527D01*
X171950D01*
Y580328D01*
X171751D01*
Y579930D01*
X171553D01*
Y579732D01*
X171354D01*
Y579334D01*
X171155D01*
Y579136D01*
X170956D01*
Y578937D01*
X170758D01*
Y578539D01*
X170559D01*
Y578341D01*
X170360D01*
Y578142D01*
X170161D01*
Y577744D01*
X169963D01*
Y577546D01*
X169764D01*
Y577347D01*
X169565D01*
Y577148D01*
X169366D01*
Y576751D01*
X169168D01*
Y576552D01*
X168969D01*
Y576353D01*
X168770D01*
Y576155D01*
X168571D01*
Y575757D01*
X168373D01*
Y575558D01*
X168174D01*
Y575360D01*
X167975D01*
Y575161D01*
X167777D01*
Y574962D01*
X167578D01*
Y574763D01*
X167379D01*
Y574565D01*
X167180D01*
Y574366D01*
X166982D01*
Y574167D01*
X166783D01*
Y573969D01*
X166584D01*
Y573770D01*
X166385D01*
Y573571D01*
X166187D01*
Y573372D01*
X165988D01*
Y573174D01*
X165789D01*
Y572975D01*
X165591D01*
Y572776D01*
X165392D01*
Y572578D01*
X165193D01*
Y572379D01*
X164994D01*
Y572180D01*
X164796D01*
Y571981D01*
X164597D01*
Y571783D01*
X164200D01*
Y571584D01*
X164001D01*
Y571385D01*
X163802D01*
Y571186D01*
X163405D01*
Y570988D01*
X163206D01*
Y570789D01*
X163007D01*
Y570590D01*
X162808D01*
Y570392D01*
X162411D01*
Y570193D01*
X162212D01*
Y569994D01*
X162013D01*
Y569795D01*
X161616D01*
Y569596D01*
X161417D01*
Y569398D01*
X161020D01*
Y569199D01*
X160821D01*
Y569000D01*
X160622D01*
Y568802D01*
X160225D01*
Y568603D01*
X160026D01*
Y568404D01*
X159629D01*
Y568205D01*
X159231D01*
Y568007D01*
X159033D01*
Y567808D01*
X158635D01*
Y567609D01*
X158238D01*
Y567411D01*
X157840D01*
Y567212D01*
X157641D01*
Y567013D01*
X157244D01*
Y566814D01*
X156847D01*
Y566616D01*
X156449D01*
Y566417D01*
X156052D01*
Y566218D01*
X155654D01*
Y566019D01*
X155257D01*
Y565821D01*
X154661D01*
Y565622D01*
X154263D01*
Y565423D01*
X153866D01*
Y565224D01*
X153468D01*
Y565026D01*
X152872D01*
Y564827D01*
X152276D01*
Y564628D01*
X151680D01*
Y564430D01*
X151282D01*
Y564231D01*
X150686D01*
Y564032D01*
X149891D01*
Y563833D01*
X149295D01*
Y563635D01*
X148500D01*
Y563436D01*
X147705D01*
Y563237D01*
X146711D01*
Y563038D01*
X145718D01*
Y562840D01*
X144724D01*
Y562641D01*
X143333D01*
Y562442D01*
X140750D01*
Y562244D01*
X136775D01*
Y562442D01*
X134788D01*
Y562641D01*
X133198D01*
Y562840D01*
X132006D01*
Y563038D01*
X131012D01*
Y563237D01*
X130018D01*
Y563436D01*
X129223D01*
Y563635D01*
X128627D01*
Y563833D01*
X128031D01*
Y564032D01*
X127435D01*
Y564231D01*
X126839D01*
Y564430D01*
X126242D01*
Y564628D01*
X125646D01*
Y564827D01*
X125050D01*
Y565026D01*
X124653D01*
Y565224D01*
X124056D01*
Y565423D01*
X123659D01*
Y565622D01*
X123261D01*
Y565821D01*
X122864D01*
Y566019D01*
X122268D01*
Y566218D01*
X121870D01*
Y566417D01*
X121672D01*
Y566616D01*
X121274D01*
Y566814D01*
X120877D01*
Y567013D01*
X120479D01*
Y567212D01*
X120082D01*
Y567411D01*
X119684D01*
Y567609D01*
X119287D01*
Y567808D01*
X119088D01*
Y568007D01*
X118691D01*
Y568205D01*
X118492D01*
Y568404D01*
X118095D01*
Y568603D01*
X117697D01*
Y568802D01*
X117498D01*
Y569000D01*
X117101D01*
Y569199D01*
X116902D01*
Y569398D01*
X116703D01*
Y569596D01*
X116306D01*
Y569795D01*
X115908D01*
Y569994D01*
X115710D01*
Y570193D01*
X115511D01*
Y570392D01*
X115312D01*
Y570590D01*
X114915D01*
Y570789D01*
X114716D01*
Y570988D01*
X114517D01*
Y571186D01*
X114319D01*
Y571385D01*
X114120D01*
Y571584D01*
X113722D01*
Y571783D01*
X113524D01*
Y571981D01*
X113325D01*
Y572180D01*
X113126D01*
Y572379D01*
X112928D01*
Y572578D01*
X112729D01*
Y572776D01*
X112530D01*
Y572975D01*
X112133D01*
Y573174D01*
X111934D01*
Y573372D01*
X111735D01*
Y573571D01*
X111536D01*
Y573770D01*
X111338D01*
Y574167D01*
X110940D01*
Y574565D01*
X110742D01*
Y574763D01*
X110543D01*
Y574962D01*
X110344D01*
Y575161D01*
X110145D01*
Y575360D01*
X109947D01*
Y575558D01*
X109748D01*
Y575757D01*
X109549D01*
Y575956D01*
X109350D01*
Y576155D01*
X109152D01*
Y576353D01*
X108953D01*
Y576751D01*
X108754D01*
Y576950D01*
X108555D01*
Y577148D01*
X108357D01*
Y577347D01*
X108158D01*
Y577744D01*
X107959D01*
Y577943D01*
X107761D01*
Y578142D01*
X107562D01*
Y578539D01*
X107363D01*
Y578738D01*
X107164D01*
Y579136D01*
X106966D01*
Y579334D01*
X106767D01*
Y579732D01*
X106568D01*
Y579930D01*
X106369D01*
Y580328D01*
X106171D01*
Y580725D01*
X105972D01*
Y580924D01*
X105773D01*
Y581321D01*
X105575D01*
Y581719D01*
X105376D01*
Y581918D01*
X105177D01*
Y582315D01*
X104978D01*
Y582713D01*
X104780D01*
Y583110D01*
X104581D01*
Y583508D01*
X104382D01*
Y583706D01*
X104184D01*
Y584302D01*
X103985D01*
Y584700D01*
X103786D01*
Y585097D01*
X103587D01*
Y585495D01*
X103389D01*
Y585892D01*
X103190D01*
Y586290D01*
X102991D01*
Y586886D01*
X102792D01*
Y587283D01*
X102594D01*
Y587880D01*
X102395D01*
Y588476D01*
X102196D01*
Y589072D01*
X101997D01*
Y589668D01*
X101799D01*
Y590264D01*
X101600D01*
Y591059D01*
X101401D01*
Y592053D01*
X101202D01*
Y592848D01*
X101004D01*
Y594040D01*
X100805D01*
Y595829D01*
X100606D01*
Y604771D01*
X100805D01*
Y604970D01*
X100606D01*
Y605169D01*
X94247D01*
Y605368D01*
X92856D01*
Y605169D01*
X92657D01*
Y602585D01*
X92458D01*
Y593842D01*
X92657D01*
Y592053D01*
X92856D01*
Y590860D01*
X93055D01*
Y589668D01*
X93253D01*
Y588675D01*
X93452D01*
Y587880D01*
X93651D01*
Y587085D01*
X93850D01*
Y586488D01*
X94048D01*
Y585694D01*
X94247D01*
Y585097D01*
X94446D01*
Y584501D01*
X94644D01*
Y583905D01*
X94843D01*
Y583508D01*
X95042D01*
Y582911D01*
X95241D01*
Y582315D01*
X95439D01*
Y581918D01*
X95638D01*
Y581321D01*
X95837D01*
Y580924D01*
X96036D01*
Y580527D01*
X96234D01*
Y580129D01*
X96433D01*
Y579732D01*
X96632D01*
Y579334D01*
X96831D01*
Y578937D01*
X97029D01*
Y578539D01*
X97228D01*
Y578142D01*
X97427D01*
Y577744D01*
X97625D01*
Y577347D01*
X97824D01*
Y576950D01*
X98023D01*
Y576751D01*
X98222D01*
Y576353D01*
X98420D01*
Y575956D01*
X98619D01*
Y575558D01*
X98818D01*
Y575360D01*
X99017D01*
Y574962D01*
X99215D01*
Y574763D01*
X99414D01*
Y574366D01*
X99613D01*
Y574167D01*
X99811D01*
Y573770D01*
X100010D01*
Y573571D01*
X100209D01*
Y573174D01*
X100408D01*
Y572975D01*
X100606D01*
Y572776D01*
X100805D01*
Y572379D01*
X101004D01*
Y572180D01*
X101202D01*
Y571981D01*
X101401D01*
Y571584D01*
X101600D01*
Y571385D01*
X101799D01*
Y571186D01*
X101997D01*
Y570988D01*
X102196D01*
Y570590D01*
X102395D01*
Y570392D01*
X102594D01*
Y570193D01*
X102792D01*
Y569994D01*
X102991D01*
Y569795D01*
X103190D01*
Y569596D01*
X103389D01*
Y569199D01*
X103786D01*
Y568802D01*
X103985D01*
Y568603D01*
X104184D01*
Y568404D01*
X104382D01*
Y568205D01*
X104581D01*
Y568007D01*
X104780D01*
Y567808D01*
X104978D01*
Y567609D01*
X105177D01*
Y567411D01*
X105376D01*
Y567212D01*
X105575D01*
Y567013D01*
X105773D01*
Y566814D01*
X105972D01*
Y566616D01*
X106171D01*
Y566417D01*
X106369D01*
Y566218D01*
X106568D01*
Y566019D01*
X106767D01*
Y565821D01*
X107164D01*
Y565622D01*
X107363D01*
Y565423D01*
X107562D01*
Y565224D01*
X107761D01*
Y565026D01*
X107959D01*
Y564827D01*
X108158D01*
Y564628D01*
X108357D01*
Y564430D01*
X108754D01*
Y564231D01*
X108953D01*
Y564032D01*
X109350D01*
Y563833D01*
X109549D01*
Y563635D01*
X109748D01*
Y563436D01*
X109947D01*
Y563237D01*
X110344D01*
Y563038D01*
X110543D01*
Y562840D01*
X110940D01*
Y562641D01*
X111139D01*
Y562442D01*
X111338D01*
Y562244D01*
X111536D01*
Y562045D01*
X111934D01*
Y561846D01*
X112133D01*
Y561647D01*
X112530D01*
Y561449D01*
X112729D01*
Y561250D01*
X113126D01*
Y561051D01*
X113325D01*
Y560853D01*
X113722D01*
Y560654D01*
X113921D01*
Y560455D01*
X114319D01*
Y560256D01*
X114716D01*
Y560058D01*
X114915D01*
Y559859D01*
X115312D01*
Y559660D01*
X115710D01*
Y559461D01*
X115908D01*
Y559263D01*
X116306D01*
Y559064D01*
X116703D01*
Y558865D01*
X117101D01*
Y558666D01*
X117498D01*
Y558468D01*
X117896D01*
Y558269D01*
X118293D01*
Y558070D01*
X118691D01*
Y557872D01*
X119088D01*
Y557673D01*
X119486D01*
Y557474D01*
X119883D01*
Y557275D01*
X120281D01*
Y557077D01*
X120877D01*
Y556878D01*
X121274D01*
Y556679D01*
X121870D01*
Y556480D01*
X122466D01*
Y556282D01*
X122864D01*
Y556083D01*
X123460D01*
Y555884D01*
X124056D01*
Y555686D01*
X124653D01*
Y555487D01*
X125249D01*
Y555288D01*
X126044D01*
Y555089D01*
X126640D01*
Y554891D01*
X127435D01*
Y554692D01*
X128230D01*
Y554493D01*
X129025D01*
Y554294D01*
X130018D01*
Y554096D01*
X131211D01*
Y553897D01*
X132403D01*
Y553698D01*
X134390D01*
Y553499D01*
X136974D01*
Y553301D01*
X141346D01*
Y553499D01*
X143929D01*
Y553698D01*
X145320D01*
Y553897D01*
X146711D01*
Y554096D01*
X147904D01*
Y554294D01*
X148897D01*
Y554493D01*
X149891D01*
Y554692D01*
X150686D01*
Y554891D01*
X151481D01*
Y555089D01*
X152077D01*
Y555288D01*
X152872D01*
Y555487D01*
X153468D01*
Y555686D01*
X154064D01*
Y555884D01*
X154859D01*
Y556083D01*
X155257D01*
Y556282D01*
X155853D01*
Y556480D01*
X156449D01*
Y556679D01*
X157045D01*
Y556878D01*
X157443D01*
Y557077D01*
X158039D01*
Y557275D01*
X158436D01*
Y557474D01*
X158834D01*
Y557673D01*
X159430D01*
Y557872D01*
X159827D01*
Y558070D01*
X160225D01*
Y558269D01*
X160622D01*
Y558468D01*
X161020D01*
Y558666D01*
X161417D01*
Y558865D01*
X161616D01*
Y559064D01*
X162013D01*
Y559263D01*
X162411D01*
Y559461D01*
X162808D01*
Y559660D01*
X163007D01*
Y559859D01*
X163405D01*
Y560058D01*
X163802D01*
Y560256D01*
X164001D01*
Y560455D01*
X164398D01*
Y560654D01*
X164796D01*
Y560853D01*
X164994D01*
Y561051D01*
X165392D01*
Y561250D01*
X165591D01*
Y561449D01*
X165988D01*
Y561647D01*
X166187D01*
Y561846D01*
X166385D01*
Y562045D01*
X166783D01*
Y562244D01*
X166982D01*
Y562442D01*
X167379D01*
Y562641D01*
X167578D01*
Y562840D01*
X167777D01*
Y563038D01*
X167975D01*
Y563237D01*
X168373D01*
Y563436D01*
X168571D01*
Y563635D01*
X168770D01*
Y563833D01*
X168969D01*
Y564032D01*
X169366D01*
Y564231D01*
X169565D01*
Y564430D01*
X169764D01*
Y564628D01*
X169963D01*
Y564827D01*
X170161D01*
Y565026D01*
X170360D01*
Y565224D01*
X170559D01*
Y565423D01*
X170956D01*
Y565622D01*
X171155D01*
Y565821D01*
X171354D01*
Y566019D01*
X171553D01*
Y566218D01*
X171751D01*
Y566417D01*
X171950D01*
Y566616D01*
X172149D01*
Y566814D01*
X172347D01*
Y567212D01*
X172745D01*
Y567411D01*
X172944D01*
Y567609D01*
X173142D01*
Y567808D01*
X173341D01*
Y568205D01*
X173540D01*
Y568404D01*
X173738D01*
Y568603D01*
X173937D01*
Y568802D01*
X174136D01*
Y569000D01*
X174335D01*
Y569199D01*
X174533D01*
Y569398D01*
X174732D01*
Y569596D01*
X174931D01*
Y569795D01*
X175130D01*
Y569994D01*
X175328D01*
Y570193D01*
X175527D01*
Y570590D01*
X175726D01*
Y570789D01*
X175924D01*
Y570988D01*
X176123D01*
Y571186D01*
X176322D01*
Y571584D01*
X176521D01*
Y571783D01*
X176719D01*
Y571981D01*
X176918D01*
Y572180D01*
X177117D01*
Y572578D01*
X177316D01*
Y572776D01*
X177514D01*
Y573174D01*
X177713D01*
Y573372D01*
X177912D01*
Y573571D01*
X178111D01*
Y573969D01*
X178309D01*
Y574167D01*
X178508D01*
Y574565D01*
X178707D01*
Y574962D01*
X178905D01*
Y575161D01*
X179104D01*
Y575558D01*
X179303D01*
Y575757D01*
X179502D01*
Y576155D01*
X179700D01*
Y576552D01*
X179899D01*
Y576751D01*
X180098D01*
Y577148D01*
X180296D01*
Y577546D01*
X180495D01*
Y577744D01*
X180694D01*
Y578142D01*
X180893D01*
Y578539D01*
X181091D01*
Y578937D01*
X181290D01*
Y579334D01*
X181489D01*
Y579732D01*
X181688D01*
Y580129D01*
X181886D01*
Y580527D01*
X182085D01*
Y581123D01*
X182284D01*
Y581520D01*
X182482D01*
Y581918D01*
X182681D01*
Y582514D01*
X182880D01*
Y582911D01*
X183079D01*
Y583508D01*
X183277D01*
Y583905D01*
X183476D01*
Y584501D01*
X183675D01*
Y585097D01*
X183874D01*
Y585694D01*
X184072D01*
Y586290D01*
X184271D01*
Y587085D01*
X184470D01*
Y587880D01*
X184669D01*
Y588873D01*
X184867D01*
Y589867D01*
X185066D01*
Y591059D01*
X185265D01*
Y592649D01*
X185464D01*
Y605368D01*
D02*
G37*
%LPD*%
G36*
X141942Y669160D02*
X143532D01*
Y668563D01*
X143333D01*
Y665185D01*
X143134D01*
Y664986D01*
Y664788D01*
Y662800D01*
X142936D01*
Y661210D01*
X142737D01*
Y660614D01*
X142538D01*
Y660217D01*
X140352D01*
Y661409D01*
X140153D01*
Y663794D01*
X140352D01*
Y669358D01*
X141942D01*
Y669160D01*
D02*
G37*
G36*
X136775Y668166D02*
X136974D01*
Y667570D01*
Y667371D01*
Y666377D01*
X137172D01*
Y662204D01*
X137371D01*
Y660614D01*
X137172D01*
Y660018D01*
X135185D01*
Y660415D01*
X134986D01*
Y661807D01*
X134788D01*
Y663198D01*
X134589D01*
Y664589D01*
X134390D01*
Y666179D01*
X134192D01*
Y667371D01*
X133993D01*
Y668961D01*
X133794D01*
Y669160D01*
X136775D01*
Y668166D01*
D02*
G37*
G36*
X148897Y668365D02*
X149692D01*
Y668166D01*
X149891D01*
Y666974D01*
X149692D01*
Y666179D01*
X149494D01*
Y665384D01*
X149295D01*
Y664589D01*
X149096D01*
Y663595D01*
X148897D01*
Y662800D01*
X148699D01*
Y661807D01*
X148500D01*
Y661012D01*
X148301D01*
Y660217D01*
X148103D01*
Y659819D01*
X147904D01*
Y659621D01*
X147705D01*
Y659422D01*
X145917D01*
Y660614D01*
X146115D01*
Y662800D01*
X146314D01*
Y664589D01*
X146513D01*
Y664788D01*
Y664986D01*
Y665781D01*
X146711D01*
Y667172D01*
X146910D01*
Y668365D01*
X147109D01*
Y668563D01*
X148897D01*
Y668365D01*
D02*
G37*
G36*
X130018Y667967D02*
X130217D01*
Y667570D01*
X130416D01*
Y666775D01*
X130614D01*
Y666179D01*
X130813D01*
Y665185D01*
X131012D01*
Y664589D01*
X131211D01*
Y663595D01*
X131409D01*
Y662601D01*
X131608D01*
Y661807D01*
X131807D01*
Y660813D01*
X132006D01*
Y659422D01*
X131807D01*
Y659223D01*
X130813D01*
Y659024D01*
X130018D01*
Y659223D01*
X129819D01*
Y659621D01*
X129621D01*
Y660217D01*
X129422D01*
Y661012D01*
X129223D01*
Y661608D01*
X129025D01*
Y662403D01*
X128826D01*
Y662999D01*
X128627D01*
Y663595D01*
X128428D01*
Y664191D01*
X128230D01*
Y664589D01*
X128031D01*
Y665185D01*
X127832D01*
Y665384D01*
Y665583D01*
Y665781D01*
X127633D01*
Y666576D01*
X127435D01*
Y667371D01*
X127633D01*
Y667570D01*
X127832D01*
Y667768D01*
X128031D01*
Y667967D01*
X128826D01*
Y668166D01*
X130018D01*
Y667967D01*
D02*
G37*
G36*
X154661Y666576D02*
X155058D01*
Y666377D01*
X155456D01*
Y666179D01*
X155853D01*
Y665980D01*
X156250D01*
Y665781D01*
X156449D01*
Y664986D01*
X156250D01*
Y664589D01*
X156052D01*
Y664191D01*
X155853D01*
Y663794D01*
X155654D01*
Y663198D01*
X155456D01*
Y662800D01*
X155257D01*
Y662204D01*
X155058D01*
Y661807D01*
X154859D01*
Y661409D01*
X154661D01*
Y660813D01*
X154462D01*
Y660415D01*
X154263D01*
Y660018D01*
X154064D01*
Y659621D01*
X153866D01*
Y659024D01*
X153667D01*
Y658627D01*
X153468D01*
Y658230D01*
X153269D01*
Y657832D01*
X153071D01*
Y657435D01*
X151680D01*
Y657633D01*
X151282D01*
Y657832D01*
X151083D01*
Y658627D01*
X151282D01*
Y659819D01*
X151481D01*
Y660614D01*
X151680D01*
Y661409D01*
X151878D01*
Y662005D01*
X152077D01*
Y662403D01*
X152276D01*
Y663198D01*
X152474D01*
Y663595D01*
X152673D01*
Y664390D01*
X152872D01*
Y664986D01*
X153071D01*
Y665583D01*
X153269D01*
Y665980D01*
X153468D01*
Y666576D01*
X153667D01*
Y666775D01*
X154661D01*
Y666576D01*
D02*
G37*
G36*
X123659Y665980D02*
X123858D01*
Y665781D01*
X124056D01*
Y665384D01*
X124255D01*
Y664788D01*
X124454D01*
Y664390D01*
X124653D01*
Y663993D01*
X124851D01*
Y663397D01*
X125050D01*
Y662999D01*
X125249D01*
Y662601D01*
X125448D01*
Y662204D01*
X125646D01*
Y661608D01*
X125845D01*
Y661210D01*
X126044D01*
Y660614D01*
X126242D01*
Y660018D01*
X126441D01*
Y659422D01*
X126640D01*
Y658627D01*
X126839D01*
Y658031D01*
X126640D01*
Y657832D01*
X126441D01*
Y657633D01*
X126044D01*
Y657435D01*
X125646D01*
Y657236D01*
X125249D01*
Y657037D01*
X124653D01*
Y657236D01*
X124454D01*
Y657633D01*
X124255D01*
Y658031D01*
X124056D01*
Y658428D01*
X123858D01*
Y659024D01*
X123659D01*
Y659422D01*
X123460D01*
Y659819D01*
X123261D01*
Y660217D01*
X123063D01*
Y660614D01*
X122864D01*
Y661012D01*
X122665D01*
Y661409D01*
X122466D01*
Y662005D01*
X122268D01*
Y662403D01*
X122069D01*
Y662800D01*
X121870D01*
Y663198D01*
X121672D01*
Y663595D01*
X121473D01*
Y663993D01*
X121274D01*
Y664986D01*
X121473D01*
Y665384D01*
X121672D01*
Y665781D01*
X122069D01*
Y665980D01*
X122268D01*
Y666179D01*
X123659D01*
Y665980D01*
D02*
G37*
G36*
X160424Y663397D02*
X160821D01*
Y663198D01*
X161219D01*
Y662999D01*
X161417D01*
Y662800D01*
X161815D01*
Y662601D01*
X162212D01*
Y662403D01*
X162411D01*
Y662204D01*
X162610D01*
Y661409D01*
X162411D01*
Y661012D01*
X162212D01*
Y660813D01*
X162013D01*
Y660614D01*
X161815D01*
Y660217D01*
X161616D01*
Y660018D01*
X161417D01*
Y659819D01*
X161219D01*
Y659422D01*
X161020D01*
Y659223D01*
X160821D01*
Y658826D01*
X160622D01*
Y658627D01*
X160424D01*
Y658230D01*
X160225D01*
Y658031D01*
X160026D01*
Y657633D01*
X159827D01*
Y657435D01*
X159629D01*
Y657037D01*
X159430D01*
Y656838D01*
X159231D01*
Y656441D01*
X159033D01*
Y656242D01*
X158834D01*
Y656043D01*
X158635D01*
Y655845D01*
Y655646D01*
X158436D01*
Y655249D01*
X158238D01*
Y655050D01*
X158039D01*
Y654652D01*
X157045D01*
Y654851D01*
X156648D01*
Y655050D01*
X156250D01*
Y655249D01*
X156052D01*
Y656043D01*
X156250D01*
Y656640D01*
X156449D01*
Y657037D01*
X156648D01*
Y657435D01*
X156847D01*
Y657832D01*
X157045D01*
Y658428D01*
X157244D01*
Y658826D01*
X157443D01*
Y659223D01*
X157641D01*
Y659819D01*
X157840D01*
Y660018D01*
X158039D01*
Y660415D01*
X158238D01*
Y660813D01*
X158436D01*
Y661210D01*
X158635D01*
Y661608D01*
X158834D01*
Y662005D01*
X159033D01*
Y662403D01*
X159231D01*
Y662601D01*
X159430D01*
Y662999D01*
X159629D01*
Y663397D01*
X159827D01*
Y663595D01*
X160424D01*
Y663397D01*
D02*
G37*
G36*
X117498Y662999D02*
X117697D01*
Y662601D01*
X117896D01*
Y662403D01*
X118095D01*
Y662005D01*
X118293D01*
Y661807D01*
X118492D01*
Y661409D01*
X118691D01*
Y661210D01*
X118889D01*
Y660813D01*
X119088D01*
Y660415D01*
X119287D01*
Y660217D01*
X119486D01*
Y659819D01*
X119684D01*
Y659422D01*
X119883D01*
Y659223D01*
X120082D01*
Y658826D01*
X120281D01*
Y658428D01*
X120479D01*
Y658031D01*
X120678D01*
Y657832D01*
X120877D01*
Y657435D01*
X121075D01*
Y657037D01*
X121274D01*
Y656640D01*
X121473D01*
Y656441D01*
X121672D01*
Y656043D01*
X121870D01*
Y655646D01*
X122069D01*
Y655249D01*
X121672D01*
Y655050D01*
X121473D01*
Y654851D01*
X121274D01*
Y654652D01*
X120877D01*
Y654454D01*
X120678D01*
Y654255D01*
X120479D01*
Y654056D01*
X120082D01*
Y654255D01*
X119883D01*
Y654454D01*
X119684D01*
Y654652D01*
X119486D01*
Y654851D01*
X119287D01*
Y655249D01*
X119088D01*
Y655447D01*
X118889D01*
Y655845D01*
X118691D01*
Y656043D01*
X118492D01*
Y656242D01*
X118293D01*
Y656441D01*
X118095D01*
Y656838D01*
X117896D01*
Y657037D01*
X117697D01*
Y657236D01*
X117498D01*
Y657633D01*
X117300D01*
Y657832D01*
X117101D01*
Y658230D01*
X116902D01*
Y658428D01*
X116703D01*
Y658627D01*
X116505D01*
Y659024D01*
X116306D01*
Y659223D01*
X116107D01*
Y659621D01*
X115908D01*
Y659819D01*
X115710D01*
Y660018D01*
X115511D01*
Y660217D01*
X115312D01*
Y660614D01*
X115114D01*
Y661012D01*
X114915D01*
Y661409D01*
X115114D01*
Y661807D01*
X115312D01*
Y662005D01*
X115511D01*
Y662204D01*
X115710D01*
Y662403D01*
X115908D01*
Y662601D01*
X116306D01*
Y662800D01*
X116505D01*
Y662999D01*
X116902D01*
Y663198D01*
X117498D01*
Y662999D01*
D02*
G37*
G36*
X166385Y658826D02*
X166783D01*
Y658627D01*
X166982D01*
Y658428D01*
X167180D01*
Y658230D01*
X167379D01*
Y658031D01*
X167578D01*
Y657832D01*
X167777D01*
Y657633D01*
X167975D01*
Y657236D01*
X168174D01*
Y657037D01*
X168373D01*
Y656640D01*
X167975D01*
Y656441D01*
X167777D01*
Y656242D01*
X167578D01*
Y656043D01*
X167379D01*
Y655845D01*
X167180D01*
Y655646D01*
X166982D01*
Y655447D01*
X166783D01*
Y655249D01*
X166584D01*
Y655050D01*
X166385D01*
Y654851D01*
X166187D01*
Y654652D01*
X165988D01*
Y654454D01*
X165789D01*
Y654255D01*
X165591D01*
Y654056D01*
X165392D01*
Y653857D01*
X165193D01*
Y653659D01*
X164994D01*
Y653460D01*
X164796D01*
Y653063D01*
X164597D01*
Y652864D01*
X164398D01*
Y652665D01*
X164200D01*
Y652466D01*
X164001D01*
Y652268D01*
X163802D01*
Y652069D01*
X163603D01*
Y651870D01*
X163206D01*
Y651672D01*
X163007D01*
Y651473D01*
X162808D01*
Y651274D01*
X162610D01*
Y651075D01*
X162411D01*
Y650876D01*
X162013D01*
Y650678D01*
X161815D01*
Y650876D01*
X161219D01*
Y651075D01*
X161020D01*
Y651473D01*
X160821D01*
Y651672D01*
X160622D01*
Y652466D01*
X160821D01*
Y652864D01*
X161020D01*
Y653261D01*
X161219D01*
Y653460D01*
X161417D01*
Y653857D01*
X161616D01*
Y654056D01*
X161815D01*
Y654454D01*
X162013D01*
Y654652D01*
X162212D01*
Y655050D01*
X162411D01*
Y655249D01*
X162610D01*
Y655646D01*
X162808D01*
Y655845D01*
X163007D01*
Y656043D01*
X163206D01*
Y656441D01*
X163405D01*
Y656640D01*
X163603D01*
Y656838D01*
X163802D01*
Y657037D01*
X164001D01*
Y657435D01*
X164200D01*
Y657633D01*
X164398D01*
Y657832D01*
X164597D01*
Y658031D01*
X164796D01*
Y658230D01*
X164994D01*
Y658428D01*
X165193D01*
Y658627D01*
X165392D01*
Y658826D01*
X165789D01*
Y659024D01*
X166385D01*
Y658826D01*
D02*
G37*
G36*
X111934D02*
X112133D01*
Y658627D01*
X112331D01*
Y658428D01*
X112530D01*
Y658230D01*
X112729D01*
Y658031D01*
X112928D01*
Y657633D01*
X113126D01*
Y657435D01*
X113325D01*
Y657236D01*
X113524D01*
Y657037D01*
X113722D01*
Y656640D01*
X113921D01*
Y656441D01*
X114120D01*
Y656242D01*
X114319D01*
Y656043D01*
X114517D01*
Y655845D01*
X114716D01*
Y655646D01*
X114915D01*
Y655447D01*
X115114D01*
Y655050D01*
X115312D01*
Y654851D01*
X115511D01*
Y654652D01*
X115710D01*
Y654255D01*
X115908D01*
Y654056D01*
X116107D01*
Y653857D01*
X116306D01*
Y653460D01*
X116505D01*
Y653261D01*
X116703D01*
Y653063D01*
X116902D01*
Y652665D01*
X117101D01*
Y652466D01*
X117300D01*
Y652069D01*
X117498D01*
Y651870D01*
X117300D01*
Y651672D01*
X117101D01*
Y651473D01*
X116902D01*
Y651274D01*
X116703D01*
Y651075D01*
X116505D01*
Y650876D01*
X116306D01*
Y650678D01*
X116107D01*
Y650479D01*
X115511D01*
Y650678D01*
X115312D01*
Y650876D01*
X115114D01*
Y651075D01*
X114915D01*
Y651274D01*
X114716D01*
Y651473D01*
X114517D01*
Y651672D01*
X114120D01*
Y652069D01*
X113722D01*
Y652466D01*
X113325D01*
Y652665D01*
X113126D01*
Y652864D01*
X112928D01*
Y653063D01*
X112729D01*
Y653261D01*
X112530D01*
Y653460D01*
X112331D01*
Y653659D01*
X112133D01*
Y653857D01*
X111934D01*
Y654056D01*
X111735D01*
Y654255D01*
X111536D01*
Y654454D01*
X111338D01*
Y654652D01*
X111139D01*
Y654851D01*
X110940D01*
Y655050D01*
X110742D01*
Y655249D01*
X110543D01*
Y655447D01*
X110344D01*
Y655845D01*
X110145D01*
Y656043D01*
X109947D01*
Y656242D01*
X109748D01*
Y657037D01*
X109947D01*
Y657236D01*
X110145D01*
Y657633D01*
X110344D01*
Y657832D01*
X110543D01*
Y658031D01*
X110742D01*
Y658230D01*
X110940D01*
Y658428D01*
X111139D01*
Y658627D01*
X111338D01*
Y658826D01*
X111536D01*
Y659024D01*
X111934D01*
Y658826D01*
D02*
G37*
G36*
X171354Y653261D02*
X171553D01*
Y652864D01*
X171751D01*
Y652665D01*
X171950D01*
Y652466D01*
X172149D01*
Y652268D01*
X172347D01*
Y651870D01*
X172546D01*
Y650678D01*
X172347D01*
Y650479D01*
X172149D01*
Y650280D01*
X171751D01*
Y650082D01*
X171553D01*
Y649883D01*
X171354D01*
Y649684D01*
X171155D01*
Y649485D01*
X170758D01*
Y649287D01*
X170559D01*
Y649088D01*
X170360D01*
Y648889D01*
X170161D01*
Y648690D01*
X169764D01*
Y648492D01*
X169565D01*
Y648293D01*
X169366D01*
Y648094D01*
X169168D01*
Y647896D01*
X168770D01*
Y647697D01*
X168571D01*
Y647498D01*
X168373D01*
Y647299D01*
X167975D01*
Y647101D01*
X167777D01*
Y646902D01*
X167578D01*
Y646703D01*
X167180D01*
Y646505D01*
X166982D01*
Y646306D01*
X166783D01*
Y646107D01*
X166584D01*
Y645908D01*
X166187D01*
Y645710D01*
X165392D01*
Y645908D01*
X164994D01*
Y646107D01*
X164796D01*
Y646505D01*
X164597D01*
Y646902D01*
X164398D01*
Y647498D01*
X164597D01*
Y647896D01*
X164796D01*
Y648094D01*
X164994D01*
Y648293D01*
X165193D01*
Y648492D01*
X165392D01*
Y648889D01*
X165591D01*
Y649088D01*
X165789D01*
Y649287D01*
X165988D01*
Y649485D01*
X166187D01*
Y649684D01*
X166385D01*
Y649883D01*
X166584D01*
Y650082D01*
X166783D01*
Y650280D01*
X166982D01*
Y650479D01*
X167180D01*
Y650678D01*
X167379D01*
Y650876D01*
X167578D01*
Y651075D01*
X167777D01*
Y651274D01*
X167975D01*
Y651473D01*
X168174D01*
Y651672D01*
X168373D01*
Y651870D01*
X168571D01*
Y652069D01*
X168770D01*
Y652268D01*
X168969D01*
Y652466D01*
X169168D01*
Y652665D01*
X169565D01*
Y652864D01*
X169764D01*
Y653063D01*
X169963D01*
Y653261D01*
X170360D01*
Y653460D01*
X171354D01*
Y653261D01*
D02*
G37*
G36*
X107562D02*
X107761D01*
Y653063D01*
X107959D01*
Y652864D01*
X108158D01*
Y652665D01*
X108357D01*
Y652466D01*
X108555D01*
Y652268D01*
X108754D01*
Y652069D01*
X108953D01*
Y651870D01*
X109152D01*
Y651672D01*
X109549D01*
Y651473D01*
X109748D01*
Y651274D01*
X109947D01*
Y651075D01*
X110145D01*
Y650876D01*
X110344D01*
Y650678D01*
X110543D01*
Y650479D01*
X110940D01*
Y650280D01*
X111139D01*
Y650082D01*
X111338D01*
Y649883D01*
X111536D01*
Y649684D01*
X111735D01*
Y649485D01*
X111934D01*
Y649287D01*
X112133D01*
Y649088D01*
X112331D01*
Y648889D01*
X112530D01*
Y648492D01*
X112729D01*
Y648293D01*
X112928D01*
Y648094D01*
X113126D01*
Y647896D01*
X113325D01*
Y646902D01*
X113126D01*
Y646505D01*
X112928D01*
Y646306D01*
X112729D01*
Y646107D01*
X112530D01*
Y645908D01*
X112133D01*
Y645710D01*
X111536D01*
Y645908D01*
X111139D01*
Y646107D01*
X110940D01*
Y646306D01*
X110742D01*
Y646505D01*
X110543D01*
Y646703D01*
X110145D01*
Y646902D01*
X109947D01*
Y647101D01*
X109549D01*
Y647299D01*
X109350D01*
Y647498D01*
X109152D01*
Y647697D01*
X108754D01*
Y647896D01*
X108555D01*
Y648094D01*
X108357D01*
Y648293D01*
X108158D01*
Y648492D01*
X107959D01*
Y648690D01*
X107562D01*
Y648889D01*
X107363D01*
Y649088D01*
X106966D01*
Y649287D01*
X106767D01*
Y649485D01*
X106568D01*
Y649684D01*
X106369D01*
Y649883D01*
X105972D01*
Y650082D01*
X105773D01*
Y650280D01*
X105575D01*
Y650479D01*
X105177D01*
Y651870D01*
X105376D01*
Y652069D01*
X105575D01*
Y652268D01*
X105773D01*
Y652466D01*
X105972D01*
Y652665D01*
X106171D01*
Y652864D01*
X106369D01*
Y653261D01*
X106568D01*
Y653460D01*
X107562D01*
Y653261D01*
D02*
G37*
G36*
X103389Y646703D02*
X103786D01*
Y646505D01*
X104184D01*
Y646306D01*
X104382D01*
Y646107D01*
X104780D01*
Y645908D01*
X105177D01*
Y645710D01*
X105575D01*
Y645511D01*
X105972D01*
Y645312D01*
X106171D01*
Y645113D01*
X106568D01*
Y644915D01*
X106966D01*
Y644716D01*
X107164D01*
Y644517D01*
X107562D01*
Y644318D01*
X107761D01*
Y644120D01*
X108158D01*
Y643921D01*
X108357D01*
Y643722D01*
X108754D01*
Y643524D01*
X109152D01*
Y643325D01*
X109549D01*
Y643126D01*
X109947D01*
Y642927D01*
X110145D01*
Y642729D01*
X110344D01*
Y641536D01*
X110145D01*
Y640940D01*
X109947D01*
Y640543D01*
X109748D01*
Y640344D01*
X109350D01*
Y640145D01*
X108953D01*
Y640344D01*
X108158D01*
Y640543D01*
X107562D01*
Y640741D01*
X106966D01*
Y640940D01*
X106767D01*
Y641139D01*
X106171D01*
Y641338D01*
X105773D01*
Y641536D01*
X105376D01*
Y641735D01*
X104978D01*
Y641934D01*
X104581D01*
Y642132D01*
X104184D01*
Y642331D01*
X103786D01*
Y642530D01*
X103190D01*
Y642729D01*
X102792D01*
Y642927D01*
X102196D01*
Y643126D01*
X101799D01*
Y643325D01*
X101401D01*
Y643524D01*
X101004D01*
Y644120D01*
X101202D01*
Y644517D01*
X101401D01*
Y644915D01*
X101600D01*
Y645113D01*
X101799D01*
Y645312D01*
X101997D01*
Y645710D01*
X102196D01*
Y645908D01*
X102395D01*
Y646107D01*
X102594D01*
Y646306D01*
X102792D01*
Y646703D01*
X102991D01*
Y646902D01*
X103389D01*
Y646703D01*
D02*
G37*
G36*
X174931D02*
X175130D01*
Y646505D01*
X175328D01*
Y646306D01*
X175527D01*
Y646107D01*
X175726D01*
Y645710D01*
X175924D01*
Y645511D01*
X176123D01*
Y645312D01*
X176322D01*
Y644915D01*
X176521D01*
Y643921D01*
X176719D01*
Y643524D01*
X176322D01*
Y643325D01*
X176123D01*
Y643126D01*
X175726D01*
Y642927D01*
X175130D01*
Y642729D01*
X174533D01*
Y642530D01*
X174136D01*
Y642331D01*
X173738D01*
Y642132D01*
X173341D01*
Y641934D01*
X172944D01*
Y641735D01*
X172546D01*
Y641536D01*
X172149D01*
Y641338D01*
X171751D01*
Y641139D01*
X171354D01*
Y640940D01*
X170956D01*
Y640741D01*
X170559D01*
Y640543D01*
X170161D01*
Y640344D01*
X169764D01*
Y640145D01*
X169366D01*
Y639947D01*
X168373D01*
Y640145D01*
X168174D01*
Y640344D01*
X167975D01*
Y640741D01*
X167777D01*
Y641139D01*
X167578D01*
Y641536D01*
X167379D01*
Y642331D01*
X167578D01*
Y642530D01*
X167777D01*
Y642729D01*
X167975D01*
Y642927D01*
X168174D01*
Y643126D01*
X168571D01*
Y643325D01*
X168969D01*
Y643524D01*
X169366D01*
Y643722D01*
X169565D01*
Y643921D01*
X169963D01*
Y644120D01*
X170161D01*
Y644318D01*
X170559D01*
Y644517D01*
X170758D01*
Y644716D01*
X171155D01*
Y644915D01*
X171354D01*
Y645113D01*
X171751D01*
Y645312D01*
X172149D01*
Y645511D01*
X172347D01*
Y645710D01*
X172745D01*
Y645908D01*
X173142D01*
Y646107D01*
X173540D01*
Y646306D01*
X173937D01*
Y646505D01*
X174335D01*
Y646703D01*
X174732D01*
Y646902D01*
X174931D01*
Y646703D01*
D02*
G37*
G36*
X178111Y638555D02*
X178309D01*
Y638158D01*
X178508D01*
Y637761D01*
X178707D01*
Y637363D01*
X178905D01*
Y636369D01*
X178707D01*
Y635972D01*
X178508D01*
Y635773D01*
X178309D01*
Y635574D01*
X177912D01*
Y635376D01*
X177316D01*
Y635177D01*
X176719D01*
Y634978D01*
X175924D01*
Y634780D01*
X174136D01*
Y634581D01*
X172546D01*
Y634382D01*
X169963D01*
Y634581D01*
X169764D01*
Y634780D01*
X169565D01*
Y635177D01*
X169366D01*
Y636171D01*
X169565D01*
Y636568D01*
X169764D01*
Y636767D01*
X170161D01*
Y636966D01*
X170559D01*
Y637164D01*
X171155D01*
Y637363D01*
X171751D01*
Y637562D01*
X172347D01*
Y637761D01*
X172944D01*
Y637959D01*
X173738D01*
Y638158D01*
X174533D01*
Y638357D01*
X175130D01*
Y638555D01*
X176123D01*
Y638754D01*
X178111D01*
Y638555D01*
D02*
G37*
G36*
X101202Y639152D02*
X101600D01*
Y638953D01*
X102196D01*
Y638754D01*
X102991D01*
Y638555D01*
X103587D01*
Y638357D01*
X103985D01*
Y638158D01*
X104581D01*
Y637959D01*
X105177D01*
Y637761D01*
X105773D01*
Y637562D01*
X106369D01*
Y637363D01*
X106966D01*
Y637164D01*
X107363D01*
Y636966D01*
X107761D01*
Y636767D01*
X108158D01*
Y636568D01*
X108357D01*
Y636369D01*
X108555D01*
Y635376D01*
X108357D01*
Y634978D01*
X108158D01*
Y634780D01*
X107959D01*
Y634581D01*
X107761D01*
Y634382D01*
X105177D01*
Y634581D01*
X103786D01*
Y634780D01*
X102594D01*
Y634978D01*
X101600D01*
Y635177D01*
X100805D01*
Y635376D01*
X99811D01*
Y635574D01*
X99414D01*
Y635773D01*
X99017D01*
Y636966D01*
X99215D01*
Y637363D01*
X99414D01*
Y637959D01*
X99613D01*
Y638158D01*
X99811D01*
Y638555D01*
X100010D01*
Y638754D01*
X100209D01*
Y638953D01*
X100408D01*
Y639350D01*
X101202D01*
Y639152D01*
D02*
G37*
G36*
X177912Y630606D02*
X178905D01*
Y630407D01*
X179303D01*
Y630209D01*
X179502D01*
Y629811D01*
X179700D01*
Y628818D01*
Y628619D01*
X179502D01*
Y628023D01*
X179303D01*
Y627824D01*
X179104D01*
Y627625D01*
X178309D01*
Y627427D01*
X172347D01*
Y627625D01*
X170758D01*
Y627824D01*
X170161D01*
Y628023D01*
X169963D01*
Y628619D01*
X169764D01*
Y629215D01*
X169963D01*
Y629811D01*
X170161D01*
Y630407D01*
X170956D01*
Y630606D01*
X173142D01*
Y630805D01*
X177912D01*
Y630606D01*
D02*
G37*
G36*
X103985D02*
X106171D01*
Y630407D01*
X107761D01*
Y630010D01*
X107959D01*
Y629215D01*
X108158D01*
Y628420D01*
X107959D01*
Y628023D01*
X107562D01*
Y627824D01*
X107164D01*
Y627625D01*
X105575D01*
Y627427D01*
X100606D01*
Y627625D01*
X99017D01*
Y627824D01*
X98818D01*
Y628023D01*
X98619D01*
Y628420D01*
X98420D01*
Y629016D01*
X98222D01*
Y629414D01*
X98420D01*
Y630010D01*
X98619D01*
Y630407D01*
X99017D01*
Y630606D01*
X100408D01*
Y630805D01*
X103985D01*
Y630606D01*
D02*
G37*
%LPC*%
G36*
X409981Y300959D02*
X409705D01*
Y300914D01*
X409659D01*
Y300868D01*
Y300822D01*
X409613D01*
Y300730D01*
X409659D01*
Y300638D01*
X409705D01*
Y300592D01*
X409751D01*
Y300546D01*
X409797D01*
Y300500D01*
X409843D01*
Y300455D01*
X409889D01*
Y300409D01*
X409935D01*
Y300363D01*
X409981D01*
Y300271D01*
X410026D01*
Y300179D01*
X410072D01*
Y300087D01*
X410118D01*
Y300041D01*
X410164D01*
Y299995D01*
X410348D01*
Y300041D01*
X410394D01*
Y300087D01*
X410439D01*
Y300179D01*
X410485D01*
Y300409D01*
X410439D01*
Y300500D01*
X410394D01*
Y300546D01*
X410348D01*
Y300638D01*
X410302D01*
Y300684D01*
X410256D01*
Y300730D01*
X410210D01*
Y300776D01*
X410164D01*
Y300822D01*
X410118D01*
Y300868D01*
X410072D01*
Y300914D01*
X409981D01*
Y300959D01*
D02*
G37*
G36*
X402039Y300730D02*
X401856D01*
Y300684D01*
X401764D01*
Y300638D01*
X401718D01*
Y300363D01*
X401764D01*
Y300317D01*
Y300271D01*
X401810D01*
Y300225D01*
X401856D01*
Y300133D01*
X401901D01*
Y300087D01*
X401947D01*
Y299995D01*
X401993D01*
Y299949D01*
X402039D01*
Y299858D01*
X402085D01*
Y299766D01*
X402131D01*
Y299628D01*
X402177D01*
Y299491D01*
X402223D01*
Y299353D01*
X402269D01*
Y299261D01*
X402360D01*
Y299215D01*
X402452D01*
Y299261D01*
X402498D01*
Y299307D01*
X402544D01*
Y300179D01*
X402498D01*
Y300317D01*
X402452D01*
Y300409D01*
X402406D01*
Y300500D01*
X402360D01*
Y300546D01*
X402315D01*
Y300592D01*
X402269D01*
Y300638D01*
X402177D01*
Y300684D01*
X402039D01*
Y300730D01*
D02*
G37*
G36*
X402223Y303117D02*
X401442D01*
Y303071D01*
X401213D01*
Y303025D01*
X401121D01*
Y302979D01*
X401029D01*
Y302933D01*
X400983D01*
Y302887D01*
X400938D01*
Y302841D01*
X400846D01*
Y302796D01*
X400800D01*
Y302750D01*
X400754D01*
Y302704D01*
X400708D01*
Y302658D01*
X400662D01*
Y302612D01*
X400616D01*
Y302566D01*
X400570D01*
Y302474D01*
X400524D01*
Y302428D01*
X400478D01*
Y302382D01*
X400433D01*
Y302291D01*
X400387D01*
Y302199D01*
X400341D01*
Y302153D01*
X400295D01*
Y302061D01*
X400249D01*
Y301969D01*
X400203D01*
Y301877D01*
X400157D01*
Y301740D01*
X400111D01*
Y301602D01*
X400065D01*
Y301418D01*
X400019D01*
Y301097D01*
X399973D01*
Y299812D01*
X400019D01*
Y299353D01*
X400065D01*
Y299077D01*
X400111D01*
Y298894D01*
X400157D01*
Y298710D01*
X400203D01*
Y298526D01*
X400249D01*
Y298389D01*
X400295D01*
Y298205D01*
X400341D01*
Y298067D01*
X400387D01*
Y297930D01*
X400433D01*
Y297792D01*
X400478D01*
Y297700D01*
X400524D01*
Y297608D01*
X400570D01*
Y297517D01*
X400616D01*
Y297471D01*
X400662D01*
Y297379D01*
X400708D01*
Y297287D01*
X400754D01*
Y297241D01*
X400800D01*
Y297195D01*
X400846D01*
Y297149D01*
X400892D01*
Y297104D01*
X400938D01*
Y297058D01*
X400983D01*
Y297012D01*
X401029D01*
Y296966D01*
X401075D01*
Y297012D01*
X401167D01*
Y297058D01*
X401213D01*
Y297104D01*
X401259D01*
Y297149D01*
X401305D01*
Y297195D01*
X401351D01*
Y297241D01*
X401396D01*
Y297287D01*
X401488D01*
Y297333D01*
X401534D01*
Y297379D01*
X401580D01*
Y297425D01*
X401626D01*
Y297471D01*
X401672D01*
Y297517D01*
X401764D01*
Y297608D01*
X401672D01*
Y297654D01*
X401626D01*
Y297700D01*
X401534D01*
Y297746D01*
X401488D01*
Y297838D01*
X401442D01*
Y297884D01*
X401396D01*
Y297930D01*
X401351D01*
Y297976D01*
X401305D01*
Y298067D01*
X401259D01*
Y298113D01*
X401213D01*
Y298159D01*
X401167D01*
Y298205D01*
X401121D01*
Y298251D01*
X401075D01*
Y298343D01*
X401029D01*
Y298389D01*
X400983D01*
Y298481D01*
X400938D01*
Y298572D01*
X400892D01*
Y298664D01*
X400846D01*
Y298756D01*
X400800D01*
Y298848D01*
X400754D01*
Y298986D01*
X400708D01*
Y299123D01*
X400662D01*
Y299307D01*
X400616D01*
Y299904D01*
X400570D01*
Y300133D01*
X400616D01*
Y300500D01*
X400662D01*
Y300684D01*
X400708D01*
Y300776D01*
X400754D01*
Y300868D01*
X400800D01*
Y300914D01*
X400846D01*
Y301005D01*
X400892D01*
Y301051D01*
X400938D01*
Y301097D01*
X400983D01*
Y301143D01*
X401029D01*
Y301189D01*
X401075D01*
Y301235D01*
X401121D01*
Y301281D01*
X401213D01*
Y301327D01*
X401305D01*
Y301373D01*
X401442D01*
Y301418D01*
X401901D01*
Y301373D01*
X402085D01*
Y301327D01*
X402177D01*
Y301281D01*
X402269D01*
Y301235D01*
X402360D01*
Y301189D01*
X402406D01*
Y301143D01*
X402452D01*
Y301097D01*
X402544D01*
Y301051D01*
X402590D01*
Y301005D01*
X402636D01*
Y300914D01*
X402682D01*
Y300868D01*
X402728D01*
Y300822D01*
X402774D01*
Y300730D01*
X402820D01*
Y300638D01*
X402865D01*
Y300546D01*
X402911D01*
Y300455D01*
X402957D01*
Y300317D01*
X403003D01*
Y300179D01*
X403049D01*
Y299949D01*
X403095D01*
Y298940D01*
X403049D01*
Y298618D01*
X403003D01*
Y298526D01*
X403095D01*
Y298572D01*
X403141D01*
Y298618D01*
X403233D01*
Y298664D01*
X403325D01*
Y298710D01*
X403370D01*
Y298756D01*
X403462D01*
Y298802D01*
X403554D01*
Y298848D01*
X403646D01*
Y298894D01*
X403783D01*
Y298940D01*
X403875D01*
Y298986D01*
X403921D01*
Y299123D01*
X403967D01*
Y299261D01*
X404013D01*
Y299445D01*
X404059D01*
Y299812D01*
X404105D01*
Y300776D01*
X404059D01*
Y301097D01*
X404013D01*
Y301281D01*
X403967D01*
Y301418D01*
X403921D01*
Y301556D01*
X403875D01*
Y301648D01*
X403829D01*
Y301740D01*
X403783D01*
Y301832D01*
X403738D01*
Y301877D01*
X403692D01*
Y301969D01*
X403646D01*
Y302015D01*
X403600D01*
Y302107D01*
X403554D01*
Y302153D01*
X403508D01*
Y302245D01*
X403462D01*
Y302291D01*
X403416D01*
Y302337D01*
X403370D01*
Y302382D01*
X403325D01*
Y302474D01*
X403279D01*
Y302520D01*
X403233D01*
Y302566D01*
X403187D01*
Y302612D01*
X403141D01*
Y302658D01*
X403095D01*
Y302704D01*
X403049D01*
Y302750D01*
X402957D01*
Y302796D01*
X402911D01*
Y302841D01*
X402820D01*
Y302887D01*
X402774D01*
Y302933D01*
X402682D01*
Y302979D01*
X402544D01*
Y303025D01*
X402406D01*
Y303071D01*
X402223D01*
Y303117D01*
D02*
G37*
G36*
X409935Y303484D02*
X409016D01*
Y303438D01*
X408741D01*
Y303392D01*
X408603D01*
Y303346D01*
X408420D01*
Y303300D01*
X408328D01*
Y303255D01*
X408236D01*
Y303209D01*
X408144D01*
Y303163D01*
X408052D01*
Y303117D01*
X407961D01*
Y303071D01*
X407869D01*
Y303025D01*
X407823D01*
Y302979D01*
X407777D01*
Y302933D01*
X407685D01*
Y302887D01*
X407639D01*
Y302841D01*
X407593D01*
Y302796D01*
X407548D01*
Y302750D01*
X407502D01*
Y302704D01*
X407456D01*
Y302658D01*
X407410D01*
Y302612D01*
X407364D01*
Y302566D01*
X407318D01*
Y302520D01*
X407272D01*
Y302474D01*
X407226D01*
Y302382D01*
X407180D01*
Y302337D01*
X407135D01*
Y302291D01*
X407089D01*
Y302199D01*
X407043D01*
Y302107D01*
X406997D01*
Y302061D01*
X406951D01*
Y301969D01*
X406905D01*
Y301877D01*
X406859D01*
Y301786D01*
X406813D01*
Y301648D01*
X406767D01*
Y301556D01*
X406721D01*
Y301418D01*
X406675D01*
Y301281D01*
X406629D01*
Y301097D01*
X406584D01*
Y299812D01*
X406629D01*
Y299491D01*
X406675D01*
Y299353D01*
X406721D01*
Y299215D01*
X406767D01*
Y299077D01*
X406813D01*
Y298986D01*
X406859D01*
Y298940D01*
X406951D01*
Y298894D01*
X407089D01*
Y298848D01*
X407226D01*
Y298802D01*
X407318D01*
Y298756D01*
X407410D01*
Y298710D01*
X407502D01*
Y298664D01*
X407364D01*
Y298710D01*
X407272D01*
Y298756D01*
X407180D01*
Y298802D01*
X407043D01*
Y298848D01*
X406859D01*
Y298894D01*
X406675D01*
Y298940D01*
X406446D01*
Y298986D01*
X406079D01*
Y299032D01*
X405206D01*
Y298986D01*
X404334D01*
Y298940D01*
X404013D01*
Y298894D01*
X403829D01*
Y298848D01*
X403738D01*
Y298802D01*
X403646D01*
Y298756D01*
X403554D01*
Y298710D01*
X403462D01*
Y298664D01*
X403416D01*
Y298618D01*
X403325D01*
Y298572D01*
X403279D01*
Y298526D01*
X403187D01*
Y298481D01*
X403141D01*
Y298435D01*
X403095D01*
Y298389D01*
X403003D01*
Y298343D01*
X402957D01*
Y298297D01*
X402911D01*
Y298251D01*
X402865D01*
Y298205D01*
X402820D01*
Y298159D01*
X402728D01*
Y298113D01*
X402682D01*
Y298067D01*
X402636D01*
Y298022D01*
X402590D01*
Y297976D01*
X402544D01*
Y297930D01*
X402498D01*
Y297884D01*
X402452D01*
Y297838D01*
X402360D01*
Y297792D01*
X402315D01*
Y297746D01*
X402269D01*
Y297700D01*
X402223D01*
Y297654D01*
X402177D01*
Y297608D01*
X402131D01*
Y297563D01*
X402085D01*
Y297517D01*
X402039D01*
Y297471D01*
X401947D01*
Y297425D01*
X401901D01*
Y297379D01*
X401856D01*
Y297333D01*
X401810D01*
Y297287D01*
X401764D01*
Y297241D01*
X401718D01*
Y297195D01*
X401672D01*
Y297149D01*
X401580D01*
Y297104D01*
X401534D01*
Y297058D01*
X401488D01*
Y297012D01*
X401442D01*
Y296966D01*
X401396D01*
Y296920D01*
X401351D01*
Y296874D01*
X401305D01*
Y296828D01*
X401259D01*
Y296782D01*
X401167D01*
Y296736D01*
X401121D01*
Y296690D01*
X401075D01*
Y296644D01*
X401029D01*
Y296599D01*
X400983D01*
Y296553D01*
X400938D01*
Y296507D01*
X400892D01*
Y296461D01*
X400846D01*
Y296415D01*
X400800D01*
Y296369D01*
X400754D01*
Y296323D01*
X400708D01*
Y296277D01*
X400662D01*
Y296231D01*
X400616D01*
Y296185D01*
X400570D01*
Y296140D01*
X400524D01*
Y296094D01*
X400478D01*
Y296002D01*
X400433D01*
Y295910D01*
X400387D01*
Y295864D01*
X400341D01*
Y295818D01*
X400295D01*
Y295681D01*
X400249D01*
Y295543D01*
X400203D01*
Y295359D01*
X400157D01*
Y294625D01*
X400203D01*
Y294441D01*
X400249D01*
Y294349D01*
X400295D01*
Y294258D01*
X400341D01*
Y294166D01*
X400387D01*
Y294120D01*
X400433D01*
Y294166D01*
X400616D01*
Y294120D01*
X400708D01*
Y294074D01*
X400800D01*
Y294028D01*
X400892D01*
Y293982D01*
X400938D01*
Y293936D01*
X401029D01*
Y293890D01*
X401075D01*
Y293844D01*
X401167D01*
Y293798D01*
X401213D01*
Y293752D01*
X401305D01*
Y293707D01*
X401351D01*
Y293661D01*
X401442D01*
Y293615D01*
X401488D01*
Y293569D01*
X401580D01*
Y293523D01*
X401626D01*
Y293477D01*
X401718D01*
Y293431D01*
X401764D01*
Y293385D01*
X401856D01*
Y293339D01*
X401901D01*
Y293293D01*
X401993D01*
Y293248D01*
X402085D01*
Y293202D01*
X402131D01*
Y293156D01*
X402223D01*
Y293110D01*
X402360D01*
Y293064D01*
X402452D01*
Y293018D01*
X402544D01*
Y292972D01*
X402682D01*
Y292926D01*
X402820D01*
Y292880D01*
X403003D01*
Y292834D01*
X403187D01*
Y292789D01*
X403416D01*
Y292743D01*
X403783D01*
Y292697D01*
X404288D01*
Y292651D01*
X404518D01*
Y292697D01*
X405023D01*
Y292743D01*
X405298D01*
Y292789D01*
X405528D01*
Y292834D01*
X405711D01*
Y292880D01*
X405895D01*
Y292926D01*
X406033D01*
Y292972D01*
X406171D01*
Y293018D01*
X406354D01*
Y293064D01*
X406492D01*
Y293110D01*
X406584D01*
Y293156D01*
X406721D01*
Y293202D01*
X406859D01*
Y293248D01*
X406997D01*
Y293293D01*
X407089D01*
Y293339D01*
X407226D01*
Y293385D01*
X407318D01*
Y293431D01*
X407410D01*
Y293477D01*
X407548D01*
Y293523D01*
X407639D01*
Y293569D01*
X407731D01*
Y293615D01*
X407823D01*
Y293661D01*
X407915D01*
Y293707D01*
X408007D01*
Y293752D01*
X408144D01*
Y293798D01*
X408236D01*
Y293844D01*
X408328D01*
Y293890D01*
X408420D01*
Y293936D01*
X408466D01*
Y293982D01*
X408558D01*
Y294028D01*
X408649D01*
Y294074D01*
X408741D01*
Y294120D01*
X408833D01*
Y294166D01*
X408925D01*
Y294212D01*
X408971D01*
Y294258D01*
X409062D01*
Y294303D01*
X409154D01*
Y294349D01*
X409200D01*
Y294395D01*
X409292D01*
Y294441D01*
X409384D01*
Y294487D01*
X409430D01*
Y294533D01*
X409521D01*
Y294579D01*
X409567D01*
Y294625D01*
X409613D01*
Y294671D01*
X409705D01*
Y294716D01*
X409751D01*
Y294762D01*
X409797D01*
Y294808D01*
X409889D01*
Y294854D01*
X409935D01*
Y294900D01*
X409981D01*
Y294946D01*
X410072D01*
Y294992D01*
X410118D01*
Y295038D01*
X410164D01*
Y295084D01*
X410256D01*
Y295130D01*
X410302D01*
Y295176D01*
X410394D01*
Y295222D01*
X410439D01*
Y295267D01*
X410485D01*
Y295313D01*
X410577D01*
Y295359D01*
X410623D01*
Y295405D01*
X410669D01*
Y295451D01*
X410761D01*
Y295497D01*
X410807D01*
Y295543D01*
X410899D01*
Y295589D01*
X410945D01*
Y295635D01*
X411036D01*
Y295681D01*
X411128D01*
Y295726D01*
X411220D01*
Y295772D01*
X411404D01*
Y295635D01*
X411358D01*
Y295589D01*
X411312D01*
Y295543D01*
X411266D01*
Y295497D01*
X411174D01*
Y295451D01*
X411128D01*
Y295405D01*
X411036D01*
Y295359D01*
X410945D01*
Y295313D01*
X410899D01*
Y295267D01*
X410807D01*
Y295222D01*
X410761D01*
Y295176D01*
X410669D01*
Y295130D01*
X410623D01*
Y295084D01*
X410577D01*
Y295038D01*
X410485D01*
Y294992D01*
X410439D01*
Y294946D01*
X410348D01*
Y294900D01*
X410302D01*
Y294854D01*
X410210D01*
Y294808D01*
X410164D01*
Y294762D01*
X410118D01*
Y294716D01*
X410026D01*
Y294671D01*
X409981D01*
Y294625D01*
X409889D01*
Y294579D01*
X409843D01*
Y294533D01*
X409751D01*
Y294487D01*
X409705D01*
Y294441D01*
X409613D01*
Y294395D01*
X409521D01*
Y294349D01*
X409476D01*
Y294303D01*
X409384D01*
Y294258D01*
X409338D01*
Y294212D01*
X409246D01*
Y294166D01*
X409154D01*
Y294120D01*
X409108D01*
Y294074D01*
X409016D01*
Y294028D01*
X408925D01*
Y293982D01*
X408879D01*
Y293936D01*
X408787D01*
Y293890D01*
X408695D01*
Y293844D01*
X408603D01*
Y293798D01*
X408512D01*
Y293752D01*
X408420D01*
Y293707D01*
X408328D01*
Y293661D01*
X408236D01*
Y293615D01*
X408144D01*
Y293569D01*
X408052D01*
Y293523D01*
X407961D01*
Y293477D01*
X407869D01*
Y293431D01*
X407777D01*
Y293385D01*
X407685D01*
Y293339D01*
X407593D01*
Y293293D01*
X407456D01*
Y293248D01*
X407364D01*
Y293202D01*
X407272D01*
Y293156D01*
X407135D01*
Y293110D01*
X407043D01*
Y293064D01*
X406905D01*
Y293018D01*
X406813D01*
Y292972D01*
X406675D01*
Y292926D01*
X406538D01*
Y292880D01*
X406400D01*
Y292834D01*
X406216D01*
Y292789D01*
X406079D01*
Y292743D01*
X405895D01*
Y292697D01*
X405666D01*
Y292651D01*
X405436D01*
Y292605D01*
X405161D01*
Y292559D01*
X404702D01*
Y292513D01*
X404013D01*
Y292559D01*
X403646D01*
Y292605D01*
X403370D01*
Y292651D01*
X403141D01*
Y292697D01*
X402911D01*
Y292743D01*
X402728D01*
Y292789D01*
X402544D01*
Y292834D01*
X402406D01*
Y292880D01*
X402315D01*
Y292926D01*
X402177D01*
Y292972D01*
X402085D01*
Y293018D01*
X401993D01*
Y293064D01*
X401947D01*
Y293110D01*
X401856D01*
Y293156D01*
X401764D01*
Y293202D01*
X401718D01*
Y293248D01*
X401626D01*
Y293293D01*
X401534D01*
Y293339D01*
X401442D01*
Y293385D01*
X401396D01*
Y293431D01*
X401305D01*
Y293477D01*
X401259D01*
Y293523D01*
X401167D01*
Y293569D01*
X401121D01*
Y293615D01*
X401029D01*
Y293661D01*
X400983D01*
Y293707D01*
X400892D01*
Y293752D01*
X400846D01*
Y293798D01*
X400800D01*
Y293844D01*
X400708D01*
Y293890D01*
X400662D01*
Y293936D01*
X400616D01*
Y293982D01*
X400570D01*
Y294028D01*
X400524D01*
Y294074D01*
X400478D01*
Y294120D01*
X400433D01*
Y294028D01*
X400478D01*
Y293982D01*
X400524D01*
Y293936D01*
X400570D01*
Y293844D01*
X400616D01*
Y293798D01*
X400662D01*
Y293752D01*
X400708D01*
Y293707D01*
X400754D01*
Y293661D01*
X400800D01*
Y293615D01*
X400846D01*
Y293569D01*
X400892D01*
Y293523D01*
X400938D01*
Y293477D01*
X400983D01*
Y293431D01*
X401029D01*
Y293385D01*
X401075D01*
Y293339D01*
X401167D01*
Y293293D01*
X401213D01*
Y293248D01*
X401259D01*
Y293202D01*
X401305D01*
Y293156D01*
X401351D01*
Y293110D01*
X401442D01*
Y293064D01*
X401488D01*
Y293018D01*
X401534D01*
Y292972D01*
X401580D01*
Y292926D01*
X401626D01*
Y292880D01*
X401672D01*
Y292834D01*
X401718D01*
Y292789D01*
X401810D01*
Y292743D01*
X401856D01*
Y292697D01*
X401901D01*
Y292651D01*
X401947D01*
Y292605D01*
X401993D01*
Y292559D01*
X402085D01*
Y292467D01*
X402177D01*
Y292421D01*
X402223D01*
Y292375D01*
X402269D01*
Y292330D01*
X402315D01*
Y292284D01*
X402360D01*
Y292238D01*
X402406D01*
Y292192D01*
X402452D01*
Y292146D01*
X402498D01*
Y292100D01*
X402544D01*
Y292054D01*
X402590D01*
Y292008D01*
X402682D01*
Y291962D01*
X402728D01*
Y291916D01*
X402774D01*
Y291870D01*
X402820D01*
Y291779D01*
X402865D01*
Y291733D01*
X402911D01*
Y291687D01*
X403003D01*
Y291641D01*
X403049D01*
Y291595D01*
X403095D01*
Y291549D01*
X403141D01*
Y291503D01*
X403187D01*
Y291457D01*
X403233D01*
Y291411D01*
X403325D01*
Y291366D01*
X403370D01*
Y291320D01*
X403416D01*
Y291274D01*
X403462D01*
Y291228D01*
X403554D01*
Y291182D01*
X403646D01*
Y291136D01*
X403692D01*
Y291090D01*
X403829D01*
Y291044D01*
X403967D01*
Y290998D01*
X404243D01*
Y290952D01*
X404748D01*
Y290907D01*
X405482D01*
Y290952D01*
X406171D01*
Y290998D01*
X406400D01*
Y291044D01*
X406538D01*
Y291090D01*
X406675D01*
Y291136D01*
X406859D01*
Y291182D01*
X406951D01*
Y291228D01*
X407043D01*
Y291274D01*
X407180D01*
Y291320D01*
X407272D01*
Y291366D01*
X407364D01*
Y291411D01*
X407456D01*
Y291457D01*
X407548D01*
Y291503D01*
X407685D01*
Y291549D01*
X407731D01*
Y291595D01*
X407823D01*
Y291641D01*
X407915D01*
Y291687D01*
X408007D01*
Y291733D01*
X408052D01*
Y291779D01*
X408144D01*
Y291825D01*
X408236D01*
Y291870D01*
X408328D01*
Y291916D01*
X408374D01*
Y291962D01*
X408466D01*
Y292008D01*
X408558D01*
Y292054D01*
X408603D01*
Y292100D01*
X408695D01*
Y292146D01*
X408787D01*
Y292192D01*
X408833D01*
Y292238D01*
X408925D01*
Y292284D01*
X409016D01*
Y292330D01*
X409062D01*
Y292375D01*
X409154D01*
Y292421D01*
X409200D01*
Y292467D01*
X409292D01*
Y292513D01*
X409384D01*
Y292559D01*
X409476D01*
Y292605D01*
X409521D01*
Y292651D01*
X409613D01*
Y292697D01*
X409705D01*
Y292743D01*
X409797D01*
Y292789D01*
X409889D01*
Y292834D01*
X409981D01*
Y292880D01*
X410072D01*
Y292926D01*
X410164D01*
Y292972D01*
X410302D01*
Y293018D01*
X410439D01*
Y293064D01*
X410577D01*
Y293110D01*
X410669D01*
Y293156D01*
X410807D01*
Y293202D01*
X410899D01*
Y293248D01*
X410990D01*
Y293293D01*
X411082D01*
Y293339D01*
X411174D01*
Y293385D01*
X411220D01*
Y293431D01*
X411312D01*
Y293477D01*
X411404D01*
Y293523D01*
X411449D01*
Y293569D01*
X411495D01*
Y293615D01*
X411541D01*
Y293661D01*
X411587D01*
Y293707D01*
X411633D01*
Y293752D01*
X411679D01*
Y293798D01*
X411725D01*
Y293844D01*
X411771D01*
Y293890D01*
X411817D01*
Y293936D01*
X411862D01*
Y294028D01*
X411908D01*
Y294074D01*
X411954D01*
Y294166D01*
X412000D01*
Y294258D01*
X412046D01*
Y294349D01*
X412092D01*
Y294487D01*
X412138D01*
Y294579D01*
X412184D01*
Y294716D01*
X412230D01*
Y294854D01*
Y294900D01*
Y294946D01*
X412276D01*
Y295176D01*
X412322D01*
Y295543D01*
X412368D01*
Y296002D01*
X412322D01*
Y296185D01*
X412276D01*
Y296277D01*
X412230D01*
Y296369D01*
X412184D01*
Y296461D01*
X412138D01*
Y296507D01*
X412092D01*
Y296553D01*
X412046D01*
Y296599D01*
X412000D01*
Y296644D01*
X411954D01*
Y296690D01*
X411908D01*
Y296736D01*
X411862D01*
Y296782D01*
X411771D01*
Y296828D01*
X411725D01*
Y296874D01*
X411633D01*
Y296920D01*
X411541D01*
Y296966D01*
X411449D01*
Y297012D01*
X411358D01*
Y297058D01*
X411266D01*
Y297104D01*
X411174D01*
Y297149D01*
X411036D01*
Y297195D01*
X410945D01*
Y297241D01*
X410807D01*
Y297287D01*
X410669D01*
Y297333D01*
X410485D01*
Y297379D01*
X410348D01*
Y297425D01*
X410210D01*
Y297471D01*
X410026D01*
Y297517D01*
X409889D01*
Y297563D01*
X409705D01*
Y297608D01*
X409567D01*
Y297654D01*
X409384D01*
Y297700D01*
X409246D01*
Y297746D01*
X409108D01*
Y297792D01*
X408971D01*
Y297838D01*
X408833D01*
Y297884D01*
X408695D01*
Y297930D01*
X408603D01*
Y297976D01*
X408512D01*
Y298022D01*
X408420D01*
Y298067D01*
X408328D01*
Y298113D01*
X408236D01*
Y298159D01*
X408190D01*
Y298205D01*
X408098D01*
Y298251D01*
X408007D01*
Y298297D01*
X407961D01*
Y298343D01*
X407915D01*
Y298389D01*
X407823D01*
Y298435D01*
X407777D01*
Y298481D01*
X407685D01*
Y298526D01*
X407639D01*
Y298572D01*
X407548D01*
Y298618D01*
X407502D01*
Y298664D01*
X407593D01*
Y298618D01*
X407639D01*
Y298572D01*
X407731D01*
Y298526D01*
X407777D01*
Y298481D01*
X407823D01*
Y298435D01*
X407915D01*
Y298389D01*
X407961D01*
Y298343D01*
X408052D01*
Y298297D01*
X408098D01*
Y298389D01*
X408052D01*
Y298618D01*
X408007D01*
Y298986D01*
X407961D01*
Y300087D01*
X408007D01*
Y300317D01*
X408052D01*
Y300455D01*
X408098D01*
Y300592D01*
X408144D01*
Y300684D01*
X408190D01*
Y300776D01*
X408236D01*
Y300868D01*
X408282D01*
Y300914D01*
X408328D01*
Y301005D01*
X408374D01*
Y301051D01*
X408420D01*
Y301097D01*
X408466D01*
Y301143D01*
X408512D01*
Y301189D01*
X408558D01*
Y301235D01*
X408603D01*
Y301281D01*
X408695D01*
Y301327D01*
X408787D01*
Y301373D01*
X408925D01*
Y301418D01*
X409108D01*
Y301464D01*
X409843D01*
Y301418D01*
X409981D01*
Y301373D01*
X410118D01*
Y301327D01*
X410210D01*
Y301281D01*
X410256D01*
Y301235D01*
X410348D01*
Y301189D01*
X410394D01*
Y301143D01*
X410439D01*
Y301097D01*
X410485D01*
Y301051D01*
X410531D01*
Y301005D01*
X410577D01*
Y300959D01*
X410623D01*
Y300914D01*
X410669D01*
Y300822D01*
X410715D01*
Y300776D01*
X410761D01*
Y300684D01*
X410807D01*
Y300592D01*
X410853D01*
Y300500D01*
X410899D01*
Y300409D01*
X410945D01*
Y300317D01*
X410990D01*
Y300179D01*
X411036D01*
Y299995D01*
X411082D01*
Y299812D01*
X411128D01*
Y299536D01*
X411174D01*
Y299215D01*
X411128D01*
Y298940D01*
X411082D01*
Y298756D01*
X411036D01*
Y298664D01*
X410990D01*
Y298526D01*
X410945D01*
Y298435D01*
X410899D01*
Y298389D01*
X410853D01*
Y298297D01*
X410807D01*
Y298251D01*
X410761D01*
Y298205D01*
X410715D01*
Y298159D01*
X410669D01*
Y298113D01*
X410623D01*
Y298067D01*
X410577D01*
Y298022D01*
X410531D01*
Y297976D01*
X410439D01*
Y297930D01*
X410394D01*
Y297884D01*
X410302D01*
Y297838D01*
X410210D01*
Y297792D01*
X410118D01*
Y297746D01*
X410026D01*
Y297700D01*
X409889D01*
Y297654D01*
X409751D01*
Y297608D01*
X409889D01*
Y297563D01*
X410072D01*
Y297517D01*
X410210D01*
Y297471D01*
X410394D01*
Y297425D01*
X410531D01*
Y297379D01*
X410669D01*
Y297333D01*
X410807D01*
Y297287D01*
X410945D01*
Y297241D01*
X411082D01*
Y297195D01*
X411220D01*
Y297149D01*
X411312D01*
Y297104D01*
X411449D01*
Y297058D01*
X411541D01*
Y297104D01*
X411587D01*
Y297149D01*
X411633D01*
Y297195D01*
X411679D01*
Y297241D01*
X411725D01*
Y297287D01*
X411771D01*
Y297333D01*
X411817D01*
Y297379D01*
X411862D01*
Y297425D01*
X411908D01*
Y297471D01*
X411954D01*
Y297563D01*
X412000D01*
Y297608D01*
X412046D01*
Y297700D01*
X412092D01*
Y297792D01*
X412138D01*
Y297884D01*
X412184D01*
Y297976D01*
X412230D01*
Y298067D01*
X412276D01*
Y298205D01*
X412322D01*
Y298343D01*
X412368D01*
Y298526D01*
X412413D01*
Y298710D01*
X412459D01*
Y298940D01*
X412505D01*
Y299261D01*
X412551D01*
Y300363D01*
X412505D01*
Y300592D01*
X412459D01*
Y300822D01*
X412413D01*
Y301005D01*
X412368D01*
Y301143D01*
X412322D01*
Y301235D01*
X412276D01*
Y301373D01*
X412230D01*
Y301464D01*
X412184D01*
Y301556D01*
X412138D01*
Y301648D01*
X412092D01*
Y301740D01*
X412046D01*
Y301832D01*
X412000D01*
Y301923D01*
X411954D01*
Y302015D01*
X411908D01*
Y302061D01*
X411862D01*
Y302153D01*
X411817D01*
Y302245D01*
X411771D01*
Y302291D01*
X411725D01*
Y302382D01*
X411679D01*
Y302428D01*
X411633D01*
Y302520D01*
X411587D01*
Y302566D01*
X411541D01*
Y302612D01*
X411495D01*
Y302704D01*
X411449D01*
Y302750D01*
X411404D01*
Y302796D01*
X411358D01*
Y302841D01*
X411312D01*
Y302887D01*
X411266D01*
Y302933D01*
X411220D01*
Y302979D01*
X411174D01*
Y303025D01*
X411128D01*
Y303071D01*
X411082D01*
Y303117D01*
X410990D01*
Y303163D01*
X410945D01*
Y303209D01*
X410853D01*
Y303255D01*
X410761D01*
Y303300D01*
X410623D01*
Y303346D01*
X410485D01*
Y303392D01*
X410302D01*
Y303438D01*
X409935D01*
Y303484D01*
D02*
G37*
G36*
X425083Y270755D02*
X424991D01*
Y270709D01*
X425037D01*
Y270663D01*
X425083D01*
Y270617D01*
X425129D01*
Y270571D01*
X425175D01*
Y270525D01*
X425266D01*
Y270479D01*
X425312D01*
Y270434D01*
X425404D01*
Y270388D01*
X425450D01*
Y270296D01*
X425496D01*
Y270250D01*
X425542D01*
Y270158D01*
X425680D01*
Y270342D01*
X425634D01*
Y270434D01*
X425588D01*
Y270479D01*
X425542D01*
Y270525D01*
X425496D01*
Y270571D01*
X425404D01*
Y270617D01*
X425312D01*
Y270663D01*
X425220D01*
Y270709D01*
X425083D01*
Y270755D01*
D02*
G37*
%LPD*%
G36*
X406446Y298343D02*
X406629D01*
Y298297D01*
X406721D01*
Y298251D01*
X406767D01*
Y298205D01*
X406813D01*
Y298113D01*
X406859D01*
Y297884D01*
X406813D01*
Y297838D01*
X406584D01*
Y297884D01*
X406492D01*
Y297930D01*
X406400D01*
Y297976D01*
X406262D01*
Y298022D01*
X406171D01*
Y298067D01*
X406079D01*
Y298113D01*
X405987D01*
Y298159D01*
X405941D01*
Y298251D01*
X405895D01*
Y298343D01*
X406033D01*
Y298389D01*
X406446D01*
Y298343D01*
D02*
G37*
G36*
X404013Y298113D02*
X403967D01*
Y298067D01*
X403921D01*
Y298022D01*
X403875D01*
Y297976D01*
X403829D01*
Y297930D01*
X403738D01*
Y297884D01*
X403692D01*
Y297838D01*
X403646D01*
Y297792D01*
X403554D01*
Y297746D01*
X403462D01*
Y297700D01*
X403416D01*
Y297746D01*
X403325D01*
Y297792D01*
X403233D01*
Y297884D01*
Y297930D01*
Y298022D01*
X403279D01*
Y298067D01*
X403325D01*
Y298113D01*
X403370D01*
Y298159D01*
X403462D01*
Y298205D01*
X403646D01*
Y298251D01*
X404013D01*
Y298113D01*
D02*
G37*
D10*
X638980Y661670D02*
G03*
X637980Y661670I-500J0D01*
G01*
D02*
G03*
X638980Y661670I500J0D01*
G01*
X272550Y447640D02*
G03*
X273550Y447640I500J0D01*
G01*
D02*
G03*
X272550Y447640I-500J0D01*
G01*
X514340Y277700D02*
G03*
X514340Y277700I-500J0D01*
G01*
X340040Y424610D02*
G03*
X339040Y424610I-500J0D01*
G01*
D02*
G03*
X340040Y424610I500J0D01*
G01*
X614340Y565910D02*
G03*
X614340Y565910I-500J0D01*
G01*
X637530Y482170D02*
G03*
X637530Y482170I-500J0D01*
G01*
X129930Y313880D02*
X144180D01*
Y175630D02*
Y313880D01*
X17430Y152390D02*
X129930D01*
X5680Y283140D02*
Y313880D01*
Y218130D02*
Y258140D01*
Y185630D02*
Y198130D01*
X520320Y448850D02*
Y452850D01*
X545320Y448850D02*
Y452850D01*
X531810Y434850D02*
X533820D01*
X531810Y466850D02*
X533820D01*
D11*
X492219Y663076D02*
G03*
X492219Y663076I-1250J0D01*
G01*
X484561Y586424D02*
G03*
X484561Y586424I-1250J0D01*
G01*
X222430Y418496D02*
G03*
X222430Y418496I-1250J0D01*
G01*
X562420Y351790D02*
G03*
X562420Y351790I-1250J0D01*
G01*
Y326390D02*
G03*
X562420Y326390I-1250J0D01*
G01*
D12*
X102930Y325130D02*
G03*
X102930Y324130I0J-500D01*
G01*
D02*
G03*
X102930Y325130I0J500D01*
G01*
D02*
G03*
X102930Y324130I0J-500D01*
G01*
X551820Y439850D02*
G03*
X551820Y437850I0J-1000D01*
G01*
D02*
G03*
X551820Y439850I0J1000D01*
G01*
X464570Y239310D02*
G03*
X464570Y238310I0J-500D01*
G01*
D02*
G03*
X464570Y239310I0J500D01*
G01*
D02*
G03*
X464570Y238310I0J-500D01*
G01*
X419600Y439725D02*
G03*
X419600Y439725I-500J0D01*
G01*
X434840D02*
G03*
X434840Y439725I-500J0D01*
G01*
X293880Y377190D02*
G03*
X293880Y377190I-500J0D01*
G01*
X599940Y219200D02*
G03*
X599940Y219200I-500J0D01*
G01*
X386275Y485140D02*
G03*
X386275Y485140I-500J0D01*
G01*
X365295Y510540D02*
G03*
X365295Y510540I-500J0D01*
G01*
Y497840D02*
G03*
X365295Y497840I-500J0D01*
G01*
X540980Y614670D02*
Y633670D01*
Y614670D02*
X622980D01*
X622980Y633670D01*
X540980Y665670D02*
Y683670D01*
X622980D01*
X622980Y665670D01*
X601980Y683670D02*
Y729670D01*
X599980Y733670D02*
X601980Y729670D01*
X597980D02*
X599980Y733670D01*
X595980D02*
X597980Y729670D01*
X593980D02*
X595980Y733670D01*
X591980D02*
X593980Y729670D01*
X589980Y729670D02*
X591980Y733670D01*
X587980D02*
X589980Y729670D01*
X585980Y729670D02*
X587980Y733670D01*
X583980D02*
X585980Y729670D01*
X581980D02*
X583980Y733670D01*
X581980Y683670D02*
Y729670D01*
X586100Y569850D02*
Y592850D01*
X569600Y569850D02*
X586100D01*
X569600D02*
Y592850D01*
X400811Y484070D02*
Y486570D01*
Y484070D02*
X403311D01*
X490811D02*
Y486570D01*
X488311Y484070D02*
X490811D01*
X400811Y571570D02*
Y574070D01*
X403311D01*
X490811Y571570D02*
Y574070D01*
X488311D02*
X490811D01*
X272130Y600510D02*
X274130D01*
X272130Y580510D02*
X274130D01*
X456570Y228160D02*
X458570Y228210D01*
X451870Y193430D02*
Y211430D01*
Y154660D02*
Y173430D01*
Y154660D02*
X541270D01*
Y173430D01*
Y193430D02*
Y211430D01*
X534570Y228210D02*
X536570D01*
X213680Y430850D02*
X216180D01*
X213680D02*
Y433350D01*
X251180Y430850D02*
X253680D01*
Y433350D01*
X213680Y470850D02*
X216180D01*
X213680Y468350D02*
Y470850D01*
X251180D02*
X253680D01*
Y468350D02*
Y470850D01*
X425010Y691910D02*
Y751910D01*
X399610Y691910D02*
Y751910D01*
X374210Y691910D02*
Y751910D01*
X348810Y691910D02*
Y751910D01*
X323410Y691910D02*
Y751910D01*
X298010Y691910D02*
Y751910D01*
X272610Y691910D02*
Y751910D01*
X247210Y691910D02*
Y751910D01*
X439210Y666510D02*
Y691910D01*
X233010D02*
X439210D01*
X233010Y651510D02*
Y691910D01*
X495840Y259700D02*
X499840D01*
X495840Y273700D02*
X496840D01*
X482840Y264700D02*
Y268700D01*
X512840Y264700D02*
Y268700D01*
X176209Y369169D02*
X204791D01*
X176209Y387751D02*
X204791D01*
X179239Y407811D02*
X204301D01*
X179239Y389749D02*
X204301D01*
X400050Y347010D02*
Y359410D01*
Y347010D02*
X476250D01*
Y371810D01*
X412750D02*
X476250D01*
X559610Y399160D02*
X565610D01*
X519170Y341040D02*
X550170D01*
X519170Y362540D02*
X550170D01*
X558340Y281940D02*
X564340D01*
X519170Y315640D02*
X550170D01*
X519170Y337140D02*
X550170D01*
X550962Y382782D02*
X565687D01*
X550962Y369058D02*
X565687D01*
X550168Y311662D02*
X564892D01*
X550168Y297938D02*
X564892D01*
X431058Y614938D02*
X447782D01*
X431058Y629662D02*
X447782D01*
X523538Y486418D02*
Y503142D01*
X538263Y486418D02*
Y503142D01*
X596440Y203200D02*
X602440D01*
X295652Y421623D02*
Y438348D01*
X280928Y421623D02*
Y438348D01*
X295652Y445028D02*
Y461752D01*
X280928Y445028D02*
Y461752D01*
X268111Y491659D02*
Y516721D01*
X250049Y491659D02*
Y516721D01*
X329820Y626920D02*
Y632920D01*
X631840Y547910D02*
Y551910D01*
X617840Y547910D02*
Y548910D01*
X622840Y534910D02*
X626840D01*
X622840Y564910D02*
X626840D01*
X582930Y163560D02*
Y166640D01*
X619490Y435610D02*
X622570D01*
X636030Y469170D02*
Y473170D01*
X606030Y469170D02*
Y473170D01*
X619030Y478170D02*
X620030D01*
X619030Y464170D02*
X623030D01*
X467801Y340094D02*
X465968Y341926D01*
X462303D01*
X460470Y340094D01*
Y332763D01*
X462303Y330930D01*
X465968D01*
X467801Y332763D01*
Y336428D01*
X464136D01*
X471466Y330930D02*
Y341926D01*
X478797Y330930D01*
Y341926D01*
X482463D02*
Y330930D01*
X487961D01*
X489794Y332763D01*
Y340094D01*
X487961Y341926D01*
X482463D01*
X429990Y329660D02*
Y340656D01*
X435488D01*
X437321Y338824D01*
Y335158D01*
X435488Y333326D01*
X429990D01*
X433656D02*
X437321Y329660D01*
X440986Y340656D02*
X448317Y329660D01*
Y340656D02*
X440986Y329660D01*
X402050Y341926D02*
X409381D01*
X405715D01*
Y330930D01*
X413046Y341926D02*
X420377Y330930D01*
Y341926D02*
X413046Y330930D01*
D13*
X159886Y324605D02*
G03*
X159886Y324605I-1740J0D01*
G01*
D14*
X117860Y335940D02*
G03*
X118360Y335940I250J0D01*
G01*
D02*
G03*
X117860Y335940I-250J0D01*
G01*
X105160D02*
G03*
X105660Y335940I250J0D01*
G01*
D02*
G03*
X105160Y335940I-250J0D01*
G01*
X35810Y327050D02*
G03*
X35310Y327050I-250J0D01*
G01*
D02*
G03*
X35810Y327050I250J0D01*
G01*
X23110Y328320D02*
G03*
X22610Y328320I-250J0D01*
G01*
D02*
G03*
X23110Y328320I250J0D01*
G01*
X138680Y429870D02*
G03*
X138180Y429870I-250J0D01*
G01*
D02*
G03*
X138680Y429870I250J0D01*
G01*
D15*
X600202Y297180D02*
Y530860D01*
X575818D02*
X600202D01*
X575818Y297180D02*
Y530860D01*
Y297180D02*
X600202D01*
X68072Y325120D02*
Y558800D01*
X43688D02*
X68072D01*
X43688Y325120D02*
Y558800D01*
Y325120D02*
X68072D01*
D16*
X325996Y307165D02*
Y366565D01*
X167196Y307165D02*
Y366565D01*
X325996D01*
X167196Y150665D02*
Y273665D01*
X325996Y150665D02*
Y273665D01*
X167196Y150665D02*
X325996D01*
X252730Y420370D02*
X254000D01*
X16511Y402588D02*
X11432D01*
X13972D01*
Y389892D01*
X11432Y387352D01*
X8893D01*
X6354Y389892D01*
X21589Y400048D02*
X24128Y402588D01*
X29207D01*
X31746Y400048D01*
Y397509D01*
X29207Y394970D01*
X26667D01*
X29207D01*
X31746Y392431D01*
Y389892D01*
X29207Y387352D01*
X24128D01*
X21589Y389892D01*
X472444Y608327D02*
Y595632D01*
X474983Y593092D01*
X480062D01*
X482601Y595632D01*
Y608327D01*
X497836D02*
X487679D01*
Y600710D01*
X492757Y603249D01*
X495297D01*
X497836Y600710D01*
Y595632D01*
X495297Y593092D01*
X490218D01*
X487679Y595632D01*
D17*
X388135Y635681D02*
X386969Y636848D01*
X384636D01*
X383470Y635681D01*
Y634515D01*
X384636Y633349D01*
X386969D01*
X388135Y632183D01*
Y631016D01*
X386969Y629850D01*
X384636D01*
X383470Y631016D01*
X390468Y636848D02*
Y629850D01*
X392800Y632183D01*
X395133Y629850D01*
Y636848D01*
X397466D02*
Y629850D01*
X400964D01*
X402131Y631016D01*
Y635681D01*
X400964Y636848D01*
X397466D01*
X404463D02*
X406796D01*
X405630D01*
Y629850D01*
X404463D01*
X406796D01*
X413794Y636848D02*
X411461D01*
X410295Y635681D01*
Y631016D01*
X411461Y629850D01*
X413794D01*
X414960Y631016D01*
Y635681D01*
X413794Y636848D01*
X346225Y620442D02*
X345059Y621608D01*
X342726D01*
X341560Y620442D01*
Y619275D01*
X342726Y618109D01*
X345059D01*
X346225Y616943D01*
Y615776D01*
X345059Y614610D01*
X342726D01*
X341560Y615776D01*
X348558Y621608D02*
Y614610D01*
X350890Y616943D01*
X353223Y614610D01*
Y621608D01*
X360221Y620442D02*
X359054Y621608D01*
X356722D01*
X355555Y620442D01*
Y615776D01*
X356722Y614610D01*
X359054D01*
X360221Y615776D01*
X362553Y621608D02*
Y614610D01*
X367218D01*
X369551Y621608D02*
Y614610D01*
Y616943D01*
X374216Y621608D01*
X370717Y618109D01*
X374216Y614610D01*
X318285Y620442D02*
X317119Y621608D01*
X314786D01*
X313620Y620442D01*
Y619275D01*
X314786Y618109D01*
X317119D01*
X318285Y616943D01*
Y615776D01*
X317119Y614610D01*
X314786D01*
X313620Y615776D01*
X320618Y621608D02*
Y614610D01*
X322950Y616943D01*
X325283Y614610D01*
Y621608D01*
X331114D02*
X328782D01*
X327616Y620442D01*
Y615776D01*
X328782Y614610D01*
X331114D01*
X332281Y615776D01*
Y620442D01*
X331114Y621608D01*
X292885Y636951D02*
X291719Y638118D01*
X289386D01*
X288220Y636951D01*
Y632286D01*
X289386Y631120D01*
X291719D01*
X292885Y632286D01*
Y634619D01*
X290553D01*
X295218Y631120D02*
Y638118D01*
X299883Y631120D01*
Y638118D01*
X302215D02*
Y631120D01*
X305714D01*
X306881Y632286D01*
Y636951D01*
X305714Y638118D01*
X302215D01*
X264090D02*
Y633453D01*
X266423Y631120D01*
X268755Y633453D01*
Y638118D01*
X275753Y636951D02*
X274587Y638118D01*
X272254D01*
X271088Y636951D01*
Y632286D01*
X272254Y631120D01*
X274587D01*
X275753Y632286D01*
X282751Y636951D02*
X281584Y638118D01*
X279252D01*
X278085Y636951D01*
Y632286D01*
X279252Y631120D01*
X281584D01*
X282751Y632286D01*
X237420Y631120D02*
Y638118D01*
X240919D01*
X242085Y636951D01*
Y634619D01*
X240919Y633453D01*
X237420D01*
X239753D02*
X242085Y631120D01*
X249083Y636951D02*
X247917Y638118D01*
X245584D01*
X244418Y636951D01*
Y635785D01*
X245584Y634619D01*
X247917D01*
X249083Y633453D01*
Y632286D01*
X247917Y631120D01*
X245584D01*
X244418Y632286D01*
X251416Y638118D02*
X256081D01*
X253748D01*
Y631120D01*
D18*
X464009Y614303D02*
X458011D01*
Y617302D01*
X459011Y618301D01*
X461010D01*
X462010Y617302D01*
Y614303D01*
Y616302D02*
X464009Y618301D01*
Y623300D02*
X458011D01*
X461010Y620301D01*
Y624299D01*
X458011Y630297D02*
Y626299D01*
X461010D01*
X460010Y628298D01*
Y629298D01*
X461010Y630297D01*
X463009D01*
X464009Y629298D01*
Y627298D01*
X463009Y626299D01*
X467848Y696552D02*
X469847D01*
X468848D01*
Y690554D01*
X467848D01*
X469847D01*
X476845Y695552D02*
X475845Y696552D01*
X473846D01*
X472846Y695552D01*
Y691553D01*
X473846Y690554D01*
X475845D01*
X476845Y691553D01*
X478845Y690554D02*
X480844D01*
X479844D01*
Y696552D01*
X478845Y695552D01*
X444377Y660322D02*
X443377Y659322D01*
Y657323D01*
X444377Y656323D01*
X448376D01*
X449375Y657323D01*
Y659322D01*
X448376Y660322D01*
X449375Y665320D02*
X443377D01*
X446376Y662321D01*
Y666320D01*
X444377Y668319D02*
X443377Y669319D01*
Y671319D01*
X444377Y672318D01*
X448376D01*
X449375Y671319D01*
Y669319D01*
X448376Y668319D01*
X444377D01*
X470441Y623381D02*
X469441Y622382D01*
Y620382D01*
X470441Y619383D01*
X474439D01*
X475439Y620382D01*
Y622382D01*
X474439Y623381D01*
X470441Y625381D02*
X469441Y626380D01*
Y628380D01*
X470441Y629379D01*
X471440D01*
X472440Y628380D01*
Y627380D01*
Y628380D01*
X473440Y629379D01*
X474439D01*
X475439Y628380D01*
Y626380D01*
X474439Y625381D01*
Y631379D02*
X475439Y632378D01*
Y634378D01*
X474439Y635377D01*
X470441D01*
X469441Y634378D01*
Y632378D01*
X470441Y631379D01*
X471440D01*
X472440Y632378D01*
Y635377D01*
X504731Y653861D02*
X503731Y652862D01*
Y650862D01*
X504731Y649863D01*
X508729D01*
X509729Y650862D01*
Y652862D01*
X508729Y653861D01*
X504731Y655861D02*
X503731Y656860D01*
Y658860D01*
X504731Y659859D01*
X505730D01*
X506730Y658860D01*
Y657860D01*
Y658860D01*
X507730Y659859D01*
X508729D01*
X509729Y658860D01*
Y656860D01*
X508729Y655861D01*
X504731Y661859D02*
X503731Y662858D01*
Y664858D01*
X504731Y665857D01*
X505730D01*
X506730Y664858D01*
X507730Y665857D01*
X508729D01*
X509729Y664858D01*
Y662858D01*
X508729Y661859D01*
X507730D01*
X506730Y662858D01*
X505730Y661859D01*
X504731D01*
X506730Y662858D02*
Y664858D01*
X525862Y429719D02*
Y428719D01*
X527861Y426720D01*
X529860Y428719D01*
Y429719D01*
X527861Y426720D02*
Y423721D01*
X535858D02*
X531860D01*
X535858Y427720D01*
Y428719D01*
X534859Y429719D01*
X532859D01*
X531860Y428719D01*
X284183Y595131D02*
Y601129D01*
X287182D01*
X288181Y600129D01*
Y598130D01*
X287182Y597130D01*
X284183D01*
X286182D02*
X288181Y595131D01*
X293180D02*
Y601129D01*
X290181Y598130D01*
X294179D01*
X299178Y595131D02*
Y601129D01*
X296179Y598130D01*
X300177D01*
X260392Y417454D02*
Y412456D01*
X261391Y411456D01*
X263391D01*
X264390Y412456D01*
Y417454D01*
X269389Y411456D02*
Y417454D01*
X266390Y414455D01*
X270388D01*
X345710Y364949D02*
X343711D01*
X344711D01*
Y359951D01*
X343711Y358951D01*
X342711D01*
X341712Y359951D01*
X351708Y358951D02*
X347710D01*
X351708Y362950D01*
Y363949D01*
X350709Y364949D01*
X348709D01*
X347710Y363949D01*
X323202Y390701D02*
Y396699D01*
X326201D01*
X327201Y395699D01*
Y393700D01*
X326201Y392700D01*
X323202D01*
X325202D02*
X327201Y390701D01*
X332199D02*
Y396699D01*
X329200Y393700D01*
X333199D01*
X335198Y390701D02*
X337198D01*
X336198D01*
Y396699D01*
X335198Y395699D01*
X349061Y379189D02*
X348062Y380189D01*
X346062D01*
X345063Y379189D01*
Y375191D01*
X346062Y374191D01*
X348062D01*
X349061Y375191D01*
X351061Y379189D02*
X352060Y380189D01*
X354060D01*
X355059Y379189D01*
Y378190D01*
X354060Y377190D01*
X353060D01*
X354060D01*
X355059Y376190D01*
Y375191D01*
X354060Y374191D01*
X352060D01*
X351061Y375191D01*
X357059Y380189D02*
X361057D01*
Y379189D01*
X357059Y375191D01*
Y374191D01*
X589739Y195203D02*
X583741D01*
Y198202D01*
X584741Y199201D01*
X586740D01*
X587740Y198202D01*
Y195203D01*
Y197202D02*
X589739Y199201D01*
Y204200D02*
X583741D01*
X586740Y201201D01*
Y205199D01*
X584741Y207199D02*
X583741Y208198D01*
Y210198D01*
X584741Y211197D01*
X585740D01*
X586740Y210198D01*
Y209198D01*
Y210198D01*
X587740Y211197D01*
X588739D01*
X589739Y210198D01*
Y208198D01*
X588739Y207199D01*
X584659Y233303D02*
X578661D01*
Y236302D01*
X579661Y237301D01*
X581660D01*
X582660Y236302D01*
Y233303D01*
Y235302D02*
X584659Y237301D01*
Y242300D02*
X578661D01*
X581660Y239301D01*
Y243299D01*
X584659Y249297D02*
Y245299D01*
X580660Y249297D01*
X579661D01*
X578661Y248298D01*
Y246298D01*
X579661Y245299D01*
X439420Y240489D02*
X437421D01*
X438420D01*
Y235491D01*
X437421Y234491D01*
X436421D01*
X435421Y235491D01*
X441419Y234491D02*
X443419D01*
X442419D01*
Y240489D01*
X441419Y239489D01*
X569042Y214171D02*
Y220169D01*
X572041D01*
X573040Y219169D01*
Y217170D01*
X572041Y216170D01*
X569042D01*
X571041D02*
X573040Y214171D01*
X579038D02*
X575040D01*
X579038Y218170D01*
Y219169D01*
X578039Y220169D01*
X576039D01*
X575040Y219169D01*
X565961Y518471D02*
Y516472D01*
Y517472D01*
X570959D01*
X571959Y516472D01*
Y515472D01*
X570959Y514472D01*
X571959Y520471D02*
Y522470D01*
Y521470D01*
X565961D01*
X566961Y520471D01*
X571959Y529468D02*
Y525469D01*
X567960Y529468D01*
X566961D01*
X565961Y528468D01*
Y526469D01*
X566961Y525469D01*
X52111Y570689D02*
X50111D01*
X51111D01*
Y565691D01*
X50111Y564691D01*
X49112D01*
X48112Y565691D01*
X54110Y564691D02*
X56109D01*
X55110D01*
Y570689D01*
X54110Y569689D01*
X59109Y564691D02*
X61108D01*
X60108D01*
Y570689D01*
X59109Y569689D01*
X560881Y430017D02*
X566879D01*
Y427018D01*
X565879Y426019D01*
X563880D01*
X562880Y427018D01*
Y430017D01*
Y428018D02*
X560881Y426019D01*
Y421020D02*
X566879D01*
X563880Y424019D01*
Y420021D01*
X565879Y418021D02*
X566879Y417022D01*
Y415022D01*
X565879Y414023D01*
X561881D01*
X560881Y415022D01*
Y417022D01*
X561881Y418021D01*
X565879D01*
X550803Y259891D02*
Y265889D01*
X553802D01*
X554801Y264889D01*
Y262890D01*
X553802Y261890D01*
X550803D01*
X552802D02*
X554801Y259891D01*
X556801Y264889D02*
X557800Y265889D01*
X559800D01*
X560799Y264889D01*
Y263890D01*
X559800Y262890D01*
X558800D01*
X559800D01*
X560799Y261890D01*
Y260891D01*
X559800Y259891D01*
X557800D01*
X556801Y260891D01*
X562799D02*
X563798Y259891D01*
X565798D01*
X566797Y260891D01*
Y264889D01*
X565798Y265889D01*
X563798D01*
X562799Y264889D01*
Y263890D01*
X563798Y262890D01*
X566797D01*
X534481Y382729D02*
X530483D01*
Y379730D01*
X532482D01*
X530483D01*
Y376731D01*
X536481Y382729D02*
Y376731D01*
X539480D01*
X540479Y377731D01*
Y378730D01*
X539480Y379730D01*
X536481D01*
X539480D01*
X540479Y380730D01*
Y381729D01*
X539480Y382729D01*
X536481D01*
X546477D02*
X544478Y381729D01*
X542479Y379730D01*
Y377731D01*
X543478Y376731D01*
X545478D01*
X546477Y377731D01*
Y378730D01*
X545478Y379730D01*
X542479D01*
X503731Y321392D02*
X509729D01*
Y324391D01*
X508729Y325390D01*
X504731D01*
X503731Y324391D01*
Y321392D01*
Y331388D02*
X504731Y329389D01*
X506730Y327390D01*
X508729D01*
X509729Y328389D01*
Y330389D01*
X508729Y331388D01*
X507730D01*
X506730Y330389D01*
Y327390D01*
X503731Y346792D02*
X509729D01*
Y349791D01*
X508729Y350790D01*
X504731D01*
X503731Y349791D01*
Y346792D01*
Y356788D02*
Y352790D01*
X506730D01*
X505730Y354789D01*
Y355789D01*
X506730Y356788D01*
X508729D01*
X509729Y355789D01*
Y353789D01*
X508729Y352790D01*
X157947Y394429D02*
X156947Y395429D01*
X154948D01*
X153948Y394429D01*
Y390431D01*
X154948Y389431D01*
X156947D01*
X157947Y390431D01*
X163945Y389431D02*
X159946D01*
X163945Y393430D01*
Y394429D01*
X162945Y395429D01*
X160946D01*
X159946Y394429D01*
X165944D02*
X166944Y395429D01*
X168944D01*
X169943Y394429D01*
Y393430D01*
X168944Y392430D01*
X169943Y391430D01*
Y390431D01*
X168944Y389431D01*
X166944D01*
X165944Y390431D01*
Y391430D01*
X166944Y392430D01*
X165944Y393430D01*
Y394429D01*
X166944Y392430D02*
X168944D01*
X270321Y526509D02*
X269322Y527509D01*
X267322D01*
X266323Y526509D01*
Y522511D01*
X267322Y521511D01*
X269322D01*
X270321Y522511D01*
X276319Y521511D02*
X272321D01*
X276319Y525510D01*
Y526509D01*
X275320Y527509D01*
X273320D01*
X272321Y526509D01*
X282317Y527509D02*
X280318Y526509D01*
X278319Y524510D01*
Y522511D01*
X279318Y521511D01*
X281318D01*
X282317Y522511D01*
Y523510D01*
X281318Y524510D01*
X278319D01*
X335091Y413209D02*
Y412209D01*
X337091Y410210D01*
X339090Y412209D01*
Y413209D01*
X337091Y410210D02*
Y407211D01*
X341089D02*
X343089D01*
X342089D01*
Y413209D01*
X341089Y412209D01*
X122379Y370463D02*
X116381D01*
Y373462D01*
X117381Y374461D01*
X119380D01*
X120380Y373462D01*
Y370463D01*
Y372462D02*
X122379Y374461D01*
X117381Y376461D02*
X116381Y377460D01*
Y379460D01*
X117381Y380459D01*
X118380D01*
X119380Y379460D01*
Y378460D01*
Y379460D01*
X120380Y380459D01*
X121379D01*
X122379Y379460D01*
Y377460D01*
X121379Y376461D01*
X117381Y382459D02*
X116381Y383458D01*
Y385458D01*
X117381Y386457D01*
X118380D01*
X119380Y385458D01*
X120380Y386457D01*
X121379D01*
X122379Y385458D01*
Y383458D01*
X121379Y382459D01*
X120380D01*
X119380Y383458D01*
X118380Y382459D01*
X117381D01*
X119380Y383458D02*
Y385458D01*
X108409Y366653D02*
X102411D01*
Y369652D01*
X103411Y370651D01*
X105410D01*
X106410Y369652D01*
Y366653D01*
Y368652D02*
X108409Y370651D01*
X103411Y372651D02*
X102411Y373650D01*
Y375650D01*
X103411Y376649D01*
X104410D01*
X105410Y375650D01*
Y374650D01*
Y375650D01*
X106410Y376649D01*
X107409D01*
X108409Y375650D01*
Y373650D01*
X107409Y372651D01*
X102411Y378649D02*
Y382647D01*
X103411D01*
X107409Y378649D01*
X108409D01*
X14429Y329823D02*
X8431D01*
Y332822D01*
X9431Y333821D01*
X11430D01*
X12430Y332822D01*
Y329823D01*
Y331822D02*
X14429Y333821D01*
X9431Y335821D02*
X8431Y336820D01*
Y338820D01*
X9431Y339819D01*
X10430D01*
X11430Y338820D01*
Y337820D01*
Y338820D01*
X12430Y339819D01*
X13429D01*
X14429Y338820D01*
Y336820D01*
X13429Y335821D01*
X8431Y345817D02*
X9431Y343818D01*
X11430Y341819D01*
X13429D01*
X14429Y342818D01*
Y344818D01*
X13429Y345817D01*
X12430D01*
X11430Y344818D01*
Y341819D01*
X37289Y350143D02*
X31291D01*
Y353142D01*
X32291Y354141D01*
X34290D01*
X35290Y353142D01*
Y350143D01*
Y352142D02*
X37289Y354141D01*
X32291Y356141D02*
X31291Y357140D01*
Y359140D01*
X32291Y360139D01*
X33290D01*
X34290Y359140D01*
Y358140D01*
Y359140D01*
X35290Y360139D01*
X36289D01*
X37289Y359140D01*
Y357140D01*
X36289Y356141D01*
X31291Y366137D02*
Y362139D01*
X34290D01*
X33290Y364138D01*
Y365138D01*
X34290Y366137D01*
X36289D01*
X37289Y365138D01*
Y363138D01*
X36289Y362139D01*
X132973Y358951D02*
Y364949D01*
X135972D01*
X136971Y363949D01*
Y361950D01*
X135972Y360950D01*
X132973D01*
X134972D02*
X136971Y358951D01*
X138971Y363949D02*
X139970Y364949D01*
X141970D01*
X142969Y363949D01*
Y362950D01*
X141970Y361950D01*
X140970D01*
X141970D01*
X142969Y360950D01*
Y359951D01*
X141970Y358951D01*
X139970D01*
X138971Y359951D01*
X144969Y363949D02*
X145968Y364949D01*
X147968D01*
X148967Y363949D01*
Y362950D01*
X147968Y361950D01*
X146968D01*
X147968D01*
X148967Y360950D01*
Y359951D01*
X147968Y358951D01*
X145968D01*
X144969Y359951D01*
X81739Y378083D02*
X75741D01*
Y381082D01*
X76741Y382081D01*
X78740D01*
X79740Y381082D01*
Y378083D01*
Y380082D02*
X81739Y382081D01*
X76741Y384081D02*
X75741Y385080D01*
Y387080D01*
X76741Y388079D01*
X77740D01*
X78740Y387080D01*
Y386080D01*
Y387080D01*
X79740Y388079D01*
X80739D01*
X81739Y387080D01*
Y385080D01*
X80739Y384081D01*
X81739Y393078D02*
X75741D01*
X78740Y390079D01*
Y394077D01*
X365383Y474521D02*
Y480519D01*
X368382D01*
X369381Y479519D01*
Y477520D01*
X368382Y476520D01*
X365383D01*
X367382D02*
X369381Y474521D01*
X371381Y479519D02*
X372380Y480519D01*
X374380D01*
X375379Y479519D01*
Y478520D01*
X374380Y477520D01*
X373380D01*
X374380D01*
X375379Y476520D01*
Y475521D01*
X374380Y474521D01*
X372380D01*
X371381Y475521D01*
X381377Y474521D02*
X377379D01*
X381377Y478520D01*
Y479519D01*
X380378Y480519D01*
X378378D01*
X377379Y479519D01*
X295262Y479601D02*
Y485599D01*
X298261D01*
X299261Y484599D01*
Y482600D01*
X298261Y481600D01*
X295262D01*
X297262D02*
X299261Y479601D01*
X301260Y484599D02*
X302260Y485599D01*
X304259D01*
X305259Y484599D01*
Y483600D01*
X304259Y482600D01*
X303260D01*
X304259D01*
X305259Y481600D01*
Y480601D01*
X304259Y479601D01*
X302260D01*
X301260Y480601D01*
X307258Y479601D02*
X309258D01*
X308258D01*
Y485599D01*
X307258Y484599D01*
X151507Y464009D02*
Y458011D01*
X148508D01*
X147509Y459011D01*
Y461010D01*
X148508Y462010D01*
X151507D01*
X149508D02*
X147509Y464009D01*
X145509Y459011D02*
X144510Y458011D01*
X142510D01*
X141511Y459011D01*
Y460010D01*
X142510Y461010D01*
X143510D01*
X142510D01*
X141511Y462010D01*
Y463009D01*
X142510Y464009D01*
X144510D01*
X145509Y463009D01*
X139511Y459011D02*
X138512Y458011D01*
X136512D01*
X135513Y459011D01*
Y463009D01*
X136512Y464009D01*
X138512D01*
X139511Y463009D01*
Y459011D01*
X193499Y501313D02*
X187501D01*
Y504312D01*
X188501Y505311D01*
X190500D01*
X191500Y504312D01*
Y501313D01*
Y503312D02*
X193499Y505311D01*
Y511309D02*
Y507311D01*
X189500Y511309D01*
X188501D01*
X187501Y510310D01*
Y508310D01*
X188501Y507311D01*
X192499Y513309D02*
X193499Y514308D01*
Y516308D01*
X192499Y517307D01*
X188501D01*
X187501Y516308D01*
Y514308D01*
X188501Y513309D01*
X189500D01*
X190500Y514308D01*
Y517307D01*
X237113Y535481D02*
Y541479D01*
X240112D01*
X241111Y540479D01*
Y538480D01*
X240112Y537480D01*
X237113D01*
X239112D02*
X241111Y535481D01*
X247109D02*
X243111D01*
X247109Y539480D01*
Y540479D01*
X246110Y541479D01*
X244110D01*
X243111Y540479D01*
X249109D02*
X250108Y541479D01*
X252108D01*
X253107Y540479D01*
Y539480D01*
X252108Y538480D01*
X253107Y537480D01*
Y536481D01*
X252108Y535481D01*
X250108D01*
X249109Y536481D01*
Y537480D01*
X250108Y538480D01*
X249109Y539480D01*
Y540479D01*
X250108Y538480D02*
X252108D01*
X131269Y412373D02*
X125271D01*
Y415372D01*
X126271Y416371D01*
X128270D01*
X129270Y415372D01*
Y412373D01*
Y414372D02*
X131269Y416371D01*
Y422369D02*
Y418371D01*
X127270Y422369D01*
X126271D01*
X125271Y421370D01*
Y419370D01*
X126271Y418371D01*
X125271Y424369D02*
Y428367D01*
X126271D01*
X130269Y424369D01*
X131269D01*
X341253Y494841D02*
Y500839D01*
X344252D01*
X345251Y499839D01*
Y497840D01*
X344252Y496840D01*
X341253D01*
X343252D02*
X345251Y494841D01*
X351249D02*
X347251D01*
X351249Y498840D01*
Y499839D01*
X350250Y500839D01*
X348250D01*
X347251Y499839D01*
X357247Y500839D02*
X355248Y499839D01*
X353249Y497840D01*
Y495841D01*
X354248Y494841D01*
X356248D01*
X357247Y495841D01*
Y496840D01*
X356248Y497840D01*
X353249D01*
X343793Y507541D02*
Y513539D01*
X346792D01*
X347791Y512539D01*
Y510540D01*
X346792Y509540D01*
X343793D01*
X345792D02*
X347791Y507541D01*
X353789D02*
X349791D01*
X353789Y511540D01*
Y512539D01*
X352790Y513539D01*
X350790D01*
X349791Y512539D01*
X359787Y513539D02*
X355789D01*
Y510540D01*
X357788Y511540D01*
X358788D01*
X359787Y510540D01*
Y508541D01*
X358788Y507541D01*
X356788D01*
X355789Y508541D01*
X413209Y441583D02*
X407211D01*
Y444582D01*
X408211Y445581D01*
X410210D01*
X411210Y444582D01*
Y441583D01*
Y443582D02*
X413209Y445581D01*
Y451579D02*
Y447581D01*
X409210Y451579D01*
X408211D01*
X407211Y450580D01*
Y448580D01*
X408211Y447581D01*
X413209Y456578D02*
X407211D01*
X410210Y453579D01*
Y457577D01*
X429719Y440313D02*
X423721D01*
Y443312D01*
X424721Y444311D01*
X426720D01*
X427720Y443312D01*
Y440313D01*
Y442312D02*
X429719Y444311D01*
Y450309D02*
Y446311D01*
X425720Y450309D01*
X424721D01*
X423721Y449310D01*
Y447310D01*
X424721Y446311D01*
Y452309D02*
X423721Y453308D01*
Y455308D01*
X424721Y456307D01*
X425720D01*
X426720Y455308D01*
Y454308D01*
Y455308D01*
X427720Y456307D01*
X428719D01*
X429719Y455308D01*
Y453308D01*
X428719Y452309D01*
X278589Y477772D02*
X272591D01*
Y480771D01*
X273591Y481771D01*
X275590D01*
X276590Y480771D01*
Y477772D01*
Y479772D02*
X278589Y481771D01*
Y487769D02*
Y483770D01*
X274590Y487769D01*
X273591D01*
X272591Y486769D01*
Y484770D01*
X273591Y483770D01*
X278589Y489768D02*
Y491768D01*
Y490768D01*
X272591D01*
X273591Y489768D01*
X204053Y539331D02*
Y545329D01*
X207052D01*
X208051Y544329D01*
Y542330D01*
X207052Y541330D01*
X204053D01*
X206052D02*
X208051Y539331D01*
X214049D02*
X210051D01*
X214049Y543330D01*
Y544329D01*
X213050Y545329D01*
X211050D01*
X210051Y544329D01*
X216049D02*
X217048Y545329D01*
X219048D01*
X220047Y544329D01*
Y540331D01*
X219048Y539331D01*
X217048D01*
X216049Y540331D01*
Y544329D01*
X352249Y205862D02*
X346251D01*
Y208862D01*
X347251Y209861D01*
X349250D01*
X350250Y208862D01*
Y205862D01*
Y207862D02*
X352249Y209861D01*
Y211861D02*
Y213860D01*
Y212860D01*
X346251D01*
X347251Y211861D01*
X351249Y216859D02*
X352249Y217859D01*
Y219858D01*
X351249Y220858D01*
X347251D01*
X346251Y219858D01*
Y217859D01*
X347251Y216859D01*
X348250D01*
X349250Y217859D01*
Y220858D01*
X382729Y205982D02*
X376731D01*
Y208981D01*
X377731Y209981D01*
X379730D01*
X380730Y208981D01*
Y205982D01*
Y207982D02*
X382729Y209981D01*
Y211980D02*
Y213980D01*
Y212980D01*
X376731D01*
X377731Y211980D01*
Y216979D02*
X376731Y217978D01*
Y219978D01*
X377731Y220978D01*
X378730D01*
X379730Y219978D01*
X380730Y220978D01*
X381729D01*
X382729Y219978D01*
Y217978D01*
X381729Y216979D01*
X380730D01*
X379730Y217978D01*
X378730Y216979D01*
X377731D01*
X379730Y217978D02*
Y219978D01*
X348992Y629461D02*
Y635459D01*
X351992D01*
X352991Y634459D01*
Y632460D01*
X351992Y631460D01*
X348992D01*
X350992D02*
X352991Y629461D01*
X354991D02*
X356990D01*
X355990D01*
Y635459D01*
X354991Y634459D01*
X363988Y635459D02*
X359989D01*
Y632460D01*
X361988Y633460D01*
X362988D01*
X363988Y632460D01*
Y630461D01*
X362988Y629461D01*
X360989D01*
X359989Y630461D01*
X603332Y587551D02*
Y593549D01*
X606331D01*
X607330Y592549D01*
Y590550D01*
X606331Y589550D01*
X603332D01*
X605331D02*
X607330Y587551D01*
X609330Y592549D02*
X610329Y593549D01*
X612329D01*
X613328Y592549D01*
Y591550D01*
X612329Y590550D01*
X613328Y589550D01*
Y588551D01*
X612329Y587551D01*
X610329D01*
X609330Y588551D01*
Y589550D01*
X610329Y590550D01*
X609330Y591550D01*
Y592549D01*
X610329Y590550D02*
X612329D01*
X408129Y194272D02*
X402131D01*
Y197271D01*
X403131Y198270D01*
X405130D01*
X406130Y197271D01*
Y194272D01*
Y196271D02*
X408129Y198270D01*
X403131Y200270D02*
X402131Y201269D01*
Y203269D01*
X403131Y204268D01*
X404130D01*
X405130Y203269D01*
Y202269D01*
Y203269D01*
X406130Y204268D01*
X407129D01*
X408129Y203269D01*
Y201269D01*
X407129Y200270D01*
X568124Y565609D02*
Y559611D01*
X572122D01*
X578120Y565609D02*
X574122D01*
Y559611D01*
X578120D01*
X574122Y562610D02*
X576121D01*
X580120Y565609D02*
Y559611D01*
X583119D01*
X584118Y560611D01*
Y564609D01*
X583119Y565609D01*
X580120D01*
X586118Y564609D02*
X587117Y565609D01*
X589117D01*
X590116Y564609D01*
Y563610D01*
X589117Y562610D01*
X588117D01*
X589117D01*
X590116Y561610D01*
Y560611D01*
X589117Y559611D01*
X587117D01*
X586118Y560611D01*
X401631Y382729D02*
X399632D01*
X400631D01*
Y377731D01*
X399632Y376731D01*
X398632D01*
X397632Y377731D01*
X403630Y376731D02*
X405630D01*
X404630D01*
Y382729D01*
X403630Y381729D01*
X412628Y382729D02*
X408629D01*
Y379730D01*
X410628Y380730D01*
X411628D01*
X412628Y379730D01*
Y377731D01*
X411628Y376731D01*
X409628D01*
X408629Y377731D01*
X218710Y676099D02*
X216711D01*
X217711D01*
Y671101D01*
X216711Y670101D01*
X215711D01*
X214712Y671101D01*
X220710Y676099D02*
X224708D01*
Y675099D01*
X220710Y671101D01*
Y670101D01*
X533211Y310339D02*
X529213D01*
Y307340D01*
X531212D01*
X529213D01*
Y304341D01*
X535211Y310339D02*
Y304341D01*
X538210D01*
X539209Y305341D01*
Y306340D01*
X538210Y307340D01*
X535211D01*
X538210D01*
X539209Y308340D01*
Y309339D01*
X538210Y310339D01*
X535211D01*
X545207D02*
X541209D01*
Y307340D01*
X543208Y308340D01*
X544208D01*
X545207Y307340D01*
Y305341D01*
X544208Y304341D01*
X542208D01*
X541209Y305341D01*
X436691Y641809D02*
X432693D01*
Y638810D01*
X434692D01*
X432693D01*
Y635811D01*
X438691Y641809D02*
Y635811D01*
X441690D01*
X442689Y636811D01*
Y637810D01*
X441690Y638810D01*
X438691D01*
X441690D01*
X442689Y639810D01*
Y640809D01*
X441690Y641809D01*
X438691D01*
X447688Y635811D02*
Y641809D01*
X444689Y638810D01*
X448687D01*
X157291Y385269D02*
X153293D01*
Y382270D01*
X155292D01*
X153293D01*
Y379271D01*
X159291Y385269D02*
Y379271D01*
X162290D01*
X163289Y380271D01*
Y381270D01*
X162290Y382270D01*
X159291D01*
X162290D01*
X163289Y383270D01*
Y384269D01*
X162290Y385269D01*
X159291D01*
X165289Y384269D02*
X166288Y385269D01*
X168288D01*
X169287Y384269D01*
Y383270D01*
X168288Y382270D01*
X167288D01*
X168288D01*
X169287Y381270D01*
Y380271D01*
X168288Y379271D01*
X166288D01*
X165289Y380271D01*
X632919Y437880D02*
Y441878D01*
X629920D01*
Y439879D01*
Y441878D01*
X626921D01*
Y431882D02*
Y435880D01*
X630920Y431882D01*
X631919D01*
X632919Y432881D01*
Y434881D01*
X631919Y435880D01*
X577850Y180799D02*
X573851D01*
Y177800D01*
X575851D01*
X573851D01*
Y174801D01*
X579849D02*
X581849D01*
X580849D01*
Y180799D01*
X579849Y179799D01*
X613492Y499569D02*
Y493571D01*
X616491D01*
X617490Y494571D01*
Y498569D01*
X616491Y499569D01*
X613492D01*
X622489Y493571D02*
Y499569D01*
X619490Y496570D01*
X623488D01*
X501732Y295099D02*
Y289101D01*
X504731D01*
X505730Y290101D01*
Y294099D01*
X504731Y295099D01*
X501732D01*
X511728Y289101D02*
X507730D01*
X511728Y293100D01*
Y294099D01*
X510729Y295099D01*
X508729D01*
X507730Y294099D01*
X619571Y530049D02*
Y524051D01*
X622570D01*
X623570Y525051D01*
Y529049D01*
X622570Y530049D01*
X619571D01*
X625569Y524051D02*
X627569D01*
X626569D01*
Y530049D01*
X625569Y529049D01*
X94521Y342711D02*
X93521Y341712D01*
Y339712D01*
X94521Y338713D01*
X98519D01*
X99519Y339712D01*
Y341712D01*
X98519Y342711D01*
X94521Y344711D02*
X93521Y345710D01*
Y347710D01*
X94521Y348709D01*
X95520D01*
X96520Y347710D01*
Y346710D01*
Y347710D01*
X97520Y348709D01*
X98519D01*
X99519Y347710D01*
Y345710D01*
X98519Y344711D01*
X93521Y354707D02*
X94521Y352708D01*
X96520Y350709D01*
X98519D01*
X99519Y351708D01*
Y353708D01*
X98519Y354707D01*
X97520D01*
X96520Y353708D01*
Y350709D01*
X77281Y367759D02*
X76282Y368759D01*
X74282D01*
X73283Y367759D01*
Y363761D01*
X74282Y362761D01*
X76282D01*
X77281Y363761D01*
X79281Y367759D02*
X80280Y368759D01*
X82280D01*
X83279Y367759D01*
Y366760D01*
X82280Y365760D01*
X81280D01*
X82280D01*
X83279Y364760D01*
Y363761D01*
X82280Y362761D01*
X80280D01*
X79281Y363761D01*
X89277Y368759D02*
X85279D01*
Y365760D01*
X87278Y366760D01*
X88278D01*
X89277Y365760D01*
Y363761D01*
X88278Y362761D01*
X86278D01*
X85279Y363761D01*
X285561Y415475D02*
X284562Y416475D01*
X282562D01*
X281563Y415475D01*
Y411476D01*
X282562Y410477D01*
X284562D01*
X285561Y411476D01*
X287561Y415475D02*
X288560Y416475D01*
X290560D01*
X291559Y415475D01*
Y414475D01*
X290560Y413476D01*
X289560D01*
X290560D01*
X291559Y412476D01*
Y411476D01*
X290560Y410477D01*
X288560D01*
X287561Y411476D01*
X296558Y410477D02*
Y416475D01*
X293559Y413476D01*
X297557D01*
X304611Y465549D02*
X303612Y466549D01*
X301612D01*
X300613Y465549D01*
Y461551D01*
X301612Y460551D01*
X303612D01*
X304611Y461551D01*
X306611Y465549D02*
X307610Y466549D01*
X309610D01*
X310609Y465549D01*
Y464550D01*
X309610Y463550D01*
X308610D01*
X309610D01*
X310609Y462550D01*
Y461551D01*
X309610Y460551D01*
X307610D01*
X306611Y461551D01*
X312609Y465549D02*
X313608Y466549D01*
X315608D01*
X316607Y465549D01*
Y464550D01*
X315608Y463550D01*
X314608D01*
X315608D01*
X316607Y462550D01*
Y461551D01*
X315608Y460551D01*
X313608D01*
X312609Y461551D01*
X147861Y437781D02*
X146861Y436782D01*
Y434782D01*
X147861Y433783D01*
X151859D01*
X152859Y434782D01*
Y436782D01*
X151859Y437781D01*
X147861Y439781D02*
X146861Y440780D01*
Y442780D01*
X147861Y443779D01*
X148860D01*
X149860Y442780D01*
Y441780D01*
Y442780D01*
X150860Y443779D01*
X151859D01*
X152859Y442780D01*
Y440780D01*
X151859Y439781D01*
X152859Y449777D02*
Y445779D01*
X148860Y449777D01*
X147861D01*
X146861Y448778D01*
Y446778D01*
X147861Y445779D01*
X191581Y428719D02*
X190582Y429719D01*
X188582D01*
X187583Y428719D01*
Y424721D01*
X188582Y423721D01*
X190582D01*
X191581Y424721D01*
X197579Y423721D02*
X193581D01*
X197579Y427720D01*
Y428719D01*
X196580Y429719D01*
X194580D01*
X193581Y428719D01*
X199579Y424721D02*
X200578Y423721D01*
X202578D01*
X203577Y424721D01*
Y428719D01*
X202578Y429719D01*
X200578D01*
X199579Y428719D01*
Y427720D01*
X200578Y426720D01*
X203577D01*
X161831Y437691D02*
X160831Y436691D01*
Y434692D01*
X161831Y433692D01*
X165829D01*
X166829Y434692D01*
Y436691D01*
X165829Y437691D01*
X161831Y439690D02*
X160831Y440690D01*
Y442689D01*
X161831Y443689D01*
X162830D01*
X163830Y442689D01*
Y441690D01*
Y442689D01*
X164830Y443689D01*
X165829D01*
X166829Y442689D01*
Y440690D01*
X165829Y439690D01*
X166829Y445688D02*
Y447688D01*
Y446688D01*
X160831D01*
X161831Y445688D01*
X173261Y436691D02*
X172261Y435692D01*
Y433692D01*
X173261Y432693D01*
X177259D01*
X178259Y433692D01*
Y435692D01*
X177259Y436691D01*
X173261Y438691D02*
X172261Y439690D01*
Y441690D01*
X173261Y442689D01*
X174260D01*
X175260Y441690D01*
Y440690D01*
Y441690D01*
X176260Y442689D01*
X177259D01*
X178259Y441690D01*
Y439690D01*
X177259Y438691D01*
X173261Y444689D02*
X172261Y445688D01*
Y447688D01*
X173261Y448687D01*
X177259D01*
X178259Y447688D01*
Y445688D01*
X177259Y444689D01*
X173261D01*
X230411Y500191D02*
X229411Y499192D01*
Y497192D01*
X230411Y496193D01*
X234409D01*
X235409Y497192D01*
Y499192D01*
X234409Y500191D01*
X235409Y506189D02*
Y502191D01*
X231410Y506189D01*
X230411D01*
X229411Y505190D01*
Y503190D01*
X230411Y502191D01*
X229411Y508189D02*
Y512187D01*
X230411D01*
X234409Y508189D01*
X235409D01*
X235491Y375731D02*
X234491Y374732D01*
Y372732D01*
X235491Y371733D01*
X239489D01*
X240489Y372732D01*
Y374732D01*
X239489Y375731D01*
X240489Y381729D02*
Y377731D01*
X236490Y381729D01*
X235491D01*
X234491Y380730D01*
Y378730D01*
X235491Y377731D01*
X234491Y387727D02*
Y383729D01*
X237490D01*
X236490Y385728D01*
Y386728D01*
X237490Y387727D01*
X239489D01*
X240489Y386728D01*
Y384728D01*
X239489Y383729D01*
X269781Y377001D02*
X268781Y376002D01*
Y374002D01*
X269781Y373003D01*
X273779D01*
X274779Y374002D01*
Y376002D01*
X273779Y377001D01*
X274779Y382999D02*
Y379001D01*
X270780Y382999D01*
X269781D01*
X268781Y382000D01*
Y380000D01*
X269781Y379001D01*
X274779Y387998D02*
X268781D01*
X271780Y384999D01*
Y388997D01*
X519741Y476979D02*
X518741Y477979D01*
X516742D01*
X515742Y476979D01*
Y472981D01*
X516742Y471981D01*
X518741D01*
X519741Y472981D01*
X521740Y471981D02*
X523740D01*
X522740D01*
Y477979D01*
X521740Y476979D01*
X526739Y472981D02*
X527738Y471981D01*
X529738D01*
X530738Y472981D01*
Y476979D01*
X529738Y477979D01*
X527738D01*
X526739Y476979D01*
Y475980D01*
X527738Y474980D01*
X530738D01*
X498381Y420681D02*
X497381Y419682D01*
Y417682D01*
X498381Y416683D01*
X502379D01*
X503379Y417682D01*
Y419682D01*
X502379Y420681D01*
X503379Y422681D02*
Y424680D01*
Y423680D01*
X497381D01*
X498381Y422681D01*
Y427679D02*
X497381Y428679D01*
Y430678D01*
X498381Y431678D01*
X499380D01*
X500380Y430678D01*
X501380Y431678D01*
X502379D01*
X503379Y430678D01*
Y428679D01*
X502379Y427679D01*
X501380D01*
X500380Y428679D01*
X499380Y427679D01*
X498381D01*
X500380Y428679D02*
Y430678D01*
X514187Y491440D02*
X513187Y490440D01*
Y488441D01*
X514187Y487441D01*
X518185D01*
X519185Y488441D01*
Y490440D01*
X518185Y491440D01*
X519185Y493439D02*
Y495438D01*
Y494439D01*
X513187D01*
X514187Y493439D01*
Y498437D02*
X513187Y499437D01*
Y501436D01*
X514187Y502436D01*
X515186D01*
X516186Y501436D01*
Y500437D01*
Y501436D01*
X517186Y502436D01*
X518185D01*
X519185Y501436D01*
Y499437D01*
X518185Y498437D01*
X550451Y471481D02*
X549451Y470481D01*
Y468482D01*
X550451Y467482D01*
X554449D01*
X555449Y468482D01*
Y470481D01*
X554449Y471481D01*
X555449Y473480D02*
Y475480D01*
Y474480D01*
X549451D01*
X550451Y473480D01*
X555449Y482477D02*
Y478479D01*
X551450Y482477D01*
X550451D01*
X549451Y481478D01*
Y479478D01*
X550451Y478479D01*
X503461Y496881D02*
X502461Y495882D01*
Y493882D01*
X503461Y492882D01*
X507459D01*
X508459Y493882D01*
Y495882D01*
X507459Y496881D01*
X508459Y498881D02*
Y500880D01*
Y499880D01*
X502461D01*
X503461Y498881D01*
X502461Y507878D02*
X503461Y505878D01*
X505460Y503879D01*
X507459D01*
X508459Y504879D01*
Y506878D01*
X507459Y507878D01*
X506460D01*
X505460Y506878D01*
Y503879D01*
X461321Y469359D02*
X460322Y470359D01*
X458322D01*
X457323Y469359D01*
Y465361D01*
X458322Y464361D01*
X460322D01*
X461321Y465361D01*
X463321Y464361D02*
X465320D01*
X464320D01*
Y470359D01*
X463321Y469359D01*
X472318Y470359D02*
X468319D01*
Y467360D01*
X470318Y468360D01*
X471318D01*
X472318Y467360D01*
Y465361D01*
X471318Y464361D01*
X469319D01*
X468319Y465361D01*
X413061Y466819D02*
X412062Y467819D01*
X410062D01*
X409062Y466819D01*
Y462821D01*
X410062Y461821D01*
X412062D01*
X413061Y462821D01*
X415061Y461821D02*
X417060D01*
X416060D01*
Y467819D01*
X415061Y466819D01*
X423058Y461821D02*
Y467819D01*
X420059Y464820D01*
X424058D01*
X376420Y559811D02*
X375420Y558811D01*
Y556812D01*
X376420Y555812D01*
X380419D01*
X381418Y556812D01*
Y558811D01*
X380419Y559811D01*
X381418Y561810D02*
Y563810D01*
Y562810D01*
X375420D01*
X376420Y561810D01*
X375420Y566809D02*
Y570808D01*
X376420D01*
X380419Y566809D01*
X381418D01*
X433611Y590591D02*
X432611Y589591D01*
Y587592D01*
X433611Y586592D01*
X437609D01*
X438609Y587592D01*
Y589591D01*
X437609Y590591D01*
X438609Y592590D02*
Y594590D01*
Y593590D01*
X432611D01*
X433611Y592590D01*
X438609Y597589D02*
Y599588D01*
Y598588D01*
X432611D01*
X433611Y597589D01*
X427031Y609059D02*
X426031Y610059D01*
X424032D01*
X423032Y609059D01*
Y605061D01*
X424032Y604061D01*
X426031D01*
X427031Y605061D01*
X429030Y604061D02*
X431030D01*
X430030D01*
Y610059D01*
X429030Y609059D01*
X434029D02*
X435028Y610059D01*
X437028D01*
X438028Y609059D01*
Y605061D01*
X437028Y604061D01*
X435028D01*
X434029Y605061D01*
Y609059D01*
X519336Y540020D02*
X518336Y539021D01*
Y537021D01*
X519336Y536022D01*
X523334D01*
X524334Y537021D01*
Y539021D01*
X523334Y540020D01*
Y542020D02*
X524334Y543019D01*
Y545019D01*
X523334Y546018D01*
X519336D01*
X518336Y545019D01*
Y543019D01*
X519336Y542020D01*
X520335D01*
X521335Y543019D01*
Y546018D01*
X362491Y565420D02*
X361491Y564421D01*
Y562421D01*
X362491Y561422D01*
X366489D01*
X367489Y562421D01*
Y564421D01*
X366489Y565420D01*
X362491Y567420D02*
X361491Y568419D01*
Y570419D01*
X362491Y571418D01*
X363490D01*
X364490Y570419D01*
X365490Y571418D01*
X366489D01*
X367489Y570419D01*
Y568419D01*
X366489Y567420D01*
X365490D01*
X364490Y568419D01*
X363490Y567420D01*
X362491D01*
X364490Y568419D02*
Y570419D01*
X484140Y631919D02*
X483141Y632919D01*
X481141D01*
X480142Y631919D01*
Y627921D01*
X481141Y626921D01*
X483141D01*
X484140Y627921D01*
X486140Y631919D02*
X487139Y632919D01*
X489139D01*
X490138Y631919D01*
Y630920D01*
X489139Y629920D01*
X488139D01*
X489139D01*
X490138Y628920D01*
Y627921D01*
X489139Y626921D01*
X487139D01*
X486140Y627921D01*
X519700Y664939D02*
X518701Y665939D01*
X516701D01*
X515702Y664939D01*
Y660941D01*
X516701Y659941D01*
X518701D01*
X519700Y660941D01*
X525698Y659941D02*
X521700D01*
X525698Y663940D01*
Y664939D01*
X524699Y665939D01*
X522699D01*
X521700Y664939D01*
D19*
X529590Y624299D02*
X528590Y625299D01*
X526591D01*
X525591Y624299D01*
Y623300D01*
X526591Y622300D01*
X528590D01*
X529590Y621300D01*
Y620301D01*
X528590Y619301D01*
X526591D01*
X525591Y620301D01*
X531589Y619301D02*
X533589D01*
X532589D01*
Y625299D01*
X531589Y624299D01*
M02*
