G04*
G04 #@! TF.GenerationSoftware,Altium Limited,Altium Designer,24.4.1 (13)*
G04*
G04 Layer_Color=32896*
%FSLAX44Y44*%
%MOMM*%
G71*
G04*
G04 #@! TF.SameCoordinates,A3252435-666A-4F3B-8FA1-24D8921DAC19*
G04*
G04*
G04 #@! TF.FilePolarity,Positive*
G04*
G01*
G75*
%ADD11C,0.2500*%
%ADD12C,0.2000*%
%ADD15C,0.1524*%
%ADD18C,0.1100*%
D11*
X105390Y258910D02*
G03*
X105390Y258910I-1250J0D01*
G01*
X43160Y256370D02*
G03*
X43160Y256370I-1250J0D01*
G01*
X17760Y297350D02*
G03*
X17760Y297350I-1250J0D01*
G01*
X73640Y258910D02*
G03*
X73640Y258910I-1250J0D01*
G01*
X134600D02*
G03*
X134600Y258910I-1250J0D01*
G01*
D12*
X489450Y195570D02*
G03*
X489450Y195570I-500J0D01*
G01*
X114890Y216910D02*
Y247910D01*
X93390Y216910D02*
Y247910D01*
X52660Y214370D02*
Y245370D01*
X31160Y214370D02*
Y245370D01*
X5760Y308350D02*
Y339350D01*
X27260Y308350D02*
Y339350D01*
X83140Y216910D02*
Y247910D01*
X61640Y216910D02*
Y247910D01*
X144100Y216910D02*
Y247910D01*
X122600Y216910D02*
Y247910D01*
D15*
X12761Y427988D02*
Y661668D01*
X37145D01*
Y427988D02*
Y661668D01*
X12761Y427988D02*
X37145D01*
X608838Y419100D02*
X633222D01*
X608838Y185420D02*
Y419100D01*
Y185420D02*
X633222D01*
Y419100D01*
D18*
X65892Y201471D02*
Y207469D01*
X68891D01*
X69891Y206469D01*
Y202471D01*
X68891Y201471D01*
X65892D01*
X71890Y207469D02*
X73889D01*
X72890D01*
Y201471D01*
X71890Y202471D01*
X76888Y207469D02*
X78888D01*
X77888D01*
Y201471D01*
X76888Y202471D01*
X125852Y200201D02*
Y206199D01*
X128851D01*
X129851Y205199D01*
Y201201D01*
X128851Y200201D01*
X125852D01*
X131851Y206199D02*
X133850D01*
X132850D01*
Y200201D01*
X131851Y201201D01*
X136849D02*
X137849Y200201D01*
X139848D01*
X140848Y201201D01*
Y205199D01*
X139848Y206199D01*
X137849D01*
X136849Y205199D01*
Y201201D01*
X100412Y200201D02*
Y206199D01*
X103411D01*
X104410Y205199D01*
Y201201D01*
X103411Y200201D01*
X100412D01*
X106410Y205199D02*
X107409Y206199D01*
X109409D01*
X110408Y205199D01*
Y201201D01*
X109409Y200201D01*
X107409D01*
X106410Y201201D01*
Y202200D01*
X107409Y203200D01*
X110408D01*
X21508Y354789D02*
Y348791D01*
X18509D01*
X17510Y349791D01*
Y353789D01*
X18509Y354789D01*
X21508D01*
X15510Y353789D02*
X14511Y354789D01*
X12511D01*
X11512Y353789D01*
Y352790D01*
X12511Y351790D01*
X11512Y350790D01*
Y349791D01*
X12511Y348791D01*
X14511D01*
X15510Y349791D01*
Y350790D01*
X14511Y351790D01*
X15510Y352790D01*
Y353789D01*
X14511Y351790D02*
X12511D01*
X36912Y198931D02*
Y204929D01*
X39911D01*
X40910Y203929D01*
Y199931D01*
X39911Y198931D01*
X36912D01*
X42910D02*
X46908D01*
Y199931D01*
X42910Y203929D01*
Y204929D01*
X637081Y249879D02*
Y251878D01*
Y250879D01*
X642079D01*
X643079Y251878D01*
Y252878D01*
X642079Y253878D01*
X643079Y247880D02*
Y245880D01*
Y246880D01*
X637081D01*
X638081Y247880D01*
X643079Y239882D02*
X637081D01*
X640080Y242881D01*
Y238882D01*
X46679Y672289D02*
X48678D01*
X47678D01*
Y667291D01*
X48678Y666291D01*
X49678D01*
X50677Y667291D01*
X44679Y666291D02*
X42680D01*
X43680D01*
Y672289D01*
X44679Y671289D01*
X39681D02*
X38681Y672289D01*
X36682D01*
X35682Y671289D01*
Y670290D01*
X36682Y669290D01*
X37682D01*
X36682D01*
X35682Y668290D01*
Y667291D01*
X36682Y666291D01*
X38681D01*
X39681Y667291D01*
X175719Y509687D02*
X169721D01*
Y506688D01*
X170721Y505689D01*
X172720D01*
X173720Y506688D01*
Y509687D01*
Y507688D02*
X175719Y505689D01*
Y499691D02*
Y503689D01*
X171720Y499691D01*
X170721D01*
X169721Y500690D01*
Y502690D01*
X170721Y503689D01*
X175719Y493693D02*
Y497691D01*
X171720Y493693D01*
X170721D01*
X169721Y494692D01*
Y496692D01*
X170721Y497691D01*
X517079Y192581D02*
Y198579D01*
X514080D01*
X513080Y197579D01*
Y195580D01*
X514080Y194580D01*
X517079D01*
X515079D02*
X513080Y192581D01*
X511081D02*
X509081D01*
X510081D01*
Y198579D01*
X511081Y197579D01*
X475521Y180340D02*
X474521Y181340D01*
Y183339D01*
X475521Y184339D01*
X479519D01*
X480519Y183339D01*
Y181340D01*
X479519Y180340D01*
X480519Y178341D02*
Y176341D01*
Y177341D01*
X474521D01*
X475521Y178341D01*
M02*
