G04*
G04 #@! TF.GenerationSoftware,Altium Limited,Altium Designer,24.4.1 (13)*
G04*
G04 Layer_Color=8421504*
%FSLAX44Y44*%
%MOMM*%
G71*
G04*
G04 #@! TF.SameCoordinates,A3252435-666A-4F3B-8FA1-24D8921DAC19*
G04*
G04*
G04 #@! TF.FilePolarity,Positive*
G04*
G01*
G75*
%ADD20R,1.5179X1.5179*%
%ADD21R,1.5179X1.5179*%
%ADD22R,1.6128X1.6128*%
%ADD23R,0.9300X0.9800*%
%ADD24R,0.6000X0.7500*%
%ADD25R,0.9500X0.9000*%
%ADD26R,0.7200X0.7600*%
%ADD27R,0.9800X0.9300*%
%ADD28R,0.7500X0.3000*%
%ADD29R,1.7500X1.9000*%
%ADD30R,0.6200X0.6000*%
%ADD31R,1.0000X0.8500*%
%ADD32R,0.7000X1.2000*%
%ADD33R,1.0000X1.2000*%
%ADD34R,1.0000X0.8000*%
%ADD35R,1.0000X2.8000*%
%ADD36R,1.3000X1.9000*%
%ADD37R,0.1925X0.9889*%
G04:AMPARAMS|DCode=38|XSize=0.9889mm|YSize=0.1925mm|CornerRadius=0.0962mm|HoleSize=0mm|Usage=FLASHONLY|Rotation=270.000|XOffset=0mm|YOffset=0mm|HoleType=Round|Shape=RoundedRectangle|*
%AMROUNDEDRECTD38*
21,1,0.9889,0.0000,0,0,270.0*
21,1,0.7964,0.1925,0,0,270.0*
1,1,0.1925,0.0000,-0.3982*
1,1,0.1925,0.0000,0.3982*
1,1,0.1925,0.0000,0.3982*
1,1,0.1925,0.0000,-0.3982*
%
%ADD38ROUNDEDRECTD38*%
G04:AMPARAMS|DCode=39|XSize=0.1925mm|YSize=0.9889mm|CornerRadius=0.0962mm|HoleSize=0mm|Usage=FLASHONLY|Rotation=270.000|XOffset=0mm|YOffset=0mm|HoleType=Round|Shape=RoundedRectangle|*
%AMROUNDEDRECTD39*
21,1,0.1925,0.7964,0,0,270.0*
21,1,0.0000,0.9889,0,0,270.0*
1,1,0.1925,-0.3982,0.0000*
1,1,0.1925,-0.3982,0.0000*
1,1,0.1925,0.3982,0.0000*
1,1,0.1925,0.3982,0.0000*
%
%ADD39ROUNDEDRECTD39*%
%ADD40R,1.1500X1.4000*%
%ADD41R,0.5000X0.4000*%
%ADD42R,0.5000X0.3000*%
%ADD43R,0.6000X1.1500*%
%ADD44R,0.3000X1.1500*%
%ADD45R,1.5000X1.5000*%
G04:AMPARAMS|DCode=46|XSize=0.2425mm|YSize=0.8937mm|CornerRadius=0.1212mm|HoleSize=0mm|Usage=FLASHONLY|Rotation=90.000|XOffset=0mm|YOffset=0mm|HoleType=Round|Shape=RoundedRectangle|*
%AMROUNDEDRECTD46*
21,1,0.2425,0.6512,0,0,90.0*
21,1,0.0000,0.8937,0,0,90.0*
1,1,0.2425,0.3256,0.0000*
1,1,0.2425,0.3256,0.0000*
1,1,0.2425,-0.3256,0.0000*
1,1,0.2425,-0.3256,0.0000*
%
%ADD46ROUNDEDRECTD46*%
G04:AMPARAMS|DCode=47|XSize=0.8937mm|YSize=0.2425mm|CornerRadius=0.1212mm|HoleSize=0mm|Usage=FLASHONLY|Rotation=90.000|XOffset=0mm|YOffset=0mm|HoleType=Round|Shape=RoundedRectangle|*
%AMROUNDEDRECTD47*
21,1,0.8937,0.0000,0,0,90.0*
21,1,0.6512,0.2425,0,0,90.0*
1,1,0.2425,0.0000,0.3256*
1,1,0.2425,0.0000,-0.3256*
1,1,0.2425,0.0000,-0.3256*
1,1,0.2425,0.0000,0.3256*
%
%ADD47ROUNDEDRECTD47*%
%ADD48R,0.2425X0.8937*%
%ADD49R,0.7600X0.7200*%
%ADD50R,0.5000X0.4750*%
%ADD51R,0.9000X0.6500*%
%ADD52R,0.9500X1.0000*%
%ADD53R,0.7500X0.6000*%
%ADD54R,0.9000X1.4000*%
%ADD55R,1.1000X1.4000*%
%ADD56R,0.9400X0.7300*%
%ADD57R,1.3061X1.0582*%
%ADD58R,1.1051X1.0062*%
%ADD59R,0.9500X0.8000*%
%ADD60R,1.3000X1.4000*%
%ADD61R,0.6153X0.5725*%
%ADD62R,0.7154X0.6725*%
%ADD63R,0.6725X0.7154*%
%ADD64R,0.4750X0.5000*%
%ADD65R,0.6725X0.7653*%
%ADD66R,1.2000X1.4000*%
%ADD67R,1.0062X1.1051*%
%ADD68R,0.8000X0.9500*%
%ADD69R,1.4000X0.9000*%
%ADD70R,1.4000X1.1000*%
%ADD71R,0.7000X0.6100*%
%ADD72R,0.6100X0.7000*%
D20*
X456340Y539599D02*
D03*
X456340Y518540D02*
D03*
X435281Y539600D02*
D03*
D21*
Y518540D02*
D03*
D22*
X233680Y450850D02*
D03*
D23*
X76050Y331470D02*
D03*
X89050D02*
D03*
X445620Y605790D02*
D03*
X458620D02*
D03*
D24*
X596900Y590730D02*
D03*
Y579730D02*
D03*
D25*
X577850Y592850D02*
D03*
Y577850D02*
D03*
D26*
X499350Y684470D02*
D03*
Y674670D02*
D03*
X471170Y652600D02*
D03*
Y642800D02*
D03*
X378460Y549730D02*
D03*
X176530Y415470D02*
D03*
Y425270D02*
D03*
X149860Y425270D02*
D03*
Y415470D02*
D03*
X510540Y515800D02*
D03*
Y525600D02*
D03*
X546141Y491150D02*
D03*
Y500950D02*
D03*
X261620Y385720D02*
D03*
Y375920D02*
D03*
X247650D02*
D03*
Y385720D02*
D03*
X242570Y494210D02*
D03*
Y504010D02*
D03*
D27*
X512050Y673220D02*
D03*
Y686220D02*
D03*
X483870Y654200D02*
D03*
Y641200D02*
D03*
X364490Y552600D02*
D03*
Y539600D02*
D03*
X523240Y514200D02*
D03*
Y527200D02*
D03*
D28*
X487219Y669576D02*
D03*
Y674576D02*
D03*
Y679576D02*
D03*
Y684576D02*
D03*
X457219D02*
D03*
Y679576D02*
D03*
Y674576D02*
D03*
Y669576D02*
D03*
D29*
X472219Y677076D02*
D03*
D30*
X446666Y687870D02*
D03*
Y678670D02*
D03*
X509270Y461490D02*
D03*
Y470690D02*
D03*
Y419580D02*
D03*
Y428780D02*
D03*
D31*
X457200Y653930D02*
D03*
Y638930D02*
D03*
X91440Y377190D02*
D03*
Y392190D02*
D03*
X142240Y350400D02*
D03*
Y335400D02*
D03*
X574040Y204350D02*
D03*
Y189350D02*
D03*
X379730Y183120D02*
D03*
Y198120D02*
D03*
X349250Y198000D02*
D03*
Y183000D02*
D03*
X417830Y206890D02*
D03*
Y191890D02*
D03*
D32*
X102680Y312880D02*
D03*
X91680D02*
D03*
X80680D02*
D03*
X69680D02*
D03*
X58680D02*
D03*
X47680D02*
D03*
X36680D02*
D03*
X25680D02*
D03*
X16180D02*
D03*
D33*
X118180D02*
D03*
X6680Y269880D02*
D03*
D34*
Y207890D02*
D03*
D35*
Y166390D02*
D03*
D36*
X141680Y161880D02*
D03*
D37*
X483311Y573479D02*
D03*
D38*
X478311D02*
D03*
X473311D02*
D03*
X468311D02*
D03*
X463311D02*
D03*
X458311D02*
D03*
X453311D02*
D03*
X448311D02*
D03*
X443311D02*
D03*
X438311D02*
D03*
X433311D02*
D03*
X428311D02*
D03*
X423311D02*
D03*
X418311D02*
D03*
X413311D02*
D03*
X408311D02*
D03*
Y484661D02*
D03*
X413311D02*
D03*
X418311D02*
D03*
X423311D02*
D03*
X428311D02*
D03*
X433311D02*
D03*
X438311D02*
D03*
X443311D02*
D03*
X448311D02*
D03*
X453311D02*
D03*
X458311D02*
D03*
X463311D02*
D03*
X468311D02*
D03*
X478311D02*
D03*
X483311D02*
D03*
X473311D02*
D03*
D39*
X401401Y566570D02*
D03*
Y561570D02*
D03*
Y556570D02*
D03*
Y551570D02*
D03*
Y546570D02*
D03*
Y541570D02*
D03*
Y536570D02*
D03*
Y531570D02*
D03*
Y526570D02*
D03*
Y521570D02*
D03*
Y516570D02*
D03*
Y511570D02*
D03*
Y506570D02*
D03*
Y501570D02*
D03*
Y496570D02*
D03*
Y491570D02*
D03*
X490220D02*
D03*
Y496570D02*
D03*
Y501570D02*
D03*
Y506570D02*
D03*
Y511570D02*
D03*
Y516570D02*
D03*
Y521570D02*
D03*
Y526570D02*
D03*
Y531570D02*
D03*
Y536570D02*
D03*
Y541570D02*
D03*
Y546570D02*
D03*
Y551570D02*
D03*
Y556570D02*
D03*
Y561570D02*
D03*
Y566570D02*
D03*
D40*
X540820Y439850D02*
D03*
Y461850D02*
D03*
X524810D02*
D03*
Y439850D02*
D03*
D41*
X268130Y598010D02*
D03*
Y583010D02*
D03*
X278130D02*
D03*
Y598010D02*
D03*
D42*
X268130Y593010D02*
D03*
Y588010D02*
D03*
X278130D02*
D03*
Y593010D02*
D03*
D43*
X464570Y228210D02*
D03*
X472570D02*
D03*
X520570D02*
D03*
X528570D02*
D03*
D44*
X484070D02*
D03*
X499070D02*
D03*
X509070D02*
D03*
X514070D02*
D03*
X489070D02*
D03*
X479070D02*
D03*
X494070D02*
D03*
X504070D02*
D03*
D45*
X445370Y222460D02*
D03*
X547770D02*
D03*
X445370Y183160D02*
D03*
X547770D02*
D03*
D46*
X213795Y438350D02*
D03*
Y443350D02*
D03*
Y448350D02*
D03*
Y453350D02*
D03*
Y458350D02*
D03*
Y463350D02*
D03*
X253565D02*
D03*
Y458350D02*
D03*
Y453350D02*
D03*
Y448350D02*
D03*
Y443350D02*
D03*
Y438350D02*
D03*
D47*
X221180Y470735D02*
D03*
X226180D02*
D03*
X231180D02*
D03*
X236180D02*
D03*
X241180D02*
D03*
X246180D02*
D03*
Y430965D02*
D03*
X241180D02*
D03*
X236180D02*
D03*
X231180D02*
D03*
X226180D02*
D03*
D48*
X221180D02*
D03*
D49*
X77650Y344170D02*
D03*
X87450D02*
D03*
X378460Y539930D02*
D03*
X199390Y415290D02*
D03*
X189590D02*
D03*
X401320Y466090D02*
D03*
X391520D02*
D03*
X490081Y466840D02*
D03*
X480281D02*
D03*
X447220Y591820D02*
D03*
X457020Y591820D02*
D03*
D50*
X118110Y340320D02*
D03*
Y350560D02*
D03*
X105410Y340320D02*
D03*
Y350560D02*
D03*
X419100Y455975D02*
D03*
Y445725D02*
D03*
X434340D02*
D03*
Y455975D02*
D03*
X35560Y341670D02*
D03*
Y331430D02*
D03*
X22860Y342940D02*
D03*
Y332700D02*
D03*
X138430Y425490D02*
D03*
Y415250D02*
D03*
X203200Y502920D02*
D03*
Y513160D02*
D03*
D51*
X273050Y453390D02*
D03*
Y467890D02*
D03*
X599440Y227700D02*
D03*
Y242200D02*
D03*
D52*
X301880Y377190D02*
D03*
X317880D02*
D03*
D53*
X304380Y393700D02*
D03*
X315380D02*
D03*
D54*
X507340Y255700D02*
D03*
X488340Y277700D02*
D03*
Y255700D02*
D03*
X611530Y482170D02*
D03*
Y460170D02*
D03*
X630530D02*
D03*
D55*
X505340Y277700D02*
D03*
X628530Y482170D02*
D03*
D56*
X163830Y412000D02*
D03*
Y426200D02*
D03*
D57*
X182739Y378460D02*
D03*
X198261D02*
D03*
D58*
X198776Y398780D02*
D03*
X184764D02*
D03*
D59*
X562610Y407160D02*
D03*
Y391160D02*
D03*
X561340Y273940D02*
D03*
Y289940D02*
D03*
X599440Y195200D02*
D03*
Y211200D02*
D03*
D60*
X549170Y351790D02*
D03*
X520170D02*
D03*
X549170Y326390D02*
D03*
X520170D02*
D03*
D61*
X562610Y375920D02*
D03*
X554039D02*
D03*
X561816Y304800D02*
D03*
X553244D02*
D03*
D62*
X434634Y622300D02*
D03*
X444206D02*
D03*
D63*
X530901Y499566D02*
D03*
Y489994D02*
D03*
D64*
X161210Y459740D02*
D03*
X171450D02*
D03*
X369525Y485140D02*
D03*
X379775D02*
D03*
X238720Y525780D02*
D03*
X248960D02*
D03*
X370795Y510540D02*
D03*
X381045D02*
D03*
X370795Y497840D02*
D03*
X381045D02*
D03*
X301030Y474980D02*
D03*
X290790D02*
D03*
X205660Y529630D02*
D03*
X215900D02*
D03*
D65*
X288290Y425450D02*
D03*
Y434521D02*
D03*
Y448854D02*
D03*
Y457926D02*
D03*
D66*
X328040Y424610D02*
D03*
Y446610D02*
D03*
X312040D02*
D03*
Y424610D02*
D03*
D67*
X259080Y497184D02*
D03*
Y511196D02*
D03*
D68*
X337820Y629920D02*
D03*
X321820D02*
D03*
D69*
X635840Y559410D02*
D03*
Y540410D02*
D03*
X613840D02*
D03*
D70*
Y557410D02*
D03*
D71*
X588430Y165100D02*
D03*
X577430D02*
D03*
D72*
X621030Y430110D02*
D03*
Y441110D02*
D03*
M02*
