G04*
G04 #@! TF.GenerationSoftware,Altium Limited,Altium Designer,24.4.1 (13)*
G04*
G04 Layer_Color=0*
%FSLAX44Y44*%
%MOMM*%
G71*
G04*
G04 #@! TF.SameCoordinates,A3252435-666A-4F3B-8FA1-24D8921DAC19*
G04*
G04*
G04 #@! TF.FilePolarity,Positive*
G04*
G01*
G75*
%ADD10C,0.1000*%
D10*
X445811Y524070D02*
Y534070D01*
X440811Y529070D02*
X450811D01*
X228680Y450850D02*
X238680D01*
X233680Y445850D02*
Y455850D01*
X190500Y373460D02*
Y383460D01*
X185500Y378460D02*
X195500D01*
X186770Y398780D02*
X196770D01*
X191770Y393780D02*
Y403780D01*
X529670Y351790D02*
X539670D01*
X534670Y346790D02*
Y356790D01*
X529670Y326390D02*
X539670D01*
X534670Y321390D02*
Y331390D01*
X553324Y375920D02*
X563324D01*
X558324Y370920D02*
Y380920D01*
X552530Y304800D02*
X562530D01*
X557530Y299800D02*
Y309800D01*
X434420Y622300D02*
X444420D01*
X439420Y617300D02*
Y627300D01*
X530901Y489780D02*
Y499780D01*
X525901Y494780D02*
X535901D01*
X288290Y424986D02*
Y434986D01*
X283290Y429986D02*
X293290D01*
X283290Y453390D02*
X293290D01*
X288290Y448390D02*
Y458390D01*
X259080Y499190D02*
Y509190D01*
X254080Y504190D02*
X264080D01*
M02*
