G04*
G04 #@! TF.GenerationSoftware,Altium Limited,Altium Designer,24.4.1 (13)*
G04*
G04 Layer_Color=16711935*
%FSLAX44Y44*%
%MOMM*%
G71*
G04*
G04 #@! TF.SameCoordinates,A3252435-666A-4F3B-8FA1-24D8921DAC19*
G04*
G04*
G04 #@! TF.FilePolarity,Positive*
G04*
G01*
G75*
%ADD12C,0.2000*%
G36*
X450443Y528220D02*
X446744D01*
X446736D01*
X446711D01*
X446661D01*
X446611D01*
X446536Y528212D01*
X446461D01*
X446369Y528204D01*
X446278D01*
X446078Y528187D01*
X445869Y528154D01*
X445678Y528120D01*
X445594Y528095D01*
X445511Y528070D01*
X445503D01*
X445495Y528062D01*
X445445Y528037D01*
X445378Y528004D01*
X445286Y527945D01*
X445195Y527870D01*
X445086Y527779D01*
X444995Y527670D01*
X444903Y527537D01*
Y527529D01*
X444895Y527520D01*
X444870Y527470D01*
X444836Y527387D01*
X444803Y527279D01*
X444761Y527146D01*
X444728Y526987D01*
X444703Y526812D01*
X444695Y526612D01*
Y526521D01*
X444703Y526462D01*
X444711Y526387D01*
X444720Y526296D01*
X444728Y526196D01*
X444745Y526096D01*
X444795Y525879D01*
X444870Y525654D01*
X444920Y525554D01*
X444978Y525454D01*
X445036Y525363D01*
X445111Y525279D01*
X445120Y525271D01*
X445136Y525263D01*
X445161Y525246D01*
X445195Y525213D01*
X445245Y525188D01*
X445311Y525154D01*
X445386Y525113D01*
X445478Y525079D01*
X445578Y525038D01*
X445695Y525004D01*
X445828Y524971D01*
X445978Y524938D01*
X446144Y524913D01*
X446328Y524896D01*
X446528Y524888D01*
X446744Y524879D01*
X450443D01*
Y524030D01*
X446736D01*
X446728D01*
X446694D01*
X446644D01*
X446578D01*
X446494Y524038D01*
X446403D01*
X446294Y524046D01*
X446186Y524055D01*
X445936Y524088D01*
X445678Y524121D01*
X445428Y524180D01*
X445311Y524213D01*
X445203Y524255D01*
X445195D01*
X445178Y524263D01*
X445145Y524280D01*
X445111Y524296D01*
X445061Y524321D01*
X445003Y524355D01*
X444878Y524438D01*
X444728Y524546D01*
X444578Y524679D01*
X444420Y524846D01*
X444345Y524946D01*
X444278Y525046D01*
Y525054D01*
X444262Y525071D01*
X444245Y525104D01*
X444220Y525146D01*
X444195Y525204D01*
X444170Y525271D01*
X444137Y525354D01*
X444103Y525446D01*
X444070Y525546D01*
X444037Y525663D01*
X444012Y525779D01*
X443987Y525913D01*
X443962Y526054D01*
X443945Y526204D01*
X443937Y526371D01*
X443928Y526537D01*
Y526621D01*
X443937Y526687D01*
Y526762D01*
X443945Y526854D01*
X443953Y526954D01*
X443970Y527062D01*
X444003Y527295D01*
X444062Y527537D01*
X444137Y527787D01*
X444237Y528012D01*
Y528020D01*
X444253Y528037D01*
X444270Y528070D01*
X444295Y528104D01*
X444361Y528204D01*
X444462Y528329D01*
X444586Y528462D01*
X444745Y528595D01*
X444920Y528720D01*
X445128Y528828D01*
X445136D01*
X445153Y528837D01*
X445186Y528853D01*
X445236Y528862D01*
X445295Y528887D01*
X445370Y528903D01*
X445453Y528928D01*
X445553Y528945D01*
X445661Y528970D01*
X445778Y528995D01*
X445911Y529012D01*
X446053Y529028D01*
X446211Y529045D01*
X446378Y529062D01*
X446553Y529070D01*
X446736D01*
X450443D01*
Y528220D01*
D02*
G37*
G36*
X445770Y522105D02*
X445761D01*
X445745Y522097D01*
X445711D01*
X445670Y522089D01*
X445620Y522072D01*
X445561Y522055D01*
X445436Y522022D01*
X445286Y521964D01*
X445136Y521889D01*
X444995Y521797D01*
X444870Y521689D01*
X444861Y521672D01*
X444828Y521630D01*
X444778Y521555D01*
X444728Y521464D01*
X444670Y521347D01*
X444628Y521205D01*
X444595Y521055D01*
X444578Y520880D01*
Y520822D01*
X444586Y520780D01*
X444595Y520739D01*
X444603Y520681D01*
X444628Y520547D01*
X444678Y520389D01*
X444761Y520231D01*
X444803Y520147D01*
X444861Y520064D01*
X444928Y519989D01*
X445003Y519914D01*
X445011Y519906D01*
X445020Y519897D01*
X445045Y519881D01*
X445078Y519856D01*
X445120Y519822D01*
X445178Y519789D01*
X445236Y519756D01*
X445303Y519714D01*
X445470Y519647D01*
X445661Y519581D01*
X445886Y519539D01*
X446003Y519523D01*
X446136D01*
X446144D01*
X446169D01*
X446203D01*
X446244Y519531D01*
X446303D01*
X446369Y519539D01*
X446519Y519572D01*
X446694Y519614D01*
X446869Y519681D01*
X447044Y519772D01*
X447127Y519831D01*
X447202Y519897D01*
X447211D01*
X447219Y519914D01*
X447236Y519939D01*
X447261Y519964D01*
X447327Y520047D01*
X447402Y520164D01*
X447469Y520306D01*
X447536Y520472D01*
X447577Y520672D01*
X447594Y520772D01*
Y520955D01*
X447586Y521022D01*
X447569Y521122D01*
X447552Y521222D01*
X447519Y521339D01*
X447469Y521464D01*
X447411Y521580D01*
X447402Y521597D01*
X447377Y521630D01*
X447344Y521680D01*
X447286Y521747D01*
X447228Y521822D01*
X447144Y521905D01*
X447061Y521980D01*
X446961Y522047D01*
X447069Y522788D01*
X450360Y522172D01*
Y518989D01*
X449610D01*
Y521547D01*
X447877Y521889D01*
X447886Y521880D01*
X447894Y521864D01*
X447919Y521830D01*
X447944Y521788D01*
X447969Y521739D01*
X448011Y521672D01*
X448044Y521605D01*
X448086Y521522D01*
X448161Y521339D01*
X448219Y521139D01*
X448269Y520914D01*
X448277Y520797D01*
X448285Y520681D01*
Y520597D01*
X448277Y520539D01*
X448269Y520472D01*
X448252Y520389D01*
X448236Y520297D01*
X448210Y520189D01*
X448186Y520081D01*
X448144Y519972D01*
X448094Y519856D01*
X448044Y519731D01*
X447969Y519614D01*
X447894Y519497D01*
X447802Y519381D01*
X447702Y519272D01*
X447694Y519264D01*
X447677Y519248D01*
X447644Y519222D01*
X447594Y519181D01*
X447536Y519139D01*
X447469Y519089D01*
X447386Y519031D01*
X447294Y518981D01*
X447194Y518923D01*
X447077Y518873D01*
X446961Y518823D01*
X446828Y518781D01*
X446678Y518739D01*
X446528Y518714D01*
X446369Y518698D01*
X446203Y518689D01*
X446194D01*
X446161D01*
X446119D01*
X446061Y518698D01*
X445986Y518706D01*
X445895Y518714D01*
X445794Y518731D01*
X445695Y518756D01*
X445453Y518814D01*
X445328Y518856D01*
X445203Y518906D01*
X445078Y518964D01*
X444953Y519031D01*
X444828Y519106D01*
X444703Y519198D01*
X444695Y519206D01*
X444670Y519222D01*
X444628Y519264D01*
X444586Y519314D01*
X444520Y519372D01*
X444462Y519448D01*
X444386Y519539D01*
X444320Y519639D01*
X444245Y519756D01*
X444170Y519881D01*
X444112Y520014D01*
X444053Y520164D01*
X444003Y520331D01*
X443962Y520505D01*
X443937Y520689D01*
X443928Y520880D01*
Y520964D01*
X443937Y521022D01*
X443945Y521097D01*
X443953Y521189D01*
X443970Y521280D01*
X443987Y521389D01*
X444045Y521614D01*
X444087Y521730D01*
X444137Y521847D01*
X444187Y521972D01*
X444253Y522089D01*
X444328Y522197D01*
X444412Y522305D01*
X444420Y522313D01*
X444436Y522330D01*
X444462Y522355D01*
X444503Y522388D01*
X444553Y522438D01*
X444612Y522480D01*
X444678Y522538D01*
X444761Y522588D01*
X444845Y522647D01*
X444945Y522697D01*
X445053Y522755D01*
X445170Y522797D01*
X445295Y522847D01*
X445420Y522880D01*
X445561Y522913D01*
X445711Y522930D01*
X445770Y522105D01*
D02*
G37*
G36*
X232039Y460289D02*
X233572D01*
Y459506D01*
X232039D01*
Y456723D01*
X231314D01*
X227165Y459648D01*
Y460289D01*
X231314D01*
Y461156D01*
X232039D01*
Y460289D01*
D02*
G37*
G36*
X231114Y455882D02*
X231206D01*
X231314Y455874D01*
X231422Y455865D01*
X231672Y455832D01*
X231931Y455799D01*
X232181Y455740D01*
X232297Y455707D01*
X232405Y455665D01*
X232414D01*
X232430Y455657D01*
X232464Y455640D01*
X232497Y455624D01*
X232547Y455599D01*
X232605Y455565D01*
X232730Y455482D01*
X232880Y455374D01*
X233030Y455240D01*
X233188Y455074D01*
X233263Y454974D01*
X233330Y454874D01*
Y454865D01*
X233347Y454849D01*
X233363Y454815D01*
X233389Y454774D01*
X233414Y454715D01*
X233438Y454649D01*
X233472Y454566D01*
X233505Y454474D01*
X233538Y454374D01*
X233572Y454257D01*
X233597Y454141D01*
X233622Y454007D01*
X233647Y453866D01*
X233663Y453716D01*
X233672Y453549D01*
X233680Y453383D01*
Y453299D01*
X233672Y453233D01*
Y453158D01*
X233663Y453066D01*
X233655Y452966D01*
X233638Y452858D01*
X233605Y452624D01*
X233547Y452383D01*
X233472Y452133D01*
X233372Y451908D01*
Y451900D01*
X233355Y451883D01*
X233339Y451850D01*
X233314Y451816D01*
X233247Y451716D01*
X233147Y451591D01*
X233022Y451458D01*
X232864Y451325D01*
X232689Y451200D01*
X232480Y451091D01*
X232472D01*
X232455Y451083D01*
X232422Y451067D01*
X232372Y451058D01*
X232314Y451033D01*
X232239Y451017D01*
X232155Y450992D01*
X232055Y450975D01*
X231947Y450950D01*
X231831Y450925D01*
X231697Y450908D01*
X231556Y450891D01*
X231397Y450875D01*
X231231Y450858D01*
X231056Y450850D01*
X230872D01*
X227165D01*
Y451700D01*
X230864D01*
X230872D01*
X230898D01*
X230947D01*
X230997D01*
X231072Y451708D01*
X231147D01*
X231239Y451716D01*
X231331D01*
X231531Y451733D01*
X231739Y451766D01*
X231931Y451800D01*
X232014Y451825D01*
X232097Y451850D01*
X232106D01*
X232114Y451858D01*
X232164Y451883D01*
X232230Y451916D01*
X232322Y451975D01*
X232414Y452050D01*
X232522Y452141D01*
X232614Y452249D01*
X232705Y452383D01*
Y452391D01*
X232714Y452399D01*
X232739Y452449D01*
X232772Y452533D01*
X232805Y452641D01*
X232847Y452774D01*
X232880Y452933D01*
X232905Y453108D01*
X232914Y453308D01*
Y453399D01*
X232905Y453457D01*
X232897Y453532D01*
X232889Y453624D01*
X232880Y453724D01*
X232864Y453824D01*
X232814Y454041D01*
X232739Y454266D01*
X232689Y454366D01*
X232630Y454466D01*
X232572Y454557D01*
X232497Y454641D01*
X232489Y454649D01*
X232472Y454657D01*
X232447Y454674D01*
X232414Y454707D01*
X232364Y454732D01*
X232297Y454766D01*
X232222Y454807D01*
X232131Y454841D01*
X232031Y454882D01*
X231914Y454916D01*
X231781Y454949D01*
X231631Y454982D01*
X231464Y455007D01*
X231281Y455024D01*
X231081Y455032D01*
X230864Y455041D01*
X227165D01*
Y455890D01*
X230872D01*
X230881D01*
X230914D01*
X230964D01*
X231031D01*
X231114Y455882D01*
D02*
G37*
%LPC*%
G36*
X231314Y459506D02*
X228423D01*
X231314Y457490D01*
Y459506D01*
D02*
G37*
%LPD*%
D12*
X500164Y474716D02*
Y583424D01*
X391457Y474716D02*
X500164D01*
X391457D02*
Y583424D01*
X500164D01*
X204326Y421496D02*
X263034D01*
Y480204D01*
X204326D02*
X263034D01*
X204326Y421496D02*
Y480204D01*
X209791Y368169D02*
Y388751D01*
X171209D02*
X209791D01*
X171209Y368169D02*
Y388751D01*
Y368169D02*
X209791D01*
X176739Y391249D02*
X206801D01*
X176739D02*
Y406311D01*
X206801D01*
Y391249D02*
Y406311D01*
X512670Y340790D02*
X556670D01*
X512670D02*
Y362790D01*
X556670D01*
Y340790D02*
Y362790D01*
X512670Y315390D02*
X556670D01*
X512670D02*
Y337390D01*
X556670D01*
Y315390D02*
Y337390D01*
X549462Y371558D02*
X567187D01*
X549462D02*
Y380282D01*
X567187D01*
Y371558D02*
Y380282D01*
X548668Y300438D02*
X566392D01*
X548668D02*
Y309162D01*
X566392D01*
Y300438D02*
Y309162D01*
X429058Y627662D02*
X449782D01*
Y616938D02*
Y627662D01*
X429058Y616938D02*
X449782D01*
X429058D02*
Y627662D01*
X536263Y484418D02*
Y505142D01*
X525538Y484418D02*
X536263D01*
X525538D02*
Y505142D01*
X536263D01*
X282928Y419623D02*
Y440348D01*
X293652D01*
Y419623D02*
Y440348D01*
X282928Y419623D02*
X293652D01*
X282928Y463752D02*
X293652D01*
X282928Y443028D02*
Y463752D01*
Y443028D02*
X293652D01*
Y463752D01*
X251549Y489159D02*
Y519221D01*
X266611D01*
Y489159D02*
Y519221D01*
X251549Y489159D02*
X266611D01*
M02*
