G04*
G04 #@! TF.GenerationSoftware,Altium Limited,Altium Designer,24.4.1 (13)*
G04*
G04 Layer_Color=8388736*
%FSLAX44Y44*%
%MOMM*%
G71*
G04*
G04 #@! TF.SameCoordinates,A3252435-666A-4F3B-8FA1-24D8921DAC19*
G04*
G04*
G04 #@! TF.FilePolarity,Negative*
G04*
G01*
G75*
%ADD37R,0.1925X0.9889*%
G04:AMPARAMS|DCode=38|XSize=0.9889mm|YSize=0.1925mm|CornerRadius=0.0962mm|HoleSize=0mm|Usage=FLASHONLY|Rotation=270.000|XOffset=0mm|YOffset=0mm|HoleType=Round|Shape=RoundedRectangle|*
%AMROUNDEDRECTD38*
21,1,0.9889,0.0000,0,0,270.0*
21,1,0.7964,0.1925,0,0,270.0*
1,1,0.1925,0.0000,-0.3982*
1,1,0.1925,0.0000,0.3982*
1,1,0.1925,0.0000,0.3982*
1,1,0.1925,0.0000,-0.3982*
%
%ADD38ROUNDEDRECTD38*%
G04:AMPARAMS|DCode=39|XSize=0.1925mm|YSize=0.9889mm|CornerRadius=0.0962mm|HoleSize=0mm|Usage=FLASHONLY|Rotation=270.000|XOffset=0mm|YOffset=0mm|HoleType=Round|Shape=RoundedRectangle|*
%AMROUNDEDRECTD39*
21,1,0.1925,0.7964,0,0,270.0*
21,1,0.0000,0.9889,0,0,270.0*
1,1,0.1925,-0.3982,0.0000*
1,1,0.1925,-0.3982,0.0000*
1,1,0.1925,0.3982,0.0000*
1,1,0.1925,0.3982,0.0000*
%
%ADD39ROUNDEDRECTD39*%
G04:AMPARAMS|DCode=46|XSize=0.2425mm|YSize=0.8937mm|CornerRadius=0.1212mm|HoleSize=0mm|Usage=FLASHONLY|Rotation=90.000|XOffset=0mm|YOffset=0mm|HoleType=Round|Shape=RoundedRectangle|*
%AMROUNDEDRECTD46*
21,1,0.2425,0.6512,0,0,90.0*
21,1,0.0000,0.8937,0,0,90.0*
1,1,0.2425,0.3256,0.0000*
1,1,0.2425,0.3256,0.0000*
1,1,0.2425,-0.3256,0.0000*
1,1,0.2425,-0.3256,0.0000*
%
%ADD46ROUNDEDRECTD46*%
G04:AMPARAMS|DCode=47|XSize=0.8937mm|YSize=0.2425mm|CornerRadius=0.1212mm|HoleSize=0mm|Usage=FLASHONLY|Rotation=90.000|XOffset=0mm|YOffset=0mm|HoleType=Round|Shape=RoundedRectangle|*
%AMROUNDEDRECTD47*
21,1,0.8937,0.0000,0,0,90.0*
21,1,0.6512,0.2425,0,0,90.0*
1,1,0.2425,0.0000,0.3256*
1,1,0.2425,0.0000,-0.3256*
1,1,0.2425,0.0000,-0.3256*
1,1,0.2425,0.0000,0.3256*
%
%ADD47ROUNDEDRECTD47*%
%ADD48R,0.2425X0.8937*%
%ADD57R,1.3061X1.0582*%
%ADD58R,1.1051X1.0062*%
%ADD60R,1.3000X1.4000*%
%ADD61R,0.6153X0.5725*%
%ADD62R,0.7154X0.6725*%
%ADD63R,0.6725X0.7154*%
%ADD65R,0.6725X0.7653*%
%ADD67R,1.0062X1.1051*%
%ADD73R,1.1332X1.1832*%
%ADD74R,0.8032X0.9532*%
%ADD75R,1.1532X1.1032*%
%ADD76R,0.9232X0.9632*%
%ADD77R,1.1832X1.1332*%
%ADD78R,0.9532X0.5032*%
%ADD79R,1.9532X2.1032*%
%ADD80R,0.8232X0.8032*%
%ADD81R,1.2032X1.0532*%
%ADD82R,0.9032X1.4032*%
%ADD83R,1.2032X1.4032*%
%ADD84R,1.2032X1.0032*%
%ADD85R,1.2032X3.0032*%
%ADD86R,1.5032X2.1032*%
%ADD87R,4.8000X4.8000*%
%ADD88R,1.3532X1.6032*%
%ADD89R,0.7032X0.6032*%
%ADD90R,0.7032X0.5032*%
%ADD91R,0.8032X1.3532*%
%ADD92R,0.5032X1.3532*%
%ADD93R,1.7032X1.7032*%
%ADD94R,2.5500X2.5500*%
%ADD95R,0.9632X0.9232*%
%ADD96R,0.7032X0.6782*%
%ADD97R,1.1032X0.8532*%
%ADD98R,1.1532X1.2032*%
%ADD99R,0.9532X0.8032*%
%ADD100R,1.1032X1.6032*%
%ADD101R,1.3032X1.6032*%
%ADD102R,1.1432X0.9332*%
%ADD103R,1.1532X1.0032*%
%ADD104R,0.6782X0.7032*%
%ADD105R,1.4032X1.6032*%
%ADD106R,1.0032X1.1532*%
%ADD107R,1.6032X1.1032*%
%ADD108R,1.6032X1.3032*%
%ADD109R,0.9032X0.8132*%
%ADD110R,0.8132X0.9032*%
%ADD111C,2.8282*%
%ADD112C,1.5032*%
%ADD113R,1.5032X1.5032*%
%ADD114R,1.7272X1.7272*%
%ADD115C,1.7272*%
%ADD116C,0.5282*%
%ADD117C,2.6032*%
%ADD118C,3.4532*%
%ADD119C,1.7232*%
%ADD120C,1.5932*%
%ADD121C,2.7432*%
%ADD122C,1.8532*%
%ADD123R,1.8532X1.8532*%
%ADD124C,0.8032*%
%ADD125C,1.2032*%
D37*
X483311Y573479D02*
D03*
D38*
X478311D02*
D03*
X473311D02*
D03*
X468311D02*
D03*
X463311D02*
D03*
X458311D02*
D03*
X453311D02*
D03*
X448311D02*
D03*
X443311D02*
D03*
X438311D02*
D03*
X433311D02*
D03*
X428311D02*
D03*
X423311D02*
D03*
X418311D02*
D03*
X413311D02*
D03*
X408311D02*
D03*
Y484661D02*
D03*
X413311D02*
D03*
X418311D02*
D03*
X423311D02*
D03*
X428311D02*
D03*
X433311D02*
D03*
X438311D02*
D03*
X443311D02*
D03*
X448311D02*
D03*
X453311D02*
D03*
X458311D02*
D03*
X463311D02*
D03*
X468311D02*
D03*
X478311D02*
D03*
X483311D02*
D03*
X473311D02*
D03*
D39*
X401401Y566570D02*
D03*
Y561570D02*
D03*
Y556570D02*
D03*
Y551570D02*
D03*
Y546570D02*
D03*
Y541570D02*
D03*
Y536570D02*
D03*
Y531570D02*
D03*
Y526570D02*
D03*
Y521570D02*
D03*
Y516570D02*
D03*
Y511570D02*
D03*
Y506570D02*
D03*
Y501570D02*
D03*
Y496570D02*
D03*
Y491570D02*
D03*
X490220D02*
D03*
Y496570D02*
D03*
Y501570D02*
D03*
Y506570D02*
D03*
Y511570D02*
D03*
Y516570D02*
D03*
Y521570D02*
D03*
Y526570D02*
D03*
Y531570D02*
D03*
Y536570D02*
D03*
Y541570D02*
D03*
Y546570D02*
D03*
Y551570D02*
D03*
Y556570D02*
D03*
Y561570D02*
D03*
Y566570D02*
D03*
D46*
X213795Y438350D02*
D03*
Y443350D02*
D03*
Y448350D02*
D03*
Y453350D02*
D03*
Y458350D02*
D03*
Y463350D02*
D03*
X253565D02*
D03*
Y458350D02*
D03*
Y453350D02*
D03*
Y448350D02*
D03*
Y443350D02*
D03*
Y438350D02*
D03*
D47*
X221180Y470735D02*
D03*
X226180D02*
D03*
X231180D02*
D03*
X236180D02*
D03*
X241180D02*
D03*
X246180D02*
D03*
Y430965D02*
D03*
X241180D02*
D03*
X236180D02*
D03*
X231180D02*
D03*
X226180D02*
D03*
D48*
X221180D02*
D03*
D57*
X182739Y378460D02*
D03*
X198261D02*
D03*
D58*
X198776Y398780D02*
D03*
X184764D02*
D03*
D60*
X549170Y351790D02*
D03*
X520170D02*
D03*
X549170Y326390D02*
D03*
X520170D02*
D03*
D61*
X562610Y375920D02*
D03*
X554039D02*
D03*
X561816Y304800D02*
D03*
X553244D02*
D03*
D62*
X434634Y622300D02*
D03*
X444206D02*
D03*
D63*
X530901Y499566D02*
D03*
Y489994D02*
D03*
D65*
X288290Y425450D02*
D03*
Y434521D02*
D03*
Y448854D02*
D03*
Y457926D02*
D03*
D67*
X259080Y497184D02*
D03*
Y511196D02*
D03*
D73*
X76050Y331470D02*
D03*
X89050D02*
D03*
X445620Y605790D02*
D03*
X458620D02*
D03*
D74*
X596900Y590730D02*
D03*
Y579730D02*
D03*
D75*
X577850Y592850D02*
D03*
Y577850D02*
D03*
D76*
X499350Y684470D02*
D03*
Y674670D02*
D03*
X471170Y652600D02*
D03*
Y642800D02*
D03*
X378460Y549730D02*
D03*
X176530Y415470D02*
D03*
Y425270D02*
D03*
X149860Y425270D02*
D03*
Y415470D02*
D03*
X510540Y515800D02*
D03*
Y525600D02*
D03*
X546141Y491150D02*
D03*
Y500950D02*
D03*
X261620Y385720D02*
D03*
Y375920D02*
D03*
X247650D02*
D03*
Y385720D02*
D03*
X242570Y494210D02*
D03*
Y504010D02*
D03*
D77*
X512050Y673220D02*
D03*
Y686220D02*
D03*
X483870Y654200D02*
D03*
Y641200D02*
D03*
X364490Y552600D02*
D03*
Y539600D02*
D03*
X523240Y514200D02*
D03*
Y527200D02*
D03*
D78*
X487219Y669576D02*
D03*
Y674576D02*
D03*
Y679576D02*
D03*
Y684576D02*
D03*
X457219D02*
D03*
Y679576D02*
D03*
Y674576D02*
D03*
Y669576D02*
D03*
D79*
X472219Y677076D02*
D03*
D80*
X446666Y687870D02*
D03*
Y678670D02*
D03*
X509270Y461490D02*
D03*
Y470690D02*
D03*
Y419580D02*
D03*
Y428780D02*
D03*
D81*
X457200Y653930D02*
D03*
Y638930D02*
D03*
X91440Y377190D02*
D03*
Y392190D02*
D03*
X142240Y350400D02*
D03*
Y335400D02*
D03*
X574040Y204350D02*
D03*
Y189350D02*
D03*
X379730Y183120D02*
D03*
Y198120D02*
D03*
X349250Y198000D02*
D03*
Y183000D02*
D03*
X417830Y206890D02*
D03*
Y191890D02*
D03*
D82*
X102680Y312880D02*
D03*
X91680D02*
D03*
X80680D02*
D03*
X69680D02*
D03*
X58680D02*
D03*
X47680D02*
D03*
X36680D02*
D03*
X25680D02*
D03*
X16180D02*
D03*
D83*
X118180D02*
D03*
X6680Y269880D02*
D03*
D84*
Y207890D02*
D03*
D85*
Y166390D02*
D03*
D86*
X141680Y161880D02*
D03*
D87*
X445811Y529070D02*
D03*
D88*
X540820Y439850D02*
D03*
Y461850D02*
D03*
X524810D02*
D03*
Y439850D02*
D03*
D89*
X268130Y598010D02*
D03*
Y583010D02*
D03*
X278130D02*
D03*
Y598010D02*
D03*
D90*
X268130Y593010D02*
D03*
Y588010D02*
D03*
X278130D02*
D03*
Y593010D02*
D03*
D91*
X464570Y228210D02*
D03*
X472570D02*
D03*
X520570D02*
D03*
X528570D02*
D03*
D92*
X484070D02*
D03*
X499070D02*
D03*
X509070D02*
D03*
X514070D02*
D03*
X489070D02*
D03*
X479070D02*
D03*
X494070D02*
D03*
X504070D02*
D03*
D93*
X445370Y222460D02*
D03*
X547770D02*
D03*
X445370Y183160D02*
D03*
X547770D02*
D03*
D94*
X233680Y450850D02*
D03*
D95*
X77650Y344170D02*
D03*
X87450D02*
D03*
X378460Y539930D02*
D03*
X199390Y415290D02*
D03*
X189590D02*
D03*
X401320Y466090D02*
D03*
X391520D02*
D03*
X490081Y466840D02*
D03*
X480281D02*
D03*
X447220Y591820D02*
D03*
X457020Y591820D02*
D03*
D96*
X118110Y340320D02*
D03*
Y350560D02*
D03*
X105410Y340320D02*
D03*
Y350560D02*
D03*
X419100Y455975D02*
D03*
Y445725D02*
D03*
X434340D02*
D03*
Y455975D02*
D03*
X35560Y341670D02*
D03*
Y331430D02*
D03*
X22860Y342940D02*
D03*
Y332700D02*
D03*
X138430Y425490D02*
D03*
Y415250D02*
D03*
X203200Y502920D02*
D03*
Y513160D02*
D03*
D97*
X273050Y453390D02*
D03*
Y467890D02*
D03*
X599440Y227700D02*
D03*
Y242200D02*
D03*
D98*
X301880Y377190D02*
D03*
X317880D02*
D03*
D99*
X304380Y393700D02*
D03*
X315380D02*
D03*
D100*
X507340Y255700D02*
D03*
X488340Y277700D02*
D03*
Y255700D02*
D03*
X611530Y482170D02*
D03*
Y460170D02*
D03*
X630530D02*
D03*
D101*
X505340Y277700D02*
D03*
X628530Y482170D02*
D03*
D102*
X163830Y412000D02*
D03*
Y426200D02*
D03*
D103*
X562610Y407160D02*
D03*
Y391160D02*
D03*
X561340Y273940D02*
D03*
Y289940D02*
D03*
X599440Y195200D02*
D03*
Y211200D02*
D03*
D104*
X161210Y459740D02*
D03*
X171450D02*
D03*
X369525Y485140D02*
D03*
X379775D02*
D03*
X238720Y525780D02*
D03*
X248960D02*
D03*
X370795Y510540D02*
D03*
X381045D02*
D03*
X370795Y497840D02*
D03*
X381045D02*
D03*
X301030Y474980D02*
D03*
X290790D02*
D03*
X205660Y529630D02*
D03*
X215900D02*
D03*
D105*
X328040Y424610D02*
D03*
Y446610D02*
D03*
X312040D02*
D03*
Y424610D02*
D03*
D106*
X337820Y629920D02*
D03*
X321820D02*
D03*
D107*
X635840Y559410D02*
D03*
Y540410D02*
D03*
X613840D02*
D03*
D108*
Y557410D02*
D03*
D109*
X588430Y165100D02*
D03*
X577430D02*
D03*
D110*
X621030Y430110D02*
D03*
Y441110D02*
D03*
D111*
X540980Y649170D02*
D03*
X622980Y649170D02*
D03*
D112*
X561980Y636670D02*
D03*
X581980D02*
D03*
X601980D02*
D03*
X561980Y661670D02*
D03*
X581980D02*
D03*
D113*
X601980D02*
D03*
D114*
X588010Y312420D02*
D03*
X55880Y340360D02*
D03*
X24953Y443228D02*
D03*
X621030Y403860D02*
D03*
D115*
X588010Y337820D02*
D03*
Y363220D02*
D03*
Y388620D02*
D03*
Y414020D02*
D03*
Y439420D02*
D03*
Y464820D02*
D03*
Y490220D02*
D03*
Y515620D02*
D03*
X55880Y365760D02*
D03*
Y391160D02*
D03*
Y416560D02*
D03*
Y441960D02*
D03*
Y467360D02*
D03*
Y492760D02*
D03*
Y518160D02*
D03*
Y543560D02*
D03*
X24953Y468628D02*
D03*
Y494028D02*
D03*
Y519428D02*
D03*
Y544828D02*
D03*
Y570228D02*
D03*
Y595628D02*
D03*
Y621028D02*
D03*
Y646428D02*
D03*
X621030Y200660D02*
D03*
Y226060D02*
D03*
Y251460D02*
D03*
Y276860D02*
D03*
Y302260D02*
D03*
Y327660D02*
D03*
Y353060D02*
D03*
Y378460D02*
D03*
D116*
X467670Y217460D02*
D03*
X525470D02*
D03*
D117*
X324046Y290165D02*
D03*
X169146D02*
D03*
D118*
X303746Y259665D02*
D03*
X189446D02*
D03*
D119*
X312896Y219065D02*
D03*
X287496D02*
D03*
X205696D02*
D03*
X180296D02*
D03*
D120*
X291046Y348565D02*
D03*
X278346Y323165D02*
D03*
X265646Y348565D02*
D03*
X252946Y323165D02*
D03*
X240246Y348565D02*
D03*
X227546Y323165D02*
D03*
X214846Y348565D02*
D03*
X202146Y323165D02*
D03*
D121*
X15240Y683260D02*
D03*
X628650Y165100D02*
D03*
X586740Y275590D02*
D03*
D122*
X425010Y651510D02*
D03*
X399610D02*
D03*
X374210D02*
D03*
X348810D02*
D03*
X323410D02*
D03*
X298010D02*
D03*
X272610D02*
D03*
X463550Y359410D02*
D03*
X438150D02*
D03*
D123*
X247210Y651510D02*
D03*
X412750Y359410D02*
D03*
D124*
X474980Y671830D02*
D03*
X468630Y679450D02*
D03*
X562610Y589280D02*
D03*
X610870Y578880D02*
D03*
X497840Y637540D02*
D03*
X435610Y687070D02*
D03*
X496570Y654050D02*
D03*
X525780Y688340D02*
D03*
X584200Y535940D02*
D03*
X513080Y589280D02*
D03*
X506730Y601980D02*
D03*
X104140Y298450D02*
D03*
X90170Y293370D02*
D03*
X36830D02*
D03*
X114300Y325120D02*
D03*
X71120Y298450D02*
D03*
X21590Y243840D02*
D03*
X13970Y374650D02*
D03*
X21590Y294640D02*
D03*
X530860Y370840D02*
D03*
X544830Y518160D02*
D03*
X534670Y521970D02*
D03*
X567690Y478790D02*
D03*
X554630Y515260D02*
D03*
X570230Y457200D02*
D03*
X558391Y502618D02*
D03*
X532166Y552486D02*
D03*
X525780Y561340D02*
D03*
X509270Y486410D02*
D03*
X557340Y490220D02*
D03*
X556260Y462280D02*
D03*
X535940Y510540D02*
D03*
X547370Y389890D02*
D03*
X518160Y408940D02*
D03*
X463550Y541020D02*
D03*
Y529590D02*
D03*
X487680Y454660D02*
D03*
X537210Y412750D02*
D03*
X356870Y466090D02*
D03*
X231140Y407670D02*
D03*
X241300Y444500D02*
D03*
X233736Y444556D02*
D03*
X309880Y631110D02*
D03*
X480060Y440690D02*
D03*
X281940Y480060D02*
D03*
X427990Y433070D02*
D03*
X412750D02*
D03*
X195580Y463550D02*
D03*
Y473710D02*
D03*
X219710Y407670D02*
D03*
X448310Y381000D02*
D03*
X427990Y387350D02*
D03*
X601980Y257810D02*
D03*
X629920Y499110D02*
D03*
X416560Y177800D02*
D03*
X455930Y238760D02*
D03*
X535940Y237490D02*
D03*
X563880Y177800D02*
D03*
X360680Y492760D02*
D03*
X289560Y488950D02*
D03*
X196070Y451464D02*
D03*
X345440Y443230D02*
D03*
X382270Y466090D02*
D03*
X88900Y358140D02*
D03*
X19050Y279400D02*
D03*
X50800Y298450D02*
D03*
X24130Y162560D02*
D03*
X139700Y181610D02*
D03*
X579120Y256540D02*
D03*
X543560Y293370D02*
D03*
X572770Y226060D02*
D03*
X518160Y369570D02*
D03*
X449580Y269240D02*
D03*
X276860Y419100D02*
D03*
X334010Y377190D02*
D03*
X314960Y411480D02*
D03*
X452120Y511810D02*
D03*
X439420Y518160D02*
D03*
X430530Y530860D02*
D03*
X449580Y541020D02*
D03*
X341630Y544830D02*
D03*
X364490Y199390D02*
D03*
X78740Y354330D02*
D03*
X24130Y355600D02*
D03*
X158750Y373380D02*
D03*
X168910Y401320D02*
D03*
X153670D02*
D03*
X139700D02*
D03*
X161290Y472440D02*
D03*
X182880Y488950D02*
D03*
X189230Y520700D02*
D03*
X176530Y515620D02*
D03*
X193040Y533400D02*
D03*
X261620Y527050D02*
D03*
X242570Y515620D02*
D03*
X276860Y511810D02*
D03*
X353060Y551180D02*
D03*
X224790Y519430D02*
D03*
X226060Y505460D02*
D03*
X369570Y468630D02*
D03*
X424180Y633730D02*
D03*
X401320Y457200D02*
D03*
X547370Y198120D02*
D03*
X445770Y167640D02*
D03*
X419100Y220980D02*
D03*
X505460Y209550D02*
D03*
X482600D02*
D03*
X589280Y220980D02*
D03*
X391160Y513080D02*
D03*
X314960Y474980D02*
D03*
X336550Y477520D02*
D03*
X342900Y516890D02*
D03*
X99060Y443230D02*
D03*
X229870Y535940D02*
D03*
X99060Y408940D02*
D03*
X91440Y427990D02*
D03*
X106680Y396680D02*
D03*
Y361950D02*
D03*
X119380D02*
D03*
X185420Y445770D02*
D03*
X138430Y439420D02*
D03*
X416560Y471170D02*
D03*
X398780Y445770D02*
D03*
X375920Y452120D02*
D03*
X302731Y493950D02*
D03*
X452120Y411480D02*
D03*
X198120Y487680D02*
D03*
X309880Y500380D02*
D03*
X300990Y515620D02*
D03*
D125*
X626110Y518160D02*
D03*
M02*
